<svg width="34" height="34" viewBox="0 0 34 34" fill="none" xmlns="http://www.w3.org/2000/svg">
<g clip-path="url(#clip0)">
<path d="M28.9021 4.94285C27.3434 3.36967 25.4871 2.12244 23.4415 1.27384C21.3959 0.425245 19.2019 -0.00774408 16.9872 0.000104827C7.70737 0.000104827 0.1445 7.56085 0.136 16.8429C0.136 19.8157 0.91375 22.7079 2.38213 25.2685L0 34.0001L8.9335 31.6584C11.4049 33.0033 14.1736 33.7083 16.9872 33.709H16.9958C26.2778 33.709 33.8385 26.1482 33.847 16.8577C33.8491 14.6436 33.4131 12.4509 32.5641 10.406C31.715 8.36107 30.4698 6.50437 28.9 4.94285H28.9021ZM16.9872 30.8572C14.4776 30.8581 12.0141 30.1827 9.85575 28.9022L9.34575 28.5962L4.046 29.986L5.46125 24.8159L5.12975 24.2825C3.72684 22.0519 2.98487 19.4694 2.98987 16.8344C2.98987 9.1291 9.2735 2.84335 16.9958 2.84335C18.8354 2.84005 20.6576 3.20094 22.3572 3.9052C24.0567 4.60946 25.6001 5.64317 26.8983 6.94673C28.2009 8.24521 29.2337 9.78876 29.9368 11.4883C30.64 13.1879 30.9997 15.0099 30.9953 16.8492C30.9868 24.5821 24.7031 30.8572 16.9872 30.8572ZM24.6691 20.3725C24.2505 20.1621 22.1829 19.1442 21.794 18.9997C21.4072 18.8616 21.1246 18.7894 20.8484 19.2101C20.5658 19.6287 19.7582 20.5829 19.516 20.857C19.2738 21.1396 19.023 21.1715 18.6022 20.9632C18.1836 20.7507 16.8258 20.3087 15.2193 18.8701C13.9655 17.7545 13.1261 16.3732 12.8754 15.9546C12.6331 15.5339 12.852 15.3086 13.0624 15.0982C13.2472 14.9112 13.481 14.6052 13.6914 14.363C13.9039 14.1207 13.974 13.9422 14.1121 13.6617C14.2502 13.377 14.1844 13.1347 14.0802 12.9244C13.974 12.714 13.1346 10.6379 12.7797 9.8006C12.4397 8.97398 12.0934 9.08873 11.8341 9.0781C11.5919 9.06323 11.3092 9.06323 11.0266 9.06323C10.8132 9.06853 10.6032 9.1179 10.4097 9.20822C10.2163 9.29854 10.0436 9.42788 9.9025 9.5881C9.51575 10.0089 8.43412 11.0267 8.43412 13.1029C8.43412 15.179 9.94287 17.1744 10.1554 17.457C10.3636 17.7396 13.1176 21.9875 17.3442 23.815C18.343 24.2506 19.1293 24.5077 19.7434 24.7032C20.7528 25.0262 21.6644 24.9774 22.3911 24.8732C23.1986 24.75 24.8795 23.8532 25.2344 22.8694C25.5829 21.8834 25.5829 21.0419 25.4766 20.8655C25.3725 20.687 25.0899 20.5829 24.6691 20.3725Z" fill="white"/>
</g>
<defs>
<clipPath id="clip0">
<rect width="34" height="34" fill="white"/>
</clipPath>
</defs>
</svg>
