<svg width="796" height="433" viewBox="0 0 796 433" fill="none" xmlns="http://www.w3.org/2000/svg">
<g clip-path="url(#clip0)">
<path d="M782.931 158.622C782.931 158.622 767.2 75.4363 678.863 28.9396C590.526 -17.557 482.828 -5.32743 438.054 46.1337C393.281 97.4738 396.911 188.045 349.717 185.624C302.524 183.202 284.372 118.3 219.027 159.954C153.682 201.607 187.565 257.79 182.724 293.389C177.884 328.867 122.22 273.774 77.446 288.546C32.6725 303.197 12.1009 344.85 16.9413 369.31C21.7817 393.769 0 424.403 0 424.403H790.192C790.192 424.161 802.293 265.177 782.931 158.622Z" fill="#E9EAEB"/>
<path d="M102.011 292.057C105.52 293.631 114.233 293.389 114.233 293.389C114.354 293.389 112.418 287.698 112.176 287.335C110.24 283.339 104.31 276.8 99.3488 277.406C95.8395 277.89 93.9034 281.402 94.6294 284.792C95.5975 288.303 98.9858 290.846 102.011 292.057Z" fill="#007CDC"/>
<path d="M105.036 317.243C108.667 317.727 116.411 315.548 117.016 315.305C118.226 319.664 119.799 324.023 121.736 328.261C122.825 330.683 123.914 333.226 125.124 335.648C124.398 334.558 123.793 333.71 123.672 333.589C120.767 330.199 113.265 325.477 108.667 327.414C105.399 328.746 104.431 332.742 106.125 335.769C107.819 338.796 111.813 340.37 115.08 340.854C118.347 341.339 125.003 339.522 126.818 339.038C127.302 340.007 127.786 340.854 128.149 341.823C130.448 346.303 132.626 350.783 134.684 355.142C135.41 356.716 136.136 358.291 136.741 359.865C136.136 358.896 135.531 358.169 135.531 358.048C132.626 354.658 125.124 349.936 120.525 351.873C117.258 353.205 116.29 357.201 117.984 360.228C119.678 363.255 123.672 364.829 126.939 365.313C130.085 365.798 136.257 364.224 138.314 363.618C138.919 365.192 139.645 366.888 140.129 368.462C140.492 369.551 140.855 370.641 141.218 371.731C141.581 372.821 141.823 373.911 142.186 375C142.67 377.059 143.275 379.238 143.638 381.297C144.001 382.75 144.243 384.082 144.485 385.535C143.759 383.961 142.307 380.933 142.186 380.691C139.887 376.938 133.11 371.126 128.27 372.336C124.882 373.184 123.309 376.938 124.398 380.207C125.608 383.476 129.359 385.535 132.505 386.503C136.015 387.593 143.638 386.624 144.606 386.503C145.09 388.804 145.453 390.984 145.816 393.163C146.664 397.885 147.269 402.002 147.753 405.514H151.02C150.415 401.881 149.689 397.522 148.721 392.558C148.237 390.257 147.753 387.714 147.148 385.171C147.753 384.929 151.02 383.597 153.924 382.023C156.465 384.808 162.879 387.956 163.726 388.32C162.879 390.499 161.911 392.558 161.064 394.616C159.248 398.733 157.554 402.365 156.102 405.514H159.612C160.943 402.608 162.274 399.338 163.847 395.706C164.694 393.526 165.662 391.105 166.63 388.683C167.598 388.925 175.101 390.378 178.731 389.652C181.998 388.925 185.871 387.109 187.323 383.961C188.775 380.812 187.444 377.059 184.055 375.848C179.336 374.274 172.196 379.602 169.655 383.113C169.534 383.355 168.082 385.777 167.235 387.351C167.598 386.382 167.961 385.414 168.324 384.324C169.05 382.265 169.776 380.207 170.502 378.027C170.865 376.938 171.107 375.848 171.47 374.758C171.833 373.668 172.075 372.458 172.317 371.368C172.923 368.704 173.528 365.919 173.891 363.134C175.706 363.739 181.998 366.04 185.387 365.798C188.654 365.556 192.768 364.345 194.704 361.439C196.519 358.533 195.914 354.537 192.768 352.963C188.412 350.662 180.546 354.9 177.4 357.927C177.158 358.169 175.222 360.591 174.133 362.044C174.375 360.349 174.617 358.654 174.859 356.959C175.464 352.115 175.948 347.03 176.432 342.065C176.553 340.491 176.795 339.038 176.916 337.464C177.521 337.706 185.023 340.491 188.775 340.249C192.042 340.007 196.156 338.796 198.093 335.89C199.908 332.984 199.303 328.988 196.156 327.414C191.8 325.113 183.934 329.351 180.788 332.378C180.546 332.621 177.642 336.253 177.037 337.101C177.4 333.71 177.763 330.441 178.247 327.172C178.973 322.692 179.82 318.332 181.151 314.095C181.393 314.216 189.259 317.122 193.01 316.879C196.277 316.637 200.392 315.426 202.328 312.52C204.143 309.614 203.538 305.619 200.392 304.044C196.035 301.744 188.17 305.982 185.023 309.009C184.781 309.251 181.756 313.126 181.151 313.852C181.272 313.61 181.272 313.368 181.393 313.126C182.724 308.646 184.66 304.529 186.597 300.775C187.686 298.596 188.896 296.537 190.106 294.6C191.558 295.326 197.972 298.475 201.36 298.596C204.627 298.717 208.862 297.99 211.041 295.326C213.219 292.662 212.977 288.667 210.072 286.729C205.958 283.944 197.729 287.335 194.22 289.999C193.978 290.12 192.284 291.936 191.074 293.147C191.679 292.299 192.163 291.331 192.768 290.483C194.825 287.335 196.882 284.671 198.819 282.249C199.908 280.917 200.876 279.706 201.844 278.617C203.538 278.617 210.556 278.374 213.582 276.921C216.607 275.468 219.995 272.926 220.721 269.535C221.447 266.145 219.39 262.754 215.881 262.391C210.92 261.907 205.111 268.567 203.296 272.683C203.175 273.047 201.36 278.738 201.481 278.738H201.602C200.634 279.827 199.666 280.917 198.698 282.249C196.761 284.55 194.583 287.335 192.526 290.362C190.348 293.389 188.17 296.779 186.113 300.654C184.055 304.408 182.119 308.525 180.667 313.005V313.126C180.667 311.673 180.667 307.677 180.546 307.314C179.941 302.955 176.311 294.842 171.47 293.873C167.961 293.268 165.057 295.932 164.694 299.322C164.452 302.834 166.872 306.224 169.413 308.525C172.196 310.946 179.82 313.368 180.425 313.61C179.094 317.848 178.005 322.449 177.158 327.051C176.674 329.714 176.311 332.378 175.948 335.042C175.948 333.831 175.948 332.621 175.827 332.499C175.222 328.14 171.591 320.028 166.751 319.059C163.242 318.454 160.338 321.117 159.975 324.508C159.733 328.019 162.153 331.41 164.694 333.71C167.235 335.89 173.649 338.069 175.464 338.675C175.343 339.765 175.222 340.733 175.101 341.823C174.496 346.787 173.891 351.752 173.286 356.595C173.044 358.291 172.681 359.986 172.439 361.681C172.439 360.591 172.439 359.622 172.439 359.501C171.833 355.142 168.203 347.03 163.363 346.061C159.854 345.456 156.949 348.119 156.586 351.51C156.344 355.021 158.764 358.412 161.306 360.712C163.726 362.892 169.655 364.95 171.712 365.556C171.349 367.251 170.986 368.946 170.623 370.641C170.26 371.731 170.139 372.821 169.655 373.91C169.292 375 168.929 376.09 168.566 377.18C167.84 379.238 167.114 381.297 166.267 383.355C165.783 384.687 165.178 386.019 164.694 387.351C164.936 385.656 165.42 382.386 165.42 382.023C165.541 379.117 164.452 374.274 162.395 371.004C162.395 370.52 162.395 370.157 162.274 369.673C161.79 366.282 158.522 363.739 155.134 364.708C150.415 365.919 147.39 374.395 147.148 378.754C147.148 378.996 147.269 381.902 147.39 383.597C147.148 382.508 146.906 381.539 146.664 380.449C146.179 378.391 145.574 376.211 144.969 374.032C144.606 372.942 144.364 371.852 144.001 370.762C143.638 369.673 143.275 368.583 142.791 367.372C141.823 364.829 140.734 362.165 139.645 359.622C141.46 359.138 147.995 357.564 150.657 355.506C153.319 353.447 155.981 350.178 155.981 346.787C155.981 343.397 153.198 340.37 149.689 340.854C144.727 341.339 140.492 349.209 139.645 353.568C139.645 353.81 139.282 356.959 139.161 358.775C138.435 357.201 137.709 355.748 136.983 354.174C134.805 349.694 132.384 345.334 130.085 340.975C129.359 339.643 128.633 338.312 128.028 336.98C128.633 336.858 136.499 335.042 139.403 332.742C142.065 330.683 144.727 327.414 144.727 324.023C144.727 320.633 141.944 317.606 138.435 318.09C133.473 318.575 129.238 326.445 128.391 330.804C128.27 331.168 127.907 335.648 127.907 336.859C126.334 333.831 124.882 330.925 123.43 327.898C121.494 323.781 119.92 319.543 118.589 315.426C118.952 315.305 127.06 313.489 130.085 311.188C132.747 309.13 135.41 305.861 135.41 302.47C135.41 299.08 132.626 296.053 129.117 296.537C124.156 297.022 119.92 304.892 119.073 309.251C118.952 309.614 118.589 314.458 118.589 315.426C118.468 315.184 118.347 314.942 118.347 314.7C117.016 310.22 116.29 305.74 115.806 301.502C115.564 299.08 115.443 296.658 115.322 294.358C116.895 294.115 124.035 293.268 126.939 291.452C129.722 289.756 132.868 286.729 133.231 283.339C133.594 279.949 131.174 276.679 127.665 276.679C122.704 276.679 117.621 283.944 116.29 288.182C116.169 288.424 115.685 290.846 115.443 292.541C115.443 291.452 115.443 290.483 115.443 289.393C115.443 285.64 115.685 282.249 115.927 279.222C116.048 277.527 116.29 275.953 116.411 274.5C117.863 273.531 123.551 269.535 125.366 266.629C127.06 263.844 128.512 259.727 127.181 256.458C125.971 253.31 122.341 251.494 119.194 253.189C114.838 255.489 113.628 264.329 114.354 268.688C114.475 269.051 116.048 274.863 116.169 274.742H116.29C116.048 276.195 115.927 277.648 115.685 279.222C115.443 282.249 115.08 285.64 114.959 289.393C114.838 293.147 114.838 297.264 115.201 301.502C115.564 305.861 116.169 310.341 117.5 314.821V314.942C116.774 313.731 114.475 310.341 114.233 310.099C111.329 306.708 103.826 301.986 99.2278 303.923C95.9606 305.255 94.9925 309.251 96.6866 312.278C97.7757 315.184 101.769 316.758 105.036 317.243Z" fill="#007CDC"/>
<path d="M189.743 293.994C189.864 293.994 191.316 288.182 191.316 287.819C191.921 283.46 190.59 274.621 186.113 272.441C182.966 270.867 179.336 272.804 178.126 275.953C176.916 279.222 178.489 283.218 180.183 286.003C182.361 289.393 189.743 293.994 189.743 293.994Z" fill="#007CDC"/>
<path d="M725.089 356.474C727.267 357.443 732.349 357.322 732.349 357.322C732.349 357.322 731.26 353.931 731.139 353.689C730.05 351.268 726.42 347.393 723.516 347.756C721.458 347.998 720.248 350.178 720.732 352.115C721.216 354.174 723.274 355.627 725.089 356.474Z" fill="#007CDC"/>
<path d="M726.904 371.489C729.082 371.852 733.681 370.52 734.044 370.399C734.77 372.942 735.738 375.606 736.827 378.148C737.432 379.601 738.158 381.055 738.884 382.508C738.521 381.902 738.037 381.297 738.037 381.297C736.343 379.359 731.865 376.453 729.082 377.664C727.146 378.512 726.541 380.812 727.509 382.629C728.477 384.445 730.897 385.414 732.833 385.656C734.77 385.898 738.763 384.929 739.852 384.566C740.094 385.171 740.457 385.656 740.699 386.261C742.03 388.925 743.361 391.589 744.571 394.253C745.055 395.221 745.418 396.069 745.781 397.038C745.418 396.432 745.055 396.069 745.055 395.948C743.361 394.011 738.884 391.105 736.101 392.315C734.165 393.163 733.56 395.464 734.528 397.28C735.496 399.096 737.916 400.065 739.852 400.307C741.788 400.549 745.418 399.581 746.629 399.338C746.992 400.307 747.355 401.276 747.718 402.244C747.96 402.85 748.202 403.576 748.323 404.182C748.565 404.787 748.686 405.514 748.928 406.119C749.291 407.33 749.533 408.662 749.775 409.873C750.017 410.72 750.138 411.568 750.259 412.416C749.775 411.447 748.928 409.631 748.928 409.51C747.476 407.33 743.482 403.819 740.699 404.545C738.642 405.029 737.674 407.33 738.4 409.267C739.126 411.205 741.304 412.537 743.24 413.021C745.297 413.626 749.896 413.021 750.501 413.021C750.743 414.353 750.985 415.685 751.227 417.017C751.711 419.802 752.074 422.345 752.316 424.403H754.252C753.889 422.223 753.526 419.56 752.921 416.654C752.679 415.201 752.316 413.747 751.953 412.294C752.316 412.173 754.252 411.326 755.946 410.357C757.398 412.052 761.271 413.869 761.876 414.111C761.392 415.443 760.787 416.654 760.303 417.864C759.213 420.286 758.245 422.466 757.277 424.403H759.335C760.061 422.708 760.908 420.77 761.876 418.591C762.36 417.259 762.965 415.806 763.57 414.353C764.175 414.474 768.652 415.443 770.83 414.958C772.767 414.474 775.066 413.384 775.913 411.568C776.76 409.752 776.034 407.451 773.977 406.725C771.193 405.756 766.958 408.904 765.385 411.084C765.264 411.205 764.417 412.658 763.933 413.626C764.175 413.021 764.417 412.416 764.659 411.81C765.143 410.599 765.506 409.388 765.99 408.056C766.232 407.451 766.353 406.725 766.595 406.119C766.837 405.514 766.958 404.787 767.079 404.061C767.442 402.487 767.805 400.791 768.047 399.217C769.136 399.581 772.888 400.912 774.945 400.791C776.881 400.67 779.422 399.944 780.511 398.127C781.6 396.432 781.237 394.011 779.301 393.042C776.639 391.71 771.92 394.132 770.104 396.069C769.983 396.19 768.773 397.643 768.168 398.491C768.289 397.522 768.531 396.553 768.652 395.464C769.015 392.558 769.257 389.53 769.62 386.624C769.741 385.656 769.862 384.808 769.862 383.961C770.225 384.082 774.703 385.777 777.002 385.656C778.938 385.535 781.479 384.808 782.568 382.992C783.657 381.297 783.294 378.875 781.358 377.906C778.696 376.574 773.977 378.996 772.161 380.933C772.04 381.055 770.346 383.234 769.862 383.839C770.104 381.902 770.346 379.844 770.588 377.906C770.951 375.242 771.556 372.579 772.283 370.157C772.404 370.278 777.123 371.973 779.422 371.852C781.358 371.731 783.899 371.004 784.989 369.188C786.078 367.493 785.715 365.071 783.778 364.103C781.116 362.771 776.397 365.192 774.582 367.13C774.461 367.251 772.646 369.551 772.283 370.036C772.283 369.915 772.404 369.673 772.404 369.551C773.251 366.888 774.34 364.466 775.55 362.165C776.276 360.833 776.881 359.622 777.607 358.412C778.454 358.775 782.326 360.712 784.383 360.833C786.32 360.954 788.861 360.47 790.192 358.896C791.523 357.322 791.402 354.9 789.587 353.689C787.167 352.115 782.205 354.053 780.148 355.627C780.027 355.748 778.938 356.716 778.212 357.564C778.575 357.08 778.938 356.474 779.18 355.99C780.39 354.174 781.721 352.478 782.81 351.025C783.415 350.178 784.02 349.451 784.626 348.846C785.715 348.846 789.829 348.725 791.644 347.877C793.459 347.03 795.516 345.456 795.879 343.397C796.242 341.339 795.032 339.28 792.975 339.038C790.071 338.675 786.562 342.792 785.473 345.213C785.352 345.456 784.262 348.846 784.383 348.846C784.383 348.846 784.383 348.846 784.504 348.846C783.899 349.451 783.415 350.178 782.689 350.904C781.6 352.357 780.269 353.931 778.938 355.748C777.607 357.564 776.276 359.622 775.066 361.923C773.856 364.224 772.646 366.645 771.798 369.309V369.43C771.798 368.583 771.798 366.161 771.798 365.919C771.435 363.255 769.257 358.412 766.353 357.927C764.296 357.564 762.481 359.138 762.36 361.197C762.239 363.255 763.691 365.313 765.143 366.645C766.837 368.098 771.435 369.551 771.798 369.673C770.951 372.215 770.346 374.879 769.862 377.664C769.62 379.238 769.378 380.812 769.136 382.508C769.136 381.781 769.136 381.055 769.136 381.055C768.773 378.391 766.595 373.547 763.691 373.063C761.634 372.7 759.819 374.274 759.698 376.332C759.577 378.391 761.029 380.449 762.481 381.781C763.933 383.113 767.926 384.445 768.894 384.687C768.773 385.293 768.773 385.898 768.652 386.503C768.289 389.409 767.926 392.437 767.563 395.343C767.442 396.311 767.2 397.401 767.079 398.37C767.079 397.764 767.079 397.159 767.079 397.038C766.716 394.374 764.538 389.53 761.634 389.046C759.577 388.683 757.761 390.257 757.64 392.315C757.519 394.374 758.972 396.432 760.424 397.764C761.876 398.975 765.385 400.307 766.716 400.67C766.474 401.639 766.232 402.729 765.99 403.697C765.748 404.303 765.627 405.029 765.385 405.635C765.143 406.24 765.022 406.967 764.78 407.572C764.296 408.783 763.933 409.994 763.449 411.205C763.086 412.052 762.844 412.779 762.481 413.626C762.602 412.658 762.965 410.599 762.965 410.478C762.965 408.783 762.36 405.877 761.15 403.818C761.15 403.576 761.15 403.334 761.15 403.092C760.787 401.034 758.971 399.581 756.914 400.186C754.01 400.912 752.195 405.998 752.074 408.541C752.074 408.662 752.195 410.357 752.195 411.447C752.074 410.841 751.953 410.236 751.711 409.631C751.469 408.42 751.106 407.088 750.743 405.756C750.501 405.15 750.38 404.424 750.138 403.818C749.896 403.213 749.654 402.487 749.412 401.881C748.807 400.307 748.202 398.854 747.476 397.28C748.565 397.038 752.437 396.069 754.01 394.858C755.583 393.647 757.277 391.71 757.156 389.652C757.156 387.593 755.462 385.898 753.405 386.019C750.501 386.382 747.96 390.983 747.355 393.647C747.355 393.768 747.113 395.706 747.113 396.796C746.75 395.827 746.265 394.979 745.781 394.011C744.45 391.347 743.119 388.683 741.667 386.14C741.183 385.292 740.82 384.566 740.457 383.718C740.82 383.597 745.539 382.508 747.234 381.176C748.807 379.965 750.501 378.027 750.38 375.969C750.38 373.91 748.686 372.215 746.629 372.336C743.724 372.7 741.183 377.301 740.578 379.965C740.578 380.207 740.336 382.871 740.215 383.597C739.247 381.781 738.4 380.086 737.553 378.27C736.464 375.848 735.496 373.305 734.649 370.762C734.891 370.762 739.731 369.551 741.546 368.22C743.119 367.009 744.813 365.071 744.692 363.013C744.692 360.954 742.998 359.259 740.941 359.38C738.037 359.744 735.496 364.345 734.891 367.009C734.891 367.251 734.528 370.157 734.528 370.641C734.528 370.52 734.407 370.399 734.407 370.157C733.56 367.493 733.197 364.829 732.954 362.286C732.833 360.833 732.712 359.38 732.712 358.048C733.681 357.927 737.916 357.322 739.61 356.353C741.304 355.384 743.119 353.568 743.361 351.51C743.603 349.451 742.151 347.514 739.973 347.514C737.069 347.514 733.923 351.873 733.197 354.416C733.197 354.537 732.833 355.99 732.712 357.08C732.712 356.474 732.712 355.869 732.712 355.263C732.712 353.084 732.833 351.025 732.954 349.209C733.076 348.119 733.197 347.272 733.197 346.424C734.044 345.819 737.432 343.397 738.521 341.702C739.489 340.007 740.336 337.585 739.61 335.648C738.884 333.71 736.706 332.742 734.77 333.71C732.107 335.042 731.502 340.37 731.865 342.913C731.865 343.155 732.954 346.545 732.954 346.545C732.833 347.393 732.712 348.24 732.591 349.209C732.47 351.025 732.228 353.084 732.228 355.263C732.228 357.564 732.228 359.986 732.349 362.528C732.591 365.071 732.954 367.856 733.681 370.52V370.641C733.196 369.915 731.865 367.856 731.744 367.735C730.05 365.798 725.573 362.892 722.79 364.103C720.854 364.95 720.248 367.251 721.217 369.067C722.548 370.278 724.968 371.126 726.904 371.489Z" fill="#007CDC"/>
<path d="M777.486 357.564C777.486 357.564 778.454 354.174 778.454 353.931C778.817 351.268 777.97 346.061 775.308 344.729C773.371 343.76 771.193 344.971 770.588 346.787C769.862 348.725 770.83 351.147 771.798 352.842C773.129 354.779 777.486 357.564 777.486 357.564Z" fill="#007CDC"/>
<path d="M476.414 361.923C476.414 361.923 496.744 358.896 518.405 358.533C540.065 358.169 547.205 359.622 552.529 361.439C557.854 363.255 562.694 378.149 555.675 392.437C548.657 406.725 524.092 418.47 490.693 415.564C457.295 412.658 433.335 405.998 420.629 396.311C407.802 386.746 419.177 381.297 433.456 373.547C447.493 365.677 466.734 361.439 476.414 361.923Z" fill="#263238" stroke="#263238" stroke-miterlimit="10" stroke-linecap="round" stroke-linejoin="round"/>
<path d="M448.582 394.858C448.582 394.858 498.438 367.372 515.864 362.407C533.289 357.443 553.255 356.353 562.452 362.407C571.649 368.462 569.592 388.077 565.356 395.585C561.121 403.092 526.512 418.712 507.393 424.403C488.152 430.094 413.006 429.731 392.434 431.547C371.741 433.363 322.006 432.273 314.867 428.399C307.727 424.524 311.963 420.165 322.369 417.743C332.655 415.201 366.901 415.201 382.874 410.599C398.726 405.877 436.844 400.912 448.582 394.858Z" fill="white" stroke="#263238" stroke-miterlimit="10" stroke-linecap="round" stroke-linejoin="round"/>
<path d="M565.356 395.585C567.413 391.952 568.986 385.414 568.986 378.996C556.038 389.167 535.951 401.397 508.24 411.326C481.86 420.77 407.318 429.125 376.46 432.395C382.632 432.274 388.077 432.031 392.434 431.668C413.126 429.852 488.152 430.215 507.393 424.524C526.512 418.712 561.121 403.092 565.356 395.585Z" fill="#263238" stroke="#263238" stroke-miterlimit="10" stroke-linecap="round" stroke-linejoin="round"/>
<path d="M530.142 415.927C535.467 413.626 540.67 411.205 545.511 408.783C546.6 403.576 547.81 388.199 536.556 358.533C529.779 359.138 522.64 360.47 515.863 362.407C515.863 362.407 536.919 386.624 530.142 415.927Z" fill="#263238" stroke="#263238" stroke-miterlimit="10" stroke-linecap="round" stroke-linejoin="round"/>
<path d="M399.815 406.603C393.16 407.935 387.109 409.267 382.632 410.478C366.659 415.079 332.413 415.079 322.127 417.622C311.841 420.165 307.485 424.403 314.625 428.278C321.764 432.152 371.62 433.242 392.192 431.426C394.612 431.184 397.879 431.063 401.63 430.82C393.523 421.981 397.274 411.568 399.815 406.603Z" fill="white" stroke="#263238" stroke-miterlimit="10" stroke-linecap="round" stroke-linejoin="round"/>
<path d="M367.385 349.936C367.385 349.936 334.954 353.81 318.618 355.263C302.282 356.716 272.755 369.915 266.705 382.75C260.654 395.585 278.806 410.841 289.092 414.111C299.377 417.259 330.356 424.403 347.418 423.313C364.481 422.223 415.062 407.33 423.896 404.424C432.851 401.518 448.461 394.858 448.461 394.858C448.461 394.858 433.456 394.858 408.286 382.023C383.116 369.188 379.123 355.99 367.385 349.936Z" fill="white" stroke="#263238" stroke-miterlimit="10" stroke-linecap="round" stroke-linejoin="round"/>
<path d="M297.925 360.107C297.925 360.107 323.458 357.443 335.196 365.919C346.934 374.395 354.316 400.549 354.316 400.549L408.407 381.902C408.407 381.902 404.414 377.543 394.249 365.313C384.084 353.084 354.316 346.182 336.769 349.815C319.223 353.81 297.925 360.107 297.925 360.107Z" fill="#263238" stroke="#263238" stroke-miterlimit="10" stroke-linecap="round" stroke-linejoin="round"/>
<path d="M421.476 405.272C422.565 404.908 423.412 404.666 424.017 404.424C432.972 401.518 448.582 394.858 448.582 394.858C448.582 394.858 437.086 394.858 417.241 386.261C420.145 390.983 422.928 397.885 421.476 405.272Z" fill="white" stroke="#263238" stroke-miterlimit="10" stroke-linecap="round" stroke-linejoin="round"/>
<path d="M440.716 398.128C427.042 399.823 403.325 403.576 376.339 411.205C345.603 419.923 308.453 416.775 290.423 414.474C301.919 417.864 331.082 424.403 347.418 423.313C364.48 422.223 415.062 407.33 423.896 404.424C428.857 402.971 435.513 400.307 440.716 398.128Z" fill="#263238" stroke="#263238" stroke-miterlimit="10" stroke-linecap="round" stroke-linejoin="round"/>
<path d="M474.478 246.408L467.217 318.454C467.217 318.454 470.727 335.769 473.026 342.671C475.325 349.572 477.624 360.712 476.535 361.923C475.325 363.134 474.599 362.286 466.491 364.587C458.384 366.888 448.824 380.812 436.481 386.14C424.138 391.589 414.215 388.804 402.598 384.203C391.103 379.602 369.563 351.51 364.843 350.662C360.245 349.936 346.329 347.635 340.642 345.698C334.833 343.76 327.936 335.648 327.936 335.648C327.936 335.648 326.725 335.648 326.725 331.41C326.725 327.172 327.089 326.808 327.089 326.808C327.089 326.808 324.063 324.145 323.216 320.633C322.49 317.122 330.477 298.717 330.477 287.093C330.477 275.59 336.285 231.999 336.285 226.671C336.285 221.222 344.393 220.133 352.864 216.621C361.334 213.11 405.987 196.642 406.713 192.041C407.439 187.44 410.585 155.11 410.585 155.11C410.585 155.11 434.545 180.78 437.57 182.838C441.442 185.502 443.379 188.287 443.379 188.287L440.716 201.001C440.716 201.001 452.212 209.477 459.957 214.078C467.701 218.68 477.987 222.918 478.471 226.066" fill="white"/>
<path d="M474.478 246.408L467.217 318.454C467.217 318.454 470.727 335.769 473.026 342.671C475.325 349.572 477.624 360.712 476.535 361.923C475.325 363.134 474.599 362.286 466.491 364.587C458.384 366.888 448.824 380.812 436.481 386.14C424.138 391.589 414.215 388.804 402.598 384.203C391.103 379.602 369.563 351.51 364.843 350.662C360.245 349.936 346.329 347.635 340.642 345.698C334.833 343.76 327.936 335.648 327.936 335.648C327.936 335.648 326.725 335.648 326.725 331.41C326.725 327.172 327.089 326.808 327.089 326.808C327.089 326.808 324.063 324.145 323.216 320.633C322.49 317.122 330.477 298.717 330.477 287.093C330.477 275.59 336.285 231.999 336.285 226.671C336.285 221.222 344.393 220.133 352.864 216.621C361.334 213.11 405.987 196.642 406.713 192.041C407.439 187.44 410.585 155.11 410.585 155.11C410.585 155.11 434.545 180.78 437.57 182.838C441.442 185.502 443.379 188.287 443.379 188.287L440.716 201.001C440.716 201.001 452.212 209.477 459.957 214.078C467.701 218.68 477.987 222.918 478.471 226.066" stroke="#263238" stroke-miterlimit="10" stroke-linecap="round" stroke-linejoin="round"/>
<path d="M353.469 331.167C355.284 332.499 356.978 334.316 358.551 336.616" stroke="#263238" stroke-miterlimit="10" stroke-linecap="round" stroke-linejoin="round"/>
<path d="M326.726 331.531C326.726 331.531 337.737 323.902 348.87 328.383" stroke="#263238" stroke-miterlimit="10" stroke-linecap="round" stroke-linejoin="round"/>
<path d="M447.493 205.966C443.5 203.181 440.595 201.001 440.595 201.001L443.258 188.287C443.258 188.287 441.321 185.623 437.449 182.838C434.424 180.78 410.464 155.11 410.464 155.11C410.464 155.11 407.439 187.44 406.592 192.041C406.35 193.494 401.509 196.279 394.733 199.427C395.943 206.813 400.178 219.285 415.062 224.007C430.189 228.851 441.684 215.168 447.493 205.966Z" fill="white" stroke="#263238" stroke-miterlimit="10" stroke-linecap="round" stroke-linejoin="round"/>
<path d="M440.716 201.122C440.595 201.001 440.595 201.001 440.716 201.122L443.258 188.287C443.258 188.287 441.321 185.623 437.449 182.838C435.755 181.628 427.284 172.909 420.266 165.523L418.451 173.999C418.572 173.999 418.572 198.216 440.716 201.122Z" fill="#263238"/>
<path d="M416.515 75.7992C416.515 75.7992 415.425 66.5968 408.044 64.7805C400.662 62.9642 383.842 64.054 377.913 75.0727C371.983 86.0914 376.46 94.5674 378.639 96.0204C380.817 97.4734 382.632 98.1999 382.632 98.1999L384.447 88.9975C384.447 88.9975 385.173 97.1102 390.377 98.9265C395.58 100.743 406.229 98.9265 406.229 98.9265C406.229 98.9265 415.425 92.3879 416.515 75.7992Z" fill="#263238" stroke="#263238" stroke-miterlimit="10" stroke-linecap="round" stroke-linejoin="round"/>
<path d="M484.401 108.613C484.401 108.613 497.47 117.089 497.47 125.565C497.47 134.041 481.255 137.068 481.255 137.068L484.401 108.613Z" fill="#263238" stroke="#263238" stroke-miterlimit="10" stroke-linecap="round" stroke-linejoin="round"/>
<path d="M487.426 110.308C487.426 110.308 485.974 127.987 484.522 137.916C483.07 147.845 476.777 155.957 476.414 162.496C476.051 169.156 461.409 185.26 454.027 190.83C446.646 196.4 435.634 194.463 430.189 190.103C424.622 185.744 415.546 175.089 411.069 163.586C406.713 152.204 409.98 135.615 411.069 130.53C412.158 125.323 439.748 105.102 460.683 105.102C481.497 105.223 487.426 110.308 487.426 110.308Z" fill="white" stroke="#263238" stroke-miterlimit="10" stroke-linecap="round" stroke-linejoin="round"/>
<path d="M464.313 151.477C464.313 151.477 465.765 164.676 465.765 165.765C465.765 166.855 462.498 170.124 456.932 166.855" stroke="#263238" stroke-miterlimit="10" stroke-linecap="round" stroke-linejoin="round"/>
<path d="M442.289 166.976C442.289 166.976 448.219 174.362 457.779 173.999" stroke="#263238" stroke-miterlimit="10" stroke-linecap="round" stroke-linejoin="round"/>
<path d="M462.135 139.732C462.135 139.732 450.034 132.346 434.545 134.525C434.545 134.525 430.188 134.525 432.73 137.795C432.73 137.795 431.64 148.813 434.182 152.083C436.723 155.352 442.652 158.016 448.461 158.016C454.39 158.137 460.199 151.114 462.135 139.732Z" stroke="#263238" stroke-width="2" stroke-miterlimit="10" stroke-linecap="round" stroke-linejoin="round"/>
<path d="M432.367 135.01L408.407 133.557" stroke="#263238" stroke-width="2" stroke-miterlimit="10" stroke-linecap="round" stroke-linejoin="round"/>
<path d="M462.135 139.732L468.427 141.548C468.427 141.548 465.886 155.11 467.338 158.864C468.306 161.285 470.364 162.98 472.784 163.707C474.841 164.191 477.261 164.797 478.713 164.797C481.617 164.797 487.91 158.864 489.362 148.571C489.362 148.571 491.177 147.845 490.451 146.755C489.725 145.665 480.891 140.459 468.669 141.669" stroke="#263238" stroke-width="2" stroke-miterlimit="10" stroke-linecap="round" stroke-linejoin="round"/>
<path d="M461.772 143.122C461.772 143.122 466.491 143.486 467.822 145.181" stroke="#263238" stroke-width="2" stroke-miterlimit="10" stroke-linecap="round" stroke-linejoin="round"/>
<path d="M449.066 147.239C448.582 149.661 447.493 151.477 446.404 151.235C445.315 150.993 444.831 148.935 445.315 146.513C445.799 144.091 446.888 142.275 447.977 142.517C448.945 142.759 449.429 144.818 449.066 147.239Z" fill="#263238"/>
<path d="M475.806 153.774C476.397 151.647 476.144 149.721 475.243 149.47C474.341 149.219 473.132 150.74 472.542 152.866C471.952 154.993 472.204 156.919 473.105 157.17C474.007 157.42 475.216 155.9 475.806 153.774Z" fill="#263238"/>
<path d="M441.321 138.642C441.321 138.642 450.518 135.615 454.753 140.58" stroke="#263238" stroke-width="2" stroke-miterlimit="10" stroke-linecap="round" stroke-linejoin="round"/>
<path d="M471.695 145.544C471.695 145.544 475.93 141.669 479.439 147.118" stroke="#263238" stroke-width="2" stroke-miterlimit="10" stroke-linecap="round" stroke-linejoin="round"/>
<path d="M423.896 131.256C423.896 131.256 443.742 120.601 460.683 117.331C477.624 114.062 490.451 115.515 493.356 105.586C496.26 95.6572 476.414 79.0685 455.843 73.2564C435.271 67.3233 410.706 73.6197 400.783 88.271C390.861 102.922 394.128 120.601 397.153 127.26C400.057 133.92 402.357 139.006 407.802 139.732C413.247 140.459 423.896 131.256 423.896 131.256Z" fill="#263238" stroke="#263238" stroke-miterlimit="10" stroke-linecap="round" stroke-linejoin="round"/>
<path d="M409.496 119.632C407.318 120.964 405.503 122.417 404.172 124.112" stroke="white" stroke-miterlimit="10" stroke-linecap="round" stroke-linejoin="round"/>
<path d="M478.592 94.5674C478.592 94.5674 483.917 97.8367 468.427 104.254C457.174 108.977 434.303 110.187 418.33 115.636" stroke="white" stroke-miterlimit="10" stroke-linecap="round" stroke-linejoin="round"/>
<path d="M458.021 90.8138C459.352 89.3607 460.32 87.7866 460.925 85.9704" stroke="white" stroke-miterlimit="10" stroke-linecap="round" stroke-linejoin="round"/>
<path d="M400.42 117.695C400.42 117.695 395.58 110.672 412.158 105.949C424.138 102.438 441.442 101.227 452.091 95.415" stroke="white" stroke-miterlimit="10" stroke-linecap="round" stroke-linejoin="round"/>
<path d="M413.61 145.302C413.61 145.302 410.706 131.014 404.413 131.014C398.121 131.014 397.274 137.674 399.815 145.665C402.356 153.778 406.471 156.321 410.222 153.778" fill="white"/>
<path d="M413.61 145.302C413.61 145.302 410.706 131.014 404.413 131.014C398.121 131.014 397.274 137.674 399.815 145.665C402.356 153.778 406.471 156.321 410.222 153.778" stroke="#263238" stroke-miterlimit="10" stroke-linecap="round" stroke-linejoin="round"/>
<path d="M364.843 350.783C364.843 350.783 366.417 348.846 366.417 342.671C366.417 336.495 362.181 316.153 360.245 301.865C358.309 287.577 356.373 260.333 356.373 248.709" stroke="#263238" stroke-miterlimit="10" stroke-linecap="round" stroke-linejoin="round"/>
<path d="M403.566 306.224C404.534 307.919 405.624 309.372 406.713 310.704" stroke="#263238" stroke-miterlimit="10" stroke-linecap="round" stroke-linejoin="round"/>
<path d="M382.148 235.268C382.148 235.268 389.045 277.769 400.904 301.259" stroke="#263238" stroke-miterlimit="10" stroke-linecap="round" stroke-linejoin="round"/>
<path d="M406.229 271.473C407.802 274.379 409.375 277.164 410.948 279.585" stroke="#263238" stroke-miterlimit="10" stroke-linecap="round" stroke-linejoin="round"/>
<path d="M386.746 223.402C386.746 223.402 394.491 247.256 403.567 266.266" stroke="#263238" stroke-miterlimit="10" stroke-linecap="round" stroke-linejoin="round"/>
<path d="M303.976 334.195C303.976 334.195 308.211 337.706 316.682 337.706C325.153 337.706 332.413 333.468 343.183 336.132C353.953 338.796 353.953 349.572 352.743 352.721C351.533 355.869 341.247 357.685 331.566 356.595C322.006 355.384 302.282 353.568 302.282 353.568C302.282 353.568 305.549 342.307 303.976 334.195Z" fill="white" stroke="#263238" stroke-miterlimit="10" stroke-linecap="round" stroke-linejoin="round"/>
<path d="M296.11 324.387C296.11 324.387 296.957 328.383 301.919 331.046C306.759 333.71 308.574 340.854 308.574 344.85C308.574 348.846 307.727 351.025 307.727 351.025C307.727 351.025 306.396 356.353 301.919 357.201C297.441 358.048 294.779 360.712 289.455 355.385C284.13 350.057 276.507 333.105 276.507 333.105L277.354 330.441C277.354 330.441 281.831 330.441 285.34 328.625C289.092 327.172 296.11 324.387 296.11 324.387Z" fill="white" stroke="#263238" stroke-miterlimit="10" stroke-linecap="round" stroke-linejoin="round"/>
<path d="M271.182 306.224L301.919 357.443" stroke="#263238" stroke-width="3" stroke-miterlimit="10" stroke-linecap="round" stroke-linejoin="round"/>
<path d="M280.621 356.959C280.621 356.959 284.13 360.47 290.423 360.47C296.715 360.47 302.887 356.474 299.74 355.142C296.594 353.81 294.416 352.478 292.117 353.326C289.939 354.295 280.621 356.959 280.621 356.959Z" fill="white" stroke="#263238" stroke-miterlimit="10" stroke-linecap="round" stroke-linejoin="round"/>
<path d="M276.144 350.299C276.144 350.299 278.806 357.927 280.984 358.775C283.162 359.622 292.601 357.443 295.263 355.627C297.925 353.81 293.448 350.783 289.455 350.783C285.461 350.783 276.144 350.299 276.144 350.299Z" fill="white" stroke="#263238" stroke-miterlimit="10" stroke-linecap="round" stroke-linejoin="round"/>
<path d="M274.329 338.675C274.329 338.675 272.513 347.998 276.144 350.299C279.653 352.478 293.448 353.447 294.779 350.783C296.11 348.119 291.27 346.787 286.308 344.608C281.468 342.307 274.329 338.675 274.329 338.675Z" fill="white" stroke="#263238" stroke-miterlimit="10" stroke-linecap="round" stroke-linejoin="round"/>
<path d="M288.124 325.84C288.124 325.84 288.608 343.155 290.302 344.971C292.117 346.787 296.11 347.151 296.957 345.819C297.804 344.487 298.772 329.351 296.11 324.387C293.448 319.543 288.124 325.84 288.124 325.84Z" fill="white" stroke="#263238" stroke-miterlimit="10" stroke-linecap="round" stroke-linejoin="round"/>
<path d="M277.475 330.683C277.475 330.683 271.666 329.351 271.666 335.163C271.666 340.975 279.653 344.487 283.283 344.971C286.793 345.456 290.907 344.124 287.761 341.46C284.614 338.675 280.137 332.863 277.475 330.683Z" fill="white" stroke="#263238" stroke-miterlimit="10" stroke-linecap="round" stroke-linejoin="round"/>
<path d="M321.159 358.896L346.087 355.385C346.087 355.385 342.941 350.783 334.712 350.783C326.483 350.783 321.522 354.658 320.433 356.111C319.344 357.443 321.159 358.896 321.159 358.896Z" fill="#263238" stroke="#263238" stroke-miterlimit="10" stroke-linecap="round" stroke-linejoin="round"/>
<path d="M371.378 388.441L411.19 374.516C411.19 374.516 401.63 354.174 383.479 347.03C365.327 339.886 338.342 341.702 326.968 346.061L331.082 350.662C331.082 350.662 339.31 351.025 348.144 361.318C357.099 371.61 365.933 388.077 365.933 388.077L371.378 388.441Z" fill="white" stroke="#263238" stroke-miterlimit="10" stroke-linecap="round" stroke-linejoin="round"/>
<path d="M346.45 347.998C346.45 347.998 362.302 345.698 378.881 381.176" stroke="#F0AE00" stroke-miterlimit="10" stroke-linecap="round" stroke-linejoin="round"/>
<path d="M354.316 346.424C354.316 346.424 370.168 344.124 386.746 379.602" stroke="#F0AE00" stroke-miterlimit="10" stroke-linecap="round" stroke-linejoin="round"/>
<path d="M360.85 345.213C360.85 345.213 376.702 342.913 393.281 378.391" stroke="#F0AE00" stroke-miterlimit="10" stroke-linecap="round" stroke-linejoin="round"/>
<path d="M265.253 383.839C265.253 383.839 283.041 357.443 316.198 359.622L321.159 358.896C321.159 358.896 324.305 351.389 333.623 353.205C342.82 355.021 366.78 391.71 366.78 391.71L371.378 388.562C371.378 388.562 358.793 367.251 349.233 355.142C339.674 343.034 327.089 343.397 323.095 347.877C320.675 350.541 317.287 356.716 317.287 356.716C317.287 356.716 313.536 351.147 302.645 353.689C289.213 356.716 281.831 362.771 277.959 366.888C272.392 372.942 261.138 381.055 262.228 380.449L265.253 383.839Z" fill="white" stroke="#263238" stroke-miterlimit="10" stroke-linecap="round" stroke-linejoin="round"/>
<path d="M366.78 391.589L409.133 377.059L411.19 374.516L371.378 388.441L366.78 391.589Z" fill="white" stroke="#263238" stroke-miterlimit="10" stroke-linecap="round" stroke-linejoin="round"/>
<path d="M471.212 220.496C471.212 220.496 486.459 225.824 488.758 233.815C491.057 241.928 502.553 286.124 505.578 292.662C508.603 299.201 515.622 303.076 515.622 308.04C515.622 313.005 515.985 316.879 515.985 316.879C515.985 316.879 524.093 317.243 524.819 323.781C525.545 330.32 527.118 338.796 527.118 338.796L557.854 386.503C557.854 386.503 576.248 387.956 580.483 387.593C584.718 387.23 597.303 387.956 601.902 390.378C603.717 391.347 607.226 394.374 610.009 404.182C611.34 409.025 614.487 418.47 612.551 418.106C610.614 417.743 608.315 412.416 607.468 411.205C606.742 409.994 604.443 403.455 604.443 403.455C604.443 403.455 606.016 414.595 606.379 416.896C606.742 419.196 605.653 421.497 605.653 421.497L605.532 421.618C603.596 422.344 601.539 422.466 599.603 421.981L598.029 421.497C596.577 422.344 594.762 422.466 593.189 421.981L591.495 421.497C591.495 421.497 588.954 413.626 586.655 410.478C584.355 407.451 577.095 404.061 577.095 404.061C577.095 404.061 584.96 413.021 584.597 418.833C584.476 421.134 584.96 423.071 583.024 421.86C581.088 420.649 578.789 414.958 574.554 413.021C570.318 411.084 560.275 408.42 556.523 406.119C552.651 403.818 546.479 395.343 546.479 395.343L496.019 349.936C496.019 349.936 491.057 344.971 490.21 342.186C489.484 339.522 489.484 339.522 489.484 339.522C489.484 339.522 482.586 335.284 480.65 332.984C478.714 330.683 477.988 325.719 477.988 325.719L467.581 313.731L474.479 247.861" fill="white"/>
<path d="M471.212 220.496C471.212 220.496 486.459 225.824 488.758 233.815C491.057 241.928 502.553 286.124 505.578 292.662C508.603 299.201 515.622 303.076 515.622 308.04C515.622 313.005 515.985 316.879 515.985 316.879C515.985 316.879 524.093 317.243 524.819 323.781C525.545 330.32 527.118 338.796 527.118 338.796L557.854 386.503C557.854 386.503 576.248 387.956 580.483 387.593C584.718 387.23 597.303 387.956 601.902 390.378C603.717 391.347 607.226 394.374 610.009 404.182C611.341 409.025 614.487 418.47 612.551 418.106C610.614 417.743 608.315 412.416 607.468 411.205C606.742 409.994 604.443 403.455 604.443 403.455C604.443 403.455 606.016 414.595 606.379 416.896C606.742 419.196 605.653 421.497 605.653 421.497L605.532 421.618C603.596 422.344 601.539 422.466 599.603 421.981L598.029 421.497C596.577 422.344 594.762 422.466 593.189 421.981L591.495 421.497C591.495 421.497 588.954 413.626 586.655 410.478C584.355 407.451 577.095 404.061 577.095 404.061C577.095 404.061 584.96 413.021 584.597 418.833C584.476 421.134 584.96 423.071 583.024 421.86C581.088 420.649 578.789 414.958 574.554 413.021C570.318 411.084 560.275 408.42 556.523 406.119C552.651 403.818 546.479 395.343 546.479 395.343L496.019 349.936C496.019 349.936 491.057 344.971 490.21 342.186C489.484 339.522 489.484 339.522 489.484 339.522C489.484 339.522 482.586 335.284 480.65 332.984C478.714 330.683 477.988 325.719 477.988 325.719L467.581 313.731L474.479 247.861" stroke="#263238" stroke-miterlimit="10" stroke-linecap="round" stroke-linejoin="round"/>
<path d="M470.485 263.239L467.459 313.852L477.866 325.84C477.866 325.84 478.592 330.804 480.529 333.105C482.465 335.405 489.362 339.643 489.362 339.643C489.362 339.643 489.362 339.643 490.088 342.307C490.814 344.971 495.897 350.057 495.897 350.057L503.399 356.838C506.425 350.904 513.806 340.128 526.875 338.312C526.512 336.374 525.302 329.472 524.697 323.781C523.971 317.243 515.863 316.879 515.863 316.879C515.863 316.879 515.5 313.005 515.5 308.04C515.5 303.076 508.603 299.201 505.456 292.662C502.431 286.124 490.935 241.928 488.636 233.815C486.337 225.702 471.09 220.496 471.09 220.496" fill="white"/>
<path d="M470.485 263.239L467.459 313.852L477.866 325.84C477.866 325.84 478.592 330.804 480.529 333.105C482.465 335.405 489.362 339.643 489.362 339.643C489.362 339.643 489.362 339.643 490.088 342.307C490.814 344.971 495.897 350.057 495.897 350.057L503.399 356.838C506.425 350.904 513.806 340.128 526.875 338.311C526.512 336.374 525.302 329.472 524.697 323.781C523.971 317.243 515.863 316.879 515.863 316.879C515.863 316.879 515.5 313.005 515.5 308.04C515.5 303.076 508.603 299.201 505.456 292.662C502.431 286.124 490.935 241.928 488.636 233.815C486.337 225.702 471.09 220.496 471.09 220.496" stroke="#263238" stroke-miterlimit="10" stroke-linecap="round" stroke-linejoin="round"/>
<path d="M469.88 278.496L474.962 321.844L467.581 313.852L469.88 278.496Z" fill="#263238"/>
<path d="M505.698 323.66C506.788 322.934 507.877 322.207 509.087 321.481" stroke="#263238" stroke-miterlimit="10" stroke-linecap="round" stroke-linejoin="round"/>
<path d="M493.355 337.706C493.355 337.706 495.776 332.257 501.826 326.808" stroke="#263238" stroke-miterlimit="10" stroke-linecap="round" stroke-linejoin="round"/>
<path d="M501.705 316.879C503.278 316.637 504.973 316.516 506.788 316.516" stroke="#263238" stroke-miterlimit="10" stroke-linecap="round" stroke-linejoin="round"/>
<path d="M482.949 326.203C482.949 326.203 488.031 321.239 495.776 318.454" stroke="#263238" stroke-miterlimit="10" stroke-linecap="round" stroke-linejoin="round"/>
<path d="M579.151 406.967C579.151 406.967 574.916 401.155 569.107 400.791" stroke="#263238" stroke-miterlimit="10" stroke-linecap="round" stroke-linejoin="round"/>
<path d="M580.966 394.253C580.966 394.253 585.565 395.464 591.373 402.729C597.182 409.994 598.634 420.77 598.634 420.77" stroke="#263238" stroke-miterlimit="10" stroke-linecap="round" stroke-linejoin="round"/>
<path d="M592.099 392.8C592.099 392.8 600.691 399.702 602.264 406.24C603.837 412.779 605.773 421.618 605.773 421.618" stroke="#263238" stroke-miterlimit="10" stroke-linecap="round" stroke-linejoin="round"/>
<path d="M604.442 403.576C604.442 403.576 602.869 396.675 598.997 391.226" stroke="#263238" stroke-miterlimit="10" stroke-linecap="round" stroke-linejoin="round"/>
<path d="M721.095 418.954H614.849L644.133 321.844H750.259L721.095 418.954Z" fill="white" stroke="#263238" stroke-miterlimit="10" stroke-linecap="round" stroke-linejoin="round"/>
<path d="M721.095 418.954L745.902 336.737C714.561 340.612 696.046 366.403 667.125 394.858C648.853 412.658 636.147 417.864 628.765 418.954H721.095Z" fill="#263238" stroke="#263238" stroke-miterlimit="10" stroke-linecap="round" stroke-linejoin="round"/>
<path d="M686.85 373.91C691.461 373.91 695.199 370.278 695.199 365.798C695.199 361.317 691.461 357.685 686.85 357.685C682.238 357.685 678.5 361.317 678.5 365.798C678.5 370.278 682.238 373.91 686.85 373.91Z" fill="white" stroke="#263238" stroke-miterlimit="10" stroke-linecap="round" stroke-linejoin="round"/>
<path d="M722.305 418.47H523.729V424.645H722.305V418.47Z" fill="white" stroke="#263238" stroke-miterlimit="10" stroke-linecap="round" stroke-linejoin="round"/>
<path d="M722.184 418.47H620.657V424.645H722.184V418.47Z" fill="#263238" stroke="#263238" stroke-miterlimit="10" stroke-linecap="round" stroke-linejoin="round"/>
<path d="M265.011 402.002H185.386C178.368 402.002 172.68 407.693 172.68 414.716V416.169C172.68 423.192 178.368 428.883 185.386 428.883H265.011C265.011 428.883 260.775 422.466 260.775 415.201C260.775 407.935 265.011 402.002 265.011 402.002Z" fill="white" stroke="#263238" stroke-miterlimit="10" stroke-linecap="round" stroke-linejoin="round"/>
<path d="M227.256 402.002H147.632C140.613 402.002 134.926 407.693 134.926 414.716V416.169C134.926 423.192 140.613 428.883 147.632 428.883H227.256C227.256 428.883 223.02 422.466 223.02 415.201C223.02 407.935 227.256 402.002 227.256 402.002Z" fill="white" stroke="#263238" stroke-miterlimit="10" stroke-linecap="round" stroke-linejoin="round"/>
<path d="M134.926 414.716V416.169C134.926 421.255 137.951 425.735 142.307 427.793L144.001 427.914V404.061L142.912 402.971C138.314 404.666 134.926 409.267 134.926 414.716Z" fill="white" stroke="#263238" stroke-miterlimit="10" stroke-linecap="round" stroke-linejoin="round"/>
<path d="M265.011 402.002H147.632C140.613 402.002 134.926 407.693 134.926 414.716V416.169C134.926 423.192 140.613 428.883 147.632 428.883H265.011" stroke="#263238" stroke-width="3" stroke-miterlimit="10" stroke-linecap="round" stroke-linejoin="round"/>
<path d="M144.485 407.935H183.45" stroke="#263238" stroke-miterlimit="10" stroke-linecap="round" stroke-linejoin="round"/>
<path d="M189.017 411.447H194.946" stroke="#263238" stroke-miterlimit="10" stroke-linecap="round" stroke-linejoin="round"/>
<path d="M151.988 411.447H183.813" stroke="#263238" stroke-miterlimit="10" stroke-linecap="round" stroke-linejoin="round"/>
<path d="M144.485 419.439H164.331" stroke="#263238" stroke-miterlimit="10" stroke-linecap="round" stroke-linejoin="round"/>
<path d="M204.022 423.798H208.378" stroke="#263238" stroke-miterlimit="10" stroke-linecap="round" stroke-linejoin="round"/>
<path d="M176.311 423.798H200.513" stroke="#263238" stroke-miterlimit="10" stroke-linecap="round" stroke-linejoin="round"/>
<path d="M151.988 423.798H169.171" stroke="#263238" stroke-miterlimit="10" stroke-linecap="round" stroke-linejoin="round"/>
<path d="M186.234 402.002H74.7839C67.7653 402.002 62.0779 407.693 62.0779 414.716V416.169C62.0779 423.192 67.7653 428.883 74.7839 428.883H186.234C186.234 428.883 181.998 422.466 181.998 415.201C181.998 407.935 186.234 402.002 186.234 402.002Z" fill="white" stroke="#263238" stroke-miterlimit="10" stroke-linecap="round" stroke-linejoin="round"/>
<path d="M118.468 406.24V425.493" stroke="#263238" stroke-miterlimit="10" stroke-linecap="round" stroke-linejoin="round"/>
<path d="M119.073 409.146H151.02" stroke="#263238" stroke-miterlimit="10" stroke-linecap="round" stroke-linejoin="round"/>
<path d="M119.073 413.99H163" stroke="#263238" stroke-miterlimit="10" stroke-linecap="round" stroke-linejoin="round"/>
<path d="M132.626 419.439H144.122" stroke="#263238" stroke-miterlimit="10" stroke-linecap="round" stroke-linejoin="round"/>
<path d="M158.522 423.071H124.156" stroke="#263238" stroke-miterlimit="10" stroke-linecap="round" stroke-linejoin="round"/>
<path d="M112.902 416.169V414.716C112.902 407.693 118.589 402.002 125.608 402.002H74.7839C67.7653 402.002 62.0779 407.693 62.0779 414.716V416.169C62.0779 423.192 67.7653 428.883 74.7839 428.883H125.729C118.71 428.883 112.902 423.192 112.902 416.169Z" fill="#263238" stroke="#263238" stroke-miterlimit="10" stroke-linecap="round" stroke-linejoin="round"/>
<path d="M180.425 402.002H74.7839C67.7653 402.002 62.0779 407.693 62.0779 414.716V416.169C62.0779 423.192 67.7653 428.883 74.7839 428.883H180.425" stroke="#263238" stroke-width="3" stroke-miterlimit="10" stroke-linecap="round" stroke-linejoin="round"/>
<path d="M188.654 402.002H125.971C118.952 402.002 113.265 407.693 113.265 414.716V416.169C113.265 423.192 118.952 428.883 125.971 428.883H188.654" stroke="#263238" stroke-width="3" stroke-miterlimit="10" stroke-linecap="round" stroke-linejoin="round"/>
<path d="M252.426 375.364H172.801C165.783 375.364 160.095 381.055 160.095 388.077V389.531C160.095 396.553 165.783 402.244 172.801 402.244H252.426C252.426 402.244 248.19 395.827 248.19 388.562C248.19 381.418 252.426 375.364 252.426 375.364Z" fill="white" stroke="#263238" stroke-miterlimit="10" stroke-linecap="round" stroke-linejoin="round"/>
<path d="M214.671 375.364H135.047C128.028 375.364 122.341 381.055 122.341 388.077V389.531C122.341 396.553 128.028 402.244 135.047 402.244H214.671C214.671 402.244 210.435 395.827 210.435 388.562C210.435 381.418 214.671 375.364 214.671 375.364Z" fill="white" stroke="#263238" stroke-miterlimit="10" stroke-linecap="round" stroke-linejoin="round"/>
<path d="M122.341 388.199V389.652C122.341 394.737 125.366 399.217 129.722 401.276L131.416 401.397V377.543L130.327 376.453C125.608 378.148 122.341 382.75 122.341 388.199Z" fill="white" stroke="#263238" stroke-miterlimit="10" stroke-linecap="round" stroke-linejoin="round"/>
<path d="M252.426 375.364H135.047C128.028 375.364 122.341 381.055 122.341 388.077V389.531C122.341 396.553 128.028 402.244 135.047 402.244H252.426" stroke="#263238" stroke-width="3" stroke-miterlimit="10" stroke-linecap="round" stroke-linejoin="round"/>
<path d="M131.779 381.418H170.744" stroke="#263238" stroke-miterlimit="10" stroke-linecap="round" stroke-linejoin="round"/>
<path d="M176.311 384.929H182.24" stroke="#263238" stroke-miterlimit="10" stroke-linecap="round" stroke-linejoin="round"/>
<path d="M139.403 384.929H171.107" stroke="#263238" stroke-miterlimit="10" stroke-linecap="round" stroke-linejoin="round"/>
<path d="M131.779 392.921H151.746" stroke="#263238" stroke-miterlimit="10" stroke-linecap="round" stroke-linejoin="round"/>
<path d="M191.437 397.28H195.793" stroke="#263238" stroke-miterlimit="10" stroke-linecap="round" stroke-linejoin="round"/>
<path d="M163.605 397.28H187.807" stroke="#263238" stroke-miterlimit="10" stroke-linecap="round" stroke-linejoin="round"/>
<path d="M139.403 397.28H156.465" stroke="#263238" stroke-miterlimit="10" stroke-linecap="round" stroke-linejoin="round"/>
<path d="M566.808 303.923H539.702C538.492 303.923 537.645 302.955 537.645 301.865V293.994C537.645 292.784 538.613 291.936 539.702 291.936H576.126C577.336 291.936 578.183 292.905 578.183 293.994V297.143" stroke="#263238" stroke-miterlimit="10" stroke-linecap="round" stroke-linejoin="round"/>
<path d="M566.566 316.758V299.806C566.566 298.353 567.776 297.143 569.228 297.143H605.289C606.741 297.143 607.951 298.353 607.951 299.806V320.028" stroke="#263238" stroke-miterlimit="10" stroke-linecap="round" stroke-linejoin="round"/>
<path d="M608.193 336.859V357.927C608.193 359.38 606.983 360.591 605.531 360.591H569.47C568.018 360.591 566.808 359.38 566.808 357.927V320.875" stroke="#263238" stroke-miterlimit="10" stroke-linecap="round" stroke-linejoin="round"/>
<path d="M569.228 307.072H605.531" stroke="#263238" stroke-miterlimit="10" stroke-linecap="round" stroke-linejoin="round"/>
<path d="M586.532 318.09H605.531" stroke="#263238" stroke-miterlimit="10" stroke-linecap="round" stroke-linejoin="round"/>
<path d="M569.228 318.09H583.628" stroke="#263238" stroke-miterlimit="10" stroke-linecap="round" stroke-linejoin="round"/>
<path d="M569.228 328.988H605.531" stroke="#263238" stroke-miterlimit="10" stroke-linecap="round" stroke-linejoin="round"/>
<path d="M598.997 340.007H605.531" stroke="#263238" stroke-miterlimit="10" stroke-linecap="round" stroke-linejoin="round"/>
<path d="M569.228 340.007H595.729" stroke="#263238" stroke-miterlimit="10" stroke-linecap="round" stroke-linejoin="round"/>
<path d="M569.228 351.025H605.531" stroke="#263238" stroke-miterlimit="10" stroke-linecap="round" stroke-linejoin="round"/>
<path d="M544.905 297.627H564.751" stroke="#263238" stroke-miterlimit="10" stroke-linecap="round" stroke-linejoin="round"/>
<path d="M284.614 88.8764H250.974C249.521 88.8764 248.432 87.6656 248.432 86.3336V76.5257C248.432 75.0727 249.642 73.9829 250.974 73.9829H295.989C297.441 73.9829 298.53 75.1938 298.53 76.5257V80.4005" stroke="#263238" stroke-miterlimit="10" stroke-linecap="round" stroke-linejoin="round"/>
<path d="M284.372 104.86V83.9119C284.372 82.0956 285.824 80.5215 287.76 80.5215H332.292C334.107 80.5215 335.68 81.9745 335.68 83.9119V108.976" stroke="#263238" stroke-miterlimit="10" stroke-linecap="round" stroke-linejoin="round"/>
<path d="M335.559 129.561V155.594C335.559 157.411 334.107 158.985 332.171 158.985H287.639C285.824 158.985 284.251 157.532 284.251 155.594V109.824" stroke="#263238" stroke-miterlimit="10" stroke-linecap="round" stroke-linejoin="round"/>
<path d="M287.518 92.7511H332.413" stroke="#263238" stroke-miterlimit="10" stroke-linecap="round" stroke-linejoin="round"/>
<path d="M308.937 106.313H332.413" stroke="#263238" stroke-miterlimit="10" stroke-linecap="round" stroke-linejoin="round"/>
<path d="M287.518 106.313H305.307" stroke="#263238" stroke-miterlimit="10" stroke-linecap="round" stroke-linejoin="round"/>
<path d="M287.518 119.874H332.413" stroke="#263238" stroke-miterlimit="10" stroke-linecap="round" stroke-linejoin="round"/>
<path d="M324.426 133.436H332.413" stroke="#263238" stroke-miterlimit="10" stroke-linecap="round" stroke-linejoin="round"/>
<path d="M287.518 133.436H320.312" stroke="#263238" stroke-miterlimit="10" stroke-linecap="round" stroke-linejoin="round"/>
<path d="M287.518 146.997H332.413" stroke="#263238" stroke-miterlimit="10" stroke-linecap="round" stroke-linejoin="round"/>
<path d="M257.629 81.127H282.073" stroke="#263238" stroke-miterlimit="10" stroke-linecap="round" stroke-linejoin="round"/>
<path d="M342.336 130.893C340.521 130.893 338.584 130.166 337.132 128.834L332.292 124.112C331.687 123.507 331.566 122.659 332.05 121.933C332.292 121.448 332.776 121.206 333.26 121.085C333.744 120.964 334.228 121.206 334.712 121.569L335.68 122.417L330.84 112.488C330.598 112.004 330.598 111.398 330.719 110.914C330.961 110.43 331.324 109.945 331.808 109.703C332.776 109.219 333.986 109.703 334.47 110.672L336.285 114.183C336.648 113.82 337.132 113.457 337.616 113.457C338.342 113.336 339.068 113.699 339.552 114.062C339.915 113.578 340.4 113.336 340.884 113.214C341.489 113.093 342.094 113.336 342.457 113.578C342.699 112.972 343.183 112.73 343.909 112.73C344.514 112.73 345.119 113.214 345.482 113.699L348.87 119.995C350.564 123.265 349.596 127.26 346.571 129.319C345.361 130.409 343.788 130.893 342.336 130.893ZM333.623 121.812H333.502C333.26 121.812 333.018 122.054 332.776 122.296C332.534 122.659 332.534 123.143 332.897 123.507L337.616 128.229C339.915 130.53 343.546 130.772 346.087 128.834C348.749 126.897 349.596 123.386 348.144 120.48L344.756 114.183C344.514 113.82 344.151 113.578 343.788 113.578C343.425 113.578 343.183 113.578 343.062 114.304L342.941 115.031L342.457 114.546C342.457 114.546 341.731 113.941 341.005 114.062C340.642 114.062 340.278 114.425 339.915 114.91L339.673 115.273L339.31 114.91C339.31 114.91 338.463 114.183 337.737 114.304C337.253 114.425 336.89 114.668 336.648 115.273L336.285 115.878L333.865 111.156C333.623 110.551 332.897 110.308 332.171 110.551C331.808 110.672 331.566 110.914 331.445 111.277C331.324 111.64 331.324 112.004 331.445 112.246L337.979 125.807L334.107 122.175C333.986 121.933 333.865 121.812 333.623 121.812Z" fill="#263238"/>
<path d="M338.1 119.632C337.979 119.632 337.858 119.511 337.737 119.39L335.922 115.152C335.801 114.91 335.922 114.789 336.164 114.667C336.406 114.546 336.527 114.668 336.648 114.91L338.463 119.148C338.584 119.39 338.463 119.511 338.221 119.632C338.221 119.632 338.221 119.632 338.1 119.632Z" fill="#263238"/>
<path d="M341.247 118.663C341.126 118.663 341.005 118.542 340.884 118.421L339.31 114.789C339.189 114.546 339.31 114.425 339.552 114.304C339.794 114.183 339.915 114.304 340.036 114.546L341.61 118.179C341.731 118.421 341.61 118.542 341.368 118.663H341.247Z" fill="#263238"/>
<path d="M344.272 117.937C344.151 117.937 344.03 117.816 343.909 117.695L342.457 114.425C342.336 114.183 342.457 114.062 342.699 113.941C342.941 113.82 343.062 113.941 343.183 114.183L344.635 117.452C344.756 117.695 344.635 117.816 344.393 117.937H344.272Z" fill="#263238"/>
<path d="M312.865 65.2641L308.672 69.4594L312.865 73.6548L317.057 69.4594L312.865 65.2641Z" stroke="#263238" stroke-miterlimit="10" stroke-linecap="round" stroke-linejoin="round"/>
<path d="M276.87 103.528C276.87 101.832 275.539 100.379 273.723 100.379C271.908 100.379 270.577 101.711 270.577 103.528C270.577 105.223 271.908 106.676 273.723 106.676C275.539 106.676 276.87 105.223 276.87 103.528Z" stroke="#263238" stroke-miterlimit="10" stroke-linecap="round" stroke-linejoin="round"/>
<path d="M697.765 2.42249L685.786 14.4092L697.765 26.3959L709.744 14.4092L697.765 2.42249Z" stroke="#263238" stroke-miterlimit="10" stroke-linecap="round" stroke-linejoin="round"/>
<path d="M284.626 331.675L272.646 343.662L284.626 355.648L296.605 343.662L284.626 331.675Z" stroke="#263238" stroke-miterlimit="10" stroke-linecap="round" stroke-linejoin="round"/>
<path d="M232.444 308.289L220.464 320.275L232.444 332.261L244.424 320.275L232.444 308.289Z" stroke="#263238" stroke-miterlimit="10" stroke-linecap="round" stroke-linejoin="round"/>
<path d="M675.456 24.3878L668.953 30.8949L675.456 37.4019L681.959 30.8949L675.456 24.3878Z" stroke="#263238" stroke-miterlimit="10" stroke-linecap="round" stroke-linejoin="round"/>
<path d="M677.653 300.412C680.326 300.412 682.493 298.243 682.493 295.569C682.493 292.894 680.326 290.725 677.653 290.725C674.98 290.725 672.812 292.894 672.812 295.569C672.812 298.243 674.98 300.412 677.653 300.412Z" stroke="#263238" stroke-miterlimit="10" stroke-linecap="round" stroke-linejoin="round"/>
<path d="M276.022 258.395C278.696 258.395 280.863 256.227 280.863 253.552C280.863 250.877 278.696 248.709 276.022 248.709C273.349 248.709 271.182 250.877 271.182 253.552C271.182 256.227 273.349 258.395 276.022 258.395Z" stroke="#263238" stroke-miterlimit="10" stroke-linecap="round" stroke-linejoin="round"/>
<path d="M489.604 28.9393C492.277 28.9393 494.444 26.7709 494.444 24.0959C494.444 21.421 492.277 19.2525 489.604 19.2525C486.931 19.2525 484.764 21.421 484.764 24.0959C484.764 26.7709 486.931 28.9393 489.604 28.9393Z" stroke="#263238" stroke-miterlimit="10" stroke-linecap="round" stroke-linejoin="round"/>
<path d="M749.048 67.9287H514.29V279.827H749.048V67.9287Z" fill="#007CDC"/>
<path d="M764.175 57.031H527.601V269.898H764.175V57.031Z" fill="white" stroke="#263238" stroke-miterlimit="10" stroke-linecap="round" stroke-linejoin="round"/>
<path d="M764.174 57.031H589.921V85.8493H764.174V57.031Z" fill="#263238" stroke="#263238" stroke-miterlimit="10" stroke-linecap="round" stroke-linejoin="round"/>
<path d="M764.175 57.031H527.601V72.0456H764.175V57.031Z" fill="white" stroke="#263238" stroke-miterlimit="10" stroke-linecap="round" stroke-linejoin="round"/>
<path d="M682.13 106.676H537.887V199.064H682.13V106.676Z" fill="#263238" stroke="#263238" stroke-miterlimit="10" stroke-linecap="round" stroke-linejoin="round"/>
<path d="M682.13 188.772H537.887V199.064H682.13V188.772Z" fill="white" stroke="#263238" stroke-miterlimit="10" stroke-linecap="round" stroke-linejoin="round"/>
<path d="M682.13 192.404H537.887V195.431H682.13V192.404Z" fill="white" stroke="#263238" stroke-miterlimit="10" stroke-linecap="round" stroke-linejoin="round"/>
<path d="M625.699 163.58C631.842 153.543 628.696 140.415 618.671 134.258C608.647 128.101 595.541 131.246 589.398 141.283C583.255 151.32 586.401 164.448 596.425 170.605C606.45 176.762 619.556 173.617 625.699 163.58Z" fill="#0169EE"/>
<path d="M619.931 152.93L601.417 142.275V163.586L619.931 152.93Z" fill="white"/>
<path d="M752.195 106.676H695.199V143.122H752.195V106.676Z" fill="#263238" stroke="#263238" stroke-miterlimit="10" stroke-linecap="round" stroke-linejoin="round"/>
<path d="M752.195 139.127H695.199V143.244H752.195V139.127Z" fill="white" stroke="#263238" stroke-miterlimit="10" stroke-linecap="round" stroke-linejoin="round"/>
<path d="M752.195 140.58H695.199V141.791H752.195V140.58Z" fill="white" stroke="#263238" stroke-miterlimit="10" stroke-linecap="round" stroke-linejoin="round"/>
<path d="M722.668 133.072C727.28 133.072 731.018 129.332 731.018 124.718C731.018 120.103 727.28 116.363 722.668 116.363C718.057 116.363 714.319 120.103 714.319 124.718C714.319 129.332 718.057 133.072 722.668 133.072Z" fill="#0169EE"/>
<path d="M727.509 124.96L720.248 120.722V129.198L727.509 124.96Z" fill="white"/>
<path d="M752.195 146.755H695.199V183.202H752.195V146.755Z" fill="#263238" stroke="#263238" stroke-miterlimit="10" stroke-linecap="round" stroke-linejoin="round"/>
<path d="M752.195 179.206H695.199V183.323H752.195V179.206Z" fill="white" stroke="#263238" stroke-miterlimit="10" stroke-linecap="round" stroke-linejoin="round"/>
<path d="M752.195 180.659H695.199V181.87H752.195V180.659Z" fill="white" stroke="#263238" stroke-miterlimit="10" stroke-linecap="round" stroke-linejoin="round"/>
<path d="M731.018 164.918C731.018 160.317 727.267 156.563 722.668 156.563C718.07 156.563 714.319 160.317 714.319 164.918C714.319 169.519 718.07 173.273 722.668 173.273C727.267 173.273 731.018 169.519 731.018 164.918Z" fill="#0169EE"/>
<path d="M727.509 165.039L720.248 160.801V169.277L727.509 165.039Z" fill="white"/>
<path d="M752.195 186.834H695.199V223.281H752.195V186.834Z" fill="#263238" stroke="#263238" stroke-miterlimit="10" stroke-linecap="round" stroke-linejoin="round"/>
<path d="M752.195 219.285H695.199V223.402H752.195V219.285Z" fill="white" stroke="#263238" stroke-miterlimit="10" stroke-linecap="round" stroke-linejoin="round"/>
<path d="M752.195 220.738H695.199V221.949H752.195V220.738Z" fill="white" stroke="#263238" stroke-miterlimit="10" stroke-linecap="round" stroke-linejoin="round"/>
<path d="M731.018 204.997C731.018 200.396 727.267 196.642 722.668 196.642C718.07 196.642 714.319 200.396 714.319 204.997C714.319 209.598 718.07 213.352 722.668 213.352C727.267 213.352 731.018 209.598 731.018 204.997Z" fill="#0169EE"/>
<path d="M727.509 205.118L720.248 200.88V209.356L727.509 205.118Z" fill="white"/>
<path d="M752.195 227.034H695.199V263.481H752.195V227.034Z" fill="#263238" stroke="#263238" stroke-miterlimit="10" stroke-linecap="round" stroke-linejoin="round"/>
<path d="M752.195 259.364H695.199V263.481H752.195V259.364Z" fill="white" stroke="#263238" stroke-miterlimit="10" stroke-linecap="round" stroke-linejoin="round"/>
<path d="M752.195 260.817H695.199V262.028H752.195V260.817Z" fill="white" stroke="#263238" stroke-miterlimit="10" stroke-linecap="round" stroke-linejoin="round"/>
<path d="M731.018 245.076C731.018 240.475 727.267 236.721 722.668 236.721C718.07 236.721 714.319 240.475 714.319 245.076C714.319 249.677 718.07 253.431 722.668 253.431C727.267 253.431 731.018 249.677 731.018 245.076Z" fill="#0169EE"/>
<path d="M727.509 245.197L720.248 240.959V249.435L727.509 245.197Z" fill="white"/>
<path d="M539.097 208.872H649.579" stroke="#263238" stroke-miterlimit="10" stroke-linecap="round" stroke-linejoin="round"/>
<path d="M539.097 235.026H604.684" stroke="#263238" stroke-miterlimit="10" stroke-linecap="round" stroke-linejoin="round"/>
<path d="M539.097 245.318H604.684" stroke="#263238" stroke-miterlimit="10" stroke-linecap="round" stroke-linejoin="round"/>
<path d="M539.097 255.61H604.684" stroke="#263238" stroke-miterlimit="10" stroke-linecap="round" stroke-linejoin="round"/>
<path d="M617.269 235.026H682.977" stroke="#263238" stroke-miterlimit="10" stroke-linecap="round" stroke-linejoin="round"/>
<path d="M617.269 245.318H682.977" stroke="#263238" stroke-miterlimit="10" stroke-linecap="round" stroke-linejoin="round"/>
<path d="M617.269 255.61H682.977" stroke="#263238" stroke-miterlimit="10" stroke-linecap="round" stroke-linejoin="round"/>
<path d="M539.097 217.348H678.742" stroke="#263238" stroke-miterlimit="10" stroke-linecap="round" stroke-linejoin="round"/>
<path d="M761.27 106.797H755.583V264.813H761.27V106.797Z" fill="#A2A7A9"/>
<path d="M761.27 145.06H755.583V165.281H761.27V145.06Z" fill="#263238"/>
<path d="M703.065 270.141V322.207" stroke="#263238" stroke-miterlimit="10" stroke-linecap="round" stroke-linejoin="round"/>
</g>
<defs>
<clipPath id="clip0">
<rect width="796" height="433" fill="white"/>
</clipPath>
</defs>
</svg>
