<svg width="540" height="590" viewBox="0 0 540 590" fill="none" xmlns="http://www.w3.org/2000/svg">
<path d="M490.074 315.528C489.941 212.551 505.251 185.359 450.133 98.266C395.015 11.3073 259.749 -7.94205 157.5 56.5366C55.1184 121.015 27.5592 204.07 27.5592 204.07C27.5592 204.07 -9.58575 300.99 42.6036 398.583C90.2663 487.83 184.26 538.579 265.74 580.308H474.098C486.479 569.808 497.13 557.155 505.917 542.213C548.388 469.927 490.207 418.506 490.074 315.528Z" fill="#007CDC"/>
<path opacity="0.7" d="M490.074 315.528C489.941 212.551 505.251 185.359 450.133 98.266C395.015 11.3073 259.749 -7.94205 157.5 56.5366C55.1184 121.015 27.5592 204.07 27.5592 204.07C27.5592 204.07 -9.58575 300.99 42.6036 398.583C90.2663 487.83 184.26 538.579 265.74 580.308H474.098C486.479 569.808 497.13 557.155 505.917 542.213C548.388 469.927 490.207 418.506 490.074 315.528Z" fill="white"/>
<path d="M243.106 33.922C244.97 41.191 244.038 27.8645 247.5 11.5766C250.961 -4.71138 257.086 1.88456 257.086 1.88456" stroke="#2D2338" stroke-miterlimit="10" stroke-linecap="round" stroke-linejoin="round"/>
<path d="M241.908 17.3648L253.092 12.7881" stroke="#2D2338" stroke-miterlimit="10" stroke-linecap="round" stroke-linejoin="round"/>
<path d="M262.145 7.26901C262.145 7.26901 255.488 21.1339 265.473 26.9222" stroke="#2D2338" stroke-miterlimit="10" stroke-linecap="round" stroke-linejoin="round"/>
<path d="M271.598 3.3653C271.598 3.3653 282.515 9.5574 275.725 22.7493" stroke="#2D2338" stroke-miterlimit="10" stroke-linecap="round" stroke-linejoin="round"/>
<path d="M264.009 11.9804L271.864 17.7686" stroke="#2D2338" stroke-miterlimit="10" stroke-linecap="round" stroke-linejoin="round"/>
<path d="M270.266 9.42279L264.142 19.2494" stroke="#2D2338" stroke-miterlimit="10" stroke-linecap="round" stroke-linejoin="round"/>
<path d="M32.0858 359.277C32.0858 359.277 13.5798 359.008 13.5798 375.161" stroke="#2D2338" stroke-miterlimit="10" stroke-linecap="round" stroke-linejoin="round"/>
<path d="M30.4882 369.507C30.0888 367.084 21.9675 364.123 20.6361 370.315C19.3048 376.507 29.29 372.738 32.3521 369.911C32.3521 369.911 26.6272 375.565 28.358 377.18" stroke="#2D2338" stroke-miterlimit="10" stroke-linecap="round" stroke-linejoin="round"/>
<path d="M31.6864 378.93C31.6864 378.93 29.2899 382.026 26.6272 380.545" stroke="#2D2338" stroke-miterlimit="10" stroke-linecap="round" stroke-linejoin="round"/>
<path d="M47.9289 368.026L34.0828 382.43C34.0828 382.43 41.0058 375.295 45.1331 377.584C50.1922 380.411 43.6686 388.084 38.21 382.564" stroke="#2D2338" stroke-miterlimit="10" stroke-linecap="round" stroke-linejoin="round"/>
<path d="M54.9852 371.93C54.9852 371.93 58.713 389.026 39.6746 389.699" stroke="#2D2338" stroke-miterlimit="10" stroke-linecap="round" stroke-linejoin="round"/>
<path d="M303.284 81.5743L310.074 82.6512V98.1314L324.852 71.0746L348.018 74.8437" stroke="#2D2338" stroke-miterlimit="10" stroke-linecap="round" stroke-linejoin="round"/>
<path d="M327.382 82.9204L337.5 101.093" stroke="#2D2338" stroke-miterlimit="10" stroke-linecap="round" stroke-linejoin="round"/>
<path d="M340.163 85.0742L321.923 98.5352" stroke="#2D2338" stroke-miterlimit="10" stroke-linecap="round" stroke-linejoin="round"/>
<path d="M211.553 109.035C209.822 106.881 199.97 108.362 201.967 115.496C203.964 122.631 212.219 113.073 213.683 108.362C213.683 108.362 211.021 117.381 213.683 118.054" stroke="#2D2338" stroke-miterlimit="10" stroke-linecap="round" stroke-linejoin="round"/>
<path d="M219.142 101.766L216.878 109.708C216.878 109.708 217.944 105.67 219.941 105.67C222.337 105.67 221.405 109.708 218.476 108.9" stroke="#2D2338" stroke-miterlimit="10" stroke-linecap="round" stroke-linejoin="round"/>
<path d="M405.666 199.628L401.006 216.724L411.257 227.896" stroke="#2D2338" stroke-miterlimit="10" stroke-linecap="round" stroke-linejoin="round"/>
<path d="M411.523 206.493L423.239 216.454" stroke="#2D2338" stroke-miterlimit="10" stroke-linecap="round" stroke-linejoin="round"/>
<path d="M419.512 204.07L414.452 216.589" stroke="#2D2338" stroke-miterlimit="10" stroke-linecap="round" stroke-linejoin="round"/>
<path d="M427.766 215.108C427.766 215.108 427.899 218.608 426.302 219.147" stroke="#2D2338" stroke-miterlimit="10" stroke-linecap="round" stroke-linejoin="round"/>
<path d="M429.231 202.59L436.287 207.974" stroke="#2D2338" stroke-miterlimit="10" stroke-linecap="round" stroke-linejoin="round"/>
<path d="M438.816 198.282L431.893 223.589" stroke="#2D2338" stroke-miterlimit="10" stroke-linecap="round" stroke-linejoin="round"/>
<path d="M439.216 189.532L450.532 202.455L445.739 216.589" stroke="#2D2338" stroke-miterlimit="10" stroke-linecap="round" stroke-linejoin="round"/>
<path d="M128.343 522.964L144.586 473.831L164.423 496.176L128.343 522.964Z" stroke="#2D2338" stroke-miterlimit="10" stroke-linecap="round" stroke-linejoin="round"/>
<path d="M159.63 499.811L155.37 494.965L159.896 491.061" stroke="#2D2338" stroke-miterlimit="10" stroke-linecap="round" stroke-linejoin="round"/>
<path d="M31.8135 246.786C40.3052 243.229 44.3377 233.386 40.8202 224.801C37.3028 216.215 27.5674 212.138 19.0758 215.694C10.5841 219.251 6.55165 229.094 10.0691 237.679C13.5865 246.265 23.3219 250.342 31.8135 246.786Z" stroke="#2D2338" stroke-miterlimit="10" stroke-linecap="round" stroke-linejoin="round"/>
<path d="M43.8016 235.165C54.0221 235.165 62.3075 226.788 62.3075 216.455C62.3075 206.121 54.0221 197.744 43.8016 197.744C33.581 197.744 25.2957 206.121 25.2957 216.455C25.2957 226.788 33.581 235.165 43.8016 235.165Z" stroke="#2D2338" stroke-miterlimit="10" stroke-linecap="round" stroke-linejoin="round"/>
<path d="M28.6242 214.705L26.3608 222.647" stroke="#2D2338" stroke-miterlimit="10" stroke-linecap="round" stroke-linejoin="round"/>
<path d="M31.8195 215.781L28.6243 227.089" stroke="#2D2338" stroke-miterlimit="10" stroke-linecap="round" stroke-linejoin="round"/>
<path d="M35.1477 217.666L31.8193 230.454" stroke="#2D2338" stroke-miterlimit="10" stroke-linecap="round" stroke-linejoin="round"/>
<path d="M38.8757 221.435L36.4792 233.685" stroke="#2D2338" stroke-miterlimit="10" stroke-linecap="round" stroke-linejoin="round"/>
<path d="M41.0059 225.339L38.8757 234.492" stroke="#2D2338" stroke-miterlimit="10" stroke-linecap="round" stroke-linejoin="round"/>
<path d="M9.4526 209.724C7.9881 209.32 3.99402 213.089 7.05615 215.647C10.1183 218.204 10.9171 211.339 10.1183 208.782C10.1183 208.782 11.7159 213.762 13.0473 213.089" stroke="#2D2338" stroke-miterlimit="10" stroke-linecap="round" stroke-linejoin="round"/>
<path d="M30.8875 188.052L36.2129 197.878C36.2129 197.878 33.5502 193.032 35.4141 191.148C37.6774 188.859 40.7395 193.705 36.8786 195.724" stroke="#2D2338" stroke-miterlimit="10" stroke-linecap="round" stroke-linejoin="round"/>
<path d="M128.21 186.975L135.799 194.109" stroke="#2D2338" stroke-miterlimit="10" stroke-linecap="round" stroke-linejoin="round"/>
<path d="M135.799 185.09L129.408 194.513" stroke="#2D2338" stroke-miterlimit="10" stroke-linecap="round" stroke-linejoin="round"/>
<path d="M143.121 187.782L150.71 184.956" stroke="#2D2338" stroke-miterlimit="10" stroke-linecap="round" stroke-linejoin="round"/>
<path d="M154.305 177.013L158.831 181.052" stroke="#2D2338" stroke-miterlimit="10" stroke-linecap="round" stroke-linejoin="round"/>
<path d="M162.426 172.033L156.568 192.225" stroke="#2D2338" stroke-miterlimit="10" stroke-linecap="round" stroke-linejoin="round"/>
<path d="M491.139 167.995L490.873 152.649H502.322C502.322 152.649 495.932 156.149 498.861 164.495C501.79 172.706 506.449 167.995 506.449 167.995" stroke="#2D2338" stroke-miterlimit="10" stroke-linecap="round" stroke-linejoin="round"/>
<path d="M471.701 430.217L484.748 421.198L502.056 422.409L503.121 444.62L490.473 453.774L474.763 452.697L471.701 430.217Z" stroke="#2D2338" stroke-miterlimit="10" stroke-linecap="round" stroke-linejoin="round"/>
<path d="M474.763 452.697L487.411 443.409L503.121 444.62" stroke="#2D2338" stroke-miterlimit="10" stroke-linecap="round" stroke-linejoin="round"/>
<path d="M487.411 443.409L484.748 421.198" stroke="#2D2338" stroke-miterlimit="10" stroke-linecap="round" stroke-linejoin="round"/>
<path d="M471.701 430.217L489.009 432.371L502.056 422.409" stroke="#2D2338" stroke-miterlimit="10" stroke-linecap="round" stroke-linejoin="round"/>
<path d="M489.009 432.371L490.473 453.774" stroke="#2D2338" stroke-miterlimit="10" stroke-linecap="round" stroke-linejoin="round"/>
<path d="M474.097 263.703L473.565 293.183L499.127 281.472L474.097 263.703Z" stroke="#2D2338" stroke-miterlimit="10" stroke-linecap="round" stroke-linejoin="round"/>
<path d="M474.097 263.703L486.346 287.26" stroke="#2D2338" stroke-miterlimit="10" stroke-linecap="round" stroke-linejoin="round"/>
<path d="M484.349 283.491L487.278 282.01L489.275 286.048" stroke="#2D2338" stroke-miterlimit="10" stroke-linecap="round" stroke-linejoin="round"/>
<path d="M250.695 260.876L261.213 272.318" stroke="#2D2338" stroke-miterlimit="10" stroke-linecap="round" stroke-linejoin="round"/>
<path d="M261.346 259.261L252.426 271.645" stroke="#2D2338" stroke-miterlimit="10" stroke-linecap="round" stroke-linejoin="round"/>
<path d="M265.606 253.338C265.606 253.338 268.136 252.396 268.535 254.953C269.068 257.511 264.808 260.876 264.808 260.876H270.799" stroke="#2D2338" stroke-miterlimit="10" stroke-linecap="round" stroke-linejoin="round"/>
<path d="M85.6064 88.8433C86.6715 75.113 94.6597 63.5364 105.843 57.4789" stroke="#2D2338" stroke-miterlimit="10" stroke-linecap="round" stroke-linejoin="round"/>
<path d="M115.029 129.9C105.177 127.477 96.7898 121.285 91.4644 112.939" stroke="#2D2338" stroke-miterlimit="10" stroke-linecap="round" stroke-linejoin="round"/>
<path d="M162.559 95.0354C160.828 116.573 142.323 132.457 121.021 130.842" stroke="#2D2338" stroke-miterlimit="10" stroke-linecap="round" stroke-linejoin="round"/>
<path d="M127.145 53.0367C145.518 54.5175 159.896 68.7862 162.293 86.5549" stroke="#2D2338" stroke-miterlimit="10" stroke-linecap="round" stroke-linejoin="round"/>
<path d="M140.725 121.958C135 125.188 128.343 126.804 121.42 126.265C102.648 124.784 88.6686 108.227 90.2662 89.2471" stroke="#2D2338" stroke-miterlimit="10" stroke-linecap="round" stroke-linejoin="round"/>
<path d="M92.2632 79.5551C97.5886 65.6902 111.302 56.402 126.745 57.6135C145.518 59.0942 159.497 75.6514 157.899 94.6315C157.234 102.439 154.171 109.439 149.379 114.823" stroke="#2D2338" stroke-miterlimit="10" stroke-linecap="round" stroke-linejoin="round"/>
<path d="M120.754 67.1709L124.083 91.9393L142.855 86.0164" stroke="#2D2338" stroke-miterlimit="10" stroke-linecap="round" stroke-linejoin="round"/>
<path d="M417.648 140.13C406.598 140.265 396.08 133.265 392.219 122.092C388.491 111.593 391.686 100.285 399.408 93.1508" stroke="#2D2338" stroke-miterlimit="10" stroke-linecap="round" stroke-linejoin="round"/>
<path d="M442.677 121.823C440.148 129.361 434.29 135.688 426.302 138.515" stroke="#2D2338" stroke-miterlimit="10" stroke-linecap="round" stroke-linejoin="round"/>
<path d="M408.461 87.6318C422.308 82.6512 437.618 90.0548 442.544 104.189" stroke="#2D2338" stroke-miterlimit="10" stroke-linecap="round" stroke-linejoin="round"/>
<path d="M430.562 93.2855C434.556 96.1123 437.884 100.151 439.615 105.131C443.876 117.515 437.485 131.111 425.237 135.553C416.05 138.784 406.198 135.957 399.941 129.092" stroke="#2D2338" stroke-miterlimit="10" stroke-linecap="round" stroke-linejoin="round"/>
<path d="M395.148 121.015C390.888 108.631 397.278 95.0354 409.527 90.5932C414.186 88.9779 418.846 88.8433 423.24 90.0548" stroke="#2D2338" stroke-miterlimit="10" stroke-linecap="round" stroke-linejoin="round"/>
<path d="M408.328 98.4007L417.382 113.073L409.127 123.842" stroke="#2D2338" stroke-miterlimit="10" stroke-linecap="round" stroke-linejoin="round"/>
<path d="M228.728 515.426C228.728 508.022 232.456 501.426 238.18 497.522" stroke="#2D2338" stroke-miterlimit="10" stroke-linecap="round" stroke-linejoin="round"/>
<path d="M265.607 530.367C261.746 534.54 256.154 537.098 250.03 537.098C240.577 537.098 232.589 530.906 229.793 522.425" stroke="#2D2338" stroke-miterlimit="10" stroke-linecap="round" stroke-linejoin="round"/>
<path d="M250.03 493.753C261.879 493.753 271.464 503.445 271.464 515.426" stroke="#2D2338" stroke-miterlimit="10" stroke-linecap="round" stroke-linejoin="round"/>
<path d="M250.03 534.54C239.645 534.54 231.124 525.925 231.124 515.426" stroke="#2D2338" stroke-miterlimit="10" stroke-linecap="round" stroke-linejoin="round"/>
<path d="M235.385 503.445C238.846 499.138 244.171 496.311 250.163 496.311C260.547 496.311 269.068 504.926 269.068 515.426C269.068 522.56 265.207 528.887 259.349 532.117" stroke="#2D2338" stroke-miterlimit="10" stroke-linecap="round" stroke-linejoin="round"/>
<path d="M247.1 528.483L250.029 515.426L246.035 504.791" stroke="#2D2338" stroke-miterlimit="10" stroke-linecap="round" stroke-linejoin="round"/>
<path d="M0.665771 580.712H539.334" stroke="#2D2338" stroke-miterlimit="10" stroke-linecap="round" stroke-linejoin="round"/>
<path d="M273.994 296.952L265.207 465.754L154.039 459.831L154.971 441.928L162.826 291.029L232.855 294.663L273.994 296.952Z" fill="white"/>
<path opacity="0.2" d="M239.246 395.891L214.216 397.91L221.538 429.813L154.97 441.928L162.825 291.029L232.855 294.663L239.246 395.891Z" fill="black" fill-opacity="0.7"/>
<path d="M273.994 296.952L265.207 465.754L154.039 459.831L154.971 441.928L162.826 291.029L232.855 294.663L273.994 296.952Z" stroke="#2D2338" stroke-miterlimit="10" stroke-linecap="round" stroke-linejoin="round"/>
<path d="M170.681 302.606L199.571 304.086" stroke="#2D2338" stroke-width="2" stroke-miterlimit="10" stroke-linecap="round" stroke-linejoin="round"/>
<path d="M170.414 308.125L189.985 309.201" stroke="#2D2338" stroke-width="2" stroke-miterlimit="10" stroke-linecap="round" stroke-linejoin="round"/>
<path d="M176.672 321.72L259.882 326.162" stroke="#2D2338" stroke-width="2" stroke-miterlimit="10" stroke-linecap="round" stroke-linejoin="round"/>
<path d="M176.405 327.374L259.615 331.816" stroke="#2D2338" stroke-width="2" stroke-miterlimit="10" stroke-linecap="round" stroke-linejoin="round"/>
<path d="M176.139 333.97L247.101 337.739" stroke="#2D2338" stroke-width="2" stroke-miterlimit="10" stroke-linecap="round" stroke-linejoin="round"/>
<path d="M182.963 340.338L176.182 339.982L175.822 346.837L182.603 347.194L182.963 340.338Z" stroke="#2D2338" stroke-miterlimit="10" stroke-linecap="round" stroke-linejoin="round"/>
<path d="M195.216 340.88L188.436 340.52L188.08 347.375L194.86 347.735L195.216 340.88Z" stroke="#2D2338" stroke-miterlimit="10" stroke-linecap="round" stroke-linejoin="round"/>
<path d="M207.463 341.551L200.683 341.191L200.327 348.047L207.107 348.407L207.463 341.551Z" stroke="#2D2338" stroke-miterlimit="10" stroke-linecap="round" stroke-linejoin="round"/>
<path d="M219.711 342.224L212.93 341.864L212.574 348.719L219.354 349.079L219.711 342.224Z" stroke="#2D2338" stroke-miterlimit="10" stroke-linecap="round" stroke-linejoin="round"/>
<path d="M172.278 321.586C172.278 322.528 171.479 323.201 170.547 323.201C169.615 323.201 168.95 322.393 168.95 321.451C168.95 320.509 169.749 319.836 170.68 319.836C171.612 319.836 172.278 320.643 172.278 321.586Z" fill="#2D2338"/>
<path d="M175.074 354.565L258.284 359.008" stroke="#2D2338" stroke-width="2" stroke-miterlimit="10" stroke-linecap="round" stroke-linejoin="round"/>
<path d="M174.675 360.219L257.885 364.527" stroke="#2D2338" stroke-width="2" stroke-miterlimit="10" stroke-linecap="round" stroke-linejoin="round"/>
<path d="M174.408 366.68L245.37 370.449" stroke="#2D2338" stroke-width="2" stroke-miterlimit="10" stroke-linecap="round" stroke-linejoin="round"/>
<path d="M181.234 373.046L174.453 372.69L174.093 379.545L180.874 379.902L181.234 373.046Z" stroke="#2D2338" stroke-miterlimit="10" stroke-linecap="round" stroke-linejoin="round"/>
<path d="M193.481 373.722L186.7 373.362L186.344 380.217L193.124 380.577L193.481 373.722Z" stroke="#2D2338" stroke-miterlimit="10" stroke-linecap="round" stroke-linejoin="round"/>
<path d="M205.728 374.394L198.947 374.034L198.591 380.89L205.372 381.25L205.728 374.394Z" stroke="#2D2338" stroke-miterlimit="10" stroke-linecap="round" stroke-linejoin="round"/>
<path d="M217.982 374.932L211.201 374.572L210.845 381.427L217.626 381.787L217.982 374.932Z" stroke="#2D2338" stroke-miterlimit="10" stroke-linecap="round" stroke-linejoin="round"/>
<path d="M170.547 354.296C170.547 355.238 169.749 355.911 168.817 355.911C167.885 355.911 167.219 355.104 167.219 354.162C167.219 353.219 168.018 352.546 168.95 352.546C169.882 352.546 170.681 353.354 170.547 354.296Z" fill="#2D2338"/>
<path d="M173.344 387.276L256.554 391.718" stroke="#2D2338" stroke-width="2" stroke-miterlimit="10" stroke-linecap="round" stroke-linejoin="round"/>
<path d="M173.077 392.93L256.287 397.372" stroke="#2D2338" stroke-width="2" stroke-miterlimit="10" stroke-linecap="round" stroke-linejoin="round"/>
<path d="M172.678 399.391L243.639 403.16" stroke="#2D2338" stroke-width="2" stroke-miterlimit="10" stroke-linecap="round" stroke-linejoin="round"/>
<path d="M179.505 405.755L172.725 405.398L172.365 412.254L179.145 412.61L179.505 405.755Z" stroke="#2D2338" stroke-miterlimit="10" stroke-linecap="round" stroke-linejoin="round"/>
<path d="M191.752 406.431L184.972 406.07L184.616 412.926L191.396 413.286L191.752 406.431Z" stroke="#2D2338" stroke-miterlimit="10" stroke-linecap="round" stroke-linejoin="round"/>
<path d="M203.999 407.102L197.219 406.742L196.862 413.598L203.643 413.958L203.999 407.102Z" stroke="#2D2338" stroke-miterlimit="10" stroke-linecap="round" stroke-linejoin="round"/>
<path d="M216.247 407.775L209.466 407.415L209.11 414.27L215.89 414.63L216.247 407.775Z" stroke="#2D2338" stroke-miterlimit="10" stroke-linecap="round" stroke-linejoin="round"/>
<path d="M168.95 387.007C168.95 387.949 168.151 388.622 167.219 388.622C166.287 388.622 165.621 387.814 165.621 386.872C165.621 385.93 166.42 385.257 167.352 385.257C168.284 385.257 168.95 386.064 168.95 387.007Z" fill="#2D2338"/>
<path d="M171.613 420.929L254.823 425.371" stroke="#2D2338" stroke-width="2" stroke-miterlimit="10" stroke-linecap="round" stroke-linejoin="round"/>
<path d="M171.213 426.582L254.423 431.024" stroke="#2D2338" stroke-width="2" stroke-miterlimit="10" stroke-linecap="round" stroke-linejoin="round"/>
<path d="M170.947 433.178L241.908 436.947" stroke="#2D2338" stroke-width="2" stroke-miterlimit="10" stroke-linecap="round" stroke-linejoin="round"/>
<path d="M177.776 439.407L170.996 439.051L170.636 445.906L177.416 446.263L177.776 439.407Z" stroke="#2D2338" stroke-miterlimit="10" stroke-linecap="round" stroke-linejoin="round"/>
<path d="M190.023 440.084L183.243 439.723L182.887 446.579L189.667 446.939L190.023 440.084Z" stroke="#2D2338" stroke-miterlimit="10" stroke-linecap="round" stroke-linejoin="round"/>
<path d="M202.27 440.756L195.49 440.396L195.134 447.251L201.914 447.611L202.27 440.756Z" stroke="#2D2338" stroke-miterlimit="10" stroke-linecap="round" stroke-linejoin="round"/>
<path d="M214.518 441.428L207.737 441.068L207.381 447.923L214.161 448.284L214.518 441.428Z" stroke="#2D2338" stroke-miterlimit="10" stroke-linecap="round" stroke-linejoin="round"/>
<path d="M167.086 420.794C167.086 421.736 166.287 422.409 165.355 422.409C164.423 422.409 163.758 421.602 163.758 420.659C163.758 419.717 164.556 419.044 165.488 419.044C166.42 419.044 167.219 419.852 167.086 420.794Z" fill="#2D2338"/>
<path d="M178.403 342.854L179.335 344.335L182.929 340.297" stroke="#2D2338" stroke-width="2" stroke-miterlimit="10" stroke-linecap="round" stroke-linejoin="round"/>
<path d="M201.302 376.372L202.101 377.988L205.695 373.949" stroke="#2D2338" stroke-width="2" stroke-miterlimit="10" stroke-linecap="round" stroke-linejoin="round"/>
<path d="M212.752 410.967L213.551 412.583L217.278 408.544" stroke="#2D2338" stroke-width="2" stroke-miterlimit="10" stroke-linecap="round" stroke-linejoin="round"/>
<path d="M185.592 441.793L186.391 443.409L190.118 439.37" stroke="#2D2338" stroke-width="2" stroke-miterlimit="10" stroke-linecap="round" stroke-linejoin="round"/>
<path d="M200.104 417.967L92.796 448.12L48.0623 285.106L92.5297 272.722L155.37 255.088L195.976 402.891L200.104 417.967Z" fill="white"/>
<path opacity="0.2" d="M195.977 402.891L113.033 408.275L92.5298 272.722L155.37 255.088L195.977 402.891Z" fill="black" fill-opacity="0.7"/>
<path d="M200.104 417.967L92.796 448.12L48.0623 285.106L92.5297 272.722L155.37 255.088L195.976 402.891L200.104 417.967Z" stroke="#2D2338" stroke-miterlimit="10" stroke-linecap="round" stroke-linejoin="round"/>
<path d="M59.1125 293.587L87.0711 285.779" stroke="#2D2338" stroke-width="2" stroke-miterlimit="10" stroke-linecap="round" stroke-linejoin="round"/>
<path d="M60.5769 298.971L79.6154 293.721" stroke="#2D2338" stroke-width="2" stroke-miterlimit="10" stroke-linecap="round" stroke-linejoin="round"/>
<path d="M70.9617 309.875L151.243 287.395" stroke="#2D2338" stroke-width="2" stroke-miterlimit="10" stroke-linecap="round" stroke-linejoin="round"/>
<path d="M72.4263 315.259L152.707 292.779" stroke="#2D2338" stroke-width="2" stroke-miterlimit="10" stroke-linecap="round" stroke-linejoin="round"/>
<path d="M74.157 321.586L142.589 302.336" stroke="#2D2338" stroke-width="2" stroke-miterlimit="10" stroke-linecap="round" stroke-linejoin="round"/>
<path d="M82.5843 325.522L76.0422 327.36L77.8599 333.974L84.402 332.136L82.5843 325.522Z" stroke="#2D2338" stroke-miterlimit="10" stroke-linecap="round" stroke-linejoin="round"/>
<path d="M94.4278 322.151L87.8857 323.989L89.7034 330.603L96.2455 328.765L94.4278 322.151Z" stroke="#2D2338" stroke-miterlimit="10" stroke-linecap="round" stroke-linejoin="round"/>
<path d="M106.266 318.783L99.7236 320.621L101.541 327.235L108.083 325.398L106.266 318.783Z" stroke="#2D2338" stroke-miterlimit="10" stroke-linecap="round" stroke-linejoin="round"/>
<path d="M118.103 315.415L111.561 317.253L113.379 323.868L119.921 322.03L118.103 315.415Z" stroke="#2D2338" stroke-miterlimit="10" stroke-linecap="round" stroke-linejoin="round"/>
<path d="M66.7014 311.086C66.9677 312.028 66.4351 312.971 65.5032 313.24C64.5712 313.509 63.6393 312.971 63.373 312.028C63.1067 311.086 63.6393 310.144 64.5712 309.875C65.5032 309.605 66.4351 310.144 66.7014 311.086Z" fill="#2D2338"/>
<path d="M79.6155 341.508L159.897 318.893" stroke="#2D2338" stroke-width="2" stroke-miterlimit="10" stroke-linecap="round" stroke-linejoin="round"/>
<path d="M81.0801 346.893L161.361 324.413" stroke="#2D2338" stroke-width="2" stroke-miterlimit="10" stroke-linecap="round" stroke-linejoin="round"/>
<path d="M82.8108 353.219L151.376 333.97" stroke="#2D2338" stroke-width="2" stroke-miterlimit="10" stroke-linecap="round" stroke-linejoin="round"/>
<path d="M91.3446 356.995L84.8025 358.832L86.6202 365.447L93.1623 363.609L91.3446 356.995Z" stroke="#2D2338" stroke-miterlimit="10" stroke-linecap="round" stroke-linejoin="round"/>
<path d="M103.214 353.759L96.6716 355.597L98.4893 362.212L105.031 360.374L103.214 353.759Z" stroke="#2D2338" stroke-miterlimit="10" stroke-linecap="round" stroke-linejoin="round"/>
<path d="M114.923 350.428L108.381 352.265L110.199 358.88L116.741 357.042L114.923 350.428Z" stroke="#2D2338" stroke-miterlimit="10" stroke-linecap="round" stroke-linejoin="round"/>
<path d="M126.767 347.056L120.225 348.894L122.043 355.508L128.585 353.671L126.767 347.056Z" stroke="#2D2338" stroke-miterlimit="10" stroke-linecap="round" stroke-linejoin="round"/>
<path d="M75.3552 342.72C75.6215 343.662 75.0889 344.604 74.157 344.873C73.225 345.143 72.2931 344.604 72.0268 343.662C71.7605 342.72 72.2931 341.777 73.225 341.508C74.157 341.239 75.0889 341.777 75.3552 342.72Z" fill="#2D2338"/>
<path d="M88.2693 373.142L168.55 350.527" stroke="#2D2338" stroke-width="2" stroke-miterlimit="10" stroke-linecap="round" stroke-linejoin="round"/>
<path d="M89.8669 378.526L170.015 355.911" stroke="#2D2338" stroke-width="2" stroke-miterlimit="10" stroke-linecap="round" stroke-linejoin="round"/>
<path d="M91.5977 384.853L160.03 365.603" stroke="#2D2338" stroke-width="2" stroke-miterlimit="10" stroke-linecap="round" stroke-linejoin="round"/>
<path d="M100.003 388.638L93.4612 390.476L95.2789 397.09L101.821 395.253L100.003 388.638Z" stroke="#2D2338" stroke-miterlimit="10" stroke-linecap="round" stroke-linejoin="round"/>
<path d="M111.846 385.268L105.304 387.105L107.121 393.72L113.663 391.882L111.846 385.268Z" stroke="#2D2338" stroke-miterlimit="10" stroke-linecap="round" stroke-linejoin="round"/>
<path d="M123.715 382.033L117.173 383.87L118.991 390.485L125.533 388.647L123.715 382.033Z" stroke="#2D2338" stroke-miterlimit="10" stroke-linecap="round" stroke-linejoin="round"/>
<path d="M135.553 378.665L129.011 380.503L130.828 387.117L137.371 385.28L135.553 378.665Z" stroke="#2D2338" stroke-miterlimit="10" stroke-linecap="round" stroke-linejoin="round"/>
<path d="M84.009 374.353C84.2753 375.295 83.7427 376.238 82.8108 376.507C81.8788 376.776 80.9469 376.238 80.6806 375.295C80.4143 374.353 80.9469 373.411 81.8788 373.142C82.8108 372.872 83.7427 373.411 84.009 374.353Z" fill="#2D2338"/>
<path d="M97.1895 405.583L177.471 382.968" stroke="#2D2338" stroke-width="2" stroke-miterlimit="10" stroke-linecap="round" stroke-linejoin="round"/>
<path d="M98.7871 410.967L179.068 388.487" stroke="#2D2338" stroke-width="2" stroke-miterlimit="10" stroke-linecap="round" stroke-linejoin="round"/>
<path d="M100.518 417.294L168.95 398.045" stroke="#2D2338" stroke-width="2" stroke-miterlimit="10" stroke-linecap="round" stroke-linejoin="round"/>
<path d="M108.912 421.082L102.37 422.92L104.188 429.535L110.73 427.697L108.912 421.082Z" stroke="#2D2338" stroke-miterlimit="10" stroke-linecap="round" stroke-linejoin="round"/>
<path d="M120.786 417.844L114.243 419.682L116.061 426.297L122.603 424.459L120.786 417.844Z" stroke="#2D2338" stroke-miterlimit="10" stroke-linecap="round" stroke-linejoin="round"/>
<path d="M132.623 414.477L126.081 416.314L127.899 422.929L134.441 421.091L132.623 414.477Z" stroke="#2D2338" stroke-miterlimit="10" stroke-linecap="round" stroke-linejoin="round"/>
<path d="M144.462 411.109L137.919 412.947L139.737 419.561L146.279 417.724L144.462 411.109Z" stroke="#2D2338" stroke-miterlimit="10" stroke-linecap="round" stroke-linejoin="round"/>
<path d="M92.9292 406.794C93.1954 407.737 92.6629 408.679 91.7309 408.948C90.799 409.217 89.867 408.679 89.6008 407.737C89.3345 406.794 89.867 405.852 90.799 405.583C91.7309 405.314 92.6629 405.852 92.9292 406.794Z" fill="#2D2338"/>
<path d="M90.2664 326.162L91.5977 327.239L93.7279 322.259" stroke="#2D2338" stroke-width="2" stroke-miterlimit="10" stroke-linecap="round" stroke-linejoin="round"/>
<path d="M87.071 361.431L88.4024 362.507L90.5326 357.527" stroke="#2D2338" stroke-width="2" stroke-miterlimit="10" stroke-linecap="round" stroke-linejoin="round"/>
<path d="M95.7251 392.66L97.0565 393.872L99.1866 388.891" stroke="#2D2338" stroke-width="2" stroke-miterlimit="10" stroke-linecap="round" stroke-linejoin="round"/>
<path d="M128.343 418.236L129.675 419.448L131.805 414.467" stroke="#2D2338" stroke-width="2" stroke-miterlimit="10" stroke-linecap="round" stroke-linejoin="round"/>
<path d="M210.616 217.376L99.8267 228.136L115.828 396.563L226.617 385.803L210.616 217.376Z" fill="white" stroke="#2D2338" stroke-miterlimit="10" stroke-linecap="round" stroke-linejoin="round"/>
<path d="M109.172 238.396L138.062 235.569" stroke="#2D2338" stroke-width="2" stroke-miterlimit="10" stroke-linecap="round" stroke-linejoin="round"/>
<path d="M109.704 244.05L129.408 242.165" stroke="#2D2338" stroke-width="2" stroke-miterlimit="10" stroke-linecap="round" stroke-linejoin="round"/>
<path d="M118.092 256.569L201.036 248.492" stroke="#2D2338" stroke-width="2" stroke-miterlimit="10" stroke-linecap="round" stroke-linejoin="round"/>
<path d="M118.624 262.088L201.568 254.146" stroke="#2D2338" stroke-width="2" stroke-miterlimit="10" stroke-linecap="round" stroke-linejoin="round"/>
<path d="M119.157 268.684L189.985 261.818" stroke="#2D2338" stroke-width="2" stroke-miterlimit="10" stroke-linecap="round" stroke-linejoin="round"/>
<path d="M126.799 273.891L120.041 274.548L120.69 281.381L127.449 280.725L126.799 273.891Z" stroke="#2D2338" stroke-miterlimit="10" stroke-linecap="round" stroke-linejoin="round"/>
<path d="M139.045 272.677L132.286 273.333L132.936 280.167L139.694 279.511L139.045 272.677Z" stroke="#2D2338" stroke-miterlimit="10" stroke-linecap="round" stroke-linejoin="round"/>
<path d="M151.304 271.598L144.545 272.254L145.194 279.088L151.953 278.431L151.304 271.598Z" stroke="#2D2338" stroke-miterlimit="10" stroke-linecap="round" stroke-linejoin="round"/>
<path d="M163.549 270.384L156.791 271.04L157.44 277.874L164.199 277.218L163.549 270.384Z" stroke="#2D2338" stroke-miterlimit="10" stroke-linecap="round" stroke-linejoin="round"/>
<path d="M113.565 256.972C113.698 257.915 113.033 258.722 112.101 258.857C111.169 258.992 110.37 258.319 110.237 257.376C110.104 256.434 110.769 255.626 111.701 255.492C112.766 255.357 113.565 256.03 113.565 256.972Z" fill="#2D2338"/>
<path d="M121.154 289.144L204.098 281.202" stroke="#2D2338" stroke-width="2" stroke-miterlimit="10" stroke-linecap="round" stroke-linejoin="round"/>
<path d="M121.686 294.798L204.63 286.721" stroke="#2D2338" stroke-width="2" stroke-miterlimit="10" stroke-linecap="round" stroke-linejoin="round"/>
<path d="M122.352 301.259L193.047 294.394" stroke="#2D2338" stroke-width="2" stroke-miterlimit="10" stroke-linecap="round" stroke-linejoin="round"/>
<path d="M130 306.591L123.241 307.248L123.891 314.081L130.649 313.425L130 306.591Z" stroke="#2D2338" stroke-miterlimit="10" stroke-linecap="round" stroke-linejoin="round"/>
<path d="M142.246 305.378L135.487 306.034L136.137 312.868L142.895 312.211L142.246 305.378Z" stroke="#2D2338" stroke-miterlimit="10" stroke-linecap="round" stroke-linejoin="round"/>
<path d="M154.359 304.176L147.601 304.833L148.25 311.666L155.008 311.01L154.359 304.176Z" stroke="#2D2338" stroke-miterlimit="10" stroke-linecap="round" stroke-linejoin="round"/>
<path d="M166.606 302.964L159.847 303.62L160.496 310.454L167.255 309.797L166.606 302.964Z" stroke="#2D2338" stroke-miterlimit="10" stroke-linecap="round" stroke-linejoin="round"/>
<path d="M116.76 289.683C116.894 290.625 116.228 291.433 115.296 291.567C114.364 291.702 113.565 291.029 113.432 290.087C113.299 289.144 113.965 288.337 114.897 288.202C115.828 287.933 116.627 288.741 116.76 289.683Z" fill="#2D2338"/>
<path d="M124.216 321.855L207.16 313.778" stroke="#2D2338" stroke-width="2" stroke-miterlimit="10" stroke-linecap="round" stroke-linejoin="round"/>
<path d="M124.749 327.374L207.692 319.432" stroke="#2D2338" stroke-width="2" stroke-miterlimit="10" stroke-linecap="round" stroke-linejoin="round"/>
<path d="M125.414 333.97L196.11 327.105" stroke="#2D2338" stroke-width="2" stroke-miterlimit="10" stroke-linecap="round" stroke-linejoin="round"/>
<path d="M133.056 339.171L126.297 339.827L126.946 346.66L133.705 346.004L133.056 339.171Z" stroke="#2D2338" stroke-miterlimit="10" stroke-linecap="round" stroke-linejoin="round"/>
<path d="M145.315 338.092L138.556 338.748L139.205 345.582L145.964 344.925L145.315 338.092Z" stroke="#2D2338" stroke-miterlimit="10" stroke-linecap="round" stroke-linejoin="round"/>
<path d="M157.56 336.877L150.802 337.533L151.451 344.367L158.209 343.71L157.56 336.877Z" stroke="#2D2338" stroke-miterlimit="10" stroke-linecap="round" stroke-linejoin="round"/>
<path d="M169.806 335.664L163.048 336.32L163.697 343.154L170.456 342.497L169.806 335.664Z" stroke="#2D2338" stroke-miterlimit="10" stroke-linecap="round" stroke-linejoin="round"/>
<path d="M119.822 322.259C119.956 323.201 119.29 324.009 118.358 324.143C117.426 324.278 116.627 323.605 116.494 322.663C116.361 321.72 117.027 320.913 117.959 320.778C118.89 320.643 119.689 321.316 119.822 322.259Z" fill="#2D2338"/>
<path d="M127.411 355.373L210.355 347.431" stroke="#2D2338" stroke-width="2" stroke-miterlimit="10" stroke-linecap="round" stroke-linejoin="round"/>
<path d="M127.944 361.027L210.888 352.95" stroke="#2D2338" stroke-width="2" stroke-miterlimit="10" stroke-linecap="round" stroke-linejoin="round"/>
<path d="M128.61 367.488L199.305 360.623" stroke="#2D2338" stroke-width="2" stroke-miterlimit="10" stroke-linecap="round" stroke-linejoin="round"/>
<path d="M136.258 372.822L129.499 373.478L130.148 380.312L136.907 379.655L136.258 372.822Z" stroke="#2D2338" stroke-miterlimit="10" stroke-linecap="round" stroke-linejoin="round"/>
<path d="M148.504 371.608L141.745 372.265L142.394 379.098L149.153 378.442L148.504 371.608Z" stroke="#2D2338" stroke-miterlimit="10" stroke-linecap="round" stroke-linejoin="round"/>
<path d="M160.75 370.395L153.991 371.051L154.64 377.885L161.399 377.228L160.75 370.395Z" stroke="#2D2338" stroke-miterlimit="10" stroke-linecap="round" stroke-linejoin="round"/>
<path d="M172.863 369.193L166.104 369.85L166.753 376.683L173.512 376.027L172.863 369.193Z" stroke="#2D2338" stroke-miterlimit="10" stroke-linecap="round" stroke-linejoin="round"/>
<path d="M123.018 355.911C123.151 356.854 122.485 357.661 121.553 357.796C120.621 357.931 119.822 357.258 119.689 356.315C119.556 355.373 120.222 354.565 121.154 354.431C122.086 354.162 122.885 354.969 123.018 355.911Z" fill="#2D2338"/>
<path d="M122.751 277.029L123.817 278.51L126.879 273.933" stroke="#2D2338" stroke-width="2" stroke-miterlimit="10" stroke-linecap="round" stroke-linejoin="round"/>
<path d="M150.311 306.913L151.376 308.259L154.438 303.817" stroke="#2D2338" stroke-width="2" stroke-miterlimit="10" stroke-linecap="round" stroke-linejoin="round"/>
<path d="M141.258 341.508L142.323 342.854L145.252 338.277" stroke="#2D2338" stroke-width="2" stroke-miterlimit="10" stroke-linecap="round" stroke-linejoin="round"/>
<path d="M168.684 372.334L169.749 373.815L172.811 369.238" stroke="#2D2338" stroke-width="2" stroke-miterlimit="10" stroke-linecap="round" stroke-linejoin="round"/>
<path d="M346.021 151.034H277.189C272.13 151.034 268.003 155.206 268.003 160.322V220.089C268.003 225.204 272.13 229.377 277.189 229.377H307.677L325.118 250.646L320.725 229.377H345.888C350.947 229.377 355.074 225.204 355.074 220.089V160.322C355.207 155.206 351.08 151.034 346.021 151.034Z" fill="white" stroke="#2D2338" stroke-miterlimit="10" stroke-linecap="round" stroke-linejoin="round"/>
<path d="M317.13 183.879V177.552L312.47 177.148C312.204 176.206 311.805 175.129 311.272 174.321L314.334 170.687L309.941 166.245L306.346 169.341C305.414 168.802 304.482 168.398 303.55 168.129L303.151 163.418H296.893L296.494 168.129C295.562 168.398 294.497 168.802 293.698 169.341L290.103 166.245L285.71 170.687L288.772 174.321C288.24 175.264 287.84 176.206 287.574 177.148L282.914 177.552V183.879L287.574 184.282C287.84 185.225 288.24 186.302 288.772 187.109L285.71 190.744L290.103 195.186L293.698 192.09C294.63 192.628 295.562 193.032 296.494 193.301L296.893 198.013H303.151L303.55 193.301C304.482 193.032 305.547 192.628 306.346 192.09L309.941 195.186L314.334 190.744L311.272 187.109C311.805 186.167 312.204 185.225 312.47 184.282L317.13 183.879ZM299.956 188.052C295.961 188.052 292.633 184.821 292.633 180.648C292.633 176.61 295.828 173.244 299.956 173.244C303.95 173.244 307.278 176.475 307.278 180.648C307.278 184.686 303.95 188.052 299.956 188.052Z" fill="#007CDC"/>
<path d="M337.899 197.878V193.436L334.571 193.167C334.438 192.494 334.038 191.821 333.772 191.148L335.902 188.59L332.707 185.359L330.177 187.513C329.512 187.109 328.846 186.84 328.18 186.705L327.914 183.34H323.521L323.254 186.705C322.589 186.84 321.923 187.244 321.257 187.513L318.728 185.359L315.532 188.59L317.663 191.148C317.263 191.821 316.997 192.494 316.864 193.167L313.535 193.436V197.878L316.864 198.147C316.997 198.82 317.396 199.493 317.663 200.167L315.532 202.724L318.728 205.955L321.257 203.801C321.923 204.205 322.589 204.474 323.254 204.609L323.521 207.974H327.914L328.18 204.609C328.846 204.474 329.512 204.07 330.177 203.801L332.707 205.955L335.902 202.724L333.772 200.167C334.172 199.493 334.438 198.82 334.571 198.147L337.899 197.878ZM325.651 200.974C322.855 200.974 320.458 198.686 320.458 195.724C320.458 192.898 322.722 190.475 325.651 190.475C328.447 190.475 330.843 192.763 330.843 195.724C330.843 198.551 328.447 200.974 325.651 200.974Z" fill="#007CDC"/>
<path d="M316.065 208.378V205.147L313.669 204.878C313.535 204.34 313.269 203.936 313.136 203.397L314.734 201.513L312.47 199.224L310.606 200.84C310.207 200.57 309.674 200.436 309.142 200.301L308.876 197.878H305.68L305.414 200.301C304.882 200.436 304.482 200.705 303.95 200.84L302.086 199.224L299.822 201.513L301.42 203.397C301.154 203.801 301.021 204.34 300.887 204.878L298.491 205.147V208.378L300.887 208.647C301.021 209.186 301.287 209.589 301.42 210.128L299.822 212.012L302.086 214.301L303.95 212.685C304.349 212.955 304.882 213.089 305.414 213.224L305.68 215.647H308.876L309.142 213.224C309.674 213.089 310.074 212.82 310.606 212.685L312.47 214.301L314.734 212.012L313.136 210.128C313.402 209.724 313.535 209.186 313.669 208.647L316.065 208.378ZM307.411 210.532C305.414 210.532 303.683 208.916 303.683 206.763C303.683 204.609 305.281 202.993 307.411 202.993C309.541 202.993 311.139 204.609 311.139 206.763C311.139 208.916 309.408 210.532 307.411 210.532Z" fill="#007CDC"/>
<path d="M309.808 380.68L363.461 580.712H371.45L317.796 380.68H309.808Z" fill="#75736F" stroke="#2D2338" stroke-miterlimit="10" stroke-linecap="round" stroke-linejoin="round"/>
<path d="M430.695 524.041H328.979V532.386H430.695V524.041Z" fill="#999795" stroke="#2D2338" stroke-miterlimit="10" stroke-linecap="round" stroke-linejoin="round"/>
<path d="M484.882 335.854L419.245 580.846H411.257L476.893 335.854C479.29 326.835 473.698 319.432 464.512 319.432H407.929C398.742 319.432 389.157 326.835 386.76 335.854L321.124 580.846H313.136L378.772 335.854C382.367 322.528 396.346 311.624 410.059 311.624H466.642C480.222 311.624 488.476 322.393 484.882 335.854Z" fill="#75736F" stroke="#2D2338" stroke-miterlimit="10" stroke-linecap="round" stroke-linejoin="round"/>
<path d="M485.814 335.854L469.571 396.699C468.24 401.679 462.914 405.852 457.855 405.852H364.793C359.601 405.852 356.538 401.814 357.87 396.699L374.246 335.854C375.577 330.874 380.902 326.701 385.962 326.701H478.891C484.083 326.836 487.278 330.874 485.814 335.854Z" fill="#007CDC"/>
<path opacity="0.2" d="M485.814 335.854L469.571 396.699C468.24 401.679 462.914 405.852 457.855 405.852H364.793C359.601 405.852 356.538 401.814 357.87 396.699L374.246 335.854C375.577 330.874 380.902 326.701 385.962 326.701H434.024C454.793 348.239 452.13 387.949 450.799 399.929C455.059 398.852 458.92 395.353 460.118 391.18L476.494 330.335C476.893 328.989 476.893 327.778 476.627 326.701H479.024C484.083 326.836 487.278 330.874 485.814 335.854Z" fill="black" fill-opacity="0.7"/>
<path d="M485.814 335.854L469.571 396.699C468.24 401.679 462.914 405.852 457.855 405.852H364.793C359.601 405.852 356.538 401.814 357.87 396.699L374.246 335.854C375.577 330.874 380.902 326.701 385.962 326.701H478.891C484.083 326.836 487.278 330.874 485.814 335.854Z" stroke="#2D2338" stroke-miterlimit="10" stroke-linecap="round" stroke-linejoin="round"/>
<path d="M431.228 467.369L461.583 580.712H469.571L439.216 467.369H431.228Z" fill="#75736F" stroke="#2D2338" stroke-miterlimit="10" stroke-linecap="round" stroke-linejoin="round"/>
<path d="M439.216 454.312V465.35H319.527V454.312C319.527 449.735 323.121 446.101 327.648 446.101H431.228C434.956 446.101 438.151 448.658 439.083 452.158C439.216 452.831 439.216 453.639 439.216 454.312Z" fill="#007CDC"/>
<path opacity="0.2" d="M438.95 452.158C435.089 456.735 428.166 461.447 416.183 465.35H319.527V454.312C319.527 449.735 323.121 446.101 327.648 446.101H431.228C434.956 446.235 438.018 448.793 438.95 452.158Z" fill="black" fill-opacity="0.7"/>
<path d="M439.216 454.312V465.35H319.527V454.312C319.527 449.735 323.121 446.101 327.648 446.101H431.228C434.956 446.101 438.151 448.658 439.083 452.158C439.216 452.831 439.216 453.639 439.216 454.312Z" stroke="#2D2338" stroke-miterlimit="10" stroke-linecap="round" stroke-linejoin="round"/>
<path d="M443.343 472.485H316.598C315.399 472.485 314.334 471.408 314.334 470.196V464.408C314.334 463.196 315.399 462.12 316.598 462.12H443.343C444.541 462.12 445.606 463.196 445.606 464.408V470.196C445.606 471.408 444.541 472.485 443.343 472.485Z" fill="#999795" stroke="#2D2338" stroke-miterlimit="10" stroke-linecap="round" stroke-linejoin="round"/>
<path d="M315.666 462.389C309.941 468.312 337.766 561.193 337.766 561.193C334.704 563.885 330.311 565.097 326.05 565.635C319.926 566.443 314.334 565.77 314.334 565.77C314.334 565.77 274.527 468.042 285.444 443.812C296.361 419.583 364.527 408.41 364.527 408.41L367.456 401.141L402.737 396.16L408.595 439.774C408.595 439.774 402.87 440.313 394.083 441.524C370.518 444.486 326.183 451.62 315.666 462.389Z" fill="#2D2338"/>
<path opacity="0.3" d="M337.766 561.193C334.704 563.885 330.311 565.097 326.05 565.635C318.328 536.559 298.624 459.023 306.08 449.466C315.266 437.755 360.799 427.121 360.799 427.121C360.932 421.198 376.908 415.813 376.908 415.813L393.817 441.524C370.518 444.62 326.183 451.62 315.533 462.389C309.941 468.312 337.766 561.193 337.766 561.193Z" fill="black"/>
<path d="M315.666 462.389C309.941 468.312 337.766 561.193 337.766 561.193C334.704 563.885 330.311 565.097 326.05 565.635C319.926 566.443 314.334 565.77 314.334 565.77C314.334 565.77 274.527 468.042 285.444 443.812C296.361 419.583 364.527 408.41 364.527 408.41L367.456 401.141L402.737 396.16L408.595 439.774C408.595 439.774 402.87 440.313 394.083 441.524C370.518 444.486 326.183 451.62 315.666 462.389Z" stroke="#2D2338" stroke-miterlimit="10" stroke-linecap="round" stroke-linejoin="round"/>
<path d="M295.961 374.488C290.103 373.411 331.775 336.527 331.775 336.527L351.879 350.123C351.879 350.123 317.796 374.488 312.337 375.161C306.879 375.834 295.961 374.488 295.961 374.488Z" fill="white"/>
<path opacity="0.2" d="M295.961 374.488C290.103 373.411 331.775 336.527 331.775 336.527L351.879 350.123C351.879 350.123 317.796 374.488 312.337 375.161C306.879 375.834 295.961 374.488 295.961 374.488Z" fill="black" fill-opacity="0.7"/>
<path d="M295.961 374.488C290.103 373.411 331.775 336.527 331.775 336.527L351.879 350.123C351.879 350.123 317.796 374.488 312.337 375.161C306.879 375.834 295.961 374.488 295.961 374.488Z" stroke="#2D2338" stroke-miterlimit="10" stroke-linecap="round" stroke-linejoin="round"/>
<path d="M303.284 359.008C303.284 359.008 312.071 361.161 314.733 363.046C317.396 364.93 316.597 371.526 316.597 371.526C316.597 371.526 304.881 368.161 303.284 359.008Z" fill="white" stroke="#2D2338" stroke-miterlimit="10" stroke-linecap="round" stroke-linejoin="round"/>
<path d="M297.692 342.047L313.935 373.546H315.799L300.488 340.566L297.692 342.047Z" fill="#2D2338"/>
<path d="M312.337 364.796C312.337 364.796 302.086 357.392 299.556 357.392C297.026 357.392 289.571 366.411 289.571 370.853C289.571 375.295 305.947 377.853 309.142 373.949C310.739 372.065 307.544 367.488 307.544 367.488C307.544 367.488 312.337 372.469 313.668 373.276C315 374.084 317.529 373.007 317.529 373.007C317.529 373.007 314.201 367.623 312.337 364.796Z" fill="white" stroke="#2D2338" stroke-miterlimit="10" stroke-linecap="round" stroke-linejoin="round"/>
<path d="M307.544 375.161C307.544 375.161 303.683 370.046 299.023 367.623" stroke="#2D2338" stroke-miterlimit="10" stroke-linecap="round" stroke-linejoin="round"/>
<path d="M307.544 367.623C307.544 367.623 303.949 364.527 301.553 363.854" stroke="#2D2338" stroke-miterlimit="10" stroke-linecap="round" stroke-linejoin="round"/>
<path d="M296.361 371.526C296.361 371.526 302.086 374.622 303.55 375.834" stroke="#2D2338" stroke-miterlimit="10" stroke-linecap="round" stroke-linejoin="round"/>
<path d="M344.822 320.509C339.63 324.143 316.065 348.642 316.065 348.642C316.065 348.642 327.115 361.296 336.701 363.18L362.796 350.392L344.822 320.509Z" fill="#007CDC" stroke="#2D2338" stroke-miterlimit="10" stroke-linecap="round" stroke-linejoin="round"/>
<path opacity="0.4" d="M344.822 320.509C339.63 324.143 316.065 348.642 316.065 348.642C316.065 348.642 327.115 361.296 336.701 363.18L362.796 350.392L344.822 320.509Z" fill="white" stroke="#2D2338" stroke-miterlimit="10" stroke-linecap="round" stroke-linejoin="round"/>
<path d="M332.175 551.367L343.225 580.846C343.225 580.846 345.089 588.385 311.672 586.096L293.299 584.481L332.175 551.367Z" fill="#007CDC"/>
<path opacity="0.3" d="M332.175 551.367L343.225 580.846C343.225 580.846 345.089 588.385 311.672 586.096L293.299 584.481L332.175 551.367Z" fill="black"/>
<path d="M332.175 551.367L343.225 580.846C343.225 580.846 345.089 588.385 311.672 586.096L293.299 584.481L332.175 551.367Z" stroke="#2D2338" stroke-miterlimit="10" stroke-linecap="round" stroke-linejoin="round"/>
<path d="M327.914 565.501C327.914 565.501 330.311 576.943 327.914 585.423C327.914 585.423 292.633 591.077 284.778 588.923C276.923 586.769 272.13 582.866 271.864 580.846C271.864 580.846 272.13 575.327 279.985 573.847C287.84 572.231 303.683 571.155 309.808 562.136C316.065 552.982 327.914 565.501 327.914 565.501Z" fill="#007CDC" stroke="#2D2338" stroke-miterlimit="10" stroke-linecap="round" stroke-linejoin="round"/>
<path d="M374.512 400.064C385.828 383.776 437.618 403.429 437.618 403.429C437.618 403.429 442.544 442.601 421.908 452.966C401.272 463.466 371.45 462.793 363.461 471.273L330.71 569.001C330.71 569.001 318.994 573.981 301.819 566.174C301.819 566.174 322.589 492.407 328.713 466.158C334.704 440.178 373.846 422.679 373.846 422.679C373.846 422.679 370.518 418.909 369.319 414.467" fill="#2D2338"/>
<path d="M374.512 400.064C385.828 383.776 437.618 403.429 437.618 403.429C437.618 403.429 442.544 442.601 421.908 452.966C401.272 463.466 371.45 462.793 363.461 471.273L330.71 569.001C330.71 569.001 318.994 573.981 301.819 566.174C301.819 566.174 322.589 492.407 328.713 466.158C334.704 440.178 373.846 422.679 373.846 422.679C373.846 422.679 370.518 418.909 369.319 414.467" stroke="#2D2338" stroke-miterlimit="10" stroke-linecap="round" stroke-linejoin="round"/>
<path d="M426.967 437.486C425.37 438.966 423.506 440.313 421.775 441.659" stroke="white" stroke-miterlimit="10" stroke-linecap="round" stroke-linejoin="round"/>
<path d="M431.228 404.371C435.488 413.66 435.754 425.505 429.896 433.986" stroke="white" stroke-miterlimit="10" stroke-linecap="round" stroke-linejoin="round"/>
<path d="M419.379 405.852C419.379 405.852 418.314 412.987 421.509 415.813C424.704 418.64 434.29 420.121 434.29 420.121" stroke="white" stroke-miterlimit="10" stroke-linecap="round" stroke-linejoin="round"/>
<path d="M376.908 406.121C376.908 406.121 377.307 413.256 374.512 412.987C371.716 412.583 371.449 415.813 371.449 415.813" stroke="white" stroke-miterlimit="10" stroke-linecap="round" stroke-linejoin="round"/>
<path d="M345.488 325.893C345.089 324.009 344.822 322.124 344.822 320.374C344.822 320.374 360.799 306.778 381.302 306.778C405.799 306.913 420.71 314.721 426.834 325.489C436.287 342.585 437.618 403.295 437.618 403.295C437.618 403.295 376.109 412.852 367.322 401.141C365.858 399.122 366.923 384.584 366.923 384.584C366.923 384.584 360 366.277 358.535 352.142C358.535 352.142 355.873 348.508 352.944 343.393C350.947 340.027 348.816 335.989 347.219 331.816" fill="#007CDC"/>
<path d="M345.488 325.893C345.089 324.009 344.822 322.124 344.822 320.374C344.822 320.374 360.799 306.778 381.302 306.778C405.799 306.913 420.71 314.721 426.834 325.489C436.287 342.585 437.618 403.295 437.618 403.295C437.618 403.295 376.109 412.852 367.322 401.141C365.858 399.122 366.923 384.584 366.923 384.584C366.923 384.584 360 366.277 358.535 352.142C358.535 352.142 355.873 348.508 352.944 343.393C350.947 340.027 348.816 335.989 347.219 331.816" stroke="#2D2338" stroke-miterlimit="10" stroke-linecap="round" stroke-linejoin="round"/>
<g opacity="0.6">
<path d="M345.488 325.893C345.089 324.009 344.822 322.124 344.822 320.374C344.822 320.374 360.799 306.778 381.302 306.778C405.799 306.913 420.71 314.721 426.834 325.489C436.287 342.585 437.618 403.295 437.618 403.295C437.618 403.295 376.109 412.852 367.322 401.141C365.858 399.122 366.923 384.584 366.923 384.584C366.923 384.584 360 366.277 358.535 352.142C358.535 352.142 355.873 348.508 352.944 343.393C350.947 340.027 348.816 335.989 347.219 331.816" fill="white"/>
<path d="M345.488 325.893C345.089 324.009 344.822 322.124 344.822 320.374C344.822 320.374 360.799 306.778 381.302 306.778C405.799 306.913 420.71 314.721 426.834 325.489C436.287 342.585 437.618 403.295 437.618 403.295C437.618 403.295 376.109 412.852 367.322 401.141C365.858 399.122 366.923 384.584 366.923 384.584C366.923 384.584 360 366.277 358.535 352.142C358.535 352.142 355.873 348.508 352.944 343.393C350.947 340.027 348.816 335.989 347.219 331.816" stroke="#2D2338" stroke-miterlimit="10" stroke-linecap="round" stroke-linejoin="round"/>
</g>
<path d="M368.92 340.566C368.92 340.566 378.239 377.449 376.908 385.526C376.242 389.564 378.239 393.737 378.239 393.737C378.239 393.737 373.979 398.045 376.908 403.698" stroke="#2D2338" stroke-miterlimit="10" stroke-linecap="round" stroke-linejoin="round"/>
<path d="M393.95 370.988C392.086 370.853 390.488 370.449 389.29 369.507L386.494 357.123C386.494 357.123 395.015 358.065 403.003 355.911L405.932 369.373C405.932 369.373 403.668 370.046 400.873 370.45" stroke="#2D2338" stroke-miterlimit="10" stroke-linecap="round" stroke-linejoin="round"/>
<path d="M362.263 345.277C362.263 345.277 354.275 310.817 374.378 306.913C394.482 302.875 398.742 312.432 397.544 318.893C395.946 327.509 379.304 348.643 379.304 348.643L368.92 340.566L362.263 345.277Z" fill="#007CDC" stroke="#2D2338" stroke-miterlimit="10" stroke-linecap="round" stroke-linejoin="round"/>
<path opacity="0.4" d="M362.263 345.277C362.263 345.277 354.275 310.817 374.378 306.913C394.482 302.875 398.742 312.432 397.544 318.893C395.946 327.509 379.304 348.643 379.304 348.643L368.92 340.566L362.263 345.277Z" fill="white" stroke="#2D2338" stroke-miterlimit="10" stroke-linecap="round" stroke-linejoin="round"/>
<path d="M335.902 451.485C335.902 451.485 348.95 436.274 378.373 424.832C378.373 424.832 370.784 422.409 369.053 419.313" stroke="white" stroke-miterlimit="10" stroke-linecap="round" stroke-linejoin="round"/>
<path d="M320.592 498.061L308.609 541.809" stroke="white" stroke-miterlimit="10" stroke-linecap="round" stroke-linejoin="round"/>
<path d="M412.589 372.199C412.589 372.199 417.914 381.353 439.882 380.411C439.882 380.411 433.89 373.546 424.97 370.988C416.05 368.43 412.589 372.199 412.589 372.199Z" fill="#007CDC" stroke="#2D2338" stroke-miterlimit="10" stroke-linecap="round" stroke-linejoin="round"/>
<path d="M327.515 375.834C327.515 375.834 332.574 367.892 337.234 366.277C341.893 364.661 355.606 364.527 357.737 364.527C359.867 364.527 397.411 374.084 415.118 380.141L413.521 350.392L437.219 352.277C437.219 352.277 436.287 388.622 432.559 398.314C428.831 407.871 423.639 405.583 414.586 401.679C379.171 386.199 358.402 375.43 356.405 376.103C354.541 376.372 327.515 375.834 327.515 375.834Z" fill="white" stroke="#2D2338" stroke-miterlimit="10" stroke-linecap="round" stroke-linejoin="round"/>
<path d="M407.529 332.893C406.864 335.451 406.73 338.143 406.997 340.431C408.062 349.719 412.588 372.065 412.588 372.065C412.588 372.065 434.689 375.295 439.881 380.276C439.881 380.276 443.476 350.662 436.154 335.585C428.698 320.643 420.976 318.893 420.976 318.893C416.183 317.682 411.656 322.259 409.127 328.182" fill="#007CDC"/>
<path d="M407.529 332.893C406.864 335.451 406.73 338.143 406.997 340.431C408.062 349.719 412.588 372.065 412.588 372.065C412.588 372.065 434.689 375.295 439.881 380.276C439.881 380.276 443.476 350.662 436.154 335.585C428.698 320.643 420.976 318.893 420.976 318.893C416.183 317.682 411.656 322.259 409.127 328.182" stroke="#2D2338" stroke-miterlimit="10" stroke-linecap="round" stroke-linejoin="round"/>
<g opacity="0.4">
<g opacity="0.4">
<path d="M407.529 332.893C406.864 335.451 406.73 338.143 406.997 340.431C408.062 349.719 412.588 372.065 412.588 372.065C412.588 372.065 434.689 375.295 439.881 380.276C439.881 380.276 443.476 350.662 436.154 335.585C428.698 320.643 420.976 318.893 420.976 318.893C416.183 317.682 411.656 322.259 409.127 328.182" fill="white"/>
<path d="M407.529 332.893C406.864 335.451 406.73 338.143 406.997 340.431C408.062 349.719 412.588 372.065 412.588 372.065C412.588 372.065 434.689 375.295 439.881 380.276C439.881 380.276 443.476 350.662 436.154 335.585C428.698 320.643 420.976 318.893 420.976 318.893C416.183 317.682 411.656 322.259 409.127 328.182" stroke="#2D2338" stroke-miterlimit="10" stroke-linecap="round" stroke-linejoin="round"/>
</g>
</g>
<path d="M342.559 344.47C342.559 344.47 346.953 348.373 353.876 350.258" stroke="#2D2338" stroke-miterlimit="10" stroke-linecap="round" stroke-linejoin="round"/>
<path d="M412.589 344.47C412.589 344.47 420.577 359.681 430.695 363.046" stroke="#2D2338" stroke-miterlimit="10" stroke-linecap="round" stroke-linejoin="round"/>
<path d="M360.799 461.985C360.799 461.985 362.263 463.062 362.929 467.235" stroke="white" stroke-miterlimit="10" stroke-linecap="round" stroke-linejoin="round"/>
<path d="M355.34 467.235C355.34 467.235 359.467 467.504 361.864 471.004" stroke="white" stroke-miterlimit="10" stroke-linecap="round" stroke-linejoin="round"/>
<path d="M311.272 451.485C311.272 451.485 315.532 453.639 314.6 459.831" stroke="white" stroke-miterlimit="10" stroke-linecap="round" stroke-linejoin="round"/>
<path d="M306.745 456.87C306.745 456.87 312.603 460.37 313.003 463.466" stroke="white" stroke-miterlimit="10" stroke-linecap="round" stroke-linejoin="round"/>
<path d="M374.245 419.179C374.245 419.179 387.16 421.063 390.089 419.179" stroke="white" stroke-miterlimit="10" stroke-linecap="round" stroke-linejoin="round"/>
<path d="M368.92 339.085C368.92 339.085 367.323 335.047 367.589 329.124C367.589 328.047 367.722 326.835 367.988 325.624L365.725 321.989L362.796 317.413L366.124 303.817C366.124 303.817 387.426 307.99 389.024 313.913C390.754 319.97 368.92 339.085 368.92 339.085Z" fill="white"/>
<path opacity="0.2" d="M367.589 328.989C367.589 327.912 367.722 326.701 367.988 325.489L365.725 321.855C369.453 321.047 373.447 319.432 376.11 315.932C376.11 316.067 376.775 325.489 367.589 328.989Z" fill="black" fill-opacity="0.7"/>
<path d="M368.92 339.085C368.92 339.085 367.323 335.047 367.589 329.124C367.589 328.047 367.722 326.835 367.988 325.624L365.725 321.989L362.796 317.413L366.124 303.817C366.124 303.817 387.426 307.99 389.024 313.913C390.754 319.97 368.92 339.085 368.92 339.085Z" stroke="#2D2338" stroke-miterlimit="10" stroke-linecap="round" stroke-linejoin="round"/>
<path d="M382.367 305.029C388.89 287.529 384.63 257.78 352.677 263.434C333.905 266.799 331.642 289.683 337.899 299.913C344.157 310.144 337.5 310.413 346.953 317.951C350.813 321.047 353.876 326.162 358.402 326.566C363.861 326.97 370.784 321.72 375.976 316.201" fill="white"/>
<path d="M382.367 305.029C388.89 287.529 384.63 257.78 352.677 263.434C333.905 266.799 331.642 289.683 337.899 299.913C344.157 310.144 337.5 310.413 346.953 317.951C350.813 321.047 353.876 326.162 358.402 326.566C363.861 326.97 370.784 321.72 375.976 316.201" stroke="#2D2338" stroke-miterlimit="10" stroke-linecap="round" stroke-linejoin="round"/>
<path d="M350.813 299.913C350.813 299.913 355.473 295.606 361.065 297.356" stroke="#2D2338" stroke-miterlimit="10" stroke-linecap="round" stroke-linejoin="round"/>
<path d="M342.027 299.913C342.027 299.913 340.429 296.548 335.902 295.74" stroke="#2D2338" stroke-miterlimit="10" stroke-linecap="round" stroke-linejoin="round"/>
<path d="M345.089 306.105C345.089 306.105 344.423 309.605 343.491 313.105C342.692 316.47 349.083 314.721 348.816 314.182" fill="white"/>
<path d="M345.089 306.105C345.089 306.105 344.423 309.605 343.491 313.105C342.692 316.47 349.083 314.721 348.816 314.182" stroke="#2D2338" stroke-miterlimit="10" stroke-linecap="round" stroke-linejoin="round"/>
<path d="M352.278 318.759C352.278 318.759 356.405 317.817 359.334 314.047" stroke="#2D2338" stroke-miterlimit="10" stroke-linecap="round" stroke-linejoin="round"/>
<path d="M357.47 304.355C357.737 305.298 357.337 306.24 356.538 306.509C355.74 306.778 354.941 306.105 354.674 305.163C354.408 304.221 354.808 303.279 355.606 303.009C356.272 302.74 357.204 303.413 357.47 304.355Z" fill="#2D2338"/>
<path d="M343.225 304.086C343.491 305.029 343.358 305.971 342.825 306.105C342.293 306.24 341.76 305.567 341.494 304.625C341.228 303.682 341.361 302.74 341.893 302.606C342.293 302.336 342.958 303.009 343.225 304.086Z" fill="#2D2338"/>
<path d="M362.663 281.875C362.663 281.875 357.737 294.933 345.488 294.663C345.488 294.663 349.748 291.433 350.947 288.202C350.947 288.202 341.494 297.625 332.041 292.779C322.589 287.933 327.248 265.722 341.76 256.838C356.272 247.953 370.917 250.376 375.976 258.857C375.976 258.857 386.095 257.915 390.488 272.991C394.482 286.452 388.092 306.913 381.834 307.048C372.115 307.452 370.251 296.817 370.251 296.817C370.251 296.817 364.393 291.702 362.663 281.875Z" fill="#2D2338" stroke="#2D2338" stroke-miterlimit="10" stroke-linecap="round" stroke-linejoin="round"/>
<path d="M373.314 305.163C373.314 305.163 373.047 292.779 379.97 294.26C386.893 295.74 381.834 310.009 376.642 309.875" fill="white"/>
<path d="M373.314 305.163C373.314 305.163 373.047 292.779 379.97 294.26C386.893 295.74 381.834 310.009 376.642 309.875" stroke="#2D2338" stroke-miterlimit="10" stroke-linecap="round" stroke-linejoin="round"/>
<path d="M351.746 382.699H244.438C243.24 382.699 242.308 381.757 242.308 380.545V376.776C242.308 375.565 243.24 374.622 244.438 374.622H351.746C352.944 374.622 353.876 375.565 353.876 376.776V380.545C353.876 381.622 352.944 382.699 351.746 382.699Z" fill="#007CDC" stroke="#2D2338" stroke-miterlimit="10" stroke-linecap="round" stroke-linejoin="round"/>
<path d="M86.006 538.848H40.7397L45.3995 580.712H81.2131L86.006 538.848Z" fill="#2D2338" stroke="#2D2338" stroke-miterlimit="10" stroke-linecap="round" stroke-linejoin="round"/>
<path d="M91.3314 509.772C91.3314 509.772 71.4941 511.387 70.6953 526.06C70.6953 526.06 90.7989 535.483 91.3314 509.772Z" fill="#007CDC" stroke="#2D2338" stroke-miterlimit="10" stroke-linecap="round" stroke-linejoin="round"/>
<path d="M52.1894 513.406C52.1894 513.406 41.1391 498.33 23.2988 506.003C23.2988 506.137 34.216 524.31 52.1894 513.406Z" fill="#007CDC" stroke="#2D2338" stroke-miterlimit="10" stroke-linecap="round" stroke-linejoin="round"/>
<path d="M24.8966 465.754C24.8966 465.754 21.7013 494.83 47.9291 486.753C47.796 486.753 39.5415 465.485 24.8966 465.754Z" fill="#007CDC" stroke="#2D2338" stroke-miterlimit="10" stroke-linecap="round" stroke-linejoin="round"/>
<path d="M56.9823 449.601C56.9823 449.601 36.3462 460.908 51.5237 478.004C51.5237 478.004 66.0355 465.754 56.9823 449.601Z" fill="#007CDC" stroke="#2D2338" stroke-miterlimit="10" stroke-linecap="round" stroke-linejoin="round"/>
<path d="M82.4111 475.581C82.4111 475.581 59.9111 473.292 59.9111 494.292C59.9111 494.292 82.4111 495.234 82.4111 475.581Z" fill="#007CDC" stroke="#2D2338" stroke-miterlimit="10" stroke-linecap="round" stroke-linejoin="round"/>
<path d="M61.2425 556.213C61.2425 556.213 71.494 534.406 61.6419 512.329C51.7898 490.119 48.4614 471.542 53.6537 458.35" stroke="#2D2338" stroke-miterlimit="10" stroke-linecap="round" stroke-linejoin="round"/>
<path d="M74.9556 481.234C74.9556 481.234 61.5089 486.619 56.8491 500.753" stroke="#2D2338" stroke-miterlimit="10" stroke-linecap="round" stroke-linejoin="round"/>
<path d="M31.9526 477.331C31.9526 477.331 39.8077 488.1 52.9881 486.888" stroke="#2D2338" stroke-miterlimit="10" stroke-linecap="round" stroke-linejoin="round"/>
<path d="M31.9526 509.099C31.9526 509.099 53.5207 515.426 62.0414 513.272" stroke="#2D2338" stroke-miterlimit="10" stroke-linecap="round" stroke-linejoin="round"/>
<path d="M84.941 516.368C84.941 516.368 75.3552 527.137 65.6362 526.867" stroke="#2D2338" stroke-miterlimit="10" stroke-linecap="round" stroke-linejoin="round"/>
<path d="M38.8029 543.829H87.9302V537.906H38.8029V543.829Z" fill="#2D2338" stroke="#2D2338" stroke-miterlimit="10" stroke-linecap="round" stroke-linejoin="round"/>
<path d="M444.675 500.08C444.675 500.08 428.166 509.906 416.45 529.694C404.734 549.482 395.414 577.347 409.926 580.846L423.639 580.308L450 571.154L447.204 565.77C447.204 565.77 424.039 578.154 420.178 578.154C416.317 578.154 411.124 579.097 408.861 577.616C406.731 576.001 416.45 540.059 437.352 528.079C458.388 515.829 444.675 500.08 444.675 500.08Z" fill="#007CDC"/>
<path opacity="0.5" d="M444.675 500.08C444.675 500.08 428.166 509.906 416.45 529.694C404.734 549.482 395.414 577.347 409.926 580.846L423.639 580.308L450 571.154L447.204 565.77C447.204 565.77 424.039 578.154 420.178 578.154C416.317 578.154 411.124 579.097 408.861 577.616C406.731 576.001 416.45 540.059 437.352 528.079C458.388 515.829 444.675 500.08 444.675 500.08Z" fill="black" fill-opacity="0.7"/>
<path d="M444.675 500.08C444.675 500.08 428.166 509.906 416.45 529.694C404.734 549.482 395.414 577.347 409.926 580.846L423.639 580.308L450 571.154L447.204 565.77C447.204 565.77 424.039 578.154 420.178 578.154C416.317 578.154 411.124 579.097 408.861 577.616C406.731 576.001 416.45 540.059 437.352 528.079C458.388 515.829 444.675 500.08 444.675 500.08Z" stroke="#2D2338" stroke-miterlimit="10" stroke-linecap="round" stroke-linejoin="round"/>
<path d="M459.719 487.023C459.719 487.023 459.719 481.234 468.373 480.427C477.027 479.619 478.358 488.1 478.358 488.1H475.429C475.429 488.1 475.562 482.984 469.172 482.58C462.781 482.177 463.047 488.1 463.047 488.1L459.719 487.023Z" fill="#007CDC" stroke="#2D2338" stroke-miterlimit="10" stroke-linecap="round" stroke-linejoin="round"/>
<path d="M446.938 580.712C428.565 580.712 432.027 497.388 434.157 493.215C436.287 489.042 489.675 487.023 494.867 488.773C500.059 490.523 521.228 573.577 509.645 580.173L446.938 580.712Z" fill="#007CDC"/>
<path opacity="0.2" d="M446.938 580.712C428.565 580.712 432.027 497.388 434.157 493.215C436.287 489.042 489.675 487.023 494.867 488.773C500.059 490.523 521.228 573.577 509.645 580.173L446.938 580.712Z" fill="black" fill-opacity="0.7"/>
<path d="M446.938 580.712C428.565 580.712 432.027 497.388 434.157 493.215C436.287 489.042 489.675 487.023 494.867 488.773C500.059 490.523 521.228 573.577 509.645 580.173L446.938 580.712Z" stroke="#2D2338" stroke-miterlimit="10" stroke-linecap="round" stroke-linejoin="round"/>
<path d="M434.157 493.215C440.814 494.695 444.674 521.887 453.595 528.887C462.515 535.886 504.852 534.271 509.645 528.887C514.438 523.502 505.118 492.811 498.328 488.1C491.538 483.388 486.746 487.965 467.574 485.811C439.083 482.715 434.157 493.215 434.157 493.215Z" fill="#007CDC" stroke="#2D2338" stroke-miterlimit="10" stroke-linecap="round" stroke-linejoin="round"/>
<path d="M482.618 508.964L490.473 515.426C490.873 515.829 491.006 516.502 490.607 516.906L484.482 523.502C484.083 523.906 483.417 523.906 483.018 523.502L475.296 516.099C474.896 515.695 474.896 515.022 475.296 514.618L481.287 508.964C481.553 508.56 482.219 508.56 482.618 508.964Z" fill="#007CDC"/>
<path opacity="0.2" d="M482.618 508.964L490.473 515.426C490.873 515.829 491.006 516.502 490.607 516.906L484.482 523.502C484.083 523.906 483.417 523.906 483.018 523.502L475.296 516.099C474.896 515.695 474.896 515.022 475.296 514.618L481.287 508.964C481.553 508.56 482.219 508.56 482.618 508.964Z" fill="black" fill-opacity="0.7"/>
<path d="M482.618 508.964L490.473 515.426C490.873 515.829 491.006 516.502 490.607 516.906L484.482 523.502C484.083 523.906 483.417 523.906 483.018 523.502L475.296 516.099C474.896 515.695 474.896 515.022 475.296 514.618L481.287 508.964C481.553 508.56 482.219 508.56 482.618 508.964Z" stroke="#2D2338" stroke-miterlimit="10" stroke-linecap="round" stroke-linejoin="round"/>
<path d="M456.79 542.886C456.79 542.886 492.204 545.848 509.512 541.271C509.512 541.271 512.84 543.694 514.438 548.405C516.036 553.251 519.364 569.539 509.512 573.847C499.66 578.02 464.246 577.212 459.586 572.501C454.793 567.655 456.79 542.886 456.79 542.886Z" fill="#007CDC"/>
<path opacity="0.4" d="M456.79 542.886C456.79 542.886 492.204 545.848 509.512 541.271C509.512 541.271 512.84 543.694 514.438 548.405C516.036 553.251 519.364 569.539 509.512 573.847C499.66 578.02 464.246 577.212 459.586 572.501C454.793 567.655 456.79 542.886 456.79 542.886Z" fill="black" fill-opacity="0.7"/>
<path d="M456.79 542.886C456.79 542.886 492.204 545.848 509.512 541.271C509.512 541.271 512.84 543.694 514.438 548.405C516.036 553.251 519.364 569.539 509.512 573.847C499.66 578.02 464.246 577.212 459.586 572.501C454.793 567.655 456.79 542.886 456.79 542.886Z" stroke="#2D2338" stroke-miterlimit="10" stroke-linecap="round" stroke-linejoin="round"/>
<path d="M456.79 542.886C456.79 542.886 460.917 554.194 463.181 555.943C465.311 557.693 511.376 557.693 516.435 553.52C521.494 549.348 514.571 541.675 509.645 541.271C509.512 541.271 477.293 545.04 456.79 542.886Z" fill="#007CDC" stroke="#2D2338" stroke-miterlimit="10" stroke-linecap="round" stroke-linejoin="round"/>
<path d="M441.879 540.463C441.879 540.463 443.077 564.289 445.473 569.674C445.473 569.674 440.015 572.904 434.024 569.674C428.033 566.443 428.965 545.982 430.163 545.982C431.494 545.982 441.879 540.463 441.879 540.463Z" fill="#007CDC"/>
<path opacity="0.4" d="M441.879 540.463C441.879 540.463 443.077 564.289 445.473 569.674C445.473 569.674 440.015 572.904 434.024 569.674C428.033 566.443 428.965 545.982 430.163 545.982C431.494 545.982 441.879 540.463 441.879 540.463Z" fill="black" fill-opacity="0.7"/>
<path d="M441.879 540.463C441.879 540.463 443.077 564.289 445.473 569.674C445.473 569.674 440.015 572.904 434.024 569.674C428.033 566.443 428.965 545.982 430.163 545.982C431.494 545.982 441.879 540.463 441.879 540.463Z" stroke="#2D2338" stroke-miterlimit="10" stroke-linecap="round" stroke-linejoin="round"/>
<path d="M441.879 540.463L432.959 542.213C432.959 542.213 424.438 548.809 428.166 550.963C432.027 553.251 441.746 547.867 441.879 540.463Z" fill="#007CDC" stroke="#2D2338" stroke-miterlimit="10" stroke-linecap="round" stroke-linejoin="round"/>
</svg>
