<svg width="575" height="591" viewBox="0 0 575 591" fill="none" xmlns="http://www.w3.org/2000/svg">
<path d="M29.2902 143.243C65.3163 73.1365 132.106 20.0831 215.493 12.6394C272.163 7.49642 330.453 24.2786 375.654 59.0611C398.457 76.6554 418.561 98.9866 432.054 124.566C447.436 153.935 451.889 187.77 467.811 217.003C487.51 253.41 524.616 268.297 549.443 299.696C569.952 325.546 576.969 360.194 574.54 393.217C570.222 453.308 535.14 510.421 483.462 541.279C439.745 567.264 387.123 574.573 336.389 572.137C258.13 568.482 180.276 542.632 118.613 494.045C57.0856 445.729 12.6938 373.998 2.16935 296.178C-4.84698 243.259 5.40765 189.529 29.2902 143.243Z" fill="#007CDC"/>
<path opacity="0.7" d="M29.2902 143.243C65.3163 73.1365 132.106 20.0831 215.493 12.6394C272.163 7.49642 330.453 24.2786 375.654 59.0611C398.457 76.6554 418.561 98.9866 432.054 124.566C447.436 153.935 451.889 187.77 467.811 217.003C487.51 253.41 524.616 268.297 549.443 299.696C569.952 325.546 576.969 360.194 574.54 393.217C570.222 453.308 535.14 510.421 483.462 541.279C439.745 567.264 387.123 574.573 336.389 572.137C258.13 568.482 180.276 542.632 118.613 494.045C57.0856 445.729 12.6938 373.998 2.16935 296.178C-4.84698 243.259 5.40765 189.529 29.2902 143.243Z" fill="white"/>
<path d="M5.40771 168.957C7.02687 175.318 6.21729 163.679 9.32067 149.333C12.424 135.122 17.8212 140.807 17.8212 140.807" stroke="#263238" stroke-miterlimit="10" stroke-linecap="round" stroke-linejoin="round"/>
<path d="M4.46338 154.341L14.3132 150.416" stroke="#263238" stroke-miterlimit="10" stroke-linecap="round" stroke-linejoin="round"/>
<path d="M22.4093 145.543C22.4093 145.543 16.6074 157.724 25.3778 162.867" stroke="#263238" stroke-miterlimit="10" stroke-linecap="round" stroke-linejoin="round"/>
<path d="M30.6396 142.16C30.6396 142.16 40.3546 147.574 34.2827 159.213" stroke="#263238" stroke-miterlimit="10" stroke-linecap="round" stroke-linejoin="round"/>
<path d="M24.0283 149.604L30.9097 154.747" stroke="#263238" stroke-miterlimit="10" stroke-linecap="round" stroke-linejoin="round"/>
<path d="M29.4255 147.438L24.0283 156.1" stroke="#263238" stroke-miterlimit="10" stroke-linecap="round" stroke-linejoin="round"/>
<path d="M60.5654 277.012C61.8805 268.973 56.4487 261.386 48.4333 260.067C40.4179 258.748 32.8541 264.196 31.5391 272.236C30.224 280.275 35.6557 287.862 43.6711 289.181C51.6865 290.5 59.2504 285.052 60.5654 277.012Z" stroke="#263238" stroke-miterlimit="10" stroke-linecap="round" stroke-linejoin="round"/>
<path d="M69.2685 296.389C78.1015 294.571 83.7927 285.915 81.9803 277.056C80.1679 268.196 71.5382 262.487 62.7053 264.305C53.8724 266.123 48.1811 274.779 49.9935 283.639C51.8059 292.499 60.4356 298.207 69.2685 296.389Z" stroke="#263238" stroke-miterlimit="10" stroke-linecap="round" stroke-linejoin="round"/>
<path d="M59.3795 268.568L52.6331 271.004" stroke="#263238" stroke-miterlimit="10" stroke-linecap="round" stroke-linejoin="round"/>
<path d="M60.3238 271.41L50.6089 274.929" stroke="#263238" stroke-miterlimit="10" stroke-linecap="round" stroke-linejoin="round"/>
<path d="M60.7286 274.658L49.7993 278.854" stroke="#263238" stroke-miterlimit="10" stroke-linecap="round" stroke-linejoin="round"/>
<path d="M59.9192 279.395L50.0693 283.861" stroke="#263238" stroke-miterlimit="10" stroke-linecap="round" stroke-linejoin="round"/>
<path d="M58.1649 282.914L50.6089 286.027" stroke="#263238" stroke-miterlimit="10" stroke-linecap="round" stroke-linejoin="round"/>
<path d="M53.1726 252.192C52.7678 250.974 47.9103 250.026 47.7754 253.545C47.5055 257.064 52.7678 254.086 54.252 252.192C54.252 252.192 51.5534 255.846 52.6329 256.523" stroke="#263238" stroke-miterlimit="10" stroke-linecap="round" stroke-linejoin="round"/>
<path d="M79.4838 256.523L75.301 265.32C75.301 265.32 77.4599 260.854 79.7537 261.26C82.5872 261.801 80.6982 266.403 77.325 264.643" stroke="#263238" stroke-miterlimit="10" stroke-linecap="round" stroke-linejoin="round"/>
<path d="M540.673 400.796L547.285 407.157" stroke="#263238" stroke-miterlimit="10" stroke-linecap="round" stroke-linejoin="round"/>
<path d="M547.285 399.171L541.753 407.562" stroke="#263238" stroke-miterlimit="10" stroke-linecap="round" stroke-linejoin="round"/>
<path d="M553.896 401.607L560.508 399.171" stroke="#263238" stroke-miterlimit="10" stroke-linecap="round" stroke-linejoin="round"/>
<path d="M563.746 392.134L567.794 395.788" stroke="#263238" stroke-miterlimit="10" stroke-linecap="round" stroke-linejoin="round"/>
<path d="M570.897 387.803L565.77 405.533" stroke="#263238" stroke-miterlimit="10" stroke-linecap="round" stroke-linejoin="round"/>
<path d="M260.29 301.726L278.235 289.41L301.983 291.034L303.467 321.215L286.061 333.667L264.608 332.043L260.29 301.726Z" stroke="#263238" stroke-miterlimit="10" stroke-linecap="round" stroke-linejoin="round"/>
<path d="M264.607 332.043L281.878 319.591L303.467 321.215" stroke="#263238" stroke-miterlimit="10" stroke-linecap="round" stroke-linejoin="round"/>
<path d="M281.878 319.591L278.235 289.411" stroke="#263238" stroke-miterlimit="10" stroke-linecap="round" stroke-linejoin="round"/>
<path d="M260.289 301.727L284.037 304.433L301.983 291.035" stroke="#263238" stroke-miterlimit="10" stroke-linecap="round" stroke-linejoin="round"/>
<path d="M284.037 304.433L286.061 333.667" stroke="#263238" stroke-miterlimit="10" stroke-linecap="round" stroke-linejoin="round"/>
<path d="M469.295 200.357L461.334 225.124L486.026 221.74L469.295 200.357Z" stroke="#263238" stroke-miterlimit="10" stroke-linecap="round" stroke-linejoin="round"/>
<path d="M469.295 200.357L473.748 223.364" stroke="#263238" stroke-miterlimit="10" stroke-linecap="round" stroke-linejoin="round"/>
<path d="M473.073 219.71L475.907 219.169L476.581 223.094" stroke="#263238" stroke-miterlimit="10" stroke-linecap="round" stroke-linejoin="round"/>
<path d="M158.418 426.646L170.697 432.736" stroke="#263238" stroke-miterlimit="10" stroke-linecap="round" stroke-linejoin="round"/>
<path d="M166.649 422.044L163.141 434.901" stroke="#263238" stroke-miterlimit="10" stroke-linecap="round" stroke-linejoin="round"/>
<path d="M168.403 415.683C168.403 415.683 170.157 414.059 171.371 416.089C172.586 417.984 170.157 422.179 170.157 422.179L175.149 420.284" stroke="#263238" stroke-miterlimit="10" stroke-linecap="round" stroke-linejoin="round"/>
<path d="M255.162 1C266.901 7.63168 253.408 23.8725 253.408 33.3464C253.408 42.8202 266.901 41.4668 273.648 44.1736C276.346 44.1736 281.743 44.1736 281.608 51.076" stroke="#263238" stroke-miterlimit="10" stroke-linecap="round" stroke-linejoin="round"/>
<path d="M242.074 9.52649C244.098 20.7597 256.916 16.6995 264.742 19.271C278.235 23.6019 270.679 37.6773 266.766 46.0684C264.338 51.076 261.909 58.1137 266.227 62.986" stroke="#263238" stroke-miterlimit="10" stroke-linecap="round" stroke-linejoin="round"/>
<path d="M243.828 13.8573L257.861 2.21802" stroke="#263238" stroke-miterlimit="10" stroke-linecap="round" stroke-linejoin="round"/>
<path d="M249.226 17.3761L259.885 8.57898" stroke="#263238" stroke-miterlimit="10" stroke-linecap="round" stroke-linejoin="round"/>
<path d="M255.567 26.3086L264.472 19.2709" stroke="#263238" stroke-miterlimit="10" stroke-linecap="round" stroke-linejoin="round"/>
<path d="M253.678 36.8651L271.084 24.2784" stroke="#263238" stroke-miterlimit="10" stroke-linecap="round" stroke-linejoin="round"/>
<path d="M260.29 41.7374L272.568 32.8049" stroke="#263238" stroke-miterlimit="10" stroke-linecap="round" stroke-linejoin="round"/>
<path d="M265.552 60.8205L280.799 48.3691" stroke="#263238" stroke-miterlimit="10" stroke-linecap="round" stroke-linejoin="round"/>
<path d="M265.957 51.076L275.806 44.0383" stroke="#263238" stroke-miterlimit="10" stroke-linecap="round" stroke-linejoin="round"/>
<path d="M67.287 433.44C81.748 427.639 88.7831 411.178 83.0002 396.673C77.2174 382.168 60.8065 375.112 46.3455 380.912C31.8846 386.713 24.8495 403.174 30.6324 417.679C36.4152 432.184 52.8261 439.24 67.287 433.44Z" stroke="#263238" stroke-miterlimit="10" stroke-linecap="round" stroke-linejoin="round"/>
<path d="M63.9672 379.682C73.817 368.043 82.1826 361.547 85.4209 363.712C90.2784 366.96 81.508 389.021 65.7212 412.976C49.9345 436.931 33.2033 453.849 28.3458 450.601C25.1075 448.435 27.8061 438.149 34.5525 424.48" stroke="#263238" stroke-miterlimit="10" stroke-linecap="round" stroke-linejoin="round"/>
<path d="M29.1552 412.976C15.3925 409.051 6.62204 404.45 7.16176 400.66C7.97133 394.84 31.7189 393.487 60.0541 397.683C88.3893 401.878 110.653 409.999 109.843 415.818C109.303 419.878 97.6994 421.773 81.3729 421.097" stroke="#263238" stroke-miterlimit="10" stroke-linecap="round" stroke-linejoin="round"/>
<path d="M32.7986 392.404C22.4091 373.592 17.2817 358.975 20.7899 356.675C25.3775 353.697 43.1882 373.051 60.5941 399.984C78 426.916 88.3895 451.142 83.667 454.12C80.5636 456.15 71.7932 448.3 61.1338 434.901" stroke="#263238" stroke-miterlimit="10" stroke-linecap="round" stroke-linejoin="round"/>
<path d="M89.4688 375.893C88.1195 378.058 85.151 378.6 82.9921 377.246C80.8333 375.893 80.2936 372.915 81.6429 370.75C82.9921 368.585 85.9606 368.043 88.1195 369.397C90.2783 370.885 90.8181 373.727 89.4688 375.893Z" fill="#263238"/>
<path d="M74.0867 447.217C72.7374 449.383 69.7689 449.924 67.6101 448.571C65.4512 447.217 64.9115 444.24 66.2608 442.074C67.6101 439.909 70.5785 439.367 72.7374 440.721C74.8963 442.21 75.436 445.052 74.0867 447.217Z" fill="#263238"/>
<path d="M49.2598 398.901C47.9105 401.066 44.942 401.608 42.7832 400.254C40.6243 398.901 40.0846 395.923 41.4339 393.758C42.7832 391.592 45.7516 391.051 47.9105 392.404C50.0693 393.893 50.6091 396.735 49.2598 398.901Z" fill="#263238"/>
<path d="M345.16 196.296H361.081L369.042 182.491L361.081 168.687H345.16L337.199 182.491L345.16 196.296Z" stroke="#263238" stroke-miterlimit="10" stroke-linecap="round" stroke-linejoin="round"/>
<path d="M342.866 226.612L334.906 212.808H318.984" stroke="#263238" stroke-miterlimit="10" stroke-linecap="round" stroke-linejoin="round"/>
<path d="M321.143 182.492H337.064L345.025 168.687L337.064 154.882H321.143L313.182 168.687L321.143 182.492Z" stroke="#263238" stroke-miterlimit="10" stroke-linecap="round" stroke-linejoin="round"/>
<path d="M345.16 168.687H361.081L369.042 154.882L361.081 141.077H345.16L337.199 154.882L345.16 168.687Z" stroke="#263238" stroke-miterlimit="10" stroke-linecap="round" stroke-linejoin="round"/>
<path d="M345.025 170.852C346.217 170.852 347.184 169.883 347.184 168.687C347.184 167.491 346.217 166.521 345.025 166.521C343.833 166.521 342.866 167.491 342.866 168.687C342.866 169.883 343.833 170.852 345.025 170.852Z" fill="#263238"/>
<path d="M311.832 141.889C313.025 141.889 313.991 140.92 313.991 139.724C313.991 138.528 313.025 137.559 311.832 137.559C310.64 137.559 309.674 138.528 309.674 139.724C309.674 140.92 310.64 141.889 311.832 141.889Z" fill="#263238"/>
<path d="M340.708 226.612C340.708 225.394 341.652 224.447 342.866 224.447C344.081 224.447 345.025 225.394 345.025 226.612C345.025 227.831 344.081 228.778 342.866 228.778C341.652 228.778 340.708 227.831 340.708 226.612Z" fill="#263238"/>
<path d="M318.984 214.973C320.176 214.973 321.143 214.004 321.143 212.808C321.143 211.612 320.176 210.642 318.984 210.642C317.791 210.642 316.825 211.612 316.825 212.808C316.825 214.004 317.791 214.973 318.984 214.973Z" fill="#263238"/>
<path d="M384.424 155.288C384.424 154.07 385.369 153.123 386.583 153.123C387.798 153.123 388.742 154.07 388.742 155.288C388.742 156.506 387.798 157.454 386.583 157.454C385.369 157.318 384.424 156.371 384.424 155.288Z" fill="#263238"/>
<path d="M334.771 214.973C335.963 214.973 336.93 214.004 336.93 212.808C336.93 211.612 335.963 210.642 334.771 210.642C333.578 210.642 332.612 211.612 332.612 212.808C332.612 214.004 333.578 214.973 334.771 214.973Z" fill="#263238"/>
<path d="M366.884 155.288C366.884 154.07 367.828 153.123 369.043 153.123C370.257 153.123 371.202 154.07 371.202 155.288C371.202 156.506 370.257 157.454 369.043 157.454C367.828 157.318 366.884 156.371 366.884 155.288Z" fill="#263238"/>
<path d="M342.866 196.296C342.866 195.078 343.811 194.131 345.025 194.131C346.239 194.131 347.184 195.078 347.184 196.296C347.184 197.514 346.239 198.462 345.025 198.462C343.811 198.462 342.866 197.514 342.866 196.296Z" fill="#263238"/>
<path d="M369.042 155.288H386.448" stroke="#263238" stroke-miterlimit="10" stroke-linecap="round" stroke-linejoin="round"/>
<path d="M345.025 196.296L334.771 212.808" stroke="#263238" stroke-miterlimit="10" stroke-linecap="round" stroke-linejoin="round"/>
<path d="M321.143 154.882L311.833 139.724" stroke="#263238" stroke-miterlimit="10" stroke-linecap="round" stroke-linejoin="round"/>
<path d="M433.809 100.475C437.452 88.2948 448.651 79.3623 462.009 79.3623C475.772 79.3623 487.376 88.9715 490.614 101.829" stroke="#263238" stroke-miterlimit="10" stroke-linecap="round" stroke-linejoin="round"/>
<path d="M458.771 138.1C444.064 136.476 432.729 123.889 432.729 108.731" stroke="#263238" stroke-miterlimit="10" stroke-linecap="round" stroke-linejoin="round"/>
<path d="M491.559 108.731C491.559 124.972 478.336 138.235 462.144 138.235" stroke="#263238" stroke-miterlimit="10" stroke-linecap="round" stroke-linejoin="round"/>
<path d="M493.178 90.0541C502.353 88.836 508.56 89.5127 509.504 92.2195C511.393 97.7685 491.693 109.678 465.517 118.746C439.341 127.814 416.538 130.792 414.649 125.243C413.569 122.265 418.832 117.528 427.737 112.385" stroke="#263238" stroke-miterlimit="10" stroke-linecap="round" stroke-linejoin="round"/>
<path d="M334.771 69.8883L337.604 75.5726L343.811 76.52L339.358 80.9862L340.438 87.2119L334.771 84.2344L329.104 87.2119L330.183 80.9862L325.595 76.52L331.937 75.5726L334.771 69.8883Z" stroke="#263238" stroke-miterlimit="10" stroke-linecap="round" stroke-linejoin="round"/>
<path d="M135.48 54.5949C135.48 60.1438 133.186 65.1514 129.408 68.535C126.035 71.7831 121.312 73.8132 116.32 73.8132C115.645 73.8132 115.105 73.8132 114.566 73.6779C110.518 73.2719 107.01 71.6478 104.041 69.2117C101.612 67.1816 99.5885 64.4747 98.509 61.3619C97.6995 59.1965 97.2947 56.8957 97.2947 54.4596C97.2947 43.903 105.93 35.2412 116.455 35.2412C119.423 35.2412 122.257 35.9179 124.82 37.136C127.654 38.4894 130.217 40.6548 132.106 43.2263C134.13 46.4745 135.48 50.3993 135.48 54.5949Z" stroke="#263238" stroke-miterlimit="10" stroke-linecap="round" stroke-linejoin="round"/>
<path d="M132.511 58.1137C132.511 59.7378 131.162 61.0912 129.543 61.0912C127.924 61.0912 126.574 59.7378 126.574 58.1137C126.574 56.4896 127.924 55.1362 129.543 55.1362C131.162 55.1362 132.511 56.3543 132.511 58.1137Z" stroke="#263238" stroke-miterlimit="10" stroke-linecap="round" stroke-linejoin="round"/>
<path d="M105.795 65.5576C105.795 67.0463 105.121 68.3997 104.041 69.2118C101.612 67.1816 99.5885 64.4748 98.509 61.362C99.1837 60.956 100.128 60.6853 100.938 60.6853C103.636 60.8206 105.795 62.9861 105.795 65.5576Z" stroke="#263238" stroke-miterlimit="10" stroke-linecap="round" stroke-linejoin="round"/>
<path d="M129.543 68.5351C126.17 71.7833 121.447 73.8134 116.455 73.8134C115.78 73.8134 115.24 73.8134 114.701 73.678C114.566 73.1367 114.566 72.5953 114.566 72.0539C114.566 67.5877 118.074 64.0688 122.527 64.0688C125.495 64.0688 128.194 65.9636 129.543 68.5351Z" stroke="#263238" stroke-miterlimit="10" stroke-linecap="round" stroke-linejoin="round"/>
<path d="M111.732 47.0158C114.191 47.0158 116.185 45.0162 116.185 42.5496C116.185 40.083 114.191 38.0834 111.732 38.0834C109.273 38.0834 107.28 40.083 107.28 42.5496C107.28 45.0162 109.273 47.0158 111.732 47.0158Z" stroke="#263238" stroke-miterlimit="10" stroke-linecap="round" stroke-linejoin="round"/>
<path d="M115.78 55.1362C115.78 56.2189 114.836 57.1663 113.756 57.1663C112.677 57.1663 111.732 56.2189 111.732 55.1362C111.732 54.0535 112.677 53.1061 113.756 53.1061C114.97 53.1061 115.78 53.9181 115.78 55.1362Z" stroke="#263238" stroke-miterlimit="10" stroke-linecap="round" stroke-linejoin="round"/>
<path d="M131.972 43.3616C131.432 43.4969 130.892 43.6322 130.218 43.6322C127.114 43.6322 124.551 41.0608 124.551 37.9479C124.551 37.6773 124.551 37.4066 124.551 37.2712C127.654 38.76 130.083 40.7901 131.972 43.3616Z" stroke="#263238" stroke-miterlimit="10" stroke-linecap="round" stroke-linejoin="round"/>
<path d="M571.842 277.501L573.866 272.899L570.492 271.004C570.627 270.192 570.627 269.38 570.492 268.568L573.866 266.944L571.977 262.207L568.334 263.29C567.794 262.613 567.254 262.072 566.579 261.53L567.794 257.876L563.206 255.846L561.317 259.23C560.508 259.094 559.698 259.094 558.888 259.23L557.269 255.846L552.547 257.741L553.626 261.395C552.952 261.936 552.412 262.478 551.872 263.154L548.229 261.936L546.205 266.538L549.578 268.433C549.443 269.245 549.443 270.057 549.578 270.869L546.205 272.493L548.094 277.23L551.737 276.147C552.277 276.824 552.817 277.365 553.491 277.907L552.277 281.561L556.865 283.591L558.754 280.207C559.563 280.343 560.373 280.343 561.182 280.207L562.801 283.591L567.524 281.696L566.444 278.042C567.119 277.501 567.659 276.959 568.199 276.282L571.842 277.501ZM557.809 274.794C554.841 273.44 553.491 269.921 554.841 266.944C556.19 263.966 559.698 262.613 562.666 263.966C565.635 265.32 566.984 268.839 565.635 271.816C564.151 274.794 560.777 276.147 557.809 274.794Z" stroke="#263238" stroke-miterlimit="10" stroke-linecap="round" stroke-linejoin="round"/>
<path d="M547.15 301.32L549.983 294.959L545.396 292.388C545.531 291.305 545.53 290.087 545.53 289.004L550.253 286.703L547.824 280.207L542.832 281.696C542.157 280.748 541.348 279.936 540.538 279.26L542.292 274.387L535.951 271.545L533.387 276.147C532.307 276.012 531.093 276.012 530.014 276.012L527.72 271.275L521.243 273.711L522.727 278.718C521.783 279.395 520.973 280.207 520.299 281.019L515.441 279.26L512.608 285.621L517.195 288.192C517.06 289.275 517.06 290.493 517.06 291.576L512.338 293.877L514.767 300.373L519.759 298.884C520.434 299.831 521.243 300.644 522.053 301.32L520.299 306.192L526.64 309.035L529.204 304.433C530.284 304.568 531.498 304.568 532.577 304.568L534.871 309.305L541.348 306.869L539.863 301.862C540.808 301.185 541.618 300.373 542.292 299.561L547.15 301.32ZM527.99 297.801C523.942 296.042 522.188 291.305 523.942 287.245C525.696 283.185 530.418 281.425 534.466 283.185C538.514 284.944 540.268 289.681 538.514 293.741C536.76 297.801 532.038 299.561 527.99 297.801Z" stroke="#263238" stroke-miterlimit="10" stroke-linecap="round" stroke-linejoin="round"/>
<path d="M267.441 241.365C265.552 244.883 263.528 248.267 261.234 251.515C248.956 268.703 231.145 280.072 211.58 284.673C201.865 286.974 191.745 287.516 181.761 286.298C171.776 285.079 161.926 282.102 152.616 277.094C150.727 276.147 148.973 275.064 147.084 273.982C145.33 272.899 143.576 271.681 141.957 270.463C139.933 268.974 138.044 267.485 136.155 265.861C136.02 265.726 135.885 265.726 135.885 265.59C125.09 255.981 117.13 244.071 112.407 230.943C110.383 225.53 109.034 219.981 108.224 214.296C105.661 196.973 108.359 178.567 117.13 161.92C130.083 137.152 153.56 121.453 179.062 117.393C196.603 114.551 215.223 117.257 232.089 126.19C248.146 134.581 260.29 147.438 267.981 162.461C280.124 186.281 280.934 215.65 267.441 241.365Z" fill="#007CDC"/>
<g opacity="0.6">
<path opacity="0.6" d="M267.441 241.365C265.552 244.883 263.528 248.267 261.234 251.515L259.615 250.162L256.782 248.673L253.813 247.049L254.353 243.395C254.353 243.395 254.353 243.395 254.218 240.146C254.083 236.898 256.377 239.605 258.266 238.522C260.155 237.44 261.774 234.462 261.774 234.462C261.774 234.462 263.123 230.131 262.718 228.372C262.314 226.612 260.155 222.552 260.155 222.552L255.297 229.319L251.384 229.049L247.471 227.018L246.932 221.74L244.908 220.657L244.098 217.545L233.439 214.567C233.439 214.567 233.439 214.567 232.224 212.402C231.01 210.236 226.153 209.154 226.153 209.154L227.367 206.311C227.367 206.311 227.367 206.311 229.256 203.199C231.145 200.086 233.169 205.229 233.169 205.229L235.463 206.447L239.646 202.928C239.646 202.928 239.646 202.928 240.725 197.92L247.471 198.326C247.471 198.326 246.932 195.89 249.226 194.943C251.519 193.995 250.44 189.123 249.63 187.228C248.686 185.469 245.582 186.822 245.582 186.822C245.582 186.822 242.074 181.544 241.669 179.379C241.265 177.213 248.281 178.025 251.384 175.86C254.353 173.83 253.408 169.499 251.924 169.363C250.44 169.228 254.893 159.754 263.258 162.326C265.552 163.002 267.036 162.732 267.981 161.92C280.124 186.281 280.934 215.65 267.441 241.365Z" fill="white"/>
<path opacity="0.6" d="M208.477 204.687C205.643 208.341 205.643 208.341 205.643 208.341C205.643 208.341 204.429 205.364 202.675 206.988C200.921 208.612 199.976 209.424 199.976 209.424L198.087 214.973L194.579 217.274L192.42 216.191L190.396 215.108L188.237 213.89L186.078 217.951L184.324 221.199C185.673 223.77 187.428 225.665 187.428 225.665L191.206 232.297L195.658 234.597C198.357 234.597 201.325 235.274 201.325 235.274L204.429 236.898L203.349 243.665C203.349 243.665 201.055 247.455 199.436 246.507C197.817 245.425 197.817 245.425 197.817 245.425L195.253 254.357L195.119 259.229C195.119 259.229 193.634 259.906 192.015 260.312C190.396 260.854 191.475 260.583 188.237 261.53C184.999 262.478 185.269 262.478 182.705 263.29C180.141 263.966 176.228 266.267 176.228 266.267L176.498 271.004L170.292 271.951L166.783 270.057L167.593 267.079L167.998 262.478L167.593 258.959L166.109 255.846L170.292 252.056L169.347 249.62L166.918 244.883L161.926 247.59L159.362 248.944L153.56 246.372L152.886 242.853L150.862 236.492L149.108 232.567L145.869 228.236L145.06 224.447L146.814 221.063L147.758 219.304L144.79 215.379L143.98 212.537L138.988 207.935C138.988 207.935 140.472 207.8 140.067 205.77C139.797 203.74 142.901 200.356 142.901 200.356C144.655 201.304 150.052 205.093 150.052 205.093L154.775 205.77C154.775 205.77 155.719 205.77 156.664 204.011C157.608 202.251 160.442 199.544 160.442 199.544C160.442 199.544 158.283 191.965 159.767 191.018C161.251 189.935 162.87 185.063 162.87 185.063L164.085 182.627C164.085 182.627 161.116 181.409 160.577 179.785C160.037 178.161 152.751 180.326 152.751 180.326L147.758 183.845L143.98 186.822L142.226 190.07C142.226 190.07 138.718 185.875 138.718 188.176C138.718 190.477 137.099 195.213 137.099 195.213C137.099 195.213 137.774 195.619 136.829 197.379C135.885 199.138 134.805 199.138 132.781 199.409C130.757 199.68 124.685 198.868 124.685 198.868C124.685 198.868 123.336 203.875 124.281 204.687C125.225 205.499 125.225 205.499 125.225 205.499C125.225 205.499 123.741 209.153 122.392 208.341C120.907 207.529 118.883 206.447 118.883 206.447L114.026 208.477L108.629 214.432L107.954 214.161C105.39 196.837 108.089 178.431 116.859 161.784C129.813 137.017 153.29 121.318 178.792 117.257C179.062 118.611 179.467 119.829 179.467 119.829L178.117 126.46L176.363 129.709L174.879 132.551L172.72 136.476L177.982 141.483L176.768 147.303L174.07 149.198L173.26 153.664L178.252 163.408L179.602 167.198C179.602 167.198 177.983 170.717 178.387 173.018C178.387 173.018 178.927 176.672 181.626 178.161C184.324 179.649 187.832 181.273 187.832 181.273L187.562 186.687L186.348 188.04L188.372 193.86C194.444 196.296 193.904 198.326 194.444 196.296C194.984 194.266 194.984 194.266 194.984 194.266L199.166 192.777L204.429 199.138C204.429 199.138 206.048 198.868 207.532 200.762C209.016 202.792 211.445 201.033 208.477 204.687Z" fill="white"/>
<path opacity="0.6" d="M136.964 251.921C137.099 253.816 134.67 256.252 134.67 256.252L136.694 257.335L137.369 262.748L135.885 265.591C125.09 255.981 117.129 244.071 112.272 230.943L113.351 224.988L118.074 224.312C118.074 224.312 122.392 221.47 124.281 222.282C126.17 223.094 127.924 227.695 127.924 227.695C127.924 227.695 129.273 233.921 129.138 233.921H129.003H129.138L131.027 235.004L131.567 237.44L128.868 242.583H124.551C124.551 242.583 123.741 242.177 123.606 244.342C123.471 246.643 125.9 248.267 125.9 248.267L130.622 247.049C131.837 242.177 131.837 242.177 131.837 242.177L136.424 241.229C136.424 241.229 135.75 244.207 136.829 244.748C137.909 245.29 137.909 245.29 137.909 245.29L138.583 248.808C138.448 248.944 136.829 249.891 136.964 251.921Z" fill="white"/>
<path opacity="0.6" d="M159.228 259.5C158.823 258.282 158.688 257.335 155.72 255.846C152.886 254.357 153.021 254.898 151.941 256.117C150.862 257.335 149.513 258.011 147.624 257.605C145.735 257.199 146.679 259.365 146.679 259.365L147.084 265.184L141.822 270.463C143.441 271.681 145.195 272.763 146.949 273.981L148.029 270.463L156.934 273.169C155.045 272.628 156.124 270.057 156.124 270.057L154.235 269.109C154.37 268.839 159.767 260.718 159.228 259.5Z" fill="white"/>
<path opacity="0.6" d="M215.088 229.455L212.12 226.477L208.747 227.56L207.397 230.267L206.318 232.161L207.667 234.868L210.366 238.116L211.85 235.139C211.85 235.139 216.168 235.139 218.327 232.703C220.755 230.267 215.088 229.455 215.088 229.455Z" fill="white"/>
<path opacity="0.6" d="M206.453 216.191L211.85 219.033C211.85 219.033 211.85 219.033 212.12 217.815C212.39 216.597 213.604 214.973 213.604 214.973L209.421 210.642L206.453 216.191Z" fill="white"/>
<path opacity="0.6" d="M204.699 279.26L203.08 276.959L201.326 276.012H195.794L192.69 281.967C192.69 281.967 189.722 281.561 185.674 281.155C181.761 280.749 182.705 282.373 182.705 282.373L181.626 286.162C191.746 287.38 201.865 286.839 211.445 284.538C209.826 283.455 207.937 282.373 207.937 282.373L204.699 279.26Z" fill="white"/>
</g>
<path d="M267.441 241.365C265.552 244.883 263.528 248.267 261.234 251.515C248.956 268.703 231.145 280.072 211.58 284.673C201.865 286.974 191.745 287.516 181.761 286.298C171.776 285.079 161.926 282.102 152.616 277.094C150.727 276.147 148.973 275.064 147.084 273.982C145.33 272.899 143.576 271.681 141.957 270.463C139.933 268.974 138.044 267.485 136.155 265.861C136.02 265.726 135.885 265.726 135.885 265.59C125.09 255.981 117.13 244.071 112.407 230.943C110.383 225.53 109.034 219.981 108.224 214.296C105.661 196.973 108.359 178.567 117.13 161.92C130.083 137.152 153.56 121.453 179.062 117.393C196.603 114.551 215.223 117.257 232.089 126.19C248.146 134.581 260.29 147.438 267.981 162.461C280.124 186.281 280.934 215.65 267.441 241.365Z" stroke="#263238" stroke-miterlimit="10" stroke-linecap="round" stroke-linejoin="round"/>
<path d="M211.58 284.673C201.865 286.974 191.745 287.516 181.76 286.298L182.84 282.508C182.84 282.508 181.895 280.884 185.808 281.29C189.721 281.696 192.825 282.102 192.825 282.102L195.928 276.147H201.46L203.214 277.094L204.833 279.395L208.207 282.643C208.072 282.508 209.961 283.455 211.58 284.673Z" stroke="#263238" stroke-miterlimit="10" stroke-linecap="round" stroke-linejoin="round"/>
<path d="M267.845 162.326C266.901 163.138 265.417 163.408 263.123 162.596C254.622 160.025 250.305 169.499 251.789 169.634C253.273 169.769 254.352 173.965 251.249 176.13C248.146 178.161 241.129 177.484 241.534 179.649C242.074 181.815 245.447 187.093 245.447 187.093C245.447 187.093 248.55 185.604 249.495 187.499C250.305 189.394 251.384 194.266 249.09 195.213C246.796 196.161 247.336 198.597 247.336 198.597L240.455 198.191C239.375 203.199 239.375 203.199 239.375 203.199L235.192 206.717L232.899 205.499C232.899 205.499 230.875 200.356 228.986 203.469C227.097 206.582 227.097 206.582 227.097 206.582L225.882 209.424C225.882 209.424 230.74 210.507 231.954 212.672C233.169 214.838 233.169 214.838 233.169 214.838L243.828 217.815L244.638 220.928L246.661 222.011L247.201 227.289L251.114 229.319L255.027 229.59L259.885 222.823C259.885 222.823 262.043 227.018 262.448 228.643C262.988 230.402 261.504 234.733 261.504 234.733C261.504 234.733 260.019 237.71 257.996 238.793C256.107 239.74 253.678 237.169 253.948 240.417C254.083 243.665 254.083 243.665 254.083 243.665L253.543 247.319L256.511 248.944L259.345 250.432L260.964 251.786" stroke="#263238" stroke-miterlimit="10" stroke-linecap="round" stroke-linejoin="round"/>
<path d="M107.954 214.161L109.168 214.432L114.566 208.477L119.423 206.447C119.423 206.447 121.447 207.529 122.931 208.341C124.415 209.153 125.765 205.499 125.765 205.499C125.765 205.499 125.765 205.499 124.82 204.687C123.876 203.875 125.225 198.868 125.225 198.868C125.225 198.868 131.162 199.68 133.321 199.409C135.48 199.138 136.424 199.274 137.369 197.379C138.313 195.619 137.639 195.213 137.639 195.213C137.639 195.213 139.258 190.476 139.258 188.176C139.258 185.875 142.766 190.07 142.766 190.07L144.52 186.822L148.298 183.845L153.29 180.326C153.29 180.326 160.577 178.296 161.116 179.785C161.656 181.409 164.624 182.627 164.624 182.627L163.41 184.928C163.41 184.928 161.791 189.8 160.307 190.883C158.822 191.965 160.981 199.409 160.981 199.409C160.981 199.409 158.148 202.116 157.203 203.875C156.259 205.635 155.314 205.635 155.314 205.635L150.592 204.958C150.592 204.958 145.195 201.168 143.441 200.221C143.441 200.221 140.337 203.605 140.607 205.635C140.877 207.665 139.528 207.8 139.528 207.8L144.52 212.266L145.33 215.108L148.298 219.033L147.353 220.793L145.599 224.176L146.409 227.966L149.647 232.297L151.401 236.222L153.425 242.583L154.1 246.101L159.902 248.673L162.466 247.319L167.458 244.613L169.752 249.35L170.696 251.65L166.513 255.44L167.998 258.553L168.537 262.072L168.133 266.673L167.323 269.651L170.831 271.545L177.038 270.598L176.768 265.861C176.768 265.861 180.546 263.56 183.11 262.884C185.673 262.072 185.404 262.207 188.642 261.124C191.88 260.177 190.936 260.447 192.42 259.906C193.904 259.365 195.523 258.823 195.523 258.823L195.658 253.951L198.222 245.019C198.222 245.019 198.222 245.019 199.841 246.101C201.46 247.184 203.754 243.395 203.754 243.395L204.833 236.628L201.73 235.003C201.73 235.003 198.897 234.327 196.063 234.327L191.61 232.026L187.832 225.394C187.832 225.394 186.078 223.5 184.729 220.928L186.483 217.68L188.642 213.62L190.801 214.838L192.825 215.92L194.984 217.003L198.492 214.702L200.516 209.153C200.516 209.153 201.46 208.341 203.214 206.717C204.968 205.093 206.183 208.071 206.183 208.071C206.183 208.071 206.183 208.071 209.016 204.417C211.85 200.762 209.556 202.522 208.072 200.627C206.587 198.732 204.968 199.003 204.968 199.003L199.706 192.642L195.523 194.131C195.523 194.131 195.523 194.131 194.984 196.161C194.444 198.191 194.984 196.161 188.912 193.725L186.888 187.905L188.102 186.552L188.372 181.138C188.372 181.138 184.864 179.379 182.165 178.025C179.467 176.536 178.927 172.882 178.927 172.882C178.522 170.446 180.141 167.063 180.141 167.063L178.792 163.273L173.8 153.529L174.609 149.198L177.443 147.303L178.522 141.483L173.26 136.476L175.284 132.551L176.768 129.709L178.522 126.46L179.871 119.829C179.871 119.829 179.602 118.611 179.197 117.257" stroke="#263238" stroke-miterlimit="10" stroke-linecap="round" stroke-linejoin="round"/>
<path d="M136.154 265.861C136.019 265.726 135.884 265.59 135.749 265.59L137.233 262.748L136.694 257.335L134.67 256.252C134.67 256.252 137.099 253.816 136.964 251.921C136.829 250.026 138.448 249.079 138.448 249.079L137.773 245.56C137.773 245.56 137.773 245.56 136.694 245.019C135.614 244.477 136.289 241.5 136.289 241.5L131.701 242.447C131.701 242.447 131.701 242.447 130.487 247.319L125.764 248.537C125.764 248.537 123.471 246.913 123.471 244.613C123.606 242.312 124.415 242.853 124.415 242.853H128.733L131.432 237.71L130.892 235.274L129.003 234.191" stroke="#263238" stroke-miterlimit="10" stroke-linecap="round" stroke-linejoin="round"/>
<path d="M129.003 233.786C129.273 233.921 127.789 227.695 127.789 227.695C127.789 227.695 126.035 223.094 124.146 222.282C122.257 221.47 117.939 224.312 117.939 224.312L113.216 224.988L112.137 230.673" stroke="#263238" stroke-miterlimit="10" stroke-linecap="round" stroke-linejoin="round"/>
<path d="M148.163 270.327L147.084 273.846C145.33 272.764 143.575 271.546 141.956 270.327L147.219 265.049L146.814 259.23C146.814 259.23 145.869 257.064 147.758 257.47C149.647 257.876 150.862 257.199 152.076 255.981C153.155 254.763 153.021 254.222 155.854 255.711C158.688 257.199 158.957 258.282 159.362 259.365C159.767 260.448 154.37 268.703 154.37 268.703L156.259 269.651C156.259 269.651 155.179 272.222 157.068 272.764L148.163 270.327Z" stroke="#263238" stroke-miterlimit="10" stroke-linecap="round" stroke-linejoin="round"/>
<path d="M208.881 227.56L212.255 226.477L215.223 229.455C215.223 229.455 221.025 230.267 218.731 232.703C216.437 235.274 212.255 235.139 212.255 235.139L210.77 238.116L208.072 234.868L206.722 232.161L207.802 230.267L208.881 227.56Z" stroke="#263238" stroke-miterlimit="10" stroke-linecap="round" stroke-linejoin="round"/>
<path d="M213.604 214.973C213.604 214.973 212.389 216.462 212.119 217.815C211.85 219.033 211.85 219.033 211.85 219.033L206.452 216.191L209.421 210.642L213.604 214.973Z" stroke="#263238" stroke-miterlimit="10" stroke-linecap="round" stroke-linejoin="round"/>
<path d="M506.401 534.241C499.114 540.332 443.524 578.633 363.915 572.407C359.598 536.136 343.271 386.991 361.891 363.577C361.891 363.577 406.958 342.058 448.381 351.126C489.804 360.194 505.996 368.855 508.964 376.299C511.123 381.983 508.02 487.684 506.401 534.241Z" fill="#263238"/>
<path d="M447.032 367.096C423.149 387.803 392.385 383.472 393.06 367.502C393.195 365.066 395.759 361.953 395.759 361.953C395.759 361.953 395.354 361.412 394.814 360.464C393.87 359.111 392.52 356.945 390.766 354.374C387.798 349.772 384.155 343.953 381.591 339.757C379.432 336.238 433.269 302.945 433.269 322.028C433.269 348.96 446.492 353.968 446.492 353.968C451.35 356.133 456.072 359.246 447.032 367.096Z" fill="white" stroke="#263238" stroke-miterlimit="10" stroke-linecap="round" stroke-linejoin="round"/>
<path d="M462.144 408.239C462.144 408.239 457.286 424.751 459.58 429.488" stroke="white" stroke-miterlimit="10" stroke-linecap="round" stroke-linejoin="round"/>
<path d="M456.477 360.058C456.477 376.028 408.982 391.728 394.949 375.622" stroke="white" stroke-miterlimit="10" stroke-linecap="round" stroke-linejoin="round"/>
<path d="M417.347 341.652C417.347 341.652 414.109 353.697 399.402 363.171C399.402 363.171 398.592 361.547 396.163 360.6C395.759 360.464 395.219 360.6 394.814 360.6C393.869 359.246 392.52 357.081 390.766 354.509C398.457 348.825 417.347 341.652 417.347 341.652Z" fill="#263238"/>
<path d="M424.094 326.9C424.094 326.9 423.959 338.81 421.396 341.246C402.506 359.381 384.155 360.735 381.187 355.998C360.812 323.787 365.535 315.396 363.511 309.847C359.868 300.238 355.28 284.403 357.304 274.794C361.757 253.41 401.831 236.898 422.88 258.418C433 268.703 436.238 291.035 434.079 309.576" fill="white"/>
<path d="M424.094 326.9C424.094 326.9 423.959 338.81 421.396 341.246C402.506 359.381 384.155 360.735 381.187 355.998C360.812 323.787 365.535 315.396 363.511 309.847C359.868 300.238 355.28 284.403 357.304 274.794C361.757 253.41 401.831 236.898 422.88 258.418C433 268.703 436.238 291.035 434.079 309.576" stroke="#263238" stroke-miterlimit="10" stroke-linecap="round" stroke-linejoin="round"/>
<path d="M365.94 299.832C365.94 299.832 360.272 297.26 359.058 300.373" stroke="#263238" stroke-miterlimit="10" stroke-linecap="round" stroke-linejoin="round"/>
<path d="M379.567 299.967C379.567 299.967 391.306 295.095 396.568 301.05" stroke="#263238" stroke-miterlimit="10" stroke-linecap="round" stroke-linejoin="round"/>
<path d="M392.52 308.358C392.655 310.117 391.845 311.606 390.631 311.741C389.417 311.877 388.202 310.523 388.067 308.764C387.932 307.005 388.742 305.516 389.956 305.38C391.171 305.245 392.385 306.599 392.52 308.358Z" fill="#263238"/>
<path d="M369.582 308.899C369.717 310.659 368.908 312.148 367.693 312.283C366.479 312.418 365.265 311.065 365.13 309.305C364.995 307.546 365.804 306.057 367.019 305.922C368.233 305.787 369.447 307.14 369.582 308.899Z" fill="#263238"/>
<path d="M370.257 304.298C371.876 307.005 370.932 311.471 368.908 317.561C366.749 323.787 368.638 325.952 376.869 326.629" fill="white"/>
<path d="M370.257 304.298C371.876 307.005 370.932 311.471 368.908 317.561C366.749 323.787 368.638 325.952 376.869 326.629" stroke="#263238" stroke-miterlimit="10" stroke-linecap="round" stroke-linejoin="round"/>
<path d="M376.869 337.321C376.869 337.321 387.663 336.374 392.655 333.667" stroke="#263238" stroke-miterlimit="10" stroke-linecap="round" stroke-linejoin="round"/>
<path d="M445.143 276.012C445.143 268.027 437.182 251.515 423.419 249.62C415.459 241.229 404.125 238.116 390.227 241.365C358.383 248.673 348.669 280.207 347.319 285.486C347.184 286.027 347.184 286.298 347.184 286.298L355.685 284.132L352.042 291.305L356.494 294.283L355.415 295.365L360.542 300.373L358.923 291.17C359.868 285.215 366.749 276.959 366.749 276.959C362.836 281.696 362.296 288.057 362.296 288.057C364.995 281.019 381.187 274.523 381.187 274.523C375.924 278.854 373.091 287.11 373.091 287.11C378.083 280.884 389.822 276.959 397.243 274.794C399.807 280.884 403.72 287.245 409.522 290.764C414.919 294.147 414.784 300.914 414.784 300.914C424.094 307.005 426.928 317.697 426.928 317.697L433.404 326.629C433.404 326.9 445.278 312.418 445.143 276.012Z" fill="#263238"/>
<path d="M417.753 303.486C415.594 298.749 423.554 286.027 429.087 287.651C432.19 288.598 436.373 294.283 437.182 300.373C437.992 306.463 433.674 317.967 429.087 320.403C426.253 322.027 423.824 317.561 423.824 317.561" fill="white"/>
<path d="M417.753 303.486C415.594 298.749 423.554 286.027 429.087 287.651C432.19 288.598 436.373 294.283 437.182 300.373C437.992 306.463 433.674 317.967 429.087 320.403C426.253 322.027 423.824 317.561 423.824 317.561" stroke="#263238" stroke-miterlimit="10" stroke-linecap="round" stroke-linejoin="round"/>
<path d="M73.5474 533.159L226.018 497.429L543.911 534.241L462.144 590.408L73.5474 533.159Z" fill="white"/>
<path d="M73.5474 533.159L226.018 497.429L543.911 534.241" fill="white"/>
<path d="M73.5474 533.159L226.018 497.429L543.911 534.241" stroke="#263238" stroke-miterlimit="10" stroke-linecap="round" stroke-linejoin="round"/>
<path d="M205.508 540.331L267.171 512.993L345.16 517.053L310.483 546.828L205.508 540.331Z" fill="white" stroke="#263238" stroke-miterlimit="10" stroke-linecap="round" stroke-linejoin="round"/>
<path d="M364.86 362.359C345.025 370.479 340.843 388.75 307.11 460.887C307.11 460.887 292.133 464 284.172 482.135C276.211 500.406 289.569 514.752 304.951 514.211C304.951 514.211 311.158 519.624 323.841 519.083C336.525 518.542 392.655 432.465 392.655 432.465L364.86 362.359Z" fill="#263238"/>
<path d="M313.182 465.083C322.087 472.932 327.08 484.572 324.381 497.429" stroke="white" stroke-miterlimit="10" stroke-linecap="round" stroke-linejoin="round"/>
<path d="M321.683 468.872C321.683 468.872 332.612 471.308 334.231 485.248" stroke="white" stroke-miterlimit="10" stroke-linecap="round" stroke-linejoin="round"/>
<path d="M353.526 427.999C353.526 427.999 345.16 409.593 348.399 387.803" stroke="white" stroke-miterlimit="10" stroke-linecap="round" stroke-linejoin="round"/>
<path d="M351.907 409.593C351.097 415.277 356.899 445.593 356.899 477.398" stroke="white" stroke-miterlimit="10" stroke-linecap="round" stroke-linejoin="round"/>
<path d="M499.924 368.314C524.751 380.765 527.585 419.202 504.242 465.082C487.781 497.428 464.977 545.339 450.54 548.587C436.103 551.835 422.07 542.768 422.07 542.768C422.07 542.768 409.926 542.226 406.283 533.564C396.298 509.88 421.8 479.97 431.785 487.143C431.785 487.143 463.898 417.172 469.7 412.841" fill="#263238"/>
<path d="M403.989 519.083C400.616 502.707 426.253 483.488 431.785 487.007C431.785 487.007 450.81 488.09 453.643 501.218" stroke="white" stroke-miterlimit="10" stroke-linecap="round" stroke-linejoin="round"/>
<path d="M473.748 522.602C484.947 502.842 504.242 465.082 504.242 465.082" stroke="white" stroke-miterlimit="10" stroke-linecap="round" stroke-linejoin="round"/>
<path d="M431.785 487.143C431.785 487.143 445.143 479.157 455.127 486.737" stroke="white" stroke-miterlimit="10" stroke-linecap="round" stroke-linejoin="round"/>
<path d="M436.237 477.398C436.237 477.398 443.658 461.157 451.08 446.27C458.636 431.247 475.637 409.322 482.788 408.239" stroke="white" stroke-miterlimit="10" stroke-linecap="round" stroke-linejoin="round"/>
<path d="M295.641 506.496C294.157 506.361 292.538 506.09 291.054 505.278C268.116 493.233 250.305 473.473 239.511 459.263C232.089 449.383 228.042 442.21 228.042 442.21L233.574 418.525C233.574 418.525 238.701 432.059 259.615 445.323C280.394 458.721 305.221 463.052 313.182 476.451C320.198 488.225 307.785 507.173 295.641 506.496Z" fill="white"/>
<path opacity="0.4" d="M295.641 506.497C295.371 504.872 294.966 503.248 294.292 501.489C289.434 489.444 260.29 465.353 260.29 465.353C253.408 465.082 245.717 462.24 239.511 459.127C232.089 449.248 228.042 442.074 228.042 442.074L233.574 418.39C233.574 418.39 238.701 431.924 259.615 445.187C280.394 458.586 305.221 462.917 313.182 476.316C320.198 488.226 307.785 507.173 295.641 506.497Z" fill="#007CDC"/>
<path d="M295.641 506.496C294.157 506.361 292.538 506.09 291.054 505.278C268.116 493.233 250.305 473.473 239.511 459.263C232.089 449.383 228.042 442.21 228.042 442.21L233.574 418.525C233.574 418.525 238.701 432.059 259.615 445.323C280.394 458.721 305.221 463.052 313.182 476.451C320.198 488.225 307.785 507.173 295.641 506.496Z" stroke="#263238" stroke-miterlimit="10" stroke-linecap="round" stroke-linejoin="round"/>
<path d="M243.693 440.721C243.693 440.721 240.86 453.308 233.304 450.466C229.256 448.977 221.43 436.796 219.946 430.706L243.693 440.721Z" fill="white" stroke="#263238" stroke-miterlimit="10" stroke-linecap="round" stroke-linejoin="round"/>
<path d="M210.635 363.036L216.707 359.923C216.707 359.923 233.978 360.058 244.772 368.855C254.487 376.84 259.48 389.292 259.48 389.292C259.48 389.292 297.395 368.314 336.12 380.359L351.906 468.601L279.314 473.338L233.978 430.165L210.635 363.036Z" fill="white" stroke="#263238" stroke-miterlimit="10" stroke-linecap="round" stroke-linejoin="round"/>
<path d="M356.899 472.12C356.899 472.12 348.399 471.849 336.93 472.255C319.659 472.797 295.911 474.692 285.117 481.053L284.577 480.917L274.592 477.398C274.592 477.398 274.457 477.263 274.457 477.128C272.568 474.421 257.861 453.037 236.677 444.375L206.723 360.6C206.723 360.6 237.756 361.953 254.758 390.104L263.258 393.217C263.258 393.217 313.857 378.194 342.327 383.607L356.899 472.12Z" fill="#007CDC"/>
<path opacity="0.3" d="M274.457 477.128C272.568 474.421 257.861 453.037 236.677 444.375L206.723 360.6C206.723 360.6 237.756 361.953 254.758 390.104L274.457 477.128Z" fill="black" fill-opacity="0.7"/>
<path opacity="0.3" d="M337.064 472.12C319.793 472.661 296.046 474.556 285.251 480.917L284.712 480.782L264.877 396.059C264.877 396.059 281.203 392.405 286.196 394.299C286.061 394.299 319.119 418.796 337.064 472.12Z" fill="black" fill-opacity="0.7"/>
<path d="M356.899 472.12C356.899 472.12 348.399 471.849 336.93 472.255C319.659 472.797 295.911 474.692 285.117 481.053L284.577 480.917L274.592 477.398C274.592 477.398 274.457 477.263 274.457 477.128C272.568 474.421 257.861 453.037 236.677 444.375L206.723 360.6C206.723 360.6 237.756 361.953 254.758 390.104L263.258 393.217C263.258 393.217 313.857 378.194 342.327 383.607L356.899 472.12Z" stroke="#263238" stroke-miterlimit="10" stroke-linecap="round" stroke-linejoin="round"/>
<path d="M263.258 393.081L282.823 474.421" stroke="#263238" stroke-miterlimit="10" stroke-linecap="round" stroke-linejoin="round"/>
<path d="M274.727 477.398L255.702 396.194" stroke="#263238" stroke-miterlimit="10" stroke-linecap="round" stroke-linejoin="round"/>
<path d="M226.422 442.21C222.104 440.992 213.334 414.871 217.382 403.638C217.382 403.638 222.104 395.382 224.128 394.841C227.097 393.893 239.375 394.164 238.701 396.329C237.351 401.066 228.041 401.066 228.041 401.066L224.938 406.615L225.073 409.728C225.073 409.728 229.525 406.48 231.145 406.615C231.954 406.615 236.272 408.781 239.78 410.54C242.748 412.164 244.503 412.976 243.828 414.33C241.669 419.067 232.359 415.683 232.359 415.683L228.851 420.961C228.851 420.961 232.224 421.503 233.708 421.773C235.327 421.909 247.336 430.029 247.066 431.112C245.582 435.037 233.978 430.841 233.978 430.841L231.954 432.601C231.954 432.601 240.455 434.766 241.399 435.172C242.748 435.713 248.011 439.638 247.876 440.18C247.201 443.699 240.05 441.127 240.05 441.127L233.843 440.856C233.843 440.856 232.629 442.074 230.47 442.616" fill="white"/>
<path d="M226.422 442.21C222.104 440.992 213.334 414.871 217.382 403.638C217.382 403.638 222.104 395.382 224.128 394.841C227.097 393.893 239.375 394.164 238.701 396.329C237.351 401.066 228.041 401.066 228.041 401.066L224.938 406.615L225.073 409.728C225.073 409.728 229.525 406.48 231.145 406.615C231.954 406.615 236.272 408.781 239.78 410.54C242.748 412.164 244.503 412.976 243.828 414.33C241.669 419.067 232.359 415.683 232.359 415.683L228.851 420.961C228.851 420.961 232.224 421.503 233.708 421.773C235.327 421.909 247.336 430.029 247.066 431.112C245.582 435.037 233.978 430.841 233.978 430.841L231.954 432.601C231.954 432.601 240.455 434.766 241.399 435.172C242.748 435.713 248.011 439.638 247.876 440.18C247.201 443.699 240.05 441.127 240.05 441.127L233.843 440.856C233.843 440.856 232.629 442.074 230.47 442.616" stroke="#263238" stroke-miterlimit="10" stroke-linecap="round" stroke-linejoin="round"/>
<path d="M225.073 409.593C225.073 409.593 221.025 412.976 219.946 413.923C218.866 414.871 219.136 418.119 219.136 418.119" stroke="#263238" stroke-miterlimit="10" stroke-linecap="round" stroke-linejoin="round"/>
<path d="M222.24 425.021C222.24 428.405 224.533 430.57 225.613 431.653C226.692 432.736 223.859 435.849 226.962 438.014" stroke="#263238" stroke-miterlimit="10" stroke-linecap="round" stroke-linejoin="round"/>
<path d="M422.07 533.971C413.435 536.271 404.124 521.249 392.79 504.737C385.234 493.91 376.869 482.406 367.289 474.962C366.479 474.421 365.804 473.744 364.995 473.203L370.662 444.781C382.401 450.872 389.687 460.751 401.831 470.902C421.395 487.278 438.801 497.293 443.524 504.466C448.246 511.639 436.777 530.046 422.07 533.971Z" fill="white"/>
<path opacity="0.4" d="M392.79 504.737C385.234 493.91 376.869 482.406 367.289 474.962C369.043 474.962 370.392 474.692 371.067 474.421C370.932 474.421 386.179 486.872 392.79 504.737Z" fill="#007CDC"/>
<path d="M422.07 533.971C413.435 536.271 404.124 521.249 392.79 504.737C385.234 493.91 376.869 482.406 367.289 474.962C366.479 474.421 365.804 473.744 364.995 473.203L370.662 444.781C382.401 450.872 389.687 460.751 401.831 470.902C421.395 487.278 438.801 497.293 443.524 504.466C448.246 511.639 436.777 530.046 422.07 533.971Z" stroke="#263238" stroke-miterlimit="10" stroke-linecap="round" stroke-linejoin="round"/>
<path d="M373.765 472.12C373.225 473.067 372.281 473.88 371.066 474.286C370.797 474.421 370.527 474.556 370.122 474.556C369.987 474.556 369.987 474.556 369.852 474.556C360.812 476.992 340.437 471.985 340.437 471.985C340.437 471.985 327.079 465.624 326.27 464.135C325.73 463.188 325.19 461.564 324.786 460.481C324.516 459.804 324.381 459.398 324.381 459.398C324.381 459.398 319.523 456.691 318.984 454.526C318.444 452.36 317.365 451.819 320.333 451.413C323.301 451.007 339.223 451.413 339.223 451.413L321.952 444.375C321.952 444.375 310.483 438.556 309.404 436.526C308.324 434.495 306.975 433.142 312.912 433.954C318.849 434.766 331.667 438.556 331.667 438.556L341.652 440.721L331.667 436.39C331.667 436.39 311.967 433.954 315.61 427.864C315.61 427.864 323.032 427.864 326.81 427.864C330.588 427.864 342.461 429.217 345.7 430.3C348.938 431.247 370.527 444.781 370.527 444.781" fill="white"/>
<path opacity="0.4" d="M369.853 474.692C360.812 477.128 340.438 472.12 340.438 472.12C340.438 472.12 327.08 465.759 326.27 464.27C325.731 463.323 325.191 461.699 324.786 460.616L341.113 462.511C341.113 462.511 339.089 465.759 341.113 469.278C342.867 472.526 363.646 475.91 369.853 474.692Z" fill="#007CDC"/>
<path d="M373.765 472.12C373.225 473.067 372.281 473.88 371.066 474.286C370.797 474.421 370.527 474.556 370.122 474.556C369.987 474.556 369.987 474.556 369.852 474.556C360.812 476.992 340.437 471.985 340.437 471.985C340.437 471.985 327.079 465.624 326.27 464.135C325.73 463.188 325.19 461.564 324.786 460.481C324.516 459.804 324.381 459.398 324.381 459.398C324.381 459.398 319.523 456.691 318.984 454.526C318.444 452.36 317.365 451.819 320.333 451.413C323.301 451.007 339.223 451.413 339.223 451.413L321.952 444.375C321.952 444.375 310.483 438.556 309.404 436.526C308.324 434.495 306.975 433.142 312.912 433.954C318.849 434.766 331.667 438.556 331.667 438.556L341.652 440.721L331.667 436.39C331.667 436.39 311.967 433.954 315.61 427.864C315.61 427.864 323.032 427.864 326.81 427.864C330.588 427.864 342.461 429.217 345.7 430.3C348.938 431.247 370.527 444.781 370.527 444.781" stroke="#263238" stroke-miterlimit="10" stroke-linecap="round" stroke-linejoin="round"/>
<path d="M324.381 459.533L344.081 462.511" stroke="#263238" stroke-miterlimit="10" stroke-linecap="round" stroke-linejoin="round"/>
<path d="M127.789 520.166L177.173 535.053L267.576 514.346C267.576 514.346 212.39 498.647 211.85 498.918C211.445 499.324 127.789 520.166 127.789 520.166Z" fill="#007CDC"/>
<path opacity="0.3" d="M127.789 520.166L177.173 535.053L267.576 514.346C267.576 514.346 212.39 498.647 211.85 498.918C211.445 499.324 127.789 520.166 127.789 520.166Z" fill="black" fill-opacity="0.7"/>
<path d="M127.789 520.166L177.173 535.053L267.576 514.346C267.576 514.346 212.39 498.647 211.85 498.918C211.445 499.324 127.789 520.166 127.789 520.166Z" stroke="#263238" stroke-miterlimit="10" stroke-linecap="round" stroke-linejoin="round"/>
<path d="M128.598 502.707C125.09 502.978 124.281 515.429 127.924 520.166L207.802 503.519L214.144 488.361L128.598 502.707Z" fill="#007CDC"/>
<path opacity="0.3" d="M128.598 502.707C125.09 502.978 124.281 515.429 127.924 520.166L207.802 503.519L214.144 488.361L128.598 502.707Z" fill="black" fill-opacity="0.7"/>
<path d="M128.598 502.707C125.09 502.978 124.281 515.429 127.924 520.166L207.802 503.519L214.144 488.361L128.598 502.707Z" stroke="#263238" stroke-miterlimit="10" stroke-linecap="round" stroke-linejoin="round"/>
<path d="M263.798 502.572C263.798 502.572 262.583 509.203 263.393 513.264L177.173 532.888L131.702 519.489C131.702 519.489 126.979 511.098 131.027 504.602L214.009 490.526L263.798 502.572Z" fill="white" stroke="#263238" stroke-miterlimit="10" stroke-linecap="round" stroke-linejoin="round"/>
<path d="M128.599 502.707L214.009 488.361L267.171 501.895L177.848 519.624L128.599 502.707Z" fill="#007CDC" stroke="#263238" stroke-miterlimit="10" stroke-linecap="round" stroke-linejoin="round"/>
<path d="M131.567 510.692L176.768 524.226L250.844 509.203" stroke="#263238" stroke-miterlimit="10" stroke-linecap="round" stroke-linejoin="round"/>
<path d="M263.123 510.692L183.515 527.61" stroke="#263238" stroke-miterlimit="10" stroke-linecap="round" stroke-linejoin="round"/>
<path d="M132.646 515.97C133.321 516.106 166.784 526.392 166.784 526.392" stroke="#263238" stroke-miterlimit="10" stroke-linecap="round" stroke-linejoin="round"/>
<path d="M256.646 507.579L262.988 506.497" stroke="#263238" stroke-miterlimit="10" stroke-linecap="round" stroke-linejoin="round"/>
<path d="M175.284 528.963L172.046 528.151" stroke="#263238" stroke-miterlimit="10" stroke-linecap="round" stroke-linejoin="round"/>
<path d="M131.162 504.467C131.162 504.467 137.234 510.963 131.837 519.354C131.702 519.354 126.575 512.452 131.162 504.467Z" fill="#263238"/>
<path opacity="0.3" d="M131.162 504.467C131.162 504.467 137.234 510.963 131.837 519.354C131.702 519.354 126.575 512.452 131.162 504.467Z" fill="white" fill-opacity="0.7"/>
<path d="M131.162 504.467C131.162 504.467 137.234 510.963 131.837 519.354C131.702 519.354 126.575 512.452 131.162 504.467Z" stroke="#263238" stroke-miterlimit="10" stroke-linecap="round" stroke-linejoin="round"/>
<path d="M315.746 524.226L402.1 527.745L393.6 557.52L287.545 553.46L315.746 524.226Z" fill="white"/>
<path opacity="0.4" d="M315.746 524.226L402.1 527.745L393.6 557.52L287.545 553.46L315.746 524.226Z" fill="#007CDC"/>
<path d="M315.746 524.226L402.1 527.745L393.6 557.52L287.545 553.46L315.746 524.226Z" stroke="#263238" stroke-miterlimit="10" stroke-linecap="round" stroke-linejoin="round"/>
</svg>
