<svg width="569" height="521" viewBox="0 0 569 521" fill="none" xmlns="http://www.w3.org/2000/svg">
<g clip-path="url(#clip0)">
<path d="M506.203 78.6388C506.203 78.6388 471.615 11.3353 395.068 1.41693C318.521 -8.50148 265.08 40.0987 208.803 65.0365C179.319 78.0721 145.581 72.9712 114.395 79.3473C14.317 99.4675 -23.3895 225.998 18.2862 297.977C54.4334 360.322 117.939 392.769 214.615 400.137C311.291 407.505 379.191 416.29 465.803 355.221C552.415 294.293 546.745 167.054 506.203 78.6388Z" fill="#007CDC"/>
<path opacity="0.8" d="M506.203 78.6388C506.203 78.6388 471.615 11.3353 395.068 1.41693C318.521 -8.50148 265.08 40.0987 208.803 65.0365C179.319 78.0721 145.581 72.9712 114.395 79.3473C14.317 99.4675 -23.3895 225.998 18.2862 297.977C54.4334 360.322 117.939 392.769 214.615 400.137C311.291 407.505 379.191 416.29 465.803 355.221C552.415 294.293 546.745 167.054 506.203 78.6388Z" fill="white"/>
<path d="M425.12 135.315L410.236 197.376C410.236 197.376 415.339 204.603 417.465 206.586C419.45 208.57 424.127 208.57 425.687 208.57C427.246 208.57 485.223 209.562 485.223 209.562L496.564 133.615" stroke="#263238" stroke-miterlimit="10" stroke-linecap="round" stroke-linejoin="round"/>
<path d="M437.594 123.697L432.916 123.555" stroke="#263238" stroke-miterlimit="10" stroke-linecap="round" stroke-linejoin="round"/>
<path d="M413.354 198.51L476.009 198.227L489.334 124.547L443.406 123.697" stroke="#263238" stroke-miterlimit="10" stroke-linecap="round" stroke-linejoin="round"/>
<path d="M416.898 198.935L422.143 204.603L482.105 206.161L493.02 140.275L488.342 133.757" stroke="#263238" stroke-miterlimit="10" stroke-linecap="round" stroke-linejoin="round"/>
<path d="M427.388 202.194H436.035C436.035 202.194 434.617 209.137 433.909 215.655C433.2 222.172 432.774 230.532 432.774 230.532L427.671 221.181L421.576 229.115L427.388 202.194Z" fill="#263238"/>
<path d="M61.2376 215.796L98.2354 200.919C98.2354 200.919 100.078 195.676 100.362 193.976C100.645 192.134 98.9441 189.867 98.3771 189.017C97.8101 188.166 77.3976 158.411 77.3976 158.411L34.5879 179.948" stroke="#263238" stroke-miterlimit="10" stroke-linecap="round" stroke-linejoin="round"/>
<path d="M50.7478 213.671L52.4489 216.221" stroke="#263238" stroke-miterlimit="10" stroke-linecap="round" stroke-linejoin="round"/>
<path d="M97.6685 198.935L74.8461 167.196L32.4617 187.033L48.7634 210.695" stroke="#263238" stroke-miterlimit="10" stroke-linecap="round" stroke-linejoin="round"/>
<path d="M96.6763 196.951L97.6686 192.276L76.689 161.245L39.266 179.523L37.5649 184.199" stroke="#263238" stroke-miterlimit="10" stroke-linecap="round" stroke-linejoin="round"/>
<path d="M94.4081 190.433L91.2896 186.041C91.2896 186.041 95.2587 184.341 98.9443 182.357C102.488 180.373 106.882 177.54 106.882 177.54L103.906 183.491L110.143 183.774L94.4081 190.433Z" fill="#263238"/>
<path d="M60.3872 273.89L57.4104 275.448L83.3514 325.041L126.728 278.707L179.744 262.413L153.236 220.189L150.968 220.33" stroke="#263238" stroke-miterlimit="10" stroke-linecap="round" stroke-linejoin="round"/>
<path d="M99.0861 231.949L122.192 273.606C122.192 273.606 111.986 271.339 109.718 280.974C107.45 290.609 97.2433 302.937 92.8489 308.604C88.3128 314.272 83.7767 318.239 83.7767 318.239L58.9697 270.914C58.9697 270.914 70.8771 261.279 76.4055 247.819C82.2174 234.216 91.2896 230.249 99.0861 231.949Z" stroke="#263238" stroke-miterlimit="10" stroke-linecap="round" stroke-linejoin="round"/>
<path d="M122.192 273.748C122.192 273.748 125.027 265.247 131.831 264.68C138.635 264.113 150.968 266.38 161.741 262.98C172.515 259.579 174.216 258.445 174.216 258.445L148.275 216.221C148.275 216.221 142.037 221.322 126.303 221.322C110.568 221.322 100.929 224.156 99.2278 232.091L122.192 273.748Z" stroke="#263238" stroke-miterlimit="10" stroke-linecap="round" stroke-linejoin="round"/>
<path d="M123.893 278.141C123.893 278.141 119.924 279.841 115.955 283.241C111.986 286.642 108.584 292.877 101.921 301.236" stroke="#263238" stroke-miterlimit="10" stroke-linecap="round" stroke-linejoin="round"/>
<path d="M128.429 274.882C128.429 274.882 132.398 269.781 138.635 269.214C144.873 268.647 155.504 268.647 173.082 261.846" stroke="#263238" stroke-miterlimit="10" stroke-linecap="round" stroke-linejoin="round"/>
<path d="M67.6167 277.007C67.6167 277.007 73.2869 270.773 81.0833 259.579C89.0215 248.244 94.5499 243.851 100.787 243.851" stroke="#263238" stroke-miterlimit="10" stroke-linecap="round" stroke-linejoin="round"/>
<path d="M72.011 284.375C72.011 284.375 77.6811 278.141 85.4776 266.947C93.4158 255.612 98.9442 251.219 105.181 251.219" stroke="#263238" stroke-miterlimit="10" stroke-linecap="round" stroke-linejoin="round"/>
<path d="M76.5471 291.743C76.5471 291.743 82.2173 285.509 90.0137 274.315C97.952 262.98 103.48 258.587 109.718 258.587" stroke="#263238" stroke-miterlimit="10" stroke-linecap="round" stroke-linejoin="round"/>
<path d="M81.0833 299.111C81.0833 299.111 86.7534 292.876 94.5499 281.683C102.488 270.348 108.016 265.955 114.254 265.955" stroke="#263238" stroke-miterlimit="10" stroke-linecap="round" stroke-linejoin="round"/>
<path d="M108.725 240.451C108.725 240.451 110.993 234.216 119.499 234.216C128.004 234.216 146.574 233.508 148.842 226.848" stroke="#263238" stroke-miterlimit="10" stroke-linecap="round" stroke-linejoin="round"/>
<path d="M113.828 248.952C113.828 248.952 117.797 243.851 128.429 243.851C139.202 243.851 148.7 241.584 154.937 235.35" stroke="#263238" stroke-miterlimit="10" stroke-linecap="round" stroke-linejoin="round"/>
<path d="M117.23 257.312C117.23 257.312 120.633 249.944 130.13 249.944C139.769 249.944 151.535 248.244 158.339 243.143" stroke="#263238" stroke-miterlimit="10" stroke-linecap="round" stroke-linejoin="round"/>
<path d="M121.058 263.546C121.058 263.546 122.759 257.879 132.398 257.312C142.037 256.745 153.803 254.478 162.875 250.511" stroke="#263238" stroke-miterlimit="10" stroke-linecap="round" stroke-linejoin="round"/>
<path d="M367.284 20.687L365.867 18.9867L337.374 44.7745L375.648 65.6032L395.635 98.0506L419.166 73.1129L418.741 71.5542" stroke="#263238" stroke-miterlimit="10" stroke-linecap="round" stroke-linejoin="round"/>
<path d="M402.014 39.1069L378.199 61.6358C378.199 61.6358 377.916 54.5512 371.112 54.6929C364.308 54.8346 354.385 50.3005 349.849 48.1751C345.313 46.1914 341.91 43.7827 341.91 43.7827L369.127 19.1284C369.127 19.1284 377.491 25.3628 387.555 26.7797C397.478 28.3383 401.731 33.5809 402.014 39.1069Z" stroke="#263238" stroke-miterlimit="10" stroke-linecap="round" stroke-linejoin="round"/>
<path d="M378.199 61.7776C378.199 61.7776 384.295 62.2026 385.854 66.5951C387.414 70.9875 387.981 79.6307 392.091 86.1485C396.202 92.6663 397.195 93.6582 397.195 93.6582L421.009 69.0038C421.009 69.0038 416.615 65.7449 413.78 55.2597C411.086 44.7746 407.543 38.8235 402.014 39.1069L378.199 61.7776Z" stroke="#263238" stroke-miterlimit="10" stroke-linecap="round" stroke-linejoin="round"/>
<path d="M375.506 63.6195C375.506 63.6195 373.663 61.3525 370.828 59.2271C367.851 57.2434 363.174 55.9682 356.369 52.9927" stroke="#263238" stroke-miterlimit="10" stroke-linecap="round" stroke-linejoin="round"/>
<path d="M378.483 66.0283C378.483 66.0283 382.594 67.7286 384.011 71.8376C385.429 75.805 387.272 83.0313 394.785 93.3747" stroke="#263238" stroke-miterlimit="10" stroke-linecap="round" stroke-linejoin="round"/>
<path d="M366.434 25.9296C366.434 25.9296 371.537 28.6217 380.467 31.8806C389.398 35.1395 393.367 38.115 394.359 42.2241" stroke="#263238" stroke-miterlimit="10" stroke-linecap="round" stroke-linejoin="round"/>
<path d="M362.465 30.1803C362.465 30.1803 367.568 32.8724 376.498 36.1313C385.429 39.3903 389.398 42.3658 390.39 46.4748" stroke="#263238" stroke-miterlimit="10" stroke-linecap="round" stroke-linejoin="round"/>
<path d="M358.354 34.5728C358.354 34.5728 363.457 37.2649 372.388 40.5238C381.318 43.7827 385.287 46.7582 386.28 50.8673" stroke="#263238" stroke-miterlimit="10" stroke-linecap="round" stroke-linejoin="round"/>
<path d="M354.243 38.8235C354.243 38.8235 359.346 41.5156 368.277 44.7745C377.207 48.0334 381.176 51.009 382.168 55.118" stroke="#263238" stroke-miterlimit="10" stroke-linecap="round" stroke-linejoin="round"/>
<path d="M398.045 47.0416C398.045 47.0416 402.581 47.4666 403.999 53.1343C405.416 58.802 409.244 70.9874 413.921 71.4125" stroke="#263238" stroke-miterlimit="10" stroke-linecap="round" stroke-linejoin="round"/>
<path d="M393.225 51.8591C393.225 51.8591 397.336 53.5594 399.179 60.7857C401.022 67.8703 404.14 73.963 409.385 76.9385" stroke="#263238" stroke-miterlimit="10" stroke-linecap="round" stroke-linejoin="round"/>
<path d="M388.264 55.5431C388.264 55.5431 393.792 56.5349 395.352 62.9111C397.053 69.2872 400.171 76.9385 404.707 80.4808" stroke="#263238" stroke-miterlimit="10" stroke-linecap="round" stroke-linejoin="round"/>
<path d="M384.72 59.2271C384.72 59.2271 388.831 59.3687 390.815 65.6032C392.8 71.8376 396.344 79.3473 400.596 84.7315" stroke="#263238" stroke-miterlimit="10" stroke-linecap="round" stroke-linejoin="round"/>
<path d="M161.174 76.6552L137.501 113.778L142.604 115.054L166.277 79.9141L203.984 101.735L209.087 96.492L167.553 74.8132" stroke="#263238" stroke-miterlimit="10" stroke-linecap="round" stroke-linejoin="round"/>
<path d="M166.277 79.9141L176.484 141.408L207.811 159.261L203.417 104.852" stroke="#263238" stroke-miterlimit="10" stroke-linecap="round" stroke-linejoin="round"/>
<path d="M207.811 159.261L212.914 149.626L209.087 96.4919" stroke="#263238" stroke-miterlimit="10" stroke-linecap="round" stroke-linejoin="round"/>
<path d="M176.483 141.408L155.362 170.172L144.447 120.154" stroke="#263238" stroke-miterlimit="10" stroke-linecap="round" stroke-linejoin="round"/>
<path d="M137.501 113.778L149.55 169.463L155.362 170.172" stroke="#263238" stroke-miterlimit="10" stroke-linecap="round" stroke-linejoin="round"/>
<path d="M167.553 101.026L150.826 124.122" stroke="#263238" stroke-miterlimit="10" stroke-linecap="round" stroke-linejoin="round"/>
<path d="M168.829 111.936L152.102 134.89" stroke="#263238" stroke-miterlimit="10" stroke-linecap="round" stroke-linejoin="round"/>
<path d="M170.105 122.847L153.378 145.801" stroke="#263238" stroke-miterlimit="10" stroke-linecap="round" stroke-linejoin="round"/>
<path d="M171.381 133.615L154.654 156.711" stroke="#263238" stroke-miterlimit="10" stroke-linecap="round" stroke-linejoin="round"/>
<path d="M174.499 101.735L197.038 114.487" stroke="#263238" stroke-miterlimit="10" stroke-linecap="round" stroke-linejoin="round"/>
<path d="M174.499 111.936L197.038 124.689" stroke="#263238" stroke-miterlimit="10" stroke-linecap="round" stroke-linejoin="round"/>
<path d="M177.759 122.847L200.156 135.599" stroke="#263238" stroke-miterlimit="10" stroke-linecap="round" stroke-linejoin="round"/>
<path d="M178.468 133.615L200.865 146.509" stroke="#263238" stroke-miterlimit="10" stroke-linecap="round" stroke-linejoin="round"/>
<path d="M485.507 346.153L505.352 306.904L500.108 306.054L480.12 343.46L440.287 325.607L435.751 331.275L479.27 348.703" stroke="#263238" stroke-miterlimit="10" stroke-linecap="round" stroke-linejoin="round"/>
<path d="M480.12 343.46L463.677 283.383L430.648 268.789L440.571 322.348" stroke="#263238" stroke-miterlimit="10" stroke-linecap="round" stroke-linejoin="round"/>
<path d="M430.648 268.789L426.537 278.849L435.751 331.275" stroke="#263238" stroke-miterlimit="10" stroke-linecap="round" stroke-linejoin="round"/>
<path d="M463.677 283.383L481.821 252.636L497.698 301.236" stroke="#263238" stroke-miterlimit="10" stroke-linecap="round" stroke-linejoin="round"/>
<path d="M505.352 306.904L487.633 252.636H481.821" stroke="#263238" stroke-miterlimit="10" stroke-linecap="round" stroke-linejoin="round"/>
<path d="M476.718 322.632L490.894 297.977" stroke="#263238" stroke-miterlimit="10" stroke-linecap="round" stroke-linejoin="round"/>
<path d="M474.308 311.863L488.484 287.351" stroke="#263238" stroke-miterlimit="10" stroke-linecap="round" stroke-linejoin="round"/>
<path d="M471.899 301.236L486.216 276.582" stroke="#263238" stroke-miterlimit="10" stroke-linecap="round" stroke-linejoin="round"/>
<path d="M469.489 290.468L483.806 265.955" stroke="#263238" stroke-miterlimit="10" stroke-linecap="round" stroke-linejoin="round"/>
<path d="M469.63 322.632L445.958 312.147" stroke="#263238" stroke-miterlimit="10" stroke-linecap="round" stroke-linejoin="round"/>
<path d="M468.497 312.43L444.965 301.945" stroke="#263238" stroke-miterlimit="10" stroke-linecap="round" stroke-linejoin="round"/>
<path d="M464.244 301.945L440.713 291.46" stroke="#263238" stroke-miterlimit="10" stroke-linecap="round" stroke-linejoin="round"/>
<path d="M462.543 291.176L439.012 280.691" stroke="#263238" stroke-miterlimit="10" stroke-linecap="round" stroke-linejoin="round"/>
<path d="M399.462 366.556C395.493 376.333 391.382 368.54 392.091 327.308C392.375 308.037 393.792 268.647 415.055 277.29C435.61 285.65 408.535 343.885 408.535 343.885L399.462 366.556ZM428.805 372.365C428.805 372.365 473.316 326.032 456.589 311.58C439.295 296.419 425.12 333.259 418.599 351.395C404.565 390.077 405.983 398.862 412.929 390.927L428.805 372.365ZM438.161 414.023C438.161 414.023 478.844 385.118 468.213 371.515C457.156 357.488 440.996 383.559 433.342 396.453C417.04 424.083 416.756 430.884 423.277 425.783L438.161 414.023ZM449.218 455.397C449.218 455.397 489.901 426.492 479.27 412.889C468.213 398.862 452.053 424.933 444.398 437.827C428.097 465.457 427.813 472.258 434.334 467.157L449.218 455.397ZM378.058 372.082C378.058 372.082 321.073 342.469 311.859 362.589C302.219 383.559 341.485 386.676 360.764 387.81C401.872 390.36 409.952 386.676 400.313 382.142L378.058 372.082ZM386.138 404.671C386.138 404.671 324.475 386.96 319.371 408.497C314.127 430.884 353.251 426.208 372.387 423.516C413.213 417.848 420.3 412.606 409.952 410.197L386.138 404.671ZM400.171 440.377C400.171 440.377 347.58 426.775 343.753 445.195C339.784 464.323 372.813 459.364 388.831 456.672C423.135 450.863 429.089 446.329 420.3 444.487L400.171 440.377ZM408.535 469.708C408.535 469.708 357.645 450.579 351.975 468.432C346.021 486.994 379.333 485.577 395.635 484.585C430.365 482.46 436.744 478.634 428.238 475.8L408.535 469.708ZM374.372 320.931C374.372 320.931 351.124 248.81 324.758 261.846C297.258 275.448 329.011 308.037 344.887 323.624C378.766 356.921 389.256 359.188 384.72 347.569L374.372 320.931Z" fill="#007CDC"/>
<path opacity="0.65" d="M399.462 366.556C395.493 376.333 391.382 368.54 392.091 327.308C392.375 308.037 393.792 268.647 415.055 277.29C435.61 285.65 408.535 343.885 408.535 343.885L399.462 366.556ZM428.805 372.365C428.805 372.365 473.316 326.032 456.589 311.58C439.295 296.419 425.12 333.259 418.599 351.395C404.565 390.077 405.983 398.862 412.929 390.927L428.805 372.365ZM438.161 414.023C438.161 414.023 478.844 385.118 468.213 371.515C457.156 357.488 440.996 383.559 433.342 396.453C417.04 424.083 416.756 430.884 423.277 425.783L438.161 414.023ZM449.218 455.397C449.218 455.397 489.901 426.492 479.27 412.889C468.213 398.862 452.053 424.933 444.398 437.827C428.097 465.457 427.813 472.258 434.334 467.157L449.218 455.397ZM378.058 372.082C378.058 372.082 321.073 342.469 311.859 362.589C302.219 383.559 341.485 386.676 360.764 387.81C401.872 390.36 409.952 386.676 400.313 382.142L378.058 372.082ZM386.138 404.671C386.138 404.671 324.475 386.96 319.371 408.497C314.127 430.884 353.251 426.208 372.387 423.516C413.213 417.848 420.3 412.606 409.952 410.197L386.138 404.671ZM400.171 440.377C400.171 440.377 347.58 426.775 343.753 445.195C339.784 464.323 372.813 459.364 388.831 456.672C423.135 450.863 429.089 446.329 420.3 444.487L400.171 440.377ZM408.535 469.708C408.535 469.708 357.645 450.579 351.975 468.432C346.021 486.994 379.333 485.577 395.635 484.585C430.365 482.46 436.744 478.634 428.238 475.8L408.535 469.708ZM374.372 320.931C374.372 320.931 351.124 248.81 324.758 261.846C297.258 275.448 329.011 308.037 344.887 323.624C378.766 356.921 389.256 359.188 384.72 347.569L374.372 320.931Z" fill="white"/>
<path d="M335.815 287.634C335.815 287.634 394.076 358.763 408.109 394.328C424.128 435.277 435.043 481.326 437.169 519.441" stroke="#CCCCCC" stroke-width="1.252" stroke-miterlimit="10" stroke-linecap="round" stroke-linejoin="round"/>
<path d="M396.486 371.09L404.707 303.22" stroke="#CCCCCC" stroke-width="1.252" stroke-miterlimit="10" stroke-linecap="round" stroke-linejoin="round"/>
<path d="M408.109 394.328L437.452 337.226" stroke="#CCCCCC" stroke-width="1.252" stroke-miterlimit="10" stroke-linecap="round" stroke-linejoin="round"/>
<path d="M403.857 385.826L342.336 373.357" stroke="#CCCCCC" stroke-width="1.252" stroke-miterlimit="10" stroke-linecap="round" stroke-linejoin="round"/>
<path d="M419.733 426.633L455.88 385.543" stroke="#CCCCCC" stroke-width="1.252" stroke-miterlimit="10" stroke-linecap="round" stroke-linejoin="round"/>
<path d="M414.63 413.173L368.277 412.748" stroke="#CCCCCC" stroke-width="1.252" stroke-miterlimit="10" stroke-linecap="round" stroke-linejoin="round"/>
<path d="M423.56 446.754L387.98 448.17" stroke="#CCCCCC" stroke-width="1.252" stroke-miterlimit="10" stroke-linecap="round" stroke-linejoin="round"/>
<path d="M430.932 468.291L449.927 442.928" stroke="#CCCCCC" stroke-width="1.252" stroke-miterlimit="10" stroke-linecap="round" stroke-linejoin="round"/>
<path d="M432.208 477.642L390.674 475.659" stroke="#CCCCCC" stroke-width="1.252" stroke-miterlimit="10" stroke-linecap="round" stroke-linejoin="round"/>
<path d="M511.732 422.808C504.502 425.5 506.77 419.407 529.026 399.57C539.374 390.219 561.062 371.657 566.874 387.243C572.544 402.262 528.175 416.573 528.175 416.573L511.732 422.808ZM522.93 441.228C522.93 441.228 569.425 442.078 569 426.067C568.575 409.347 542.067 419.974 529.167 425.5C501.667 437.118 497.698 442.078 505.353 441.936L522.93 441.228ZM505.494 466.59C505.494 466.59 540.933 473.958 542.917 461.631C544.902 448.879 523.214 453.13 512.582 455.397C489.901 460.214 486.074 463.473 492.028 464.465L505.494 466.59ZM488.767 492.803C488.767 492.803 524.206 500.171 526.19 487.844C528.175 475.092 506.487 479.343 495.855 481.61C473.174 486.427 469.347 489.686 475.301 490.678L488.767 492.803ZM498.265 414.164C498.265 414.164 486.074 369.248 470.765 374.207C454.888 379.308 472.607 401.837 481.396 412.606C500.249 435.702 506.203 438.11 503.793 430.884L498.265 414.164ZM484.798 434.426C484.798 434.426 463.96 392.911 449.927 400.704C435.468 408.922 457.156 427.342 467.93 436.268C491.035 455.113 497.273 456.389 493.587 449.729L484.798 434.426ZM472.749 459.364C472.749 459.364 454.038 424.791 442.556 431.734C430.507 438.961 449.218 454.122 458.574 461.348C478.561 476.792 483.948 477.642 480.546 472.116L472.749 459.364ZM461.267 478.209C461.267 478.209 446.383 441.794 434.05 447.462C421.293 453.413 438.303 470.416 446.95 478.634C465.094 496.062 470.339 497.621 467.646 491.67L461.267 478.209ZM523.639 386.96C523.639 386.96 550.572 339.21 530.727 331.558C510.03 323.624 508.188 356.496 507.762 372.649C506.77 406.938 510.597 413.739 514.567 405.663L523.639 386.96Z" fill="#007CDC"/>
<path opacity="0.65" d="M511.732 422.808C504.502 425.5 506.77 419.407 529.026 399.57C539.374 390.219 561.062 371.657 566.874 387.243C572.544 402.262 528.175 416.573 528.175 416.573L511.732 422.808ZM522.93 441.228C522.93 441.228 569.425 442.078 569 426.067C568.575 409.347 542.067 419.974 529.167 425.5C501.667 437.118 497.698 442.078 505.353 441.936L522.93 441.228ZM505.494 466.59C505.494 466.59 540.933 473.958 542.917 461.631C544.902 448.879 523.214 453.13 512.582 455.397C489.901 460.214 486.074 463.473 492.028 464.465L505.494 466.59ZM488.767 492.803C488.767 492.803 524.206 500.171 526.19 487.844C528.175 475.092 506.487 479.343 495.855 481.61C473.174 486.427 469.347 489.686 475.301 490.678L488.767 492.803ZM498.265 414.164C498.265 414.164 486.074 369.248 470.765 374.207C454.888 379.308 472.607 401.837 481.396 412.606C500.249 435.702 506.203 438.11 503.793 430.884L498.265 414.164ZM484.798 434.426C484.798 434.426 463.96 392.911 449.927 400.704C435.468 408.922 457.156 427.342 467.93 436.268C491.035 455.113 497.273 456.389 493.587 449.729L484.798 434.426ZM472.749 459.364C472.749 459.364 454.038 424.791 442.556 431.734C430.507 438.961 449.218 454.122 458.574 461.348C478.561 476.792 483.948 477.642 480.546 472.116L472.749 459.364ZM461.267 478.209C461.267 478.209 446.383 441.794 434.05 447.462C421.293 453.413 438.303 470.416 446.95 478.634C465.094 496.062 470.339 497.621 467.646 491.67L461.267 478.209ZM523.639 386.96C523.639 386.96 550.572 339.21 530.727 331.558C510.03 323.624 508.188 356.496 507.762 372.649C506.77 406.938 510.597 413.739 514.567 405.663L523.639 386.96Z" fill="#E5E5E5"/>
<path d="M522.505 350.12C522.505 350.12 513.291 416.148 501.242 441.086C487.35 469.708 466.37 500.171 447.092 520.15" stroke="#CCCCCC" stroke-width="1.252" stroke-miterlimit="10" stroke-linecap="round" stroke-linejoin="round"/>
<path d="M507.762 423.374L547.879 394.328" stroke="#CCCCCC" stroke-width="1.252" stroke-miterlimit="10" stroke-linecap="round" stroke-linejoin="round"/>
<path d="M501.242 440.944L545.894 428.617" stroke="#CCCCCC" stroke-width="1.252" stroke-miterlimit="10" stroke-linecap="round" stroke-linejoin="round"/>
<path d="M503.51 434.568L479.979 395.745" stroke="#CCCCCC" stroke-width="1.252" stroke-miterlimit="10" stroke-linecap="round" stroke-linejoin="round"/>
<path d="M489.618 463.048L529.309 462.056" stroke="#CCCCCC" stroke-width="1.252" stroke-miterlimit="10" stroke-linecap="round" stroke-linejoin="round"/>
<path d="M494.296 453.696L471.757 428.759" stroke="#CCCCCC" stroke-width="1.252" stroke-miterlimit="10" stroke-linecap="round" stroke-linejoin="round"/>
<path d="M480.829 474.95L462.543 456.814" stroke="#CCCCCC" stroke-width="1.252" stroke-miterlimit="10" stroke-linecap="round" stroke-linejoin="round"/>
<path d="M473.033 489.403L495.855 487.136" stroke="#CCCCCC" stroke-width="1.252" stroke-miterlimit="10" stroke-linecap="round" stroke-linejoin="round"/>
<path d="M468.638 494.787L449.36 471.691" stroke="#CCCCCC" stroke-width="1.252" stroke-miterlimit="10" stroke-linecap="round" stroke-linejoin="round"/>
<path d="M169.538 366.556C173.507 376.333 177.618 368.54 176.909 327.308C176.625 308.037 175.208 268.647 153.945 277.29C133.39 285.65 160.465 343.885 160.465 343.885L169.538 366.556ZM140.195 372.365C140.195 372.365 95.6838 326.032 112.411 311.58C129.705 296.419 143.88 333.259 150.401 351.395C164.434 390.077 163.017 398.862 156.071 390.927L140.195 372.365ZM130.839 414.023C130.839 414.023 90.1554 385.118 100.787 371.515C111.844 357.488 128.004 383.559 135.658 396.453C151.96 424.083 152.244 430.884 145.723 425.783L130.839 414.023ZM119.782 455.397C119.782 455.397 79.0986 426.492 89.7302 412.889C100.787 398.862 116.947 424.933 124.602 437.827C140.903 465.457 141.187 472.258 134.666 467.157L119.782 455.397ZM190.942 372.082C190.942 372.082 247.927 342.469 257.141 362.589C266.781 383.559 227.515 386.676 208.236 387.81C167.128 390.36 159.048 386.676 168.687 382.142L190.942 372.082ZM182.862 404.671C182.862 404.671 244.525 386.96 249.629 408.497C254.873 430.884 215.749 426.208 196.613 423.516C155.787 417.848 148.7 412.606 159.048 410.197L182.862 404.671ZM168.829 440.377C168.829 440.377 221.42 426.775 225.247 445.195C229.216 464.323 196.187 459.364 180.169 456.672C145.865 450.863 139.911 446.329 148.7 444.487L168.829 440.377ZM160.607 469.708C160.607 469.708 211.497 450.579 217.167 468.432C223.121 486.994 189.808 485.577 173.507 484.585C138.777 482.46 132.398 478.634 140.903 475.8L160.607 469.708ZM194.628 320.931C194.628 320.931 217.876 248.81 244.242 261.846C271.742 275.448 239.989 308.037 224.113 323.624C190.234 356.921 179.744 359.188 184.28 347.569L194.628 320.931Z" fill="#007CDC"/>
<path opacity="0.65" d="M169.538 366.556C173.507 376.333 177.618 368.54 176.909 327.308C176.625 308.037 175.208 268.647 153.945 277.29C133.39 285.65 160.465 343.885 160.465 343.885L169.538 366.556ZM140.195 372.365C140.195 372.365 95.6838 326.032 112.411 311.58C129.705 296.419 143.88 333.259 150.401 351.395C164.434 390.077 163.017 398.862 156.071 390.927L140.195 372.365ZM130.839 414.023C130.839 414.023 90.1554 385.118 100.787 371.515C111.844 357.488 128.004 383.559 135.658 396.453C151.96 424.083 152.244 430.884 145.723 425.783L130.839 414.023ZM119.782 455.397C119.782 455.397 79.0986 426.492 89.7302 412.889C100.787 398.862 116.947 424.933 124.602 437.827C140.903 465.457 141.187 472.258 134.666 467.157L119.782 455.397ZM190.942 372.082C190.942 372.082 247.927 342.469 257.141 362.589C266.781 383.559 227.515 386.676 208.236 387.81C167.128 390.36 159.048 386.676 168.687 382.142L190.942 372.082ZM182.862 404.671C182.862 404.671 244.525 386.96 249.629 408.497C254.873 430.884 215.749 426.208 196.613 423.516C155.787 417.848 148.7 412.606 159.048 410.197L182.862 404.671ZM168.829 440.377C168.829 440.377 221.42 426.775 225.247 445.195C229.216 464.323 196.187 459.364 180.169 456.672C145.865 450.863 139.911 446.329 148.7 444.487L168.829 440.377ZM160.607 469.708C160.607 469.708 211.497 450.579 217.167 468.432C223.121 486.994 189.808 485.577 173.507 484.585C138.777 482.46 132.398 478.634 140.903 475.8L160.607 469.708ZM194.628 320.931C194.628 320.931 217.876 248.81 244.242 261.846C271.742 275.448 239.989 308.037 224.113 323.624C190.234 356.921 179.744 359.188 184.28 347.569L194.628 320.931Z" fill="white"/>
<path d="M233.185 287.634C233.185 287.634 174.924 358.763 160.891 394.328C144.872 435.277 133.957 481.326 131.831 519.441" stroke="#CCCCCC" stroke-width="1.252" stroke-miterlimit="10" stroke-linecap="round" stroke-linejoin="round"/>
<path d="M172.514 371.09L164.434 303.22" stroke="#CCCCCC" stroke-width="1.252" stroke-miterlimit="10" stroke-linecap="round" stroke-linejoin="round"/>
<path d="M160.891 394.328L131.548 337.226" stroke="#CCCCCC" stroke-width="1.252" stroke-miterlimit="10" stroke-linecap="round" stroke-linejoin="round"/>
<path d="M165.143 385.826L226.664 373.357" stroke="#CCCCCC" stroke-width="1.252" stroke-miterlimit="10" stroke-linecap="round" stroke-linejoin="round"/>
<path d="M149.408 426.633L113.261 385.543" stroke="#CCCCCC" stroke-width="1.252" stroke-miterlimit="10" stroke-linecap="round" stroke-linejoin="round"/>
<path d="M154.37 413.173L200.723 412.748" stroke="#CCCCCC" stroke-width="1.252" stroke-miterlimit="10" stroke-linecap="round" stroke-linejoin="round"/>
<path d="M145.439 446.754L181.02 448.17" stroke="#CCCCCC" stroke-width="1.252" stroke-miterlimit="10" stroke-linecap="round" stroke-linejoin="round"/>
<path d="M138.21 468.291L119.073 442.928" stroke="#CCCCCC" stroke-width="1.252" stroke-miterlimit="10" stroke-linecap="round" stroke-linejoin="round"/>
<path d="M136.792 477.642L178.326 475.659" stroke="#CCCCCC" stroke-width="1.252" stroke-miterlimit="10" stroke-linecap="round" stroke-linejoin="round"/>
<path d="M57.4103 422.808C64.6397 425.5 62.3717 419.407 40.1163 399.57C29.7683 390.219 8.07994 371.657 2.26803 387.243C-3.40212 402.262 40.9668 416.573 40.9668 416.573L57.4103 422.808ZM46.07 441.228C46.07 441.228 -0.425292 442.078 -3.01828e-05 426.067C0.425231 409.347 26.9332 419.974 39.8328 425.5C67.3331 437.118 71.3022 442.078 63.6475 441.936L46.07 441.228ZM63.5057 466.59C63.5057 466.59 28.0672 473.958 26.0827 461.631C24.0981 448.879 45.7865 453.13 56.418 455.397C79.0986 460.214 82.926 463.473 76.9723 464.465L63.5057 466.59ZM80.2327 492.803C80.2327 492.803 44.7942 500.171 42.8096 487.844C40.8251 475.092 62.5134 479.343 73.145 481.61C95.8256 486.427 99.6529 489.686 93.6993 490.678L80.2327 492.803ZM70.7352 414.164C70.7352 414.164 82.926 369.248 98.2354 374.207C114.112 379.308 96.3926 401.837 87.6039 412.606C68.7506 435.702 62.7969 438.11 65.2067 430.884L70.7352 414.164ZM84.2018 434.426C84.2018 434.426 105.04 392.911 119.073 400.704C133.532 408.922 111.844 427.342 101.07 436.268C77.9646 455.113 71.7274 456.389 75.413 449.729L84.2018 434.426ZM96.2509 459.364C96.2509 459.364 114.962 424.791 126.444 431.734C138.493 438.961 119.782 454.122 110.426 461.348C90.4389 476.792 85.0523 477.642 88.4544 472.116L96.2509 459.364ZM107.733 478.209C107.733 478.209 122.617 441.794 134.95 447.462C147.708 453.413 130.697 470.416 122.05 478.634C103.906 496.062 98.6607 497.621 101.354 491.67L107.733 478.209ZM45.3612 386.96C45.3612 386.96 18.428 339.21 38.2735 331.558C58.9696 323.624 60.8124 356.496 61.2376 372.649C62.2299 406.938 58.4026 413.739 54.4335 405.663L45.3612 386.96Z" fill="#007CDC"/>
<path opacity="0.65" d="M57.4103 422.808C64.6397 425.5 62.3717 419.407 40.1163 399.57C29.7683 390.219 8.07994 371.657 2.26803 387.243C-3.40212 402.262 40.9668 416.573 40.9668 416.573L57.4103 422.808ZM46.07 441.228C46.07 441.228 -0.425292 442.078 -3.01828e-05 426.067C0.425231 409.347 26.9332 419.974 39.8328 425.5C67.3331 437.118 71.3022 442.078 63.6475 441.936L46.07 441.228ZM63.5057 466.59C63.5057 466.59 28.0672 473.958 26.0827 461.631C24.0981 448.879 45.7865 453.13 56.418 455.397C79.0986 460.214 82.926 463.473 76.9723 464.465L63.5057 466.59ZM80.2327 492.803C80.2327 492.803 44.7942 500.171 42.8096 487.844C40.8251 475.092 62.5134 479.343 73.145 481.61C95.8256 486.427 99.6529 489.686 93.6993 490.678L80.2327 492.803ZM70.7352 414.164C70.7352 414.164 82.926 369.248 98.2354 374.207C114.112 379.308 96.3926 401.837 87.6039 412.606C68.7506 435.702 62.7969 438.11 65.2067 430.884L70.7352 414.164ZM84.2018 434.426C84.2018 434.426 105.04 392.911 119.073 400.704C133.532 408.922 111.844 427.342 101.07 436.268C77.9646 455.113 71.7274 456.389 75.413 449.729L84.2018 434.426ZM96.2509 459.364C96.2509 459.364 114.962 424.791 126.444 431.734C138.493 438.961 119.782 454.122 110.426 461.348C90.4389 476.792 85.0523 477.642 88.4544 472.116L96.2509 459.364ZM107.733 478.209C107.733 478.209 122.617 441.794 134.95 447.462C147.708 453.413 130.697 470.416 122.05 478.634C103.906 496.062 98.6607 497.621 101.354 491.67L107.733 478.209ZM45.3612 386.96C45.3612 386.96 18.428 339.21 38.2735 331.558C58.9696 323.624 60.8124 356.496 61.2376 372.649C62.2299 406.938 58.4026 413.739 54.4335 405.663L45.3612 386.96Z" fill="#E5E5E5"/>
<path d="M46.637 350.12C46.637 350.12 55.851 416.148 67.9 441.086C81.7919 469.566 102.63 500.171 121.908 520.008" stroke="#CCCCCC" stroke-width="1.252" stroke-miterlimit="10" stroke-linecap="round" stroke-linejoin="round"/>
<path d="M61.2377 423.374L21.1213 394.328" stroke="#CCCCCC" stroke-width="1.252" stroke-miterlimit="10" stroke-linecap="round" stroke-linejoin="round"/>
<path d="M67.8999 440.944L23.1057 428.617" stroke="#CCCCCC" stroke-width="1.252" stroke-miterlimit="10" stroke-linecap="round" stroke-linejoin="round"/>
<path d="M65.4902 434.568L89.0214 395.745" stroke="#CCCCCC" stroke-width="1.252" stroke-miterlimit="10" stroke-linecap="round" stroke-linejoin="round"/>
<path d="M79.382 463.048L39.6909 462.056" stroke="#CCCCCC" stroke-width="1.252" stroke-miterlimit="10" stroke-linecap="round" stroke-linejoin="round"/>
<path d="M74.7043 453.696L97.2432 428.759" stroke="#CCCCCC" stroke-width="1.252" stroke-miterlimit="10" stroke-linecap="round" stroke-linejoin="round"/>
<path d="M88.1709 474.95L106.457 456.814" stroke="#CCCCCC" stroke-width="1.252" stroke-miterlimit="10" stroke-linecap="round" stroke-linejoin="round"/>
<path d="M95.9674 489.403L73.145 487.136" stroke="#CCCCCC" stroke-width="1.252" stroke-miterlimit="10" stroke-linecap="round" stroke-linejoin="round"/>
<path d="M100.362 494.787L119.782 471.691" stroke="#CCCCCC" stroke-width="1.252" stroke-miterlimit="10" stroke-linecap="round" stroke-linejoin="round"/>
<path d="M339.501 361.739H189.667V392.344H339.501V361.739Z" fill="white" stroke="#263238" stroke-miterlimit="10" stroke-linecap="round" stroke-linejoin="round"/>
<path d="M191.226 369.673H217.451" stroke="#263238" stroke-miterlimit="10" stroke-linecap="round" stroke-linejoin="round"/>
<path d="M226.239 378.033H229.783" stroke="#263238" stroke-miterlimit="10" stroke-linecap="round" stroke-linejoin="round"/>
<path d="M190.801 378.033H220.286" stroke="#263238" stroke-miterlimit="10" stroke-linecap="round" stroke-linejoin="round"/>
<path d="M191.368 386.818H203.559" stroke="#263238" stroke-miterlimit="10" stroke-linecap="round" stroke-linejoin="round"/>
<path d="M308.74 362.872C308.74 362.872 304.487 375.908 308.74 391.777H369.127C369.127 391.777 362.748 373.499 369.127 362.872H308.74Z" fill="white"/>
<path opacity="0.24" d="M308.74 362.872C308.74 362.872 304.487 375.908 308.74 391.777H369.127C369.127 391.777 362.748 373.499 369.127 362.872H308.74Z" fill="black" stroke="#263238" stroke-miterlimit="10" stroke-linecap="round" stroke-linejoin="round"/>
<path d="M308.74 362.872C308.74 362.872 304.487 375.908 308.74 391.777H369.127C369.127 391.777 362.748 373.499 369.127 362.872H308.74Z" stroke="#263238" stroke-miterlimit="10" stroke-linecap="round" stroke-linejoin="round"/>
<path d="M191.368 386.818V365.848C191.368 364.714 192.218 363.864 193.352 363.864H371.537C372.387 363.864 372.954 363.156 372.954 362.447C372.954 361.597 372.246 361.03 371.537 361.03H188.533C187.399 361.03 186.548 361.88 186.548 363.014V389.652C186.548 391.352 187.966 392.769 189.667 392.769H371.537C372.387 392.769 372.954 392.061 372.954 391.352C372.954 390.502 372.246 389.935 371.537 389.935H194.486C192.785 389.935 191.368 388.518 191.368 386.818Z" fill="#263238" stroke="#263238" stroke-miterlimit="10" stroke-linecap="round" stroke-linejoin="round"/>
<path d="M339.501 425.075H189.667V455.68H339.501V425.075Z" fill="white" stroke="#263238" stroke-miterlimit="10" stroke-linecap="round" stroke-linejoin="round"/>
<path d="M192.077 431.026H218.443" stroke="#263238" stroke-miterlimit="10" stroke-linecap="round" stroke-linejoin="round"/>
<path d="M227.232 439.386H230.776" stroke="#263238" stroke-miterlimit="10" stroke-linecap="round" stroke-linejoin="round"/>
<path d="M191.651 439.386H221.278" stroke="#263238" stroke-miterlimit="10" stroke-linecap="round" stroke-linejoin="round"/>
<path d="M192.36 448.029H204.409" stroke="#263238" stroke-miterlimit="10" stroke-linecap="round" stroke-linejoin="round"/>
<path d="M309.59 426.067C309.59 426.067 305.338 439.102 309.59 454.972H368.985C368.985 454.972 362.606 436.694 368.985 426.067H309.59Z" fill="white"/>
<path opacity="0.24" d="M309.59 426.067C309.59 426.067 305.338 439.102 309.59 454.972H368.985C368.985 454.972 362.606 436.694 368.985 426.067H309.59Z" fill="black" stroke="#263238" stroke-miterlimit="10" stroke-linecap="round" stroke-linejoin="round"/>
<path d="M309.59 426.067C309.59 426.067 305.338 439.102 309.59 454.972H368.985C368.985 454.972 362.606 436.694 368.985 426.067H309.59Z" stroke="#263238" stroke-miterlimit="10" stroke-linecap="round" stroke-linejoin="round"/>
<path d="M191.368 450.012V429.042C191.368 427.909 192.218 427.058 193.352 427.058H371.537C372.387 427.058 372.954 426.35 372.954 425.642C372.954 424.791 372.246 424.225 371.537 424.225H188.533C187.399 424.225 186.548 425.075 186.548 426.208V452.988C186.548 454.688 187.966 456.105 189.667 456.105H371.537C372.387 456.105 372.954 455.397 372.954 454.688C372.954 453.838 372.246 453.271 371.537 453.271H194.486C192.785 453.13 191.368 451.713 191.368 450.012Z" fill="#263238" stroke="#263238" stroke-miterlimit="10" stroke-linecap="round" stroke-linejoin="round"/>
<path d="M191.51 484.869C192.502 481.326 196.471 466.732 191.651 457.522H364.166V484.869H191.51Z" fill="white" stroke="#263238" stroke-miterlimit="10" stroke-linecap="round" stroke-linejoin="round"/>
<path d="M294.423 463.615H268.198" stroke="#263238" stroke-miterlimit="10" stroke-linecap="round" stroke-linejoin="round"/>
<path d="M259.41 471.975H255.866" stroke="#263238" stroke-miterlimit="10" stroke-linecap="round" stroke-linejoin="round"/>
<path d="M294.848 471.975H265.363" stroke="#263238" stroke-miterlimit="10" stroke-linecap="round" stroke-linejoin="round"/>
<path d="M294.281 480.618H282.09" stroke="#263238" stroke-miterlimit="10" stroke-linecap="round" stroke-linejoin="round"/>
<path d="M295.415 482.176V461.206C295.415 460.073 294.565 459.222 293.431 459.222H187.966C187.115 459.222 186.548 458.514 186.548 457.806C186.548 456.955 187.257 456.389 187.966 456.389H370.97C372.104 456.389 372.954 457.239 372.954 458.372V485.152C372.954 486.852 371.537 488.269 369.836 488.269H187.966C187.115 488.269 186.548 487.561 186.548 486.852C186.548 486.002 187.257 485.435 187.966 485.435H292.296C293.998 485.294 295.415 483.877 295.415 482.176Z" fill="#263238" stroke="#263238" stroke-miterlimit="10" stroke-linecap="round" stroke-linejoin="round"/>
<path d="M191.51 517.033C192.502 513.49 196.471 498.896 191.651 489.686H364.166V517.033H191.51Z" fill="white" stroke="#263238" stroke-miterlimit="10" stroke-linecap="round" stroke-linejoin="round"/>
<path d="M294.423 495.921H268.057" stroke="#263238" stroke-miterlimit="10" stroke-linecap="round" stroke-linejoin="round"/>
<path d="M259.268 504.28H255.724" stroke="#263238" stroke-miterlimit="10" stroke-linecap="round" stroke-linejoin="round"/>
<path d="M294.848 504.28H265.364" stroke="#263238" stroke-miterlimit="10" stroke-linecap="round" stroke-linejoin="round"/>
<path d="M294.139 512.924H282.09" stroke="#263238" stroke-miterlimit="10" stroke-linecap="round" stroke-linejoin="round"/>
<path d="M295.415 514.341V493.37C295.415 492.237 294.565 491.386 293.431 491.386H187.966C187.115 491.386 186.548 490.678 186.548 489.97C186.548 489.119 187.257 488.553 187.966 488.553H370.97C372.104 488.553 372.954 489.403 372.954 490.536V517.174C372.954 518.875 371.537 520.292 369.836 520.292H187.966C187.115 520.292 186.548 519.583 186.548 518.875C186.548 518.025 187.257 517.458 187.966 517.458H292.296C293.998 517.458 295.415 516.041 295.415 514.341Z" fill="#007CDC" stroke="#263238" stroke-miterlimit="10" stroke-linecap="round" stroke-linejoin="round"/>
<path d="M191.51 420.682C192.502 417.14 196.471 402.546 191.651 393.336H364.166V420.682H191.51Z" fill="white" stroke="#263238" stroke-miterlimit="10" stroke-linecap="round" stroke-linejoin="round"/>
<path d="M294.848 399.429H268.482" stroke="#263238" stroke-miterlimit="10" stroke-linecap="round" stroke-linejoin="round"/>
<path d="M259.835 407.788H256.149" stroke="#263238" stroke-miterlimit="10" stroke-linecap="round" stroke-linejoin="round"/>
<path d="M295.273 407.788H265.789" stroke="#263238" stroke-miterlimit="10" stroke-linecap="round" stroke-linejoin="round"/>
<path d="M294.706 416.432H282.516" stroke="#263238" stroke-miterlimit="10" stroke-linecap="round" stroke-linejoin="round"/>
<path d="M295.415 417.99V397.02C295.415 395.886 294.565 395.036 293.431 395.036H187.966C187.115 395.036 186.548 394.328 186.548 393.619C186.548 392.769 187.257 392.202 187.966 392.202H370.97C372.104 392.202 372.954 393.053 372.954 394.186V420.824C372.954 422.524 371.537 423.941 369.836 423.941H187.966C187.115 423.941 186.548 423.233 186.548 422.524C186.548 421.674 187.257 421.107 187.966 421.107H292.296C293.998 421.107 295.415 419.69 295.415 417.99Z" fill="#007CDC" stroke="#263238" stroke-miterlimit="10" stroke-linecap="round" stroke-linejoin="round"/>
<path d="M254.873 293.16C254.873 293.16 240.273 293.585 219.01 288.484C197.747 283.241 180.311 287.067 176.909 307.329C173.648 327.591 227.94 348.42 265.788 355.929C303.637 363.439 341.343 366.84 359.771 358.763C378.199 350.687 377.774 321.923 370.686 308.746C363.599 295.569 339.926 293.585 327.735 295.569C315.261 297.411 254.873 293.16 254.873 293.16Z" fill="#263238" stroke="#263238" stroke-miterlimit="10" stroke-linecap="round" stroke-linejoin="round"/>
<path d="M350.274 204.319C348.289 190.717 346.163 177.114 344.179 163.512C342.336 150.902 341.485 137.299 338.225 124.972C333.972 106.552 327.593 96.6337 308.457 93.0914C289.32 89.5491 268.057 110.094 268.057 119.304C268.057 128.514 274.577 149.343 264.513 182.074C261.111 193.267 274.436 194.826 290.596 189.867L350.274 204.319Z" fill="#263238" stroke="#263238" stroke-miterlimit="10" stroke-linecap="round" stroke-linejoin="round"/>
<path d="M298.958 175.981C298.958 175.981 275.569 179.24 264.512 182.074C253.455 184.908 249.628 188.875 245.659 196.385C241.69 203.894 235.878 231.666 230.208 243.426C224.538 255.187 214.19 258.304 212.489 270.631C210.788 282.958 220.71 287.351 228.081 288.767C235.453 290.184 244.808 290.609 244.808 290.609C244.808 290.609 256.858 318.948 280.247 321.073C303.636 323.199 321.072 306.904 331.704 300.811C342.335 294.719 343.044 280.974 343.469 264.963C343.894 248.952 353.25 213.246 350.699 203.327C348.147 193.409 344.461 191.709 328.443 183.491C321.356 179.948 308.881 175.272 298.958 175.981Z" fill="#007CDC" stroke="#263238" stroke-miterlimit="10" stroke-linecap="round" stroke-linejoin="round"/>
<path d="M225.389 250.652C220.002 257.17 213.765 261.279 212.489 270.631C212.205 272.756 212.205 274.598 212.489 276.299C213.907 278.424 218.443 283.667 227.09 281.116C237.863 277.999 236.729 262.98 230.208 253.628C228.791 251.786 227.231 250.936 225.389 250.652Z" fill="white" stroke="#263238" stroke-miterlimit="10" stroke-linecap="round" stroke-linejoin="round"/>
<path d="M297.258 223.873C307.181 219.339 312.567 211.546 317.103 196.668C319.23 189.725 320.506 184.199 321.073 180.373C314.41 177.823 305.905 175.556 298.817 176.123C298.817 176.123 288.753 177.54 278.688 179.24C277.838 184.482 275.853 199.36 278.121 210.412C281.098 223.873 287.335 228.407 297.258 223.873Z" fill="white" stroke="#263238" stroke-miterlimit="10" stroke-linecap="round" stroke-linejoin="round"/>
<path d="M250.337 275.59C250.337 275.59 257.425 257.879 257.425 252.919C257.425 247.96 254.165 243.001 251.755 236.625C249.345 230.249 255.724 219.622 255.724 219.622C255.724 219.622 259.693 188.875 263.521 183.491" stroke="#263238" stroke-miterlimit="10" stroke-linecap="round" stroke-linejoin="round"/>
<path d="M216.742 240.876L222.128 235.208C222.128 235.208 225.389 237.192 233.185 239.884C247.502 244.701 254.165 247.677 254.873 256.178C254.873 256.178 264.513 250.086 274.01 251.219C283.508 252.353 292.155 256.178 294.99 256.604C297.825 257.029 297.825 257.029 297.825 257.029L298.534 261.988L293.147 290.043L251.613 285.792L223.262 260.996L216.742 240.876Z" fill="white" stroke="#263238" stroke-miterlimit="10" stroke-linecap="round" stroke-linejoin="round"/>
<path d="M214.899 239.742L248.636 268.506L252.18 262.838L300.377 261.704L297.541 292.876L251.755 290.751L248.636 292.876L223.829 274.457L214.899 239.742Z" fill="#263238" stroke="#263238" stroke-miterlimit="10" stroke-linecap="round" stroke-linejoin="round"/>
<path d="M332.271 230.249L331.562 270.631C331.562 270.631 310.583 282.391 298.959 285.509C287.335 288.626 280.106 288.767 279.113 288.767C278.121 288.767 273.443 281.258 270.892 278.849C268.34 276.44 266.356 276.299 261.819 274.032C255.441 270.914 252.747 270.348 253.172 271.764C253.598 273.181 253.881 274.598 257.142 276.44C260.402 278.282 262.528 279.699 262.528 279.699L263.237 281.116C263.237 281.116 255.441 279.983 252.18 279.274C248.92 278.566 240.84 272.898 240.84 272.898C240.84 272.898 237.438 272.756 239.848 277.007C242.257 281.258 244.667 281.399 244.667 281.399C244.667 281.399 245.376 285.65 248.211 288.201C251.046 290.751 253.172 292.168 253.172 292.168C253.172 292.168 246.368 290.326 247.077 292.168C247.786 294.01 252.038 294.718 257.425 297.127C262.812 299.536 274.861 299.961 281.523 301.095C288.186 302.228 304.204 303.22 318.379 301.803C332.555 300.386 353.818 290.751 357.787 287.634C361.756 284.517 359.204 248.669 358.212 240.451C357.22 232.232 354.952 217.071 353.534 209.987C352.117 202.902 346.446 192.984 342.903 190.859C339.359 188.733 332.98 195.109 332.271 230.249Z" fill="white" stroke="#263238" stroke-miterlimit="10" stroke-linecap="round" stroke-linejoin="round"/>
<path d="M244.667 281.258C244.667 281.258 253.172 286.217 259.41 287.634L244.667 281.258Z" fill="white"/>
<path d="M244.667 281.258C244.667 281.258 253.172 286.217 259.41 287.634" stroke="#263238" stroke-miterlimit="10" stroke-linecap="round" stroke-linejoin="round"/>
<path d="M253.172 291.885C253.172 291.885 257.708 293.585 261.536 293.585L253.172 291.885Z" fill="white"/>
<path d="M253.172 291.885C253.172 291.885 257.708 293.585 261.536 293.585" stroke="#263238" stroke-miterlimit="10" stroke-linecap="round" stroke-linejoin="round"/>
<path d="M245.801 284.8C245.801 284.8 251.755 289.334 260.544 291.46L245.801 284.8Z" fill="white"/>
<path d="M245.801 284.8C245.801 284.8 251.755 289.334 260.544 291.46" stroke="#263238" stroke-miterlimit="10" stroke-linecap="round" stroke-linejoin="round"/>
<path d="M322.632 300.811C336.524 298.261 354.243 290.184 357.787 287.209C361.756 283.95 359.204 248.244 358.212 240.026C357.22 231.807 354.952 216.646 353.534 209.562C352.117 202.477 346.446 192.559 342.903 190.433C339.359 188.308 332.98 195.109 332.271 230.107L331.562 270.489C331.562 270.489 323.482 275.023 314.552 279.274C317.812 283.1 323.766 291.034 322.632 300.811Z" fill="#007CDC" stroke="#263238" stroke-miterlimit="10" stroke-linecap="round" stroke-linejoin="round"/>
<path d="M286.343 171.872C286.343 171.872 283.224 190.292 282.799 201.627C282.516 212.962 291.021 224.439 303.07 209.845C315.119 195.251 313.276 171.163 313.276 171.163C313.276 171.163 300.944 177.823 286.343 171.872Z" fill="white" stroke="#263238" stroke-miterlimit="10" stroke-linecap="round" stroke-linejoin="round"/>
<path d="M287.335 179.807C287.335 179.807 287.902 189.583 287.052 194.968" stroke="#263238" stroke-miterlimit="10" stroke-linecap="round" stroke-linejoin="round"/>
<path d="M215.891 266.805C215.891 266.805 215.041 269.356 216.458 271.623C217.876 273.89 225.389 278.424 225.389 276.724C225.389 274.882 221.561 272.473 221.42 271.198C221.278 269.922 220.144 268.08 220.144 268.08C220.144 268.08 217.451 264.68 215.891 266.805Z" fill="white" stroke="#263238" stroke-miterlimit="10" stroke-linecap="round" stroke-linejoin="round"/>
<path d="M212.206 256.32C212.206 256.32 211.922 261.563 212.773 263.971C213.623 266.38 223.121 273.04 225.53 271.764C227.94 270.489 220.427 263.971 218.726 261.988C217.025 260.004 212.206 256.32 212.206 256.32Z" fill="white" stroke="#263238" stroke-miterlimit="10" stroke-linecap="round" stroke-linejoin="round"/>
<path d="M212.206 249.944C212.206 249.944 211.497 255.187 212.206 257.737C212.914 260.287 221.987 267.514 224.396 266.38C226.948 265.247 219.86 258.304 218.301 256.178C216.742 253.911 212.206 249.944 212.206 249.944Z" fill="white" stroke="#263238" stroke-miterlimit="10" stroke-linecap="round" stroke-linejoin="round"/>
<path d="M216.6 243.993C216.6 243.993 211.213 241.159 210.363 244.701C209.512 248.244 213.623 252.069 217.309 255.187C221.136 258.304 222.695 257.737 222.695 254.761C222.695 251.928 216.6 243.993 216.6 243.993Z" fill="white" stroke="#263238" stroke-miterlimit="10" stroke-linecap="round" stroke-linejoin="round"/>
<path d="M216.033 356.496C216.033 356.496 208.945 360.322 195.762 360.747C182.579 361.172 171.664 354.087 177.759 348.42C183.855 342.752 193.352 339.493 201.858 340.91C210.363 342.327 223.121 345.586 223.121 345.586L216.033 356.496Z" fill="white" stroke="#263238" stroke-miterlimit="10" stroke-linecap="round" stroke-linejoin="round"/>
<path d="M218.017 344.594C218.726 344.736 219.293 344.736 220.002 344.736C215.608 343.602 207.811 341.76 201.999 340.768C193.494 339.351 183.996 342.61 177.901 348.278C174.782 351.112 176.058 354.371 179.886 356.921C179.602 354.229 180.169 349.837 185.556 347.428C193.352 343.744 209.937 343.744 218.017 344.594Z" fill="white" stroke="#263238" stroke-miterlimit="10" stroke-linecap="round" stroke-linejoin="round"/>
<path d="M364.024 317.247C364.024 317.247 349.849 338.501 335.673 347.003C321.498 355.504 256.716 356.496 243.533 356.496C230.35 356.496 216.175 356.496 216.175 356.496V346.578C216.175 346.578 259.693 340.485 283.791 326.741C307.89 312.997 320.647 297.977 339.501 291.743C358.354 285.65 374.939 295.994 374.514 321.498" fill="#263238"/>
<path d="M364.024 317.247C364.024 317.247 349.849 338.501 335.673 347.003C321.498 355.504 256.716 356.496 243.533 356.496C230.35 356.496 216.175 356.496 216.175 356.496V346.578C216.175 346.578 259.693 340.485 283.791 326.741C307.89 312.997 320.647 297.977 339.501 291.743C358.354 285.65 374.939 295.994 374.514 321.498" stroke="#263238" stroke-miterlimit="10" stroke-linecap="round" stroke-linejoin="round"/>
<path d="M354.527 333.542C346.872 340.768 333.689 350.262 313.135 353.946" stroke="white" stroke-miterlimit="10" stroke-linecap="round" stroke-linejoin="round"/>
<path d="M363.741 321.923C363.741 321.923 362.607 324.332 359.771 327.733" stroke="white" stroke-miterlimit="10" stroke-linecap="round" stroke-linejoin="round"/>
<path d="M292.155 324.049C292.155 324.049 282.941 331.842 269.474 332.55" stroke="white" stroke-miterlimit="10" stroke-linecap="round" stroke-linejoin="round"/>
<path d="M207.669 297.127C207.102 297.127 206.677 296.986 206.11 296.986L207.669 297.127Z" fill="#263238"/>
<path d="M207.669 297.127C207.102 297.127 206.677 296.986 206.11 296.986" stroke="#263238" stroke-miterlimit="10" stroke-linecap="round" stroke-linejoin="round"/>
<path d="M340.776 358.338C340.776 358.338 352.542 354.087 362.465 352.67C372.387 351.253 380.467 352.67 383.302 358.763C386.138 364.856 384.295 372.507 374.372 374.349C364.449 376.191 346.446 372.507 344.604 372.507C342.761 372.507 339.926 371.09 339.926 371.09L340.776 358.338Z" fill="white" stroke="#263238" stroke-miterlimit="10" stroke-linecap="round" stroke-linejoin="round"/>
<path d="M371.962 352.245C374.939 353.379 380.609 356.638 379.617 364.006C378.199 373.924 366.434 373.924 358.354 373.924C357.787 373.924 357.22 374.066 356.653 374.207C362.607 374.916 369.552 375.341 374.514 374.491C384.437 372.649 386.279 364.998 383.444 358.905C381.46 354.796 377.349 352.812 371.962 352.245Z" fill="white" stroke="#263238" stroke-miterlimit="10" stroke-linecap="round" stroke-linejoin="round"/>
<path d="M202.425 286.5C202.425 286.5 186.406 283.667 175.917 291.743C165.569 299.819 166.986 308.321 176.909 320.506C186.832 332.834 212.347 354.512 267.631 364.431C322.915 374.349 339.926 371.09 339.926 371.09L340.918 358.338C340.918 358.338 306.472 360.18 274.719 337.084C243.817 314.414 229.925 299.536 207.811 297.127" fill="#263238"/>
<path d="M202.425 286.5C202.425 286.5 186.406 283.667 175.917 291.743C165.569 299.819 166.986 308.321 176.909 320.506C186.832 332.834 212.347 354.512 267.631 364.431C322.915 374.349 339.926 371.09 339.926 371.09L340.918 358.338C340.918 358.338 306.472 360.18 274.719 337.084C243.817 314.414 229.925 299.536 207.811 297.127" stroke="#263238" stroke-miterlimit="10" stroke-linecap="round" stroke-linejoin="round"/>
<path d="M201.574 297.269C199.873 297.411 198.172 297.552 196.471 297.836" stroke="white" stroke-miterlimit="10" stroke-linecap="round" stroke-linejoin="round"/>
<path d="M333.972 358.055C333.972 358.055 301.369 357.346 264.513 329.008C238.43 309.029 222.979 300.244 210.788 297.836" stroke="white" stroke-miterlimit="10" stroke-linecap="round" stroke-linejoin="round"/>
<path d="M333.689 152.177C325.042 156.711 323.766 147.501 323.766 141.975C323.908 141.833 323.908 141.833 323.908 141.692C324.475 139.141 323.908 126.389 316.537 121.288C310.016 116.754 301.511 112.928 293.572 112.928C287.902 112.928 282.941 116.47 279.964 121.005C276.42 126.389 276.704 132.765 276.42 138.999C276.137 145.376 275.57 152.177 276.845 158.411C278.546 166.771 286.343 184.341 295.84 184.341C304.487 184.341 319.655 171.447 324.9 163.937C325.467 163.795 326.743 163.229 328.16 162.095C330.003 160.537 333.972 157.703 333.689 152.177Z" fill="white" stroke="#263238" stroke-miterlimit="10" stroke-linecap="round" stroke-linejoin="round"/>
<path d="M295.699 146.509C295.699 146.509 291.73 158.553 292.013 159.828C292.297 161.245 296.974 159.828 296.974 159.828" stroke="#263238" stroke-miterlimit="10" stroke-linecap="round" stroke-linejoin="round"/>
<path d="M292.155 164.929C292.155 164.929 297.258 168.755 305.48 162.662" stroke="#263238" stroke-miterlimit="10" stroke-linecap="round" stroke-linejoin="round"/>
<path d="M304.629 150.76C304.629 150.76 307.464 156.569 316.395 153.31" stroke="#263238" stroke-miterlimit="10" stroke-linecap="round" stroke-linejoin="round"/>
<path d="M279.255 143.817C279.255 143.817 280.956 149.626 289.887 147.501" stroke="#263238" stroke-miterlimit="10" stroke-linecap="round" stroke-linejoin="round"/>
<path d="M295.132 139.283C295.132 139.283 292.013 127.947 281.523 133.757" stroke="#263238" stroke-miterlimit="10" stroke-linecap="round" stroke-linejoin="round"/>
<path d="M319.811 155.848C322.166 150.132 319.44 143.59 313.722 141.235C308.003 138.88 301.458 141.605 299.102 147.321C296.746 153.037 299.472 159.58 305.191 161.934C310.909 164.289 317.455 161.564 319.811 155.848Z" stroke="#263238" stroke-miterlimit="10" stroke-linecap="round" stroke-linejoin="round"/>
<path d="M283.791 157.703C289.976 157.703 294.99 152.691 294.99 146.509C294.99 140.327 289.976 135.315 283.791 135.315C277.607 135.315 272.593 140.327 272.593 146.509C272.593 152.691 277.607 157.703 283.791 157.703Z" stroke="#263238" stroke-miterlimit="10" stroke-linecap="round" stroke-linejoin="round"/>
<path d="M320.08 153.877L329.153 152.177" stroke="#263238" stroke-miterlimit="10" stroke-linecap="round" stroke-linejoin="round"/>
<path d="M272.876 143.817L276.278 141.266" stroke="#263238" stroke-miterlimit="10" stroke-linecap="round" stroke-linejoin="round"/>
<path d="M283.933 117.179C283.933 117.179 293.856 111.086 297.258 116.896C300.802 122.563 316.678 160.678 333.689 152.177C350.699 143.675 333.547 115.62 316.962 106.694C300.377 97.7672 286.485 105.418 283.933 117.179Z" fill="#263238" stroke="#263238" stroke-miterlimit="10" stroke-linecap="round" stroke-linejoin="round"/>
<path d="M293.714 112.928C293.714 112.928 288.186 108.252 284.925 110.378C281.665 112.503 281.665 115.195 281.665 115.195" stroke="white" stroke-miterlimit="10" stroke-linecap="round" stroke-linejoin="round"/>
<path d="M334.256 142.117C335.532 142.967 336.949 143.534 338.367 143.959" stroke="white" stroke-miterlimit="10" stroke-linecap="round" stroke-linejoin="round"/>
<path d="M291.304 101.309C291.304 101.309 301.085 90.5409 311.858 107.261C318.946 118.312 323.057 129.223 328.302 136.449" stroke="white" stroke-miterlimit="10" stroke-linecap="round" stroke-linejoin="round"/>
<path d="M307.323 137.724C307.323 137.724 315.119 133.474 321.781 139.991" stroke="white" stroke-miterlimit="10" stroke-linecap="round" stroke-linejoin="round"/>
<path d="M292.722 246.118C292.722 246.118 303.353 259.437 321.072 259.437" stroke="#263238" stroke-miterlimit="10" stroke-linecap="round" stroke-linejoin="round"/>
<path d="M37.8481 520.292H527.041" stroke="#263238" stroke-miterlimit="10" stroke-linecap="round" stroke-linejoin="round"/>
</g>
<defs>
<clipPath id="clip0">
<rect width="569" height="521" fill="white"/>
</clipPath>
</defs>
</svg>
