<svg width="552" height="456" viewBox="0 0 552 456" fill="none" xmlns="http://www.w3.org/2000/svg">
<g clip-path="url(#clip0)">
<g filter="url(#filter0_d)">
<path d="M491.716 435.394C464.237 414.424 417.148 362.545 479.126 281.091C555.753 180.242 463.995 138.909 376.111 143.273C305.416 146.788 225.763 57.697 146.353 73.5758C40.7949 94.5455 109.311 185.455 37.7686 234.424C-23.1209 276.242 3.0265 403.515 82.316 435.394H491.716Z" fill="#DCEDF9"/>
</g>
<path d="M541.348 250.545C540.863 235.636 527.063 229.818 517.742 240.606C512.416 246.788 507.332 255.758 506.363 267.636C504.184 294.303 527.548 286.545 536.263 272.242C540.016 266.182 541.59 258.061 541.348 250.545Z" fill="#DCEDF9"/>
<path d="M285.2 68.2424C270.553 65.4545 261.958 77.8182 270.432 89.2121C275.395 95.7576 282.9 102.667 294.4 106.061C319.942 113.818 317.4 89.4545 305.295 77.8182C300.09 72.8485 292.584 69.5758 285.2 68.2424Z" fill="#DCEDF9"/>
<path d="M42.6106 205.091C48.4212 191.394 38.2527 180.242 25.3001 186.182C17.9159 189.576 9.56326 195.515 3.63168 205.939C-9.44201 229.212 14.8896 232 28.8106 222.667C34.8633 218.788 39.7054 212.121 42.6106 205.091Z" fill="#DCEDF9"/>
<path d="M276.484 456C415.41 456 528.032 448.565 528.032 439.394C528.032 430.223 415.41 422.788 276.484 422.788C137.559 422.788 24.937 430.223 24.937 439.394C24.937 448.565 137.559 456 276.484 456Z" fill="#DCEDF9"/>
<path d="M521.132 303.394C505.758 318.788 522.948 320.121 511.569 331.758C501.279 342.424 486.027 332 487.116 357.939C487.358 363.636 483.242 367.758 477.432 369.939C467.869 373.455 458.669 370.182 452.858 363.636C452.374 363.151 451.89 362.545 451.527 361.939C447.169 356 445.595 348 448.863 340C451.527 333.576 456.127 327.151 464.358 324.606C483.605 318.667 472.953 293.091 489.174 292C508.784 290.667 509.511 283.394 523.432 273.697C538.2 263.515 542.074 282.545 521.132 303.394Z" fill="#09335B"/>
<path d="M514.232 295.03C513.747 295.515 478.037 332.364 452.858 363.758C452.374 363.273 451.89 362.667 451.526 362.061C476.826 330.545 512.295 293.939 512.658 293.455C513.021 293.091 513.747 293.091 514.111 293.455C514.716 293.939 514.716 294.545 514.232 295.03Z" fill="#245DAC"/>
<path d="M525.126 354.909C501.037 369.091 521.979 376.242 504.184 387.151C487.963 397.091 472.348 379.273 465.326 411.879C463.753 419.03 457.337 422.909 449.469 423.758C436.516 425.091 425.984 418.061 420.9 408.121C420.537 407.273 420.174 406.545 419.811 405.697C416.3 396.848 416.905 386.303 423.563 377.455C428.89 370.182 436.758 363.758 447.774 363.273C473.679 362.061 468.595 326.788 489.174 330.667C513.99 335.273 517.258 326.545 537.716 318.909C559.142 310.667 557.811 335.636 525.126 354.909Z" fill="#193E9D"/>
<path d="M519.195 342.182C518.468 342.545 462.179 376.97 420.779 408C420.416 407.151 420.053 406.424 419.689 405.576C461.211 374.545 517.258 340.364 517.863 340C518.468 339.636 519.316 339.879 519.679 340.485C520.042 341.091 519.921 341.818 519.195 342.182Z" fill="#09335B"/>
<path d="M54.5951 127.273C62.8267 147.394 46.4846 142.061 52.4162 157.091C57.8635 170.909 75.7793 167.152 64.8846 190.667C62.4635 195.758 64.6425 201.333 69.2425 205.455C76.6267 212.364 86.553 212.97 94.3004 209.212C94.9056 208.848 95.5109 208.606 96.1162 208.242C102.411 204.485 107.011 197.576 107.132 188.97C107.253 181.939 105.437 174.303 98.7793 168.848C83.2846 155.879 103.016 136.485 88.3688 129.212C70.8162 120.364 72.8741 113.455 63.7951 99.1515C54.232 84 43.4583 100 54.5951 127.273Z" fill="#09335B"/>
<path d="M64.2793 122.182C64.5214 122.788 83.2846 170.545 94.4214 209.333C95.0267 208.97 95.6319 208.727 96.2372 208.364C84.9793 169.576 66.4582 122.061 66.2161 121.455C65.974 120.97 65.3688 120.606 64.8846 120.848C64.2793 121.091 64.0372 121.697 64.2793 122.182Z" fill="#245DAC"/>
<path d="M31.1109 180C48.5425 201.939 26.3899 201.091 39.2214 217.576C50.8425 232.606 71.7846 221.576 66.7004 254.545C65.6109 261.697 70.2109 267.758 77.353 271.273C88.9741 277.212 101.321 274.303 109.674 266.788C110.4 266.182 111.006 265.576 111.611 264.848C118.027 257.939 121.174 247.879 118.269 237.212C115.848 228.606 110.885 219.758 100.716 215.273C76.9899 204.848 94.3004 173.818 73.7214 170.061C48.7846 165.455 49.0267 156.242 32.5635 141.818C15.0109 126.545 7.38459 150.303 31.1109 180Z" fill="#193E9D"/>
<path d="M41.1582 170.182C41.6424 170.788 81.9529 223.03 109.674 266.909C110.4 266.303 111.006 265.697 111.611 264.97C83.8898 221.091 43.8214 169.212 43.3371 168.606C42.8529 168 42.0056 167.879 41.5214 168.364C40.795 168.848 40.674 169.697 41.1582 170.182Z" fill="#09335B"/>
<path d="M148.774 160.97C155.795 156.121 173.468 168 182.668 182.545L174.558 159.636C171.653 157.091 166.447 153.455 158.337 150.545C145.747 146.061 133.158 139.03 140.179 134.303C146.837 129.818 162.695 140 172.258 153.212L161.726 123.758C159.789 122.303 156.763 120.485 152.526 118.909C144.537 116.121 136.668 111.636 141.147 108.606C145.021 105.939 153.858 111.273 159.91 118.667L156.521 109.091C154.947 106.303 152.768 102.303 149.258 98.7879C141.147 90.4242 135.095 80.9697 141.268 79.6363C147.563 78.303 157.732 94.6667 159.305 109.455L161 114.303C159.668 103.515 163.542 90.4242 168.868 90.0606C174.195 89.5757 170.926 98.0606 166.568 105.212C163.3 110.667 162.332 115.03 162.089 117.333L170.321 140.485C168.263 123.394 174.316 102.788 182.91 102.061C191.384 101.333 186.058 114.788 179.158 126.182C173.953 134.788 172.5 141.697 172.016 145.333L181.942 173.091C180.126 156.242 186.179 135.758 194.653 135.636C201.189 135.636 199.132 144.727 191.384 157.697C186.179 166.545 184.484 174.424 183.879 178.545L188.6 191.636C187.874 192.242 187.026 192.485 186.179 192.485L184.363 187.273C181.7 184.727 176.253 180.364 166.932 177.091C154.342 172.727 141.753 165.697 148.774 160.97Z" fill="#193E9D"/>
<path d="M86.9159 355.152C79.6528 359.636 83.6475 380.606 93.2107 394.788L75.4159 378.182C74.2054 374.424 72.9949 368.242 73.6001 359.636C74.5686 346.303 73.1159 331.879 65.8528 336.485C59.0738 340.727 62.1001 359.394 70.4528 373.455L47.6949 352.121C47.0896 349.697 46.6054 346.303 46.8475 341.818C47.4528 333.455 46.4843 324.364 42.0054 327.273C38.0107 329.818 39.3422 340 43.8212 348.606L36.437 341.697C34.5001 339.152 31.7159 335.515 29.9001 330.909C25.4212 320.121 19.2475 310.788 15.4949 316C11.7422 321.212 22.758 337.091 35.7107 344.485L39.4633 348C30.1422 342.424 16.5843 340.848 14.0422 345.576C11.5001 350.303 20.5791 350.545 28.9317 349.455C35.2265 348.606 39.5843 349.455 41.7633 350.182L59.6791 367.03C44.9107 358.303 23.6054 355.758 19.4896 363.273C15.4949 370.788 29.9001 371.273 43.0949 369.455C53.1422 368.121 59.9212 369.455 63.4317 370.545L84.9791 390.667C70.2107 382.303 49.0265 379.758 45.637 387.394C42.9738 393.333 52.1738 395.152 67.1844 393.212C77.3528 391.879 85.2212 393.455 89.2159 394.667L99.3843 404.121C100.232 403.636 100.837 403.03 101.079 402.303L97.0843 398.545C95.7528 395.151 94.058 388.364 94.6633 378.424C95.5107 364.97 94.1791 350.545 86.9159 355.152Z" fill="#193E9D"/>
<path d="M451.042 167.758H65.9736V434.061H451.042V167.758Z" fill="#FFAA01"/>
<path d="M451.042 167.758V184.848L258.568 355.758L65.9736 184.848V167.758L258.447 339.273L451.042 167.758Z" fill="#F88800"/>
<path d="M221.405 305.576L77.1105 434.061H65.9736V427.273L213.174 296.242L221.405 305.576Z" fill="#F88800"/>
<path d="M451.042 428.242V434.061H438.816L294.642 305.576L302.874 296.242L451.042 428.242Z" fill="#F88800"/>
<path d="M65.9736 167.758L258.447 339.273L451.042 167.758H65.9736Z" fill="#FDCC50"/>
<path d="M344.758 143.758L349.721 154.303L339.311 154.424L335.316 144.848L344.758 143.758Z" fill="#F9AF8B"/>
<path d="M346.453 153.697C346.453 153.697 348.632 150.788 350.326 150.909C352.021 151.03 365.095 161.455 369.574 162.303C374.053 163.152 373.69 167.758 371.753 167.758C366.305 167.758 336.526 167.758 336.526 167.758C336.526 167.758 335.679 157.091 336.768 153.939C337.858 150.788 342.942 154.424 346.453 153.697Z" fill="#193E9D"/>
<path d="M353.716 160.97C353.595 160.97 353.353 160.97 353.232 160.97C352.99 160.848 352.869 160.364 352.99 160.121C352.99 160 354.442 157.697 356.258 156.727C358.679 155.515 360.616 156.849 360.737 156.97C360.979 157.212 361.1 157.576 360.858 157.818C360.616 158.061 360.253 158.182 360.011 157.939C360.011 157.939 358.679 156.97 356.864 157.818C355.411 158.545 354.079 160.727 354.079 160.727C353.958 160.727 353.837 160.848 353.716 160.97Z" fill="white"/>
<path d="M351.779 159.152C351.658 159.152 351.416 159.152 351.295 159.152C351.053 159.03 350.932 158.545 351.053 158.303C351.053 158.182 352.505 155.879 354.321 154.909C356.742 153.697 358.679 155.03 358.8 155.152C359.042 155.394 359.163 155.758 358.921 156C358.679 156.242 358.316 156.364 358.074 156.121C358.074 156.121 356.742 155.152 354.927 156C353.474 156.727 352.142 158.909 352.142 158.909C352.142 159.03 351.9 159.152 351.779 159.152Z" fill="white"/>
<path d="M356.258 162.303C356.137 162.303 355.895 162.303 355.774 162.303C355.532 162.182 355.411 161.697 355.532 161.455C355.532 161.333 356.984 159.03 358.8 158.061C361.221 156.848 363.158 158.182 363.279 158.303C363.521 158.545 363.642 158.909 363.4 159.152C363.158 159.394 362.795 159.515 362.553 159.273C362.553 159.273 361.221 158.303 359.406 159.152C357.953 159.879 356.621 162.061 356.621 162.061C356.5 162.182 356.379 162.303 356.258 162.303Z" fill="white"/>
<path d="M347.784 147.273L343.184 148.727L340.642 148.848L336.284 149.091C330.474 144.485 314.858 130.667 311.711 122.424C311.711 122.424 291.495 169.333 263.653 169.333C261.837 169.333 266.679 145.939 271.158 141.091C271.158 141.091 296.821 93.0909 313.526 98.1818C320.911 100.727 328.537 111.515 347.784 147.273Z" fill="#2E3052"/>
<path d="M343.184 148.727L340.642 148.848C323.574 135.879 315.584 124.848 311.952 117.818C311.831 117.576 311.589 117.455 311.468 117.455C311.347 117.455 311.226 117.576 311.226 117.697C302.995 136.97 293.189 148.606 286.41 154.909C279.026 161.818 273.579 164.121 273.337 164.121L272.974 163.394L272.61 162.667C272.61 162.667 278.058 160.364 285.2 153.697C291.858 147.515 301.542 136.121 309.531 117.091C309.895 116.364 310.5 115.879 311.226 115.879C312.074 115.879 312.8 116.364 313.163 117.091C317.037 124.242 325.268 135.394 343.184 148.727Z" fill="#001030"/>
<path d="M331.563 145.939C332.289 147.273 333.5 149.212 334.71 150.182C334.71 150.182 344.516 149.697 349.358 147.273L347.179 142.303C347.3 142.303 339.431 145.212 331.563 145.939Z" fill="#524E84"/>
<path d="M344.516 78.6667C330.474 84.3636 319.337 87.2727 309.774 88.4849C309.653 88.4849 307.353 88.7273 306.506 88.6061C303.964 88.4849 300.453 87.8788 296.942 86.303C294.4 85.0909 290.89 82.0606 287.137 78.5455C282.537 74.0606 277.574 68.7273 274.185 64.8485C271.521 61.8182 269.827 59.7576 269.827 59.7576C272.127 56.2424 277.332 53.0909 281.811 51.394C281.811 51.394 291.253 67.0303 305.416 74.7879C306.142 75.1515 306.99 75.6364 307.837 76C311.106 75.5152 319.821 75.0303 323.695 74.7879C333.985 74.0606 342.458 72.2424 342.458 72.2424L344.516 78.6667Z" fill="#09335B"/>
<path d="M342.095 71.6364C342.095 71.6364 344.032 66.6667 346.695 65.3334C349.358 63.8788 356.864 59.0303 358.558 60.4849C360.132 61.9394 359.89 69.0909 353.111 75.0303C348.753 78.7879 344.516 78.6667 344.516 78.6667L342.095 71.6364Z" fill="#F9AF8B"/>
<path d="M358.922 64.9697L347.785 75.3939C347.422 75.7576 346.574 75.8788 346.09 75.6364L339.311 72.3636C339.069 72.2424 338.948 72.1212 338.948 72L338.585 70.9091L340.401 70.1818L357.953 63.5152L358.922 63.1515L359.285 64.3636V64.4849C359.285 64.6061 359.164 64.8485 358.922 64.9697Z" fill="#001030"/>
<path d="M357.832 63.3939L340.279 70.0606L350.206 60.7273C350.569 60.3636 351.416 60.2424 351.9 60.4849L357.832 63.3939Z" fill="#1F2232"/>
<path d="M345.727 74.5455L338.948 71.2727C338.464 71.0303 338.343 70.5455 338.827 70.0606L349.964 59.6364C350.327 59.2727 351.174 59.1515 351.658 59.3939L358.437 62.6667C358.922 62.9091 359.043 63.3939 358.558 63.8788L347.422 74.303C347.058 74.6667 346.332 74.7879 345.727 74.5455Z" fill="#2E3052"/>
<path d="M346.574 72.6061L341.248 70.0606C340.763 69.8182 340.642 69.3333 341.127 68.8485L349.842 60.7273C350.206 60.3636 351.053 60.2424 351.537 60.4849L356.863 63.0303C357.348 63.2727 357.469 63.7576 356.985 64.2424L348.269 72.3636C347.906 72.7273 347.058 72.8485 346.574 72.6061Z" fill="#2E3052"/>
<path d="M346.453 62.9091C346.453 62.9091 348.027 63.1515 348.148 64.4848C348.269 65.8182 346.816 65.3333 345.848 64.9697C344.879 64.7273 344.032 64.9697 343.911 65.0909C343.548 65.5758 343.669 62.4242 346.453 62.9091Z" fill="#F9AF8B"/>
<path d="M353.595 70.303C353.595 70.303 356.137 66.1818 357.953 64C359.285 62.5455 359.89 64.7273 359.043 66.1818C358.074 67.6364 356.379 70.6667 353.595 70.303Z" fill="#F9AF8B"/>
<path d="M237.505 144.121L231.937 108.485L231.574 106.424V104.848L232.784 54.4243L246.826 49.697L247.553 49.4546L250.7 48.3637L253.242 47.5152L268.011 49.5758L270.432 49.9394L271.279 50.0606L281.811 51.5152C281.932 84.9697 278.663 92.2424 284.837 119.394C288.105 129.576 276.605 165.939 237.505 144.121Z" fill="#193E9D"/>
<path d="M245.374 135.03C256.39 131.879 264.5 124.242 269.342 118.424C274.547 112.121 277.211 106.424 277.211 106.303C277.332 106.061 277.211 105.697 276.969 105.576C276.726 105.455 276.363 105.576 276.242 105.818C276.242 105.818 273.579 111.515 268.495 117.697C263.774 123.394 255.905 130.909 245.132 133.939C244.89 134.061 244.647 134.303 244.769 134.667C244.769 134.909 245.132 135.152 245.374 135.03Z" fill="#09335B"/>
<path d="M257.963 135.636C267.526 132.97 275.637 124.848 276 124.485C276.242 124.242 276.242 123.879 276 123.758C275.758 123.515 275.395 123.515 275.274 123.758C275.153 123.879 265.711 133.455 255.421 135.152C255.058 135.152 254.937 135.515 254.937 135.758C254.937 136 255.3 136.242 255.542 136.242C256.269 136 257.116 135.879 257.963 135.636Z" fill="#09335B"/>
<path d="M251.185 64.4849C260.748 61.8182 268.858 53.697 269.221 53.3333C269.463 53.0909 269.463 52.7273 269.221 52.6061C268.979 52.3636 268.616 52.3636 268.495 52.6061C268.374 52.7273 258.932 62.303 248.642 64C248.279 64 248.158 64.3636 248.158 64.6061C248.158 64.8485 248.521 65.0909 248.763 65.0909C249.49 64.8485 250.337 64.7273 251.185 64.4849Z" fill="#09335B"/>
<path d="M335.437 236.364L339.311 244.97L331.321 248.364L326.721 239.515L335.437 236.364Z" fill="#F9AF8B"/>
<path d="M337.495 244.848C337.495 244.848 338.342 241.333 339.916 240.848C341.49 240.242 357.711 244.606 362.069 243.636C366.547 242.667 367.032 246.061 366.911 247.879C366.79 249.697 333.863 261.576 333.863 261.576C333.863 261.576 328.779 252.364 328.658 249.091C328.537 245.576 334.59 246.909 337.495 244.848Z" fill="#193E9D"/>
<path d="M347.058 248.606C346.937 248.727 346.816 248.727 346.574 248.727C346.21 248.727 345.968 248.364 345.968 248C345.968 247.879 346.331 245.212 347.663 243.515C349.358 241.455 351.658 241.939 351.779 241.939C352.142 242.061 352.384 242.303 352.263 242.667C352.142 243.03 351.9 243.273 351.537 243.152C351.416 243.152 349.842 242.788 348.631 244.364C347.542 245.697 347.3 248.121 347.3 248.121C347.3 248.364 347.179 248.485 347.058 248.606Z" fill="white"/>
<path d="M344.637 247.758C344.516 247.879 344.395 247.879 344.153 247.879C343.789 247.879 343.547 247.515 343.547 247.152C343.547 247.03 343.911 244.364 345.242 242.667C346.937 240.606 349.237 241.091 349.358 241.091C349.721 241.212 349.963 241.455 349.842 241.818C349.721 242.182 349.479 242.424 349.116 242.303C348.995 242.303 347.421 241.939 346.211 243.515C345.121 244.848 344.879 247.273 344.879 247.273C344.879 247.515 344.758 247.636 344.637 247.758Z" fill="white"/>
<path d="M349.963 248.848C349.842 248.97 349.721 248.97 349.479 248.97C349.116 248.97 348.874 248.606 348.874 248.242C348.874 248.121 349.237 245.455 350.568 243.758C352.263 241.697 354.563 242.182 354.684 242.182C355.047 242.303 355.289 242.545 355.168 242.909C355.047 243.273 354.805 243.515 354.442 243.394C354.321 243.394 352.747 243.03 351.537 244.606C350.447 245.939 350.205 248.364 350.205 248.364C350.205 248.606 350.084 248.848 349.963 248.848Z" fill="white"/>
<path d="M337.374 238.061C336.527 239.03 333.984 240.364 331.2 241.697C330.716 241.939 330.232 242.182 329.627 242.303C328.779 242.667 327.811 243.03 326.963 243.273C326.963 243.273 308.2 208.606 300.937 183.394C300.937 183.394 237.263 175.515 235.084 153.212C234.963 152.485 234.963 151.758 235.084 150.909C235.327 148.727 236.053 146.545 237.384 144.121C238.837 141.576 260.627 144 272.369 147.394C272.369 147.394 304.327 159.879 316.069 172.727C322.242 179.152 337.374 238.061 337.374 238.061Z" fill="#2E3052"/>
<path d="M331.321 241.697C330.837 241.939 330.353 242.182 329.748 242.303C320.184 226.545 306.99 189.697 304.084 180.848C303.842 180.242 303.358 179.758 302.753 179.636C271.763 173.818 253.969 165.697 244.527 159.879C240.29 157.333 237.384 155.03 235.206 153.091C235.084 152.364 235.084 151.636 235.206 150.788C237.263 152.727 240.532 155.515 245.495 158.545C254.937 164.242 272.49 172.242 302.995 177.939C304.206 178.182 305.174 179.03 305.537 180.242C308.563 189.212 321.879 226.182 331.321 241.697Z" fill="#001030"/>
<path d="M323.695 239.636L326.721 244.485C326.721 244.485 334.226 243.152 339.311 238.061L337.495 233.818C337.374 233.818 328.295 238.303 323.695 239.636Z" fill="#524E84"/>
<path d="M222.374 157.333C222.374 157.333 226.732 163.273 226.369 166.303C226.005 169.333 222.132 175.03 218.984 175.394C215.837 175.636 222.616 168 221.042 168.242C219.105 168.485 206.153 179.273 203.369 179.273C200.584 179.273 206.637 174.303 208.937 173.091C208.937 173.091 202.763 175.879 201.311 177.333C199.858 178.788 198.89 175.636 206.032 171.394C206.032 171.394 199.495 175.152 199.011 175.152C197.558 175.394 201.674 170.424 205.305 168.727C205.305 168.727 200.1 171.273 199.495 171.273C198.769 171.273 200.342 169.576 204.216 167.394C207.727 165.455 213.537 156.485 213.537 156.485L222.374 157.333Z" fill="#F9AF8B"/>
<path d="M232.905 54.303C232.905 54.303 218.379 82.303 214.99 111.636L213.416 156.242C213.416 156.242 214.869 159.394 222.374 157.333L229.516 112.848L234.963 92.4849C235.084 92.4849 237.627 67.3939 232.905 54.303Z" fill="#09335B"/>
<path d="M277.267 25.8006C279.79 17.263 274.923 8.2943 266.396 5.76838C257.87 3.24246 248.913 8.11586 246.39 16.6534C243.868 25.191 248.735 34.1597 257.261 36.6856C265.787 39.2116 274.744 34.3382 277.267 25.8006Z" fill="#2E3052"/>
<path d="M277.937 21.0909C277.937 21.0909 282.658 20.6061 282.779 16.1212C282.9 12.3636 278.179 13.9394 279.026 11.1515C279.874 8.36365 281.205 5.81819 277.574 4.48486C274.426 3.27274 273.942 5.45456 270.19 1.45455C265.832 -3.27272 260.263 4.96971 255.663 4.36365C248.884 3.51516 247.432 7.27274 246.221 10.1818C245.011 13.0909 247.19 15.6364 247.19 15.6364L277.937 21.0909Z" fill="#2E3052"/>
<path d="M274.305 28C274.305 28 277.453 25.0909 278.784 28.2424C280.116 31.394 276.121 39.0303 271.884 36.2424L274.305 28Z" fill="#FC8664"/>
<path d="M273.216 33.8182C273.337 33.8182 273.579 33.8182 273.579 33.5758C274.789 31.1515 277.574 30.6667 277.574 30.5455C277.816 30.5455 277.937 30.3031 277.937 30.0606C277.937 29.8182 277.695 29.697 277.453 29.697C277.331 29.697 274.184 30.3031 272.853 33.0909C272.853 33.4546 272.974 33.697 273.216 33.8182Z" fill="#FD664D"/>
<path d="M276.121 33.0909C276.242 33.0909 276.242 33.0909 276.363 33.0909C276.605 32.9697 276.605 32.7273 276.605 32.6061C276.605 32.6061 276.242 31.7576 275.395 31.1515C275.274 31.0303 275.032 31.0303 274.789 31.2727C274.668 31.3939 274.668 31.6364 274.911 31.8788C275.637 32.3636 275.879 32.9697 275.879 32.9697C275.879 32.9697 276 33.0909 276.121 33.0909Z" fill="#FD664D"/>
<path d="M253.363 40.1212L251.911 48.2424C251.911 48.2424 254.574 52.4849 257.842 53.3333C261.111 54.1818 263.774 50.6667 263.774 50.6667L265.105 42.7879L253.363 40.1212Z" fill="#F9AF8B"/>
<path d="M253.364 40.1212L252.758 43.7576C254.574 46.5455 258.327 47.8788 264.258 48.1212L265.227 42.9091L253.364 40.1212Z" fill="#FC8664"/>
<path d="M248.4 17.697C248.037 20.8485 247.553 24.8485 247.674 28.1212C247.674 28.9697 247.674 29.697 247.795 30.4242C248.4 36.7273 250.942 47.7576 263.653 45.5758C269.342 44.6061 272.732 39.1515 274.911 33.3333C276.363 29.3333 277.211 25.3333 277.695 22.303C278.179 19.2727 276.968 16.2424 274.668 14.303C268.253 9.09091 260.505 9.21212 255.3 10.1818C251.668 11.0303 248.884 13.9394 248.4 17.697Z" fill="#F9AF8B"/>
<path d="M268.011 28C267.89 28.8485 268.132 29.697 268.737 29.697C269.342 29.8182 269.827 29.2121 270.069 28.2424C270.19 27.394 269.948 26.5455 269.342 26.5455C268.737 26.5455 268.253 27.1515 268.011 28Z" fill="#2E3052"/>
<path d="M256.39 25.9394C256.269 26.7879 256.511 27.6364 257.116 27.6364C257.721 27.7576 258.205 27.1515 258.447 26.1818C258.569 25.3333 258.326 24.4849 257.721 24.4849C257.116 24.4849 256.511 25.0909 256.39 25.9394Z" fill="#2E3052"/>
<path d="M273.095 23.8788C273.095 23.8788 269.222 21.4546 265.832 22.303V23.8788C265.832 23.8788 269.464 23.7576 272.611 25.5758C272.974 24.9697 273.337 24.7273 273.095 23.8788Z" fill="#2E3052"/>
<path d="M254.09 20.4849C254.09 20.4849 258.569 19.5152 261.474 21.5758L260.99 23.0303C260.99 23.0303 257.6 21.697 254.09 22.303C253.969 21.5758 253.727 21.2121 254.09 20.4849Z" fill="#2E3052"/>
<path d="M261.353 33.2121C260.748 33.0909 260.142 32.7273 260.021 32.7273C259.779 32.6061 259.779 32.3636 259.9 32.2424C260.021 32 260.263 32 260.385 32.1212C260.748 32.3636 261.474 32.7273 261.958 32.4848C262.079 32.4848 262.2 32.3636 262.2 32.1212C262.564 30.7879 263.048 26.1818 263.048 26.1818C263.048 25.9394 263.29 25.8182 263.532 25.8182C263.774 25.8182 263.895 26.0606 263.895 26.303C263.895 26.5455 263.411 31.0303 263.048 32.3636C262.927 32.8485 262.564 33.0909 262.321 33.2121C261.958 33.2121 261.716 33.2121 261.353 33.2121Z" fill="#FC8664"/>
<path d="M265.832 36.4849C265.226 38.0606 263.653 40.7273 260.142 40.1212C256.632 39.5152 256.026 36.6061 256.026 34.7879L265.832 36.4849Z" fill="white"/>
<path d="M259.9 42.1818C258.932 42.0606 258.084 41.3333 258.084 41.3333C257.963 41.2121 257.963 40.9697 258.084 40.7273C258.205 40.606 258.448 40.606 258.69 40.7273C258.69 40.7273 259.295 41.2121 260.142 41.4545C260.869 41.5758 261.595 41.3333 261.595 41.3333C261.837 41.2121 262.079 41.3333 262.079 41.5758C262.2 41.8182 262.079 42.0606 261.837 42.0606C261.716 41.9394 260.748 42.303 259.9 42.1818Z" fill="#FC8664"/>
<path d="M274.184 30.6667C274.79 29.0909 275.395 27.1515 275.395 26.0606C275.395 24.1212 273.942 22.7879 274.79 21.0909C275.637 19.3939 274.063 17.0909 272.732 16.4849C271.4 15.8788 268.011 16 264.984 13.9394C262.2 11.8788 256.632 12 255.421 13.8182C253.969 16 255.3 16.4848 252.032 18.5455C250.7 19.3939 251.547 22.303 251.426 24.1212C251.426 24.9697 251.305 25.3333 251.184 26.1818L251.063 26.6667L247.674 26.0606C247.795 23.2727 248.037 20.2424 248.4 17.8182C248.884 14.1818 251.669 11.1515 255.3 10.4242C260.505 9.45455 268.253 9.21212 274.669 14.5455C276.969 16.4848 278.179 19.5152 277.695 22.5455C277.332 24.8485 276.726 28 275.758 31.1515L274.184 30.6667Z" fill="#2E3052"/>
<path d="M249.005 27.7576C249.127 26.9091 249.248 25.9394 249.248 24.9697C249.248 23.7576 249.127 22.5455 247.916 21.8182C246.948 21.2121 245.979 21.0909 245.011 22.0606C242.711 24.4849 243.195 33.4546 248.158 32.3637L249.005 27.7576Z" fill="#F9AF8B"/>
<path d="M247.674 29.697C247.553 29.5758 247.432 29.4546 247.432 29.3334C247.674 26.6667 245.616 24.7273 245.616 24.7273C245.495 24.6061 245.495 24.3637 245.616 24.1212C245.737 24 245.979 24 246.221 24.1212C246.342 24.2425 248.643 26.3031 248.279 29.4546C248.158 29.5758 248.037 29.697 247.674 29.697Z" fill="#FC8664"/>
<path d="M245.616 27.5152C245.495 27.5152 245.495 27.3939 245.495 27.3939C245.374 27.2727 245.374 27.0303 245.616 26.7879C245.616 26.7879 246.342 26.303 247.432 26.1818C247.674 26.1818 247.795 26.303 247.795 26.5455C247.795 26.7879 247.674 26.9091 247.432 26.9091C246.585 26.9091 246.1 27.2727 246.1 27.2727C245.858 27.5152 245.737 27.5152 245.616 27.5152Z" fill="#FC8664"/>
<path d="M430.827 214.061C430.827 214.061 425.5 224.121 419.327 232.121C417.511 234.424 415.574 236.606 413.637 238.303C410.611 240.97 407.585 242.424 405.163 241.212C396.084 236.727 375.99 201.091 375.99 201.091L380.953 195.273C380.953 195.273 389.911 205.455 396.448 211.515C402.5 217.091 407.1 221.333 407.1 221.333C407.948 220.121 408.795 218.667 409.763 217.212C410.732 215.636 411.821 214.061 412.79 212.364C420.295 200.242 429.495 186.909 429.495 186.909L430.827 214.061Z" fill="#F9AF8B"/>
<path d="M382.163 198.909C382.163 198.909 384.221 195.515 383.374 192.485C382.526 189.455 381.8 182.667 378.532 182.788C377.321 182.909 379.137 185.697 378.29 188.364C378.29 188.364 374.779 186.667 372.358 184.97C370.3 183.394 365.942 180.97 364.005 179.758C363.4 179.394 362.795 180 363.158 180.606C363.642 181.455 364.974 182.788 367.758 184.606C367.758 184.606 360.616 180.606 359.405 181.455C358.195 182.303 367.274 187.273 367.274 187.273C367.274 187.273 359.89 184.364 359.284 185.333C358.921 185.939 366.063 190.182 366.063 190.182C366.063 190.182 358.921 188 360.253 189.697C360.616 190.182 374.174 196.364 377.079 203.515C377.321 203.515 381.195 201.333 382.163 198.909Z" fill="#F9AF8B"/>
<path d="M419.326 232.121C417.511 234.424 415.574 236.606 413.637 238.303L409.763 217.333C410.732 215.758 411.821 214.182 412.789 212.485L419.326 232.121Z" fill="#FC8664"/>
<path d="M429.737 186.061L410.611 213.697L416.663 238.303L431.674 214.303C431.795 214.303 434.579 198.303 429.737 186.061Z" fill="#193E9D"/>
<path d="M439.664 422.303V431.03L447.774 430.909L448.258 421.697L439.664 422.303Z" fill="#F9AF8B"/>
<path d="M460.243 294.909C460.243 296 459.879 300.97 459.516 307.879C458.427 326.909 456.248 360.727 454.916 368.364C453.585 376.121 454.19 401.697 454.674 415.151C454.795 417.455 453.827 419.515 452.374 420.97C451.769 421.576 451.164 422.061 450.437 422.424C449.227 423.151 447.774 423.515 446.322 423.515H440.148C435.427 423.515 431.674 419.758 431.916 415.151C432.279 403.879 432.643 383.151 431.916 367.151C431.19 352 432.279 325.091 433.127 308.364C433.49 301.697 433.732 296.606 433.853 294.545L460.243 294.909Z" fill="#2E3052"/>
<path d="M433.853 294.667L460.242 295.03C460.242 296.121 459.879 301.091 459.516 308C450.558 309.091 441.237 309.576 433.126 308.485C433.49 301.697 433.732 296.727 433.853 294.667Z" fill="#001030"/>
<path d="M452.253 391.273C452.495 399.879 452.737 408.727 452.616 415.879C452.616 417.939 452.495 419.636 452.374 421.091C451.769 421.697 451.164 422.182 450.437 422.545C450.558 420.848 450.679 418.667 450.8 415.879C450.921 408.727 450.679 400 450.437 391.394C450.195 380.97 449.832 371.03 450.437 366.909C451.648 357.697 454.553 307.879 455.279 294.545L457.095 294.667C456.369 308 453.463 357.818 452.253 367.152C451.648 371.152 452.011 380.97 452.253 391.273Z" fill="#001030"/>
<path d="M441.721 430.667C441.721 430.667 440.027 428.364 438.695 428.364C437.363 428.485 426.469 436.485 422.837 437.091C419.206 437.697 419.811 440.364 420.416 441.697C421.021 443.03 449.469 441.818 449.469 441.818C449.469 441.818 450.437 433.576 449.59 431.03C448.621 428.485 444.506 431.394 441.721 430.667Z" fill="#193E9D"/>
<path d="M435.669 436.364C435.79 436.364 435.911 436.364 436.032 436.364C436.274 436.242 436.395 435.879 436.274 435.636C436.274 435.515 435.185 433.697 433.732 432.849C431.795 431.879 430.222 432.849 430.1 432.97C429.858 433.091 429.858 433.455 429.979 433.697C430.1 433.939 430.464 433.939 430.706 433.818C430.706 433.818 431.795 433.091 433.248 433.818C434.458 434.424 435.427 436.121 435.427 436.121C435.427 436.242 435.548 436.364 435.669 436.364Z" fill="white"/>
<path d="M437.243 434.909C437.364 434.909 437.485 434.909 437.606 434.909C437.848 434.788 437.969 434.424 437.848 434.182C437.848 434.061 436.758 432.242 435.306 431.394C433.369 430.424 431.795 431.394 431.674 431.515C431.432 431.636 431.432 432 431.553 432.242C431.674 432.485 432.037 432.485 432.279 432.364C432.279 432.364 433.369 431.636 434.822 432.364C436.032 432.97 437.001 434.667 437.001 434.667C437.001 434.788 437.122 434.909 437.243 434.909Z" fill="white"/>
<path d="M433.611 437.455C433.732 437.455 433.853 437.455 433.974 437.455C434.216 437.333 434.337 436.97 434.216 436.727C434.216 436.606 433.127 434.788 431.674 433.939C429.737 432.97 428.163 433.939 428.042 434.061C427.8 434.182 427.8 434.545 427.921 434.788C428.042 435.03 428.406 435.03 428.648 434.909C428.648 434.909 429.737 434.182 431.19 434.909C432.4 435.515 433.369 437.212 433.369 437.212C433.369 437.333 433.49 437.455 433.611 437.455Z" fill="white"/>
<path d="M479.127 422.303L480.095 431.03L487.359 430.909L487.843 421.697L479.127 422.303Z" fill="#F9AF8B"/>
<path d="M494.137 367.273C493.29 383.273 493.774 403.879 494.137 415.273C494.258 419.879 490.506 423.636 485.906 423.636H479.732C478.401 423.636 477.069 423.273 475.98 422.788C475.253 422.424 474.648 421.939 474.164 421.455C472.469 419.879 471.501 417.697 471.622 415.273C471.985 401.939 472.59 376.242 471.38 368.485C470.048 360.727 467.869 325.818 466.78 307.03C466.416 300.727 466.174 296.242 466.053 295.151L492.443 295.515C492.564 296.848 492.685 298.909 492.806 301.576C493.29 316.485 494.985 349.697 494.137 367.273Z" fill="#2E3052"/>
<path d="M492.443 301.455C487.479 302.788 477.553 305.212 466.416 307.03C466.053 300.727 465.811 296.242 465.69 295.151L492.079 295.515C492.2 296.727 492.321 298.788 492.443 301.455Z" fill="#001030"/>
<path d="M475.495 415.879C475.616 418.788 475.737 420.97 475.858 422.667C475.132 422.303 474.527 421.818 473.921 421.333C473.8 419.758 473.679 417.939 473.679 415.879C473.558 408.727 473.8 399.879 474.042 391.273C474.284 380.848 474.527 371.152 474.042 367.03C472.711 357.818 469.927 307.879 469.2 294.545L471.016 294.424C471.742 307.758 474.527 357.576 475.858 366.788C476.463 371.03 476.221 380.848 475.858 391.273C475.495 399.879 475.253 408.727 475.495 415.879Z" fill="#001030"/>
<path d="M482.879 429.697C482.879 429.697 486.632 428.727 487.6 428.727C488.569 428.727 495.469 436.242 497.769 436.727C502.005 437.576 502.005 443.879 499.463 444.242C492.079 445.212 479.49 442.061 479.49 442.061C479.49 442.061 478.279 433.818 478.884 431.273C479.369 428.727 480.821 430.424 482.879 429.697Z" fill="#193E9D"/>
<path d="M488.932 436.727C488.811 436.727 488.69 436.727 488.569 436.606C488.327 436.485 488.327 436.121 488.448 435.879C488.448 435.758 489.779 433.939 491.353 433.333C493.411 432.485 494.864 433.697 494.985 433.818C495.227 433.939 495.227 434.303 494.985 434.545C494.742 434.788 494.5 434.788 494.258 434.545C494.258 434.545 493.169 433.697 491.716 434.303C490.506 434.788 489.295 436.485 489.295 436.485C489.174 436.606 489.053 436.606 488.932 436.727Z" fill="white"/>
<path d="M487.6 435.151C487.479 435.151 487.358 435.151 487.237 435.03C486.995 434.909 486.995 434.545 487.116 434.303C487.116 434.182 488.448 432.364 490.021 431.758C492.079 430.909 493.532 432.121 493.653 432.242C493.895 432.364 493.895 432.727 493.653 432.97C493.411 433.212 493.169 433.212 492.927 432.97C492.927 432.97 491.837 432.121 490.385 432.727C489.174 433.212 487.964 434.909 487.964 434.909C487.842 435.03 487.721 435.151 487.6 435.151Z" fill="white"/>
<path d="M490.99 437.939C490.868 437.939 490.747 437.939 490.626 437.818C490.384 437.697 490.384 437.333 490.505 437.091C490.505 436.97 491.837 435.152 493.411 434.545C495.469 433.697 496.921 434.909 497.042 435.03C497.284 435.152 497.284 435.515 497.042 435.758C496.8 436 496.558 436 496.316 435.758C496.316 435.758 495.226 434.909 493.774 435.515C492.563 436 491.353 437.697 491.353 437.697C491.232 437.818 491.111 437.939 490.99 437.939Z" fill="white"/>
<path d="M498.132 297.697C474.284 303.636 450.437 303.636 426.711 297.697C426.59 288.97 426.469 254.061 427.195 225.455C427.195 224.848 427.195 224.364 427.195 223.758C427.195 223.515 427.195 223.152 427.195 222.909C427.195 222.545 427.195 222.182 427.195 221.818C427.679 202.909 428.647 187.515 430.1 185.455C433.611 180.727 451.526 172.97 456.49 169.576C456.853 170.182 459.274 173.818 462.542 174.061C466.053 174.303 469.2 170.303 469.2 170.303V169.576C474.163 172.97 490.384 180.121 493.895 184.848C497.647 190.061 498.253 282.788 498.132 297.697Z" fill="#193E9D"/>
<path d="M434.337 212C432.279 214.667 429.253 220.848 427.921 223.758C427.679 224.121 427.558 224.485 427.437 224.727C427.316 225.091 427.195 225.212 427.195 225.212C427.195 225.333 427.074 225.333 426.953 225.455C426.953 224.848 426.953 224.364 426.953 223.758C426.953 223.515 426.953 223.152 426.953 222.909C427.195 222.303 427.558 221.697 427.921 220.848C429.495 217.697 431.674 213.576 433.247 211.273C433.368 211.03 433.732 211.03 433.974 211.152C434.458 211.394 434.579 211.758 434.337 212Z" fill="#09335B"/>
<path d="M480.095 190.909C480.095 190.909 479.974 190.909 480.095 190.909C470.653 190.667 463.269 186.788 458.79 183.515C453.947 180 451.405 176.727 451.284 176.606C451.042 176.364 451.163 176 451.405 175.879C451.647 175.758 452.011 175.758 452.132 176C452.253 176.121 462.421 189.333 480.095 189.818C480.458 189.818 480.579 190.061 480.579 190.424C480.579 190.667 480.337 190.909 480.095 190.909Z" fill="#09335B"/>
<path d="M448.137 279.394C447.895 279.394 447.653 279.152 447.532 278.909C447.532 278.667 447.774 278.303 448.016 278.303C463.511 277.333 472.832 269.576 477.916 263.273C483.363 256.364 485.179 249.697 485.179 249.576C485.3 249.333 485.542 249.091 485.905 249.212C486.148 249.333 486.39 249.576 486.269 249.818C486.148 250.061 484.332 256.848 478.763 263.879C473.679 270.424 464.116 278.424 448.137 279.394Z" fill="#09335B"/>
<path d="M456.49 269.697C456.247 269.697 456.005 269.576 456.005 269.333C455.884 269.091 456.126 268.727 456.368 268.727C469.926 265.091 472.468 254.061 472.468 253.939C472.59 253.697 472.832 253.455 473.074 253.576C473.316 253.697 473.558 253.939 473.437 254.182C473.437 254.303 472.711 257.212 470.29 260.606C468.111 263.758 463.874 267.879 456.49 269.818C456.611 269.697 456.49 269.697 456.49 269.697Z" fill="#09335B"/>
<path d="M515.684 296.727C515.321 301.455 512.416 304.97 512.416 308.121C512.416 311.273 508.785 309.212 510.479 303.03C512.174 296.849 509.632 290.909 508.3 290.909C506.969 290.909 508.785 297.818 507.332 300.121C505.879 302.424 504.79 297.576 503.579 294.667C502.248 291.636 502.974 285.212 504.185 280.606C505.395 276.121 499.585 247.515 500.432 239.394L498.374 228.97L497.164 222.909L496.921 216.485L507.937 212.242C508.3 214.303 508.785 216.364 509.148 218.545C509.39 219.515 509.511 220.485 509.753 221.333C511.206 228.97 512.537 236.485 513.142 241.333C514.595 254.667 512.174 281.818 512.174 281.818C512.174 281.818 515.927 292.242 515.684 296.727Z" fill="#F9AF8B"/>
<path d="M509.632 221.333C507.09 224.121 503.216 227.636 498.253 228.97L497.042 222.909L496.8 216.485L507.816 212.242C508.179 214.303 508.664 216.364 509.027 218.545C509.269 219.515 509.511 220.364 509.632 221.333Z" fill="#FC8664"/>
<path d="M512.779 215.273C512.779 215.273 511.448 216.848 509.148 218.545C506.364 220.606 502.127 222.909 497.043 222.909C496.437 205.212 495.59 190.303 494.258 185.939C496.558 188.727 507.695 202.667 512.779 215.273Z" fill="#193E9D"/>
<path d="M489.416 210.182C491.474 212.848 494.5 219.03 495.832 221.939C496.074 222.303 496.195 222.667 496.316 222.909C496.437 223.273 496.558 223.394 496.558 223.394C496.679 223.636 496.8 223.758 497.042 223.758C497.042 223.515 497.042 223.151 497.042 222.909C497.164 222.909 497.406 222.909 497.527 222.909C497.406 222.788 497.285 222.303 497.042 221.818C496.679 221.091 496.316 220.121 495.711 219.151C494.137 216 491.958 211.758 490.385 209.576C490.142 209.333 489.9 209.333 489.658 209.455C489.295 209.576 489.295 209.939 489.416 210.182Z" fill="#09335B"/>
<path d="M479.49 141.212C479.49 150.788 473.437 157.333 463.753 157.333C453.948 157.333 447.169 150.303 447.169 140.727C447.169 131.152 452.979 123.879 462.664 123.879C474.406 124 479.49 131.636 479.49 141.212Z" fill="#2E3052"/>
<path d="M477.311 145.333C477.311 145.333 479.974 141.818 482.032 144.727C484.09 147.636 481.184 156.364 476.221 154.182L477.311 145.333Z" fill="#FC8664"/>
<path d="M477.311 151.515C477.553 151.515 477.674 151.394 477.674 151.273C478.4 148.606 481.306 147.515 481.306 147.515C481.548 147.394 481.669 147.152 481.548 147.03C481.427 146.788 481.185 146.667 481.063 146.788C480.942 146.788 477.795 148 476.948 151.152C476.827 151.273 476.948 151.515 477.311 151.515C477.311 151.515 477.19 151.515 477.311 151.515Z" fill="#FD664D"/>
<path d="M480.216 150.182C480.337 150.182 480.337 150.182 480.458 150.061C480.7 149.939 480.7 149.697 480.579 149.455C480.579 149.455 480.095 148.727 479.005 148.242C478.763 148.121 478.521 148.242 478.4 148.485C478.279 148.727 478.4 148.97 478.642 148.97C479.489 149.333 479.853 149.939 479.853 149.939C479.853 150.182 479.974 150.182 480.216 150.182Z" fill="#FD664D"/>
<path d="M449.348 145.333C449.348 145.333 446.684 141.818 444.627 144.727C442.569 147.636 445.474 156.364 450.437 154.182L449.348 145.333Z" fill="#FC8664"/>
<path d="M449.348 151.515C449.106 151.515 448.985 151.394 448.985 151.273C448.258 148.606 445.353 147.515 445.353 147.515C445.111 147.394 444.99 147.152 445.111 147.03C445.232 146.788 445.474 146.667 445.595 146.788C445.716 146.788 448.864 148 449.711 151.152C449.832 151.273 449.711 151.515 449.348 151.515C449.348 151.515 449.469 151.515 449.348 151.515Z" fill="#FD664D"/>
<path d="M446.442 150.182C446.321 150.182 446.321 150.182 446.2 150.061C445.958 149.939 445.958 149.697 446.079 149.455C446.079 149.455 446.563 148.727 447.653 148.242C447.895 148.121 448.137 148.242 448.258 148.485C448.379 148.727 448.258 148.97 448.016 148.97C447.169 149.333 446.805 149.939 446.805 149.939C446.805 150.182 446.684 150.182 446.442 150.182Z" fill="#FD664D"/>
<path d="M456.611 161.576V170.182C456.611 170.182 459.274 174.545 462.784 174.909C466.295 175.152 469.442 171.152 469.442 171.152V162.303L456.611 161.576Z" fill="#F9AF8B"/>
<path d="M456.611 161.576V165.333C459.032 167.879 463.148 168.606 469.442 167.636V162.061L456.611 161.576Z" fill="#FC8664"/>
<path d="M478.763 145.091C478.642 146.909 478.4 148.848 478.037 150.788C476.826 157.091 474.163 163.394 468.474 165.333C455.521 169.818 450.921 159.03 449.105 152.606C448.863 151.879 448.742 151.152 448.5 150.303C448.258 148.848 448.016 147.152 447.774 145.455C447.532 143.394 447.411 141.333 447.29 139.515C447.047 135.636 449.469 132.121 453.1 130.788C458.426 128.848 466.416 127.152 474.042 131.394C476.826 132.97 478.642 135.879 478.642 139.03C478.884 140.727 478.884 142.788 478.763 145.091Z" fill="#F9AF8B"/>
<path d="M477.069 145.455C476.585 146.182 474.164 153.576 473.558 154.545C471.985 151.273 464.6 153.697 464.6 153.697C464.116 153.818 463.632 153.939 463.148 153.939C462.663 153.939 462.179 153.818 461.816 153.697C461.816 153.697 454.311 151.394 452.858 154.909C452.132 153.939 450.074 146.667 449.711 145.455H447.895C448.016 147.151 448.258 148.848 448.621 150.303C448.742 151.151 448.985 151.879 449.227 152.606C451.042 158.909 455.642 169.818 468.595 165.333C474.285 163.273 476.948 157.091 478.158 150.788C478.521 148.848 478.764 146.909 478.885 145.091L477.069 145.455ZM470.169 158.788C469.563 159.273 468.958 159.758 468.474 160.121C465.206 161.818 464.842 161.576 463.511 161.697C462.179 161.818 460.363 161.333 458.548 160.364C457.942 160 457.095 159.394 456.127 158.545C456.127 158.545 454.795 154.061 463.269 155.152C471.742 153.818 470.29 157.939 470.169 158.788Z" fill="#2E3052"/>
<path d="M468.837 146.424C468.837 147.394 469.321 148.121 469.926 148.121C470.532 148.121 471.016 147.394 471.016 146.424C471.016 145.455 470.532 144.727 469.926 144.727C469.321 144.849 468.837 145.576 468.837 146.424Z" fill="#2E3052"/>
<path d="M456.126 146.424C456.126 147.394 456.611 148.121 457.216 148.121C457.821 148.121 458.305 147.394 458.305 146.424C458.305 145.455 457.821 144.727 457.216 144.727C456.611 144.727 456.126 145.576 456.126 146.424Z" fill="#2E3052"/>
<path d="M474.164 141.818C474.164 141.818 470.048 140.242 466.9 141.576L467.264 143.273C467.264 143.273 471.985 142.909 474.285 143.879C474.406 143.152 474.527 142.424 474.164 141.818Z" fill="#2E3052"/>
<path d="M453.705 141.818C453.705 141.818 457.821 140.242 460.969 141.576L460.605 143.273C460.605 143.273 455.884 142.909 453.584 143.879C453.463 143.152 453.463 142.424 453.705 141.818Z" fill="#2E3052"/>
<path d="M463.147 152.97C462.421 152.97 461.695 152.727 461.695 152.606C461.453 152.485 461.332 152.242 461.453 152.121C461.574 151.879 461.816 151.758 461.937 151.879C462.3 152 463.269 152.242 463.632 152C463.753 152 463.753 151.879 463.874 151.636C463.995 150.182 463.632 145.455 463.632 145.333C463.632 145.091 463.753 144.97 463.995 144.848C464.237 144.848 464.479 144.97 464.479 145.212C464.479 145.455 464.842 150.061 464.721 151.636C464.721 152.242 464.358 152.485 464.116 152.606C463.874 152.848 463.511 152.97 463.147 152.97Z" fill="#FC8664"/>
<path d="M468.837 155.879C468.474 157.576 467.385 160.606 463.511 160.606C459.637 160.606 458.669 157.818 458.306 155.879H468.837Z" fill="white"/>
<path d="M447.895 145.455H449.832C449.59 143.636 449.348 140.364 450.921 139.879C455.885 138.424 449.469 135.03 451.648 133.333C453.827 131.636 459.395 132.364 463.269 132.242C467.142 132.121 473.316 132.121 474.89 132.485C476.342 132.849 475.616 135.273 475.011 137.212C474.406 139.152 476.827 141.212 477.311 143.152C477.432 143.758 477.432 144.606 477.311 145.455H478.885C479.127 143.03 479.127 140.848 479.006 139.03C478.885 135.879 477.19 132.97 474.406 131.394C466.779 127.152 458.79 128.727 453.464 130.788C449.832 132.121 447.411 135.758 447.653 139.515C447.532 141.333 447.653 143.394 447.895 145.455Z" fill="#2E3052"/>
<path d="M171.048 354.788H75.1738C76.7475 345.212 84.3738 338.182 93.3317 338.182L123.111 338.303L152.89 338.182C161.848 338.182 169.474 345.091 171.048 354.788Z" fill="white"/>
<path d="M88.0056 353.333H82.8003V442.788H88.0056V353.333Z" fill="white"/>
<path d="M163.542 353.333H158.337V442.788H163.542V353.333Z" fill="white"/>
<path d="M158.337 378.424H88.0054V383.515H158.337V378.424Z" fill="#DCEDF9"/>
<path d="M99.6264 234.303C99.6264 234.303 83.6474 255.636 81.4685 274.303C80.0159 287.515 99.6264 307.151 99.6264 307.151L106.405 303.758L99.6264 288.485C97.2053 281.091 94.3001 278.182 96.479 270.667L101.321 260.121L99.6264 234.303Z" fill="#09335B"/>
<path d="M150.106 234.061C150.106 234.061 165.843 256.848 167.174 275.515C168.264 291.636 149.016 307.151 149.016 307.151L143.448 304.364L151.195 288.97C153.616 281.576 154.706 277.091 151.437 268.97L147.321 260.121L150.106 234.061Z" fill="#09335B"/>
<path d="M102.895 283.03L92.2422 316.848C92.2422 316.848 138.121 322.667 152.163 318.909L145.021 282.061L149.984 234.061C143.084 231.152 135.821 229.333 128.437 228.727C117.542 228 110.763 229.697 99.6264 234.303L102.895 283.03Z" fill="#193E9D"/>
<path d="M114.395 244.485C124.563 243.273 134.005 236.364 134.369 236C134.611 235.758 134.611 235.515 134.49 235.152C134.248 234.909 134.005 234.909 133.642 235.03C133.521 235.151 122.384 243.273 111.732 243.394C111.369 243.394 111.126 243.636 111.126 244C111.126 244.364 111.369 244.606 111.732 244.606C112.7 244.727 113.548 244.606 114.395 244.485Z" fill="#09335B"/>
<path d="M122.505 425.576L123.353 433.091L131.342 433.212L131.947 427.03L122.505 425.576Z" fill="#F9AF8B"/>
<path d="M121.295 307.273C121.295 307.273 100.716 306.182 93.8157 311.879C86.9157 317.576 88.2473 333.939 95.3894 338.424C102.532 342.909 114.516 351.636 114.516 351.636L122.142 428.121L132.31 428.485C132.31 428.485 141.632 351.758 136.91 336.848C132.189 321.818 121.295 307.273 121.295 307.273Z" fill="#001030"/>
<path d="M133.279 424.606C133.884 426.424 133.521 428.121 133.037 429.818L121.416 429.576C121.053 427.879 120.932 426.182 121.174 424.485L133.279 424.606Z" fill="#2E3052"/>
<path d="M150.347 306.667H96.479L91.5158 277.576C91.0316 275.03 92.9685 272.727 95.6316 272.727H151.316C153.858 272.727 155.795 275.03 155.432 277.576L150.347 306.667Z" fill="white"/>
<path d="M145.99 313.091H100.837C98.4159 313.091 96.479 311.151 96.479 308.727V306.667H150.347V308.606C150.468 311.03 148.411 313.091 145.99 313.091Z" fill="#DCEDF9"/>
<path d="M128.195 290.909C128.195 293.455 126.137 295.636 123.473 295.636C120.931 295.636 118.752 293.576 118.752 290.909C118.752 288.364 120.81 286.182 123.473 286.182C126.137 286.182 128.195 288.364 128.195 290.909Z" fill="#DCEDF9"/>
<path d="M88.8529 404.606L87.1582 412L94.3003 413.333L97.2056 406.788L88.8529 404.606Z" fill="#F9AF8B"/>
<path d="M131.705 306.061C131.705 306.061 117.905 301.333 109.916 311.273C101.927 321.212 88.3687 405.333 88.3687 405.333L97.5686 409.212L127.348 334.545C127.348 334.545 151.558 348.364 154.463 328.727C156.884 313.091 131.705 306.061 131.705 306.061Z" fill="#2E3052"/>
<path d="M99.7474 405.333C99.7474 407.273 98.9001 408.848 97.8106 410.424L86.4316 406.424C86.5527 404.606 87.0369 402.909 87.8843 401.333L99.7474 405.333Z" fill="#524E84"/>
<path d="M92.6054 410.788C92.6054 410.788 88.2475 408.606 87.037 408.364C85.8265 408.121 75.2949 415.515 72.2686 415.515C66.9423 415.394 65.1265 423.273 68.2738 424.364C77.1107 427.515 93.4528 427.151 93.4528 427.151C93.4528 427.151 97.0844 417.333 97.2054 413.939C97.2054 410.545 94.9054 412.242 92.6054 410.788Z" fill="#193E9D"/>
<path d="M83.1632 417.818C83.2842 417.939 83.5263 417.939 83.6474 417.818C84.0105 417.697 84.1316 417.333 84.0105 416.97C84.0105 416.848 82.9211 414.303 81.1053 413.091C78.8053 411.515 76.6263 412.606 76.5053 412.606C76.1421 412.727 76.0211 413.212 76.2632 413.455C76.3842 413.818 76.8684 413.818 77.1105 413.697C77.1105 413.697 78.6842 412.97 80.2579 414.061C81.7105 415.03 82.679 417.333 82.679 417.333C82.9211 417.576 83.0421 417.697 83.1632 417.818Z" fill="white"/>
<path d="M85.3424 416.242C85.4634 416.364 85.7055 416.364 85.8266 416.242C86.1897 416.121 86.3108 415.758 86.1897 415.394C86.1897 415.273 85.1003 412.727 83.2845 411.515C80.9845 409.939 78.8055 411.03 78.6845 411.03C78.3213 411.151 78.2003 411.636 78.4424 411.879C78.5634 412.242 79.0476 412.242 79.2897 412.121C79.2897 412.121 80.8634 411.394 82.4371 412.485C83.8897 413.455 84.8581 415.758 84.8581 415.758C85.1002 416.121 85.2213 416.242 85.3424 416.242Z" fill="white"/>
<path d="M80.379 418.909C80.5 419.03 80.7421 419.03 80.8632 418.909C81.2264 418.788 81.3474 418.424 81.2263 418.061C81.2263 417.939 80.1369 415.394 78.3211 414.182C76.0211 412.606 73.8421 413.697 73.7211 413.697C73.3579 413.818 73.2369 414.303 73.479 414.545C73.6 414.909 74.0842 414.909 74.3264 414.788C74.3264 414.788 75.9 414.061 77.4737 415.152C78.9264 416.121 79.8948 418.424 79.8948 418.424C80.1369 418.667 80.2579 418.788 80.379 418.909Z" fill="white"/>
<path d="M126.5 432.727C126.5 432.727 130.858 431.394 132.19 431.394C133.4 431.394 141.995 440.121 144.779 440.485C149.863 441.212 150.106 448.97 147.079 449.455C138.242 450.909 122.869 447.879 122.869 447.879C122.869 447.879 121.053 438.061 121.537 434.909C122.142 431.758 123.958 433.697 126.5 432.727Z" fill="#193E9D"/>
<path d="M134.127 440.849C134.006 440.849 133.764 440.849 133.643 440.727C133.401 440.606 133.279 440.121 133.401 439.879C133.401 439.758 134.853 437.576 136.669 436.727C139.09 435.636 140.906 436.97 141.027 437.091C141.269 437.333 141.39 437.697 141.148 437.939C140.906 438.182 140.543 438.303 140.301 438.061C140.301 438.061 138.969 437.091 137.274 437.818C135.822 438.545 134.49 440.485 134.49 440.485C134.369 440.727 134.248 440.849 134.127 440.849Z" fill="white"/>
<path d="M132.311 439.151C132.19 439.151 131.948 439.152 131.827 439.03C131.585 438.909 131.464 438.424 131.585 438.182C131.585 438.061 133.037 435.879 134.853 435.03C137.274 433.939 139.09 435.273 139.211 435.394C139.453 435.636 139.574 436 139.332 436.242C139.09 436.485 138.727 436.606 138.485 436.364C138.485 436.364 137.153 435.394 135.458 436.121C134.006 436.848 132.674 438.788 132.674 438.788C132.674 439.03 132.553 439.151 132.311 439.151Z" fill="white"/>
<path d="M136.548 442.303C136.427 442.303 136.185 442.303 136.064 442.182C135.821 442.061 135.7 441.576 135.821 441.333C135.821 441.212 137.274 439.03 139.09 438.182C141.511 437.091 143.327 438.424 143.448 438.545C143.69 438.788 143.811 439.151 143.569 439.394C143.327 439.636 142.964 439.758 142.721 439.515C142.721 439.515 141.39 438.545 139.695 439.273C138.242 440 136.911 441.939 136.911 441.939C136.79 442.182 136.669 442.303 136.548 442.303Z" fill="white"/>
<path d="M138.484 186.182C138.484 186.182 145.021 196.364 144.295 206.909C143.569 217.455 145.263 229.697 135.821 229.091C126.379 228.606 109.553 232.849 104.226 224.606C98.9001 216.364 138.484 186.182 138.484 186.182Z" fill="#2E3052"/>
<path d="M140.905 204.727C140.905 204.727 142.6 220 135.337 224.242C128.073 228.485 122.868 223.758 122.868 223.758C122.868 223.758 138.121 202.424 140.905 204.727Z" fill="#000B29"/>
<path d="M110.763 204.727C110.763 204.727 108.221 201.212 106.284 204.121C104.347 207.03 107.131 215.515 111.853 213.455L110.763 204.727Z" fill="#FC8664"/>
<path d="M110.763 210.788C110.642 210.788 110.4 210.667 110.4 210.545C109.673 207.879 107.01 206.909 106.889 206.909C106.647 206.788 106.526 206.545 106.647 206.424C106.768 206.182 107.01 206.061 107.131 206.182C107.252 206.182 110.279 207.394 111.126 210.424C111.126 210.424 111.005 210.667 110.763 210.788Z" fill="#FD664D"/>
<path d="M107.979 209.455C107.858 209.455 107.858 209.455 107.737 209.333C107.495 209.212 107.495 208.97 107.616 208.727C107.616 208.727 108.1 208 109.068 207.515C109.31 207.394 109.552 207.515 109.552 207.758C109.674 208 109.552 208.242 109.31 208.242C108.584 208.606 108.1 209.212 108.1 209.212C108.221 209.333 108.1 209.455 107.979 209.455Z" fill="#FD664D"/>
<path d="M137.516 204.727C137.516 204.727 140.058 201.212 141.995 204.121C143.932 207.03 141.147 215.515 136.426 213.455L137.516 204.727Z" fill="#FC8664"/>
<path d="M137.637 210.788C137.758 210.788 138 210.667 138 210.545C138.727 207.879 141.39 206.909 141.511 206.909C141.753 206.788 141.874 206.545 141.753 206.424C141.632 206.182 141.39 206.061 141.269 206.182C141.148 206.182 138.121 207.394 137.274 210.424C137.153 210.424 137.274 210.667 137.637 210.788C137.516 210.788 137.516 210.788 137.637 210.788Z" fill="#FD664D"/>
<path d="M140.3 209.455C140.421 209.455 140.421 209.455 140.542 209.333C140.784 209.212 140.784 208.97 140.663 208.727C140.663 208.727 140.179 208 139.21 207.515C138.968 207.394 138.726 207.515 138.726 207.758C138.605 208 138.726 208.242 138.968 208.242C139.695 208.606 140.179 209.212 140.179 209.212C140.058 209.333 140.179 209.455 140.3 209.455Z" fill="#FD664D"/>
<path d="M130.615 220.606V229.091C130.615 229.091 128.073 233.333 124.684 233.697C121.294 233.939 118.268 229.939 118.268 229.939V221.212L130.615 220.606Z" fill="#F9AF8B"/>
<path d="M130.615 220.606V224.364C128.315 226.909 124.321 227.758 118.268 226.909V221.212L130.615 220.606Z" fill="#FC8664"/>
<path d="M139.453 198.909C139.332 202.182 138.968 206.303 138.363 209.576C138.242 210.424 138 211.152 137.879 211.879C136.063 218.061 131.705 228.727 119.237 224.364C113.789 222.424 111.247 216.242 110.037 210.061C109.311 205.818 109.189 201.576 109.189 198.545C109.189 195.394 111.005 192.606 113.668 191.03C121.053 186.909 128.679 188.364 133.884 190.424C137.395 191.636 139.574 195.152 139.453 198.909Z" fill="#F9AF8B"/>
<path d="M118.632 205.939C118.632 206.788 118.147 207.515 117.542 207.515C116.937 207.515 116.453 206.788 116.453 205.939C116.453 205.091 116.937 204.364 117.542 204.364C118.268 204.364 118.632 205.091 118.632 205.939Z" fill="#2E3052"/>
<path d="M131.463 205.939C131.463 206.788 130.979 207.515 130.374 207.515C129.768 207.515 129.284 206.788 129.284 205.939C129.284 205.091 129.768 204.364 130.374 204.364C130.979 204.364 131.463 205.091 131.463 205.939Z" fill="#2E3052"/>
<path d="M115.605 200.606C116.452 200.364 118.147 200 120.084 200C120.568 200 120.931 200.485 120.81 200.848C120.689 201.212 120.447 201.455 119.963 201.455C118.752 201.455 115.484 201.576 113.91 202.182C113.91 201.939 114.031 201.576 114.273 201.333C114.636 200.97 115.121 200.727 115.605 200.606Z" fill="#2E3052"/>
<path d="M132.31 200.606C131.463 200.364 129.768 200 127.831 200C127.347 200 126.984 200.485 127.105 200.848C127.226 201.212 127.468 201.455 127.952 201.455C129.163 201.455 132.431 201.576 134.005 202.182C134.005 201.939 133.884 201.576 133.642 201.333C133.279 200.97 132.794 200.727 132.31 200.606Z" fill="#2E3052"/>
<path d="M124.321 212.606C123.958 212.606 123.716 212.606 123.474 212.364C123.232 212.242 122.99 212 122.868 211.394C122.747 209.939 123.111 205.333 123.111 205.091C123.111 204.848 123.353 204.727 123.595 204.727C123.837 204.727 123.958 204.97 123.958 205.212C123.958 205.212 123.595 209.939 123.716 211.394C123.716 211.636 123.837 211.758 123.958 211.758C124.321 212 125.168 211.758 125.532 211.636C125.774 211.515 126.016 211.636 126.016 211.879C126.137 212.121 126.016 212.364 125.774 212.364C125.653 212.364 124.926 212.606 124.321 212.606Z" fill="#FC8664"/>
<path d="M119.237 215.152C119.6 216.727 120.568 219.515 123.958 219.515C127.347 219.515 128.316 216.97 128.679 215.152H119.237Z" fill="white"/>
<path d="M123.837 221.818C122.868 221.818 122.021 221.333 121.9 221.212C121.658 221.091 121.658 220.848 121.779 220.606C121.9 220.364 122.142 220.364 122.384 220.485C122.384 220.485 123.11 220.97 123.837 220.97C124.684 220.97 125.41 220.485 125.41 220.485C125.652 220.364 125.895 220.485 126.016 220.606C126.137 220.848 126.016 221.091 125.895 221.212C125.773 221.333 124.926 221.818 123.837 221.818Z" fill="#FC8664"/>
<path d="M141.026 198.303C140.905 198.667 140.542 198.909 140.058 199.03C140.058 199.879 140.058 200.97 139.937 201.939C139.453 207.758 138 208.727 137.637 207.273C137.395 206.303 137.395 200.848 137.516 199.03C136.426 198.909 135.337 198.788 135.337 198.788L134.005 193.212L133.521 198.788C131.463 199.515 126.863 198.424 126.863 198.424L125.29 192.848L124.321 198.182C121.295 199.636 117.542 198.667 117.542 198.667L116.695 192.97L114.637 198.667C114.637 198.667 108.221 200.97 108.1 198.667C108.1 197.333 109.069 193.576 109.916 190.545C110.763 187.394 112.942 184.606 115.726 183.152C123.716 178.909 132.19 181.091 135.095 182.909C141.269 186.545 141.026 198.303 141.026 198.303Z" fill="#2E3052"/>
<path d="M111.732 186.545C111.732 186.545 106.405 192.848 104.71 204.121C103.016 215.394 100.595 223.758 107.374 227.515C114.758 231.515 114.032 223.273 114.032 221.091C113.91 218.788 107.616 212.727 111.853 195.394C113.063 189.697 111.732 186.545 111.732 186.545Z" fill="#2E3052"/>
<path d="M110.521 209.818C110.521 209.818 110.521 209.939 110.521 209.818C110.521 209.939 110.521 210.424 110.521 211.03C110.521 211.515 110.521 212 110.642 212.606C110.884 216.364 111.61 223.03 113.789 225.212C114.637 226.061 116.332 226.545 118.268 226.788V223.758C116.21 222.788 114.637 221.212 113.426 219.273C112.7 217.576 111.368 215.03 110.763 210.909L110.521 209.818Z" fill="#000B29"/>
<path d="M139.574 213.576C139.574 214.061 139.21 214.545 138.605 214.545C138.121 214.545 137.637 214.182 137.637 213.576C137.637 213.091 138 212.606 138.605 212.606C139.089 212.606 139.574 213.091 139.574 213.576Z" fill="white"/>
<path d="M422.231 132.727H399.231C397.416 132.727 396.084 131.273 396.084 129.576V106.545C396.084 104.727 397.537 103.394 399.231 103.394H422.231C424.047 103.394 425.379 104.848 425.379 106.545V129.576C425.379 131.273 423.926 132.727 422.231 132.727Z" fill="#FFAA01"/>
<path d="M420.658 117.939C420.658 120.364 419.81 122.545 418.358 124.364C416.542 126.545 413.758 128 410.61 128C407.463 128 404.679 126.545 402.863 124.364C401.41 122.667 400.563 120.364 400.563 117.939C400.563 112.364 405.042 107.879 410.61 107.879C416.179 107.879 420.658 112.364 420.658 117.939Z" fill="#FDCC50"/>
<path d="M418.358 124.364C416.542 126.545 413.758 128 410.61 128C407.463 128 404.679 126.545 402.863 124.364L402.984 124.121C403.226 123.636 403.468 123.273 403.831 123.03C404.194 122.667 404.558 122.545 405.042 122.303C406.615 121.818 408.189 121.333 409.036 119.879C407.947 119.394 407.342 118.424 406.979 117.697C405.889 117.939 405.042 115.879 405.647 115.273C405.889 115.03 406.131 115.03 406.373 115.03C406.615 112.849 408.31 111.03 410.489 111.03C412.668 111.03 414.484 112.97 414.605 115.03C414.847 115.03 415.089 115.03 415.331 115.273C415.936 115.879 415.089 117.939 414 117.697C413.758 118.424 412.91 119.394 412.184 119.758C413.031 121.212 414.363 121.818 416.058 122.303C416.542 122.424 416.905 122.667 417.268 123.03C417.631 123.394 417.873 123.758 418.115 124.121L418.358 124.364Z" fill="white"/>
<path d="M40.0683 289.212H17.0683C15.2525 289.212 13.9209 287.758 13.9209 286.061V263.03C13.9209 261.212 15.3735 259.879 17.0683 259.879H40.0683C41.8841 259.879 43.2156 261.333 43.2156 263.03V286.061C43.3367 287.758 41.8841 289.212 40.0683 289.212Z" fill="#FFAA01"/>
<path d="M29.0523 264.727C25.2997 264.485 22.1523 267.515 22.1523 271.152C22.1523 272.364 22.5155 273.455 22.9997 274.424C23.8471 275.879 24.6945 277.333 25.5418 278.788L28.5681 284.242L33.1681 275.879C33.4102 275.394 33.7734 274.909 34.0155 274.424C34.6208 273.455 34.9839 272.242 34.8629 271.03C34.9839 267.758 32.3208 264.97 29.0523 264.727ZM28.5681 273.091C27.1155 273.091 25.905 271.879 25.905 270.424C25.905 268.97 27.1155 267.758 28.5681 267.758C30.0208 267.758 31.2313 268.97 31.2313 270.424C31.3523 271.879 30.1418 273.091 28.5681 273.091Z" fill="white"/>
<path d="M523.31 142.424C526.942 142.424 529.847 145.333 529.847 148.97C529.847 152.606 526.942 155.515 523.31 155.515C519.679 155.515 516.773 152.606 516.773 148.97C516.773 145.333 519.679 142.424 523.31 142.424ZM523.31 153.455C525.852 153.455 527.789 151.394 527.789 148.97C527.789 146.545 525.731 144.485 523.31 144.485C520.768 144.485 518.831 146.545 518.831 148.97C518.831 151.394 520.768 153.455 523.31 153.455Z" fill="#193E9D"/>
<path d="M499.705 119.273C503.337 119.273 506.242 122.182 506.242 125.818C506.242 129.455 503.337 132.364 499.705 132.364C496.074 132.364 493.169 129.455 493.169 125.818C493.047 122.303 496.074 119.273 499.705 119.273ZM499.705 130.424C502.247 130.424 504.184 128.364 504.184 125.939C504.184 123.394 502.126 121.455 499.705 121.455C497.163 121.455 495.226 123.515 495.226 125.939C495.105 128.364 497.163 130.424 499.705 130.424Z" fill="#FFAA01"/>
<path d="M491.595 97.9394C492.2 97.9394 492.684 98.4242 492.684 99.0303V103.636C492.684 104.242 492.2 104.727 491.595 104.727C490.99 104.727 490.505 104.242 490.505 103.636V99.0303C490.505 98.4242 490.99 97.9394 491.595 97.9394Z" fill="#193E9D"/>
<path d="M491.595 90.0606C492.2 90.0606 492.684 90.5454 492.684 91.1515V95.7576C492.684 96.3636 492.2 96.8485 491.595 96.8485C490.99 96.8485 490.505 96.3636 490.505 95.7576V91.1515C490.505 90.4242 490.99 90.0606 491.595 90.0606Z" fill="#193E9D"/>
<path d="M485.179 96.2424H489.295C489.9 96.2424 490.384 96.7273 490.384 97.3333C490.384 97.9394 489.9 98.4242 489.295 98.4242H485.179C484.574 98.4242 484.089 97.9394 484.089 97.3333C484.089 96.7273 484.574 96.2424 485.179 96.2424Z" fill="#193E9D"/>
<path d="M493.895 96.2424H498.01C498.616 96.2424 499.1 96.7273 499.1 97.3333C499.1 97.9394 498.616 98.4242 498.01 98.4242H493.895C493.289 98.4242 492.805 97.9394 492.805 97.3333C492.805 96.7273 493.289 96.2424 493.895 96.2424Z" fill="#193E9D"/>
<path d="M527.79 123.394C528.395 123.394 528.879 123.879 528.879 124.485V129.091C528.879 129.697 528.395 130.182 527.79 130.182C527.184 130.182 526.7 129.697 526.7 129.091V124.485C526.7 123.879 527.184 123.394 527.79 123.394Z" fill="#FFAA01"/>
<path d="M527.79 115.515C528.395 115.515 528.879 116 528.879 116.606V121.212C528.879 121.818 528.395 122.303 527.79 122.303C527.184 122.303 526.7 121.818 526.7 121.212V116.606C526.7 116 527.184 115.515 527.79 115.515Z" fill="#FFAA01"/>
<path d="M521.374 121.697H525.489C526.095 121.697 526.579 122.182 526.579 122.788C526.579 123.394 526.095 123.879 525.489 123.879H521.374C520.768 123.879 520.284 123.394 520.284 122.788C520.405 122.182 520.889 121.697 521.374 121.697Z" fill="#FFAA01"/>
<path d="M530.089 121.697H534.205C534.811 121.697 535.295 122.182 535.295 122.788C535.295 123.394 534.811 123.879 534.205 123.879H530.089C529.484 123.879 529 123.394 529 122.788C529 122.182 529.484 121.697 530.089 121.697Z" fill="#FFAA01"/>
<path d="M116.816 58.4243C120.447 58.4243 123.353 61.3333 123.353 64.9697C123.353 68.6061 120.447 71.5152 116.816 71.5152C113.184 71.5152 110.279 68.6061 110.279 64.9697C110.158 61.4546 113.184 58.4243 116.816 58.4243ZM116.816 60.4849C114.274 60.4849 112.337 62.5455 112.337 64.9697C112.337 67.5152 114.395 69.4545 116.816 69.4545C119.358 69.4545 121.295 67.3939 121.295 64.9697C121.295 62.5455 119.237 60.4849 116.816 60.4849Z" fill="#193E9D"/>
<path d="M92.8474 36.7273C96.4789 36.7273 99.3842 39.6364 99.3842 43.2727C99.3842 46.9091 96.4789 49.8182 92.8474 49.8182C89.2158 49.8182 86.3105 46.9091 86.3105 43.2727C86.3105 39.6364 89.2158 36.7273 92.8474 36.7273ZM92.8474 38.7879C90.3053 38.7879 88.3684 40.8485 88.3684 43.2727C88.3684 45.8182 90.4263 47.7576 92.8474 47.7576C95.3895 47.7576 97.3263 45.697 97.3263 43.2727C97.3263 40.8485 95.3895 38.7879 92.8474 38.7879Z" fill="#FFAA01"/>
<path d="M84.2524 74.303C84.2524 74.9091 84.7367 75.394 85.3419 75.394H89.9419C90.5472 75.394 91.0314 74.9091 91.0314 74.303C91.0314 73.697 90.5472 73.2121 89.9419 73.2121H85.3419C84.6156 73.3333 84.2524 73.697 84.2524 74.303Z" fill="#193E9D"/>
<path d="M76.2632 74.303C76.2632 74.9091 76.7474 75.394 77.3527 75.394H81.9526C82.5579 75.394 83.0421 74.9091 83.0421 74.303C83.0421 73.697 82.5579 73.2121 81.9526 73.2121H77.3527C76.7474 73.3333 76.2632 73.697 76.2632 74.303Z" fill="#193E9D"/>
<path d="M82.5581 67.8788V72C82.5581 72.6061 83.0423 73.0909 83.6476 73.0909C84.2528 73.0909 84.737 72.6061 84.737 72V67.8788C84.737 67.2727 84.2528 66.7879 83.6476 66.7879C83.0423 66.7879 82.5581 67.3939 82.5581 67.8788Z" fill="#193E9D"/>
<path d="M82.5581 76.606V80.7273C82.5581 81.3333 83.0423 81.8182 83.6476 81.8182C84.2528 81.8182 84.737 81.3333 84.737 80.7273V76.606C84.737 76 84.2528 75.5151 83.6476 75.5151C83.0423 75.5151 82.5581 76 82.5581 76.606Z" fill="#193E9D"/>
<path d="M132.311 38.7879C132.311 39.3939 132.795 39.8788 133.4 39.8788H138C138.605 39.8788 139.09 39.3939 139.09 38.7879C139.09 38.1818 138.605 37.697 138 37.697H133.4C132.795 37.8182 132.311 38.1818 132.311 38.7879Z" fill="#FFAA01"/>
<path d="M124.321 38.7879C124.321 39.3939 124.806 39.8788 125.411 39.8788H130.011C130.616 39.8788 131.1 39.3939 131.1 38.7879C131.1 38.1818 130.616 37.697 130.011 37.697H125.411C124.806 37.8182 124.321 38.1818 124.321 38.7879Z" fill="#FFAA01"/>
<path d="M130.616 32.3636V36.4849C130.616 37.0909 131.1 37.5758 131.706 37.5758C132.311 37.5758 132.795 37.0909 132.795 36.4849V32.3636C132.795 31.7576 132.311 31.2727 131.706 31.2727C131.1 31.3939 130.616 31.8788 130.616 32.3636Z" fill="#FFAA01"/>
<path d="M130.616 41.0909V45.2121C130.616 45.8182 131.1 46.303 131.706 46.303C132.311 46.303 132.795 45.8182 132.795 45.2121V41.0909C132.795 40.4849 132.311 40 131.706 40C131.1 40.1212 130.616 40.4849 130.616 41.0909Z" fill="#FFAA01"/>
<path d="M406.01 70.5455C406.131 70.5455 406.252 70.5455 406.495 70.5455C408.068 70.1818 408.916 70.0606 408.916 70.0606C409.4 69.9394 409.642 69.5758 409.642 69.0909C409.521 68.6061 409.158 68.3637 408.673 68.4849C408.673 68.4849 407.705 68.6061 406.131 69.0909C405.647 69.2121 405.405 69.697 405.526 70.0606C405.405 70.3031 405.647 70.4243 406.01 70.5455Z" fill="#DCEDF9"/>
<path d="M355.531 108C354.684 109.333 353.958 110.788 353.231 112.242C353.11 112.606 352.626 112.727 352.263 112.727H352.142C351.658 112.485 351.537 112 351.779 111.636C352.505 110.182 353.352 108.727 354.2 107.273C354.442 106.909 354.926 106.788 355.41 106.909C355.652 107.03 355.773 107.515 355.531 108Z" fill="#DCEDF9"/>
<path d="M351.173 116.606C350.568 118.061 349.963 119.636 349.358 121.091C349.237 121.455 348.752 121.697 348.268 121.576C348.268 121.576 348.268 121.576 348.147 121.576C347.663 121.455 347.421 120.97 347.663 120.485C348.268 118.909 348.873 117.333 349.479 115.879C349.6 115.515 350.205 115.273 350.568 115.394C351.173 115.758 351.415 116.242 351.173 116.606Z" fill="#DCEDF9"/>
<path d="M343.789 140.485C343.426 140.364 343.063 140 343.184 139.636C343.426 138.061 343.668 136.364 343.91 134.788C344.031 134.303 344.394 134.061 344.879 134.182C345.363 134.303 345.726 134.667 345.605 135.152C345.363 136.727 345 138.303 344.879 139.879C344.879 140.242 344.394 140.606 343.789 140.485C343.91 140.485 343.91 140.485 343.789 140.485Z" fill="#DCEDF9"/>
<path d="M347.3 124.727C347.784 124.849 348.026 125.333 347.905 125.697C347.663 126.424 347.542 127.152 347.3 127.879C347.057 128.727 346.815 129.576 346.694 130.424C346.573 130.909 346.089 131.152 345.605 131.03C345.121 130.909 344.879 130.545 345 130.061C345.242 129.212 345.363 128.364 345.605 127.515C345.847 126.788 345.968 126.061 346.21 125.333C346.331 124.849 346.815 124.606 347.3 124.727Z" fill="#DCEDF9"/>
<path d="M358.194 103.758C357.952 104.121 357.589 104.242 357.226 104.121C357.105 104.121 357.105 104.121 356.984 104C356.621 103.758 356.5 103.273 356.742 102.909C357.71 101.576 358.679 100.121 359.647 98.9091C359.889 98.5455 360.494 98.4243 360.857 98.6667C361.221 98.9091 361.342 99.394 361.1 99.7576C360.01 101.091 359.042 102.424 358.194 103.758Z" fill="#DCEDF9"/>
<path d="M401.531 71.8788C399.958 72.3637 398.384 72.9697 396.81 73.5758C396.689 73.697 396.447 73.697 396.326 73.5758C396.084 73.4546 395.842 73.3334 395.721 73.0909C395.479 72.7273 395.721 72.2424 396.205 72C397.779 71.394 399.474 70.7879 401.047 70.303C401.531 70.1818 402.016 70.4243 402.137 70.7879C402.258 71.2727 402.016 71.7576 401.531 71.8788Z" fill="#DCEDF9"/>
<path d="M387.61 77.8182C387.368 77.9394 387.126 77.9394 387.005 77.9394C386.763 77.9394 386.521 77.697 386.4 77.5758C386.158 77.2121 386.279 76.7273 386.763 76.4848C388.216 75.6364 389.789 74.9091 391.363 74.1818C391.847 73.9394 392.331 74.1818 392.574 74.5454C392.816 74.9091 392.574 75.3939 392.21 75.6364C390.637 76.2424 389.063 76.9697 387.61 77.8182Z" fill="#DCEDF9"/>
<path d="M371.147 89.0909C370.905 89.3334 370.663 89.3334 370.3 89.3334C370.179 89.3334 370.057 89.2122 369.936 89.0909C369.573 88.7273 369.573 88.2425 369.936 87.8788C371.147 86.7879 372.479 85.697 373.81 84.6061C374.173 84.3637 374.779 84.3637 375.021 84.7273C375.384 85.0909 375.263 85.5758 374.9 85.8182C373.689 86.9091 372.357 88 371.147 89.0909Z" fill="#DCEDF9"/>
<path d="M379.016 82.9091C378.773 83.0303 378.531 83.1515 378.289 83.0303C378.047 83.0303 377.926 82.9091 377.805 82.6667C377.563 82.3031 377.563 81.8182 378.047 81.5758C379.5 80.6061 380.831 79.6364 382.405 78.7879C382.768 78.5455 383.373 78.6667 383.616 79.0303C383.858 79.394 383.737 79.8788 383.373 80.1212C381.8 81.0909 380.347 82.0606 379.016 82.9091Z" fill="#DCEDF9"/>
<path d="M364.126 96C363.884 96.2425 363.521 96.3637 363.278 96.2425C363.157 96.2425 363.036 96.1212 362.915 96.1212C362.552 95.8788 362.552 95.2728 362.794 95.0303C363.884 93.8182 365.094 92.4849 366.184 91.394C366.547 91.0303 367.031 91.0303 367.394 91.394C367.757 91.7576 367.757 92.2425 367.394 92.6061C366.305 93.5758 365.215 94.7879 364.126 96Z" fill="#DCEDF9"/>
<path d="M406.858 64.9697L405.163 51.394L451.163 58.0606L406.858 64.9697Z" fill="#193E9D"/>
<path d="M451.163 58.0606L408.674 68.4848H408.552L406.374 70.9091L406.858 64.9697L451.163 58.0606Z" fill="#09335B"/>
<path d="M406.374 70.9091H410.247L408.552 68.4849L406.374 70.9091Z" fill="#245DAC"/>
<path d="M413.879 67.1515L408.553 68.4848L417.269 80.9697L451.163 58.0606L413.879 67.1515Z" fill="#193E9D"/>
</g>
<defs>
<filter id="filter0_d" x="-13.8022" y="43.6781" width="539.58" height="399.716" filterUnits="userSpaceOnUse" color-interpolation-filters="sRGB">
<feFlood flood-opacity="0" result="BackgroundImageFix"/>
<feColorMatrix in="SourceAlpha" type="matrix" values="0 0 0 0 0 0 0 0 0 0 0 0 0 0 0 0 0 0 127 0"/>
<feOffset dy="-10"/>
<feGaussianBlur stdDeviation="9"/>
<feColorMatrix type="matrix" values="0 0 0 0 1 0 0 0 0 1 0 0 0 0 1 0 0 0 0.25 0"/>
<feBlend mode="normal" in2="BackgroundImageFix" result="effect1_dropShadow"/>
<feBlend mode="normal" in="SourceGraphic" in2="effect1_dropShadow" result="shape"/>
</filter>
<clipPath id="clip0">
<rect width="552" height="456" fill="white"/>
</clipPath>
</defs>
</svg>
