<svg width="616" height="644" viewBox="0 0 616 644" fill="none" xmlns="http://www.w3.org/2000/svg">
<g filter="url(#filter0_d)">
<path d="M588 187.407L566.22 583.677L290.676 569.773L292.986 527.744L312.455 173.503L486.032 182.035L588 187.407Z" fill="white"/>
<path opacity="0.2" d="M501.873 419.67L439.834 424.41L457.984 499.303L292.987 527.744L312.456 173.503L486.033 182.035L501.873 419.67Z" fill="black" fill-opacity="0.7"/>
<path d="M588 187.407L566.22 583.677L290.676 569.773L292.986 527.744L312.455 173.503L486.032 182.035L588 187.407Z" stroke="#2D2338" stroke-miterlimit="10" stroke-linecap="round" stroke-linejoin="round"/>
<path d="M331.925 200.679L403.534 204.155" stroke="#2D2338" stroke-width="2" stroke-miterlimit="10" stroke-linecap="round" stroke-linejoin="round"/>
<path d="M331.266 213.635L379.775 216.163" stroke="#2D2338" stroke-width="2" stroke-miterlimit="10" stroke-linecap="round" stroke-linejoin="round"/>
<path d="M346.775 245.552L553.021 255.98" stroke="#2D2338" stroke-width="2" stroke-miterlimit="10" stroke-linecap="round" stroke-linejoin="round"/>
<path d="M346.115 258.824L552.361 269.252" stroke="#2D2338" stroke-width="2" stroke-miterlimit="10" stroke-linecap="round" stroke-linejoin="round"/>
<path d="M345.455 274.308L521.342 283.156" stroke="#2D2338" stroke-width="2" stroke-miterlimit="10" stroke-linecap="round" stroke-linejoin="round"/>
<path d="M362.367 289.259L345.561 288.421L344.669 304.515L361.475 305.352L362.367 289.259Z" stroke="#2D2338" stroke-miterlimit="10" stroke-linecap="round" stroke-linejoin="round"/>
<path d="M392.74 290.529L375.934 289.684L375.051 305.777L391.857 306.623L392.74 290.529Z" stroke="#2D2338" stroke-miterlimit="10" stroke-linecap="round" stroke-linejoin="round"/>
<path d="M423.095 292.106L406.289 291.261L405.406 307.355L422.213 308.2L423.095 292.106Z" stroke="#2D2338" stroke-miterlimit="10" stroke-linecap="round" stroke-linejoin="round"/>
<path d="M453.452 293.684L436.646 292.839L435.763 308.932L452.569 309.778L453.452 293.684Z" stroke="#2D2338" stroke-miterlimit="10" stroke-linecap="round" stroke-linejoin="round"/>
<path d="M335.886 245.236C335.886 247.448 333.906 249.028 331.596 249.028C329.286 249.028 327.636 247.132 327.636 244.92C327.636 242.708 329.616 241.128 331.926 241.128C334.236 241.128 335.886 243.024 335.886 245.236Z" fill="#2D2338"/>
<path d="M342.814 322.657L549.061 333.085" stroke="#2D2338" stroke-width="2" stroke-miterlimit="10" stroke-linecap="round" stroke-linejoin="round"/>
<path d="M341.825 335.929L548.071 346.041" stroke="#2D2338" stroke-width="2" stroke-miterlimit="10" stroke-linecap="round" stroke-linejoin="round"/>
<path d="M341.165 351.097L517.052 359.945" stroke="#2D2338" stroke-width="2" stroke-miterlimit="10" stroke-linecap="round" stroke-linejoin="round"/>
<path d="M358.082 366.042L341.275 365.205L340.384 381.298L357.191 382.135L358.082 366.042Z" stroke="#2D2338" stroke-miterlimit="10" stroke-linecap="round" stroke-linejoin="round"/>
<path d="M388.437 367.628L371.631 366.782L370.748 382.876L387.554 383.721L388.437 367.628Z" stroke="#2D2338" stroke-miterlimit="10" stroke-linecap="round" stroke-linejoin="round"/>
<path d="M418.793 369.205L401.987 368.36L401.104 384.454L417.91 385.299L418.793 369.205Z" stroke="#2D2338" stroke-miterlimit="10" stroke-linecap="round" stroke-linejoin="round"/>
<path d="M449.166 370.468L432.36 369.622L431.477 385.716L448.283 386.561L449.166 370.468Z" stroke="#2D2338" stroke-miterlimit="10" stroke-linecap="round" stroke-linejoin="round"/>
<path d="M331.596 322.025C331.596 324.237 329.616 325.817 327.306 325.817C324.996 325.817 323.346 323.921 323.346 321.709C323.346 319.497 325.326 317.917 327.636 317.917C329.946 317.917 331.926 319.813 331.596 322.025Z" fill="#2D2338"/>
<path d="M338.525 399.446L544.771 409.874" stroke="#2D2338" stroke-width="2" stroke-miterlimit="10" stroke-linecap="round" stroke-linejoin="round"/>
<path d="M337.866 412.718L544.112 423.146" stroke="#2D2338" stroke-width="2" stroke-miterlimit="10" stroke-linecap="round" stroke-linejoin="round"/>
<path d="M336.876 427.886L512.763 436.735" stroke="#2D2338" stroke-width="2" stroke-miterlimit="10" stroke-linecap="round" stroke-linejoin="round"/>
<path d="M353.798 442.827L336.991 441.989L336.099 458.082L352.906 458.92L353.798 442.827Z" stroke="#2D2338" stroke-miterlimit="10" stroke-linecap="round" stroke-linejoin="round"/>
<path d="M384.153 444.413L367.347 443.567L366.464 459.661L383.27 460.506L384.153 444.413Z" stroke="#2D2338" stroke-miterlimit="10" stroke-linecap="round" stroke-linejoin="round"/>
<path d="M414.509 445.989L397.703 445.144L396.82 461.238L413.626 462.083L414.509 445.989Z" stroke="#2D2338" stroke-miterlimit="10" stroke-linecap="round" stroke-linejoin="round"/>
<path d="M444.865 447.568L428.059 446.723L427.176 462.816L443.982 463.662L444.865 447.568Z" stroke="#2D2338" stroke-miterlimit="10" stroke-linecap="round" stroke-linejoin="round"/>
<path d="M327.636 398.814C327.636 401.026 325.656 402.606 323.346 402.606C321.036 402.606 319.386 400.71 319.386 398.498C319.386 396.286 321.366 394.706 323.676 394.706C325.986 394.706 327.636 396.602 327.636 398.814Z" fill="#2D2338"/>
<path d="M334.235 478.447L540.481 488.875" stroke="#2D2338" stroke-width="2" stroke-miterlimit="10" stroke-linecap="round" stroke-linejoin="round"/>
<path d="M333.245 491.719L539.491 502.147" stroke="#2D2338" stroke-width="2" stroke-miterlimit="10" stroke-linecap="round" stroke-linejoin="round"/>
<path d="M332.585 507.203L508.472 516.052" stroke="#2D2338" stroke-width="2" stroke-miterlimit="10" stroke-linecap="round" stroke-linejoin="round"/>
<path d="M349.513 521.827L332.706 520.99L331.815 537.084L348.621 537.92L349.513 521.827Z" stroke="#2D2338" stroke-miterlimit="10" stroke-linecap="round" stroke-linejoin="round"/>
<path d="M379.868 523.414L363.062 522.569L362.179 538.662L378.985 539.508L379.868 523.414Z" stroke="#2D2338" stroke-miterlimit="10" stroke-linecap="round" stroke-linejoin="round"/>
<path d="M410.224 524.992L393.417 524.147L392.534 540.24L409.341 541.086L410.224 524.992Z" stroke="#2D2338" stroke-miterlimit="10" stroke-linecap="round" stroke-linejoin="round"/>
<path d="M440.581 526.57L423.774 525.725L422.891 541.818L439.698 542.664L440.581 526.57Z" stroke="#2D2338" stroke-miterlimit="10" stroke-linecap="round" stroke-linejoin="round"/>
<path d="M323.015 478.131C323.015 480.343 321.035 481.923 318.725 481.923C316.415 481.923 314.765 480.027 314.765 477.815C314.765 475.603 316.745 474.023 319.055 474.023C321.365 474.023 323.345 475.919 323.015 478.131Z" fill="#2D2338"/>
<path d="M351.065 295.164L353.375 298.641L362.285 289.16" stroke="#2D2338" stroke-width="2" stroke-miterlimit="10" stroke-linecap="round" stroke-linejoin="round"/>
<path d="M407.823 373.85L409.803 377.642L418.713 368.161" stroke="#2D2338" stroke-width="2" stroke-miterlimit="10" stroke-linecap="round" stroke-linejoin="round"/>
<path d="M436.203 455.063L438.183 458.855L447.422 449.375" stroke="#2D2338" stroke-width="2" stroke-miterlimit="10" stroke-linecap="round" stroke-linejoin="round"/>
<path d="M368.885 527.428L370.865 531.22L380.105 521.74" stroke="#2D2338" stroke-width="2" stroke-miterlimit="10" stroke-linecap="round" stroke-linejoin="round"/>
<path d="M404.853 471.495L138.878 542.28L28 159.598L138.218 130.526L293.975 89.1293L394.623 436.102L404.853 471.495Z" fill="white"/>
<path opacity="0.2" d="M394.623 436.102L189.037 448.743L138.218 130.526L293.975 89.1293L394.623 436.102Z" fill="black" fill-opacity="0.7"/>
<path d="M404.853 471.495L138.878 542.28L28 159.598L138.218 130.526L293.975 89.1293L394.623 436.102L404.853 471.495Z" stroke="#2D2338" stroke-miterlimit="10" stroke-linecap="round" stroke-linejoin="round"/>
<path d="M55.3896 179.507L124.688 161.178" stroke="#2D2338" stroke-width="2" stroke-miterlimit="10" stroke-linecap="round" stroke-linejoin="round"/>
<path d="M59.019 192.147L106.208 179.823" stroke="#2D2338" stroke-width="2" stroke-miterlimit="10" stroke-linecap="round" stroke-linejoin="round"/>
<path d="M84.7593 217.743L283.745 164.97" stroke="#2D2338" stroke-width="2" stroke-miterlimit="10" stroke-linecap="round" stroke-linejoin="round"/>
<path d="M88.3887 230.383L287.375 177.611" stroke="#2D2338" stroke-width="2" stroke-miterlimit="10" stroke-linecap="round" stroke-linejoin="round"/>
<path d="M92.6787 245.236L262.295 200.047" stroke="#2D2338" stroke-width="2" stroke-miterlimit="10" stroke-linecap="round" stroke-linejoin="round"/>
<path d="M113.563 254.461L97.3521 258.79L101.841 274.322L118.052 269.992L113.563 254.461Z" stroke="#2D2338" stroke-miterlimit="10" stroke-linecap="round" stroke-linejoin="round"/>
<path d="M142.922 246.562L126.707 250.877L131.212 266.405L147.428 262.09L142.922 246.562Z" stroke="#2D2338" stroke-miterlimit="10" stroke-linecap="round" stroke-linejoin="round"/>
<path d="M172.264 238.656L156.049 242.971L160.554 258.499L176.77 254.184L172.264 238.656Z" stroke="#2D2338" stroke-miterlimit="10" stroke-linecap="round" stroke-linejoin="round"/>
<path d="M201.606 230.75L185.39 235.065L189.895 250.593L206.111 246.278L201.606 230.75Z" stroke="#2D2338" stroke-miterlimit="10" stroke-linecap="round" stroke-linejoin="round"/>
<path d="M74.1995 220.587C74.8595 222.799 73.5395 225.011 71.2296 225.643C68.9196 226.275 66.6097 225.011 65.9497 222.799C65.2897 220.587 66.6097 218.375 68.9196 217.743C71.2296 217.111 73.5395 218.375 74.1995 220.587Z" fill="#2D2338"/>
<path d="M106.208 292.004L305.195 238.915" stroke="#2D2338" stroke-width="2" stroke-miterlimit="10" stroke-linecap="round" stroke-linejoin="round"/>
<path d="M109.838 304.645L308.824 251.872" stroke="#2D2338" stroke-width="2" stroke-miterlimit="10" stroke-linecap="round" stroke-linejoin="round"/>
<path d="M114.128 319.497L284.075 274.308" stroke="#2D2338" stroke-width="2" stroke-miterlimit="10" stroke-linecap="round" stroke-linejoin="round"/>
<path d="M135.276 328.344L119.065 332.674L123.555 348.206L139.765 343.876L135.276 328.344Z" stroke="#2D2338" stroke-miterlimit="10" stroke-linecap="round" stroke-linejoin="round"/>
<path d="M164.7 320.764L148.484 325.078L152.99 340.606L169.205 336.292L164.7 320.764Z" stroke="#2D2338" stroke-miterlimit="10" stroke-linecap="round" stroke-linejoin="round"/>
<path d="M193.725 312.943L177.509 317.258L182.015 332.786L198.23 328.471L193.725 312.943Z" stroke="#2D2338" stroke-miterlimit="10" stroke-linecap="round" stroke-linejoin="round"/>
<path d="M223.081 305.028L206.865 309.343L211.37 324.87L227.586 320.556L223.081 305.028Z" stroke="#2D2338" stroke-miterlimit="10" stroke-linecap="round" stroke-linejoin="round"/>
<path d="M95.6487 294.848C96.3087 297.06 94.9888 299.273 92.6788 299.905C90.3688 300.537 88.0589 299.272 87.3989 297.06C86.7389 294.848 88.0589 292.636 90.3688 292.004C92.6788 291.372 94.9888 292.636 95.6487 294.848Z" fill="#2D2338"/>
<path d="M127.658 366.265L326.644 313.177" stroke="#2D2338" stroke-width="2" stroke-miterlimit="10" stroke-linecap="round" stroke-linejoin="round"/>
<path d="M131.618 378.906L330.274 325.817" stroke="#2D2338" stroke-width="2" stroke-miterlimit="10" stroke-linecap="round" stroke-linejoin="round"/>
<path d="M135.909 393.758L305.526 348.569" stroke="#2D2338" stroke-width="2" stroke-miterlimit="10" stroke-linecap="round" stroke-linejoin="round"/>
<path d="M156.737 402.629L140.526 406.958L145.016 422.49L161.226 418.16L156.737 402.629Z" stroke="#2D2338" stroke-miterlimit="10" stroke-linecap="round" stroke-linejoin="round"/>
<path d="M186.095 394.732L169.88 399.046L174.385 414.574L190.601 410.26L186.095 394.732Z" stroke="#2D2338" stroke-miterlimit="10" stroke-linecap="round" stroke-linejoin="round"/>
<path d="M215.513 387.137L199.298 391.452L203.803 406.979L220.019 402.665L215.513 387.137Z" stroke="#2D2338" stroke-miterlimit="10" stroke-linecap="round" stroke-linejoin="round"/>
<path d="M244.856 379.232L228.641 383.546L233.146 399.074L249.361 394.76L244.856 379.232Z" stroke="#2D2338" stroke-miterlimit="10" stroke-linecap="round" stroke-linejoin="round"/>
<path d="M117.098 369.11C117.758 371.322 116.438 373.534 114.128 374.166C111.819 374.798 109.509 373.534 108.849 371.322C108.189 369.109 109.509 366.898 111.819 366.266C114.128 365.634 116.438 366.898 117.098 369.11Z" fill="#2D2338"/>
<path d="M149.767 442.423L348.753 389.334" stroke="#2D2338" stroke-width="2" stroke-miterlimit="10" stroke-linecap="round" stroke-linejoin="round"/>
<path d="M153.727 455.063L352.713 402.29" stroke="#2D2338" stroke-width="2" stroke-miterlimit="10" stroke-linecap="round" stroke-linejoin="round"/>
<path d="M158.018 469.915L327.634 424.726" stroke="#2D2338" stroke-width="2" stroke-miterlimit="10" stroke-linecap="round" stroke-linejoin="round"/>
<path d="M178.818 478.793L162.608 483.123L167.097 498.654L183.308 494.325L178.818 478.793Z" stroke="#2D2338" stroke-miterlimit="10" stroke-linecap="round" stroke-linejoin="round"/>
<path d="M208.253 471.207L192.038 475.521L196.543 491.049L212.758 486.735L208.253 471.207Z" stroke="#2D2338" stroke-miterlimit="10" stroke-linecap="round" stroke-linejoin="round"/>
<path d="M237.595 463.301L221.379 467.615L225.885 483.143L242.1 478.829L237.595 463.301Z" stroke="#2D2338" stroke-miterlimit="10" stroke-linecap="round" stroke-linejoin="round"/>
<path d="M266.936 455.395L250.721 459.709L255.226 475.237L271.442 470.923L266.936 455.395Z" stroke="#2D2338" stroke-miterlimit="10" stroke-linecap="round" stroke-linejoin="round"/>
<path d="M139.207 445.267C139.867 447.479 138.547 449.691 136.237 450.323C133.927 450.955 131.617 449.691 130.957 447.479C130.298 445.267 131.617 443.055 133.927 442.423C136.237 441.791 138.547 443.055 139.207 445.267Z" fill="#2D2338"/>
<path d="M132.607 255.98L135.907 258.508L141.187 246.816" stroke="#2D2338" stroke-width="2" stroke-miterlimit="10" stroke-linecap="round" stroke-linejoin="round"/>
<path d="M124.688 338.773L127.987 341.301L133.267 329.609" stroke="#2D2338" stroke-width="2" stroke-miterlimit="10" stroke-linecap="round" stroke-linejoin="round"/>
<path d="M146.138 412.086L149.438 414.93L154.718 403.238" stroke="#2D2338" stroke-width="2" stroke-miterlimit="10" stroke-linecap="round" stroke-linejoin="round"/>
<path d="M226.986 472.127L230.286 474.971L235.566 463.279" stroke="#2D2338" stroke-width="2" stroke-miterlimit="10" stroke-linecap="round" stroke-linejoin="round"/>
<path d="M430.91 0.598862L156.305 25.8578L195.965 421.249L470.571 395.99L430.91 0.598862Z" fill="white" stroke="#2D2338" stroke-miterlimit="10" stroke-linecap="round" stroke-linejoin="round"/>
<path d="M179.468 49.9448L251.076 43.3087" stroke="#2D2338" stroke-width="2" stroke-miterlimit="10" stroke-linecap="round" stroke-linejoin="round"/>
<path d="M180.787 63.217L229.626 58.7929" stroke="#2D2338" stroke-width="2" stroke-miterlimit="10" stroke-linecap="round" stroke-linejoin="round"/>
<path d="M201.577 92.6055L407.163 73.6451" stroke="#2D2338" stroke-width="2" stroke-miterlimit="10" stroke-linecap="round" stroke-linejoin="round"/>
<path d="M202.897 105.562L408.483 86.9173" stroke="#2D2338" stroke-width="2" stroke-miterlimit="10" stroke-linecap="round" stroke-linejoin="round"/>
<path d="M204.216 121.046L379.773 104.93" stroke="#2D2338" stroke-width="2" stroke-miterlimit="10" stroke-linecap="round" stroke-linejoin="round"/>
<path d="M223.159 133.271L206.407 134.812L208.017 150.854L224.769 149.313L223.159 133.271Z" stroke="#2D2338" stroke-miterlimit="10" stroke-linecap="round" stroke-linejoin="round"/>
<path d="M253.512 130.421L236.759 131.962L238.368 148.004L255.121 146.463L253.512 130.421Z" stroke="#2D2338" stroke-miterlimit="10" stroke-linecap="round" stroke-linejoin="round"/>
<path d="M283.896 127.887L267.144 129.428L268.753 145.47L285.505 143.929L283.896 127.887Z" stroke="#2D2338" stroke-miterlimit="10" stroke-linecap="round" stroke-linejoin="round"/>
<path d="M314.25 125.038L297.498 126.579L299.107 142.621L315.859 141.08L314.25 125.038Z" stroke="#2D2338" stroke-miterlimit="10" stroke-linecap="round" stroke-linejoin="round"/>
<path d="M190.357 93.5534C190.687 95.7654 189.037 97.6615 186.727 97.9775C184.417 98.2935 182.437 96.7134 182.107 94.5014C181.777 92.2894 183.427 90.3933 185.737 90.0773C188.377 89.7613 190.357 91.3413 190.357 93.5534Z" fill="#2D2338"/>
<path d="M209.167 169.079L414.753 150.434" stroke="#2D2338" stroke-width="2" stroke-miterlimit="10" stroke-linecap="round" stroke-linejoin="round"/>
<path d="M210.487 182.351L416.073 163.39" stroke="#2D2338" stroke-width="2" stroke-miterlimit="10" stroke-linecap="round" stroke-linejoin="round"/>
<path d="M212.137 197.519L387.363 181.403" stroke="#2D2338" stroke-width="2" stroke-miterlimit="10" stroke-linecap="round" stroke-linejoin="round"/>
<path d="M231.094 210.035L214.342 211.576L215.951 227.618L232.703 226.078L231.094 210.035Z" stroke="#2D2338" stroke-miterlimit="10" stroke-linecap="round" stroke-linejoin="round"/>
<path d="M261.448 207.186L244.695 208.727L246.304 224.77L263.057 223.229L261.448 207.186Z" stroke="#2D2338" stroke-miterlimit="10" stroke-linecap="round" stroke-linejoin="round"/>
<path d="M291.47 204.367L274.718 205.908L276.327 221.95L293.079 220.409L291.47 204.367Z" stroke="#2D2338" stroke-miterlimit="10" stroke-linecap="round" stroke-linejoin="round"/>
<path d="M321.825 201.52L305.073 203.062L306.682 219.104L323.434 217.562L321.825 201.52Z" stroke="#2D2338" stroke-miterlimit="10" stroke-linecap="round" stroke-linejoin="round"/>
<path d="M198.277 170.343C198.607 172.555 196.957 174.451 194.647 174.767C192.337 175.083 190.357 173.503 190.027 171.291C189.697 169.079 191.347 167.183 193.657 166.867C195.967 166.234 197.947 168.131 198.277 170.343Z" fill="#2D2338"/>
<path d="M216.756 245.868L422.342 226.907" stroke="#2D2338" stroke-width="2" stroke-miterlimit="10" stroke-linecap="round" stroke-linejoin="round"/>
<path d="M218.077 258.824L423.663 240.18" stroke="#2D2338" stroke-width="2" stroke-miterlimit="10" stroke-linecap="round" stroke-linejoin="round"/>
<path d="M219.727 274.308L394.953 258.192" stroke="#2D2338" stroke-width="2" stroke-miterlimit="10" stroke-linecap="round" stroke-linejoin="round"/>
<path d="M238.667 286.516L221.915 288.057L223.524 304.099L240.276 302.558L238.667 286.516Z" stroke="#2D2338" stroke-miterlimit="10" stroke-linecap="round" stroke-linejoin="round"/>
<path d="M269.052 283.983L252.3 285.524L253.909 301.566L270.661 300.025L269.052 283.983Z" stroke="#2D2338" stroke-miterlimit="10" stroke-linecap="round" stroke-linejoin="round"/>
<path d="M299.404 281.13L282.652 282.671L284.261 298.713L301.013 297.172L299.404 281.13Z" stroke="#2D2338" stroke-miterlimit="10" stroke-linecap="round" stroke-linejoin="round"/>
<path d="M329.758 278.282L313.005 279.823L314.614 295.865L331.367 294.325L329.758 278.282Z" stroke="#2D2338" stroke-miterlimit="10" stroke-linecap="round" stroke-linejoin="round"/>
<path d="M205.867 246.816C206.197 249.028 204.547 250.924 202.237 251.24C199.927 251.556 197.947 249.976 197.617 247.764C197.287 245.552 198.937 243.656 201.247 243.34C203.557 243.024 205.537 244.604 205.867 246.816Z" fill="#2D2338"/>
<path d="M224.676 324.553L430.262 305.909" stroke="#2D2338" stroke-width="2" stroke-miterlimit="10" stroke-linecap="round" stroke-linejoin="round"/>
<path d="M225.996 337.825L431.582 318.865" stroke="#2D2338" stroke-width="2" stroke-miterlimit="10" stroke-linecap="round" stroke-linejoin="round"/>
<path d="M227.646 352.993L402.872 336.877" stroke="#2D2338" stroke-width="2" stroke-miterlimit="10" stroke-linecap="round" stroke-linejoin="round"/>
<path d="M246.603 365.515L229.851 367.055L231.46 383.097L248.212 381.557L246.603 365.515Z" stroke="#2D2338" stroke-miterlimit="10" stroke-linecap="round" stroke-linejoin="round"/>
<path d="M276.957 362.665L260.205 364.206L261.814 380.249L278.566 378.708L276.957 362.665Z" stroke="#2D2338" stroke-miterlimit="10" stroke-linecap="round" stroke-linejoin="round"/>
<path d="M307.309 359.817L290.556 361.358L292.165 377.4L308.918 375.859L307.309 359.817Z" stroke="#2D2338" stroke-miterlimit="10" stroke-linecap="round" stroke-linejoin="round"/>
<path d="M337.333 356.996L320.581 358.537L322.19 374.579L338.942 373.039L337.333 356.996Z" stroke="#2D2338" stroke-miterlimit="10" stroke-linecap="round" stroke-linejoin="round"/>
<path d="M213.786 325.817C214.116 328.029 212.466 329.925 210.156 330.241C207.846 330.557 205.866 328.977 205.536 326.765C205.206 324.553 206.856 322.657 209.166 322.341C211.476 321.709 213.456 323.605 213.786 325.817Z" fill="#2D2338"/>
<path d="M213.127 140.638L215.767 144.114L223.357 133.37" stroke="#2D2338" stroke-width="2" stroke-miterlimit="10" stroke-linecap="round" stroke-linejoin="round"/>
<path d="M281.435 210.791L284.075 213.951L291.665 203.523" stroke="#2D2338" stroke-width="2" stroke-miterlimit="10" stroke-linecap="round" stroke-linejoin="round"/>
<path d="M258.996 292.005L261.636 295.165L268.895 284.421" stroke="#2D2338" stroke-width="2" stroke-miterlimit="10" stroke-linecap="round" stroke-linejoin="round"/>
<path d="M326.975 364.369L329.615 367.846L337.204 357.101" stroke="#2D2338" stroke-width="2" stroke-miterlimit="10" stroke-linecap="round" stroke-linejoin="round"/>
</g>
<defs>
<filter id="filter0_d" x="0.5" y="0.0992432" width="615" height="643.078" filterUnits="userSpaceOnUse" color-interpolation-filters="sRGB">
<feFlood flood-opacity="0" result="BackgroundImageFix"/>
<feColorMatrix in="SourceAlpha" type="matrix" values="0 0 0 0 0 0 0 0 0 0 0 0 0 0 0 0 0 0 127 0"/>
<feOffset dy="32"/>
<feGaussianBlur stdDeviation="13.5"/>
<feColorMatrix type="matrix" values="0 0 0 0 0 0 0 0 0 0 0 0 0 0 0 0 0 0 0.25 0"/>
<feBlend mode="normal" in2="BackgroundImageFix" result="effect1_dropShadow"/>
<feBlend mode="normal" in="SourceGraphic" in2="effect1_dropShadow" result="shape"/>
</filter>
</defs>
</svg>
