<svg width="34" height="34" viewBox="0 0 34 34" fill="none" xmlns="http://www.w3.org/2000/svg">
<path fill-rule="evenodd" clip-rule="evenodd" d="M10.5754 1.51013C12.2371 1.43363 12.767 1.41663 17 1.41663C21.233 1.41663 21.7628 1.43504 23.4231 1.51013C25.0835 1.58521 26.2168 1.85013 27.2085 2.23404C28.2469 2.62646 29.189 3.23988 29.9681 4.03321C30.7615 4.81096 31.3735 5.75163 31.7645 6.79146C32.1498 7.78313 32.4133 8.91646 32.4898 10.574C32.5663 12.2385 32.5833 12.7684 32.5833 17C32.5833 21.233 32.5649 21.7628 32.4898 23.4245C32.4147 25.082 32.1498 26.2154 31.7645 27.207C31.3734 28.247 30.7604 29.1892 29.9681 29.9681C29.189 30.7615 28.2469 31.3735 27.2085 31.7645C26.2168 32.1498 25.0835 32.4133 23.426 32.4898C21.7628 32.5663 21.233 32.5833 17 32.5833C12.767 32.5833 12.2371 32.5649 10.5754 32.4898C8.91788 32.4147 7.78454 32.1498 6.79288 31.7645C5.75293 31.3734 4.8107 30.7604 4.03179 29.9681C3.239 29.1899 2.62549 28.2481 2.23404 27.2085C1.85013 26.2168 1.58663 25.0835 1.51013 23.426C1.43363 21.7614 1.41663 21.2315 1.41663 17C1.41663 12.767 1.43504 12.2371 1.51013 10.5768C1.58521 8.91646 1.85013 7.78313 2.23404 6.79146C2.62607 5.75174 3.24004 4.80999 4.03321 4.03179C4.81102 3.23917 5.75229 2.62567 6.79146 2.23404C7.78313 1.85013 8.91646 1.58663 10.574 1.51013H10.5754ZM23.297 4.31513C21.6537 4.24004 21.1607 4.22446 17 4.22446C12.8392 4.22446 12.3462 4.24004 10.7029 4.31513C9.18279 4.38454 8.35829 4.63813 7.80863 4.85204C7.08188 5.13538 6.56196 5.47113 6.01654 6.01654C5.49952 6.51953 5.10163 7.13186 4.85204 7.80863C4.63813 8.35829 4.38454 9.18279 4.31513 10.7029C4.24004 12.3462 4.22446 12.8392 4.22446 17C4.22446 21.1607 4.24004 21.6537 4.31513 23.297C4.38454 24.8171 4.63813 25.6416 4.85204 26.1913C5.10138 26.867 5.49946 27.4805 6.01654 27.9834C6.51946 28.5005 7.13288 28.8985 7.80863 29.1479C8.35829 29.3618 9.18279 29.6154 10.7029 29.6848C12.3462 29.7599 12.8378 29.7755 17 29.7755C21.1621 29.7755 21.6537 29.7599 23.297 29.6848C24.8171 29.6154 25.6416 29.3618 26.1913 29.1479C26.918 28.8645 27.438 28.5288 27.9834 27.9834C28.5005 27.4805 28.8985 26.867 29.1479 26.1913C29.3618 25.6416 29.6154 24.8171 29.6848 23.297C29.7599 21.6537 29.7755 21.1607 29.7755 17C29.7755 12.8392 29.7599 12.3462 29.6848 10.7029C29.6154 9.18279 29.3618 8.35829 29.1479 7.80863C28.8645 7.08188 28.5288 6.56196 27.9834 6.01654C27.4804 5.49956 26.868 5.10167 26.1913 4.85204C25.6416 4.63813 24.8171 4.38454 23.297 4.31513ZM15.0095 21.8039C16.1211 22.2666 17.3589 22.3291 18.5114 21.9806C19.664 21.6321 20.6598 20.8943 21.3287 19.8931C21.9977 18.892 22.2984 17.6897 22.1794 16.4915C22.0603 15.2934 21.529 14.1737 20.6762 13.3237C20.1325 12.7804 19.4752 12.3644 18.7514 12.1056C18.0277 11.8468 17.2556 11.7517 16.4907 11.8272C15.7258 11.9026 14.9871 12.1467 14.3278 12.5419C13.6686 12.9371 13.1052 13.4735 12.6781 14.1126C12.2511 14.7516 11.9711 15.4775 11.8582 16.2377C11.7453 16.998 11.8024 17.7739 12.0254 18.5094C12.2484 19.245 12.6316 19.922 13.1476 20.4916C13.6637 21.0613 14.2995 21.5095 15.0095 21.8039ZM11.3361 11.3361C12.0799 10.5923 12.9629 10.0023 13.9347 9.5998C14.9065 9.19727 15.9481 8.99009 17 8.99009C18.0518 8.99009 19.0934 9.19727 20.0652 9.5998C21.037 10.0023 21.92 10.5923 22.6638 11.3361C23.4076 12.0799 23.9976 12.9629 24.4001 13.9347C24.8026 14.9065 25.0098 15.9481 25.0098 17C25.0098 18.0518 24.8026 19.0934 24.4001 20.0652C23.9976 21.037 23.4076 21.92 22.6638 22.6638C21.1616 24.1659 19.1243 25.0098 17 25.0098C14.8756 25.0098 12.8383 24.1659 11.3361 22.6638C9.83398 21.1616 8.99009 19.1243 8.99009 17C8.99009 14.8756 9.83398 12.8383 11.3361 11.3361ZM26.7863 10.183C26.9706 10.0091 27.1182 9.80001 27.2202 9.56809C27.3223 9.33617 27.3768 9.08613 27.3805 8.83278C27.3842 8.57942 27.337 8.3279 27.2417 8.09311C27.1465 7.85831 27.0051 7.64502 26.8259 7.46585C26.6467 7.28668 26.4334 7.14528 26.1986 7.05003C25.9638 6.95477 25.7123 6.90759 25.459 6.91128C25.2056 6.91498 24.9556 6.96947 24.7237 7.07153C24.4917 7.17359 24.2827 7.32114 24.1088 7.50546C23.7706 7.86392 23.5855 8.34005 23.5927 8.83278C23.5999 9.3255 23.7988 9.79604 24.1473 10.1445C24.4957 10.4929 24.9662 10.6919 25.459 10.699C25.9517 10.7062 26.4278 10.5211 26.7863 10.183Z" fill="white"/>
</svg>
