<svg width="24" height="24" viewBox="0 0 24 24" fill="none" xmlns="http://www.w3.org/2000/svg">
<path d="M5.036 21.3864C5.19777 21.4706 5.37939 21.5091 5.56138 21.4978C5.74337 21.4865 5.91886 21.4259 6.069 21.3224L19.069 12.3224C19.2018 12.2304 19.3104 12.1075 19.3854 11.9644C19.4603 11.8212 19.4995 11.662 19.4995 11.5004C19.4995 11.3388 19.4603 11.1796 19.3854 11.0365C19.3104 10.8933 19.2018 10.7705 19.069 10.6784L6.069 1.67843C5.91897 1.57462 5.74341 1.51384 5.56131 1.50265C5.37922 1.49146 5.19753 1.53031 5.03593 1.61497C4.87433 1.69963 4.73896 1.82689 4.6445 1.98297C4.55003 2.13905 4.50006 2.31799 4.5 2.50043V20.5004C4.49997 20.683 4.5499 20.862 4.64439 21.0182C4.73887 21.1744 4.8743 21.3017 5.036 21.3864Z" fill="black"/>
</svg>
